<?xml version="1.0" encoding="utf-8"?>
<!-- Generator: Adobe Illustrator 24.0.1, SVG Export Plug-In . SVG Version: 6.00 Build 0)  -->
<svg version="1.1" xmlns="http://www.w3.org/2000/svg" xmlns:xlink="http://www.w3.org/1999/xlink" x="0px" y="0px"
	 viewBox="0 0 600 600" style="enable-background:new 0 0 600 600;" xml:space="preserve">
<style type="text/css">
	.st0{fill:#FFFFFF;}
	.st1{fill:#FFCD5A;}
	.st2{fill:#060A2B;}
	.st3{fill:#52BDFF;}
	.st4{fill:#F1F3F2;}
	.st5{fill:#F0F2F2;}
	.st6{fill:#582839;}
	.st7{fill:#E6EBEA;}
	.st8{fill:#EAEDEA;}
	.st9{fill:#DAE3E2;}
	.st10{fill:#12182F;}
	.st11{fill:#BE2AD1;}
	.st12{fill:#E8ECE7;}
	.st13{fill:#E6E9E7;}
	.st14{fill:#D8E0E0;}
	.st15{fill:#E6EAEA;}
	.st16{fill:#A5C5D2;}
	.st17{fill:#BED2DC;}
	.st18{fill:#C4D7DB;}
	.st19{fill:#D0DBDE;}
	.st20{fill:#030B2C;}
	.st21{fill:#E7ECEC;}
	.st22{fill:#A7C7D1;}
	.st23{fill:#B2C9D2;}
	.st24{fill:#040C2D;}
	.st25{fill:#0B1031;}
	.st26{fill:#83ACC1;}
	.st27{fill:#BCD0DA;}
	.st28{fill:#B8CED9;}
	.st29{fill:#161A36;}
	.st30{fill:#82ABC0;}
	.st31{fill:#8AB7C8;}
	.st32{fill:#09102F;}
	.st33{fill:#DFE2E0;}
	.st34{fill:#F15C46;}
	.st35{fill:#5EA2B6;}
	.st36{fill:#080E2E;}
	.st37{fill:#4596B6;}
	.st38{fill:#E4E7E2;}
	.st39{fill:#E5EAED;}
	.st40{fill:#E7484F;}
	.st41{fill:#060D2C;}
	.st42{fill:#0C1433;}
	.st43{fill:#0B122F;}
	.st44{fill:#7BA9BC;}
	.st45{fill:#A4C1D1;}
	.st46{fill:#050C27;}
	.st47{fill:#0A1130;}
	.st48{fill:#4E8BA6;}
	.st49{fill:#0D142F;}
	.st50{fill:#E4FBFB;}
	.st51{fill:#0C122B;}
	.st52{fill:#0D1431;}
	.st53{fill:#4197B4;}
	.st54{fill:#0F87A9;}
	.st55{fill:#060B28;}
	.st56{fill:#435379;}
	.st57{fill:#0C112D;}
	.st58{fill:#E6E9EC;}
	.st59{fill:#131C3A;}
	.st60{fill:#4898AF;}
	.st61{fill:#113062;}
	.st62{fill:#0C1026;}
	.st63{fill:#11162A;}
	.st64{fill:#D84855;}
	.st65{fill:#0F192E;}
	.st66{fill:#11172F;}
	.st67{fill:#0E132C;}
	.st68{fill:#1B1F32;}
</style>
<g id="Слой_2">
	<circle class="st0" cx="300" cy="300" r="300"/>
</g>
<g id="svg">
	<g>
		<g>
			<path class="st1" d="M365.7,48.1c1.3,0.3,2.5,0.5,3.8,0.9c7,1.5,13.2,3.9,19.9,6.7c1,0.3,1.9,0.8,3,1.2c1.2,0.5,1.2,0.5,2.4,1
				c0,0.3,0,0.8,0,1.1c-11.8,0-22.9-1.7-34.5-4.2c-26.5-6.5-26.5-6.5-53.5-6.6c-0.3,1.1-0.8,2.2-1.1,3.3c1,0.1,1.7,0.2,2.8,0.2
				c57.9,4.9,57.9,4.9,77.6,18.9c0.8,1.1,1.4,2.2,2.2,3.3c-8-0.5-15.7-2.5-23.4-4.3c-30.8-7.3-65.6-6.5-96.8-1.1
				c-1.6,0.3-3.5,0.7-5.2,0.9C245.8,73,226,79,212.5,91.1c4.6-1.6,8.9-4,13.2-6.3c24.4-12.2,50.2-16.5,77.2-16.5
				c2.8,0,5.4,0,8.2-0.1c15.7-0.1,30.3,2.3,45.2,7c1.1,0.3,2,0.7,3.1,1C397,88,397,88,406.6,101.9c0.4,1.1,1,2.2,1.4,3.4
				c2.6,4.5,5.9,6.2,10.3,8.5c1.1,0,2.2,0,3.3,0c0-1.4,0-2.8,0-4.3c5.8,0.4,8.2,2.3,12.5,6.3c1,1,1.9,1.7,3,2.8
				c1.7,1.7,3.7,3.6,5.3,5.3c4.3,4.3,9,8.6,13.5,12.8c2.2,2.1,4.3,4.1,6.6,6.2c1.1,1.1,1.1,1.1,2.3,2.2c1.7,1.6,3.6,3.6,5.2,5.3
				c-0.3,0.8-0.8,1.4-1.1,2.2c-0.8-0.5-1.4-1.1-2.3-1.6c-8.8-6.6-8.8-6.6-18.1-12.3c-0.8,0.8-1.4,1.4-2.2,2.2c1.3,0.8,2.6,1.5,4,2.4
				c34.7,21.4,57.4,51.5,67.9,91.1c1.5,7,2.4,13.2,2.2,20.4c-2.8-2.8-3.6-5.8-4.8-9.3c-16.3-45.8-50.8-80.6-91.7-105.6
				c-1.7-1.1-1.7-1.1-3.7-2.3c-24.5-14.5-50.6-25.9-79-30.1c-1-0.1-1.9-0.3-2.9-0.4c-17.5-2.2-32.8-0.3-48.9,6.3
				c-9.9,4-19,6.1-29.5,6.6c-11.1,0.7-17.7,4.2-25.9,11.3c-1.2,1-1.2,1-2.4,2.1c-24,21.1-41.2,44.8-57,72.5
				c-0.8,1.3-1.4,2.6-2.3,3.9c-3.9,6.8-7.3,13.4-10.1,20.5c-0.3,0.7-0.8,1.4-1.1,2.1c-2.2,0-2.2,0-4.3-2.2
				c-1.2,3.7-1.3,6.7-1.4,10.5c-0.5,8.7-2.5,16.6-5,24.9c-0.8-0.3-1.4-0.8-2.2-1.1c-5.9-21.2-3.9-54,5.3-74.1
				c1.9-3.5,4.1-6.6,6.5-9.7c3.5-4.9,5.3-7.7,5.3-14c-1.2-1.4-1.2-1.4-4-1.4c-4.8,0.5-6.7,2.4-10,5.8c-5,6.8-4.7,12.3-4.4,20.3
				c0.2,7.8,0.2,15.2-1.4,22.8c-1.7,8.8-2,17.5-2,26.5c0,2.2,0,2.2-0.1,4.2c0,6.8,0.4,12.4,2.7,18.8c3.5,10.1,2.6,20.4,2.4,30.8
				c0,3.1-0.1,6.3-0.1,9.3c0,2,0,3.9-0.1,5.6c-0.1,6,0.3,11.6,1.1,17.4c-0.8-0.3-1.4-0.8-2.2-1.1c-1-3.8-1.9-7.5-2.7-11.4
				c-0.2-1.2-0.4-2.3-0.8-3.5c-4.5-21.7-5.2-43.3-5.4-65.4c0-1.5,0-3.1-0.1-4.7c0-9.3,0.9-18.1,2.9-27.2c1-5.6,0.4-11.1-0.4-16.7
				c-0.8,0-1.4,0-2.2,0c0.2,0.7,0.3,1.4,0.5,2.1c1.1,6.7,1.1,11.9-1.5,18.1c-3.8,11-2.8,22.7-2.7,34.1c0,1.2,0,2.5,0,3.7
				c0.1,21.2,1.5,41.6,6.6,62.1c1.2,4.9,1.7,9.6,1.9,14.6c1.3,23,15.3,42.9,30.4,59.3c1.5,1.6,3.1,3.6,4.6,5.2
				c23.4,27.5,56.6,40.7,91.2,46.8c-3.4,3.4-6.5,2.5-11.1,2.5c-31.7-0.4-59.5-18.2-82.2-39.1c-1.7-1.6-3.8-3.4-5.6-4.8
				c-21.4-18.6-44-53.4-47-82.1c-0.1-2.9-0.1-5.8-0.1-8.7c0-1.4,0-2.9,0-4.5c0.1-3.4,0.5-6.2,1.2-9.4c0.7-9.2,0.1-17.8-2.2-26.8
				c-1.9-8.6-2.6-16.6-2.6-25.4c0-1.2,0-2.4,0-3.6c0.1-8.7,0.5-17.4,7-23.9c1.4-0.3,2.8-0.8,4.3-1.1c1.2-4.5,1.4-8.2,1.1-12.9
				c-2.8-3.5-2.8-3.5-6.4-3.8c-3.6,0.3-3.6,0.3-6.5,2.8c-2.9,4-3,6-2.3,10.6c1.5,2.2,1.5,2.2,3.3,4.3c-0.2,4.6-0.8,9-1.5,13.6
				c-1.4,9.7-1.3,19.6-1.5,29.3c-0.1,1.6-0.1,1.6-0.1,3.5c-0.8,25.8,0,53.9,9.8,78.2c0.7,1.4,1.2,3,1.7,4.5c1.2,2.8,2.4,5.6,3.6,8.5
				c0.3,1.1,0.8,2.1,1.1,3.1c-0.3,0.8-0.8,1.4-1.1,2.2c-11.5-15-15.8-30.9-18-49.4c-0.8-5.2-1.5-9.6-4.5-14.1
				c-3.1-1.4-3.1-1.4-6.5-1.1c-3.4,3.3-3.3,5.6-3.7,10.3c0.4,12.3,5.2,23.1,9.7,34.3c3.6,8.9,6.5,18,9,27.2
				c4.2,14.5,10.3,27.5,20.3,39c0.8,0.9,1.4,1.7,2.3,2.8c23.3,27.4,62.3,44.2,97.4,49.3c8.8,0.5,16.4-3.7,24-7.6
				c7.7-3.6,15.7-3.9,24-3.9c1,0,1.9,0,2.9,0c6.4,0,11.9,1,18,2.5c11.1,0.9,19.3-3.3,27.9-9.7c3-2.7,5.6-5.6,8.5-8.6
				c9.2-9.6,19.3-17.1,30.2-24.6c0.9-0.5,1.6-1.2,2.6-1.7c3.5-2.4,6.9-4.7,10.1-7c8.2-5.6,16.4-11.5,24.6-17.4
				c1.4-1.1,3.1-2.3,4.6-3.4c24.5-17.9,40.8-33.5,45.8-64.1c2.5-13.5,6.2-26.3,11-39.1c3-8,4.6-15.1,4.6-23.7c0-1.4,0-1.4,0-2.9
				c-0.1-8.5-1.9-15.7-5.8-23.3c0,0.9-0.1,1.6-0.1,2.6c-0.1,1.6-0.1,1.6-0.2,3.6c-0.1,1.2-0.1,2.3-0.2,3.5c-0.4,3.8-1.2,7.2-2.2,11
				c-1.7,7.5-2.5,15-3,22.7c-1.1,12.9-3,25.4-5.5,38.3c-0.3,1.4-0.7,3.1-1,4.7c-3.5,16.5-7.2,32.2-21.2,42.9
				c1.7-5.5,3.8-11.1,5.8-16.5c3.3-9,5.9-18.2,8.1-27.5c0.2-1,0.5-2,0.8-3c4.3-17.4,5.1-34.6,5.1-52.4c0-1.1,0-2.2,0-3.3
				c0-20.9-0.3-46.4-14.5-63.2c-35.2-35-82.9-48-131.2-48.2c-32.7,0.2-67.1,6.3-93.2,27.2c-1.3,1.1-2.7,2.1-4.1,3.1
				c-0.8-0.3-1.4-0.8-2.2-1.1c26.8-29.4,70.5-35.4,108.4-37.7c5.3-0.2,10.7-0.2,16-0.2c1.4,0,2.8,0,4.2,0c19.8,0,36.9,5.3,55,13
				c2.9,1.4,2.9,1.4,5.2,1.2c-13-6.5-26.4-11-40.6-14.5c-6.9-1.6-13-3.8-19.2-7c-13.4-6-30-1.6-43.2,2.2c-2.6,0.7-5,1.4-7.6,2.1
				c-1.9,0.5-1.9,0.5-4,1.1c-3.5,0.9-6.8,1.7-10.1,2.7c-31.7,8.2-54.8,20.4-74.8,46.9c-1.4,2-3,3.9-4.5,5.8c-1.4,2-1.4,2-3,3.9
				c-0.3-0.8-0.8-1.4-1.1-2.2c1.4-3.4,1.4-3.4,3.7-7.5c0.8-1.4,1.4-2.7,2.2-4.1c11.8-19.3,31.8-41,53.8-47.8c4.3-1,8.7-1.4,13.1-1.7
				c9.2-0.9,17.3-3.3,25.9-6.6c2.2-0.9,4.3-1.5,6.6-2.4c0.9-0.3,1.6-0.7,2.7-1.1c30-9.7,69.1,4.1,96,16.7
				c12.8,6.6,20.9,14.8,28.4,26.9c5.5,8.6,13,14.6,20.9,21.1c7.2,5.8,11.9,11.9,17.1,19.3c1,1.3,1.9,2.7,2.9,4.1
				c14.3,20.3,26.8,45.4,24,71.1c-1.2,3.8-2.6,7.2-4.3,10.7c0.3-0.3,0.8-0.8,1.1-1.1c4.9-2.2,4.9-2.2,7.5-2.2
				c0.8-3.5,0.8-3.5,1.2-7.5c0.3-2.5,0.7-5,1-7.5c0.3,0,0.8,0,1.1,0c0.3,4.6,0.8,9.2,1.1,14c0.8,0,1.4,0,2.2,0
				c-0.7-27.8-4.5-46.4-24-67.3c-4.1-4.5-7.5-9.2-10.9-14.3c-7.3-11-15.5-19.6-25.6-27.8c-2.7-2.2-5.2-4.3-7.8-6.9c-1.1-1-1.1-1-2-2
				c-1.5-1.4-1.5-1.4-1.5-6.9c4.3-1.1,4.3-1.1,7.2,0.2c11.6,7,21.6,15.4,31.4,24.5c0.9,0.8,1.5,1.4,2.5,2.3
				c21.6,20.7,39.1,51,40.7,81.5c0.1,12.4-1.4,24-4.3,36c-0.1,0.9-0.1,1.7-0.2,2.8c1.1,0.3,2.2,0.8,3.3,1.1c3-6.1,3.9-12.2,5.1-18.8
				c1.5-6.3,3.8-11.5,8-16.2c2.9-1.4,2.9-1.4,6.7-1.6c3.7,1.3,3.7,1.3,6,4.5c7.5,16.6-0.2,38.2-6,54c-2.8,7.7-4.1,15.5-5.1,23.7
				c-0.9,5.4-2,10.7-3.5,16c-0.4,1.5-0.9,3.3-1.3,4.8c-1.5,4.7-3.4,8.8-5.8,13.1c-0.3,0-0.8,0-1.1,0c-0.2-7.9,0.7-14.9,2.4-22.6
				c0.5-2.2,1-4.3,1.5-6.6c0.2-1.1,0.5-2.2,0.8-3.3c0.7-2.8,1.2-5.5,1.6-8.2c1.6-8.4,3.9-16,7.2-24c5-12.5,8.6-26.1,6.9-39.6
				c-0.8-1.4-1.4-2.8-2.2-4.3c-3.1-0.9-3.1-0.9-6.5,0c-10.3,13-7.9,33.2-7.9,49.1c0,15.6-1.4,29.4-6.8,44.2c-1.2,4-1.4,6.2-1.3,10.2
				c0.5,25.5-24.7,52.6-40.9,70.5c-1.3,1.4-2.6,3-3.9,4.5c-46.1,52.5-108.3,80-174.9,95.7c-7.7,1.7-15.4,3.8-22.8,6.3
				c-6.8,2.1-12.4,2.8-19.4,2.2c-1.1-0.8-2.2-1.4-3.3-2.2c1.1-4.3,1.1-4.3,4.8-7.2c13-7.6,29.8-10.1,44.6-13.2
				c13.4-3.1,26.6-6.4,39.6-10.7c1-0.3,1.9-0.7,3-1c30.3-10.4,58.3-25.8,82.8-46.3c1.2-1,2.5-2.1,3.7-3c6.4-5.2,12.5-10.7,18.1-16.7
				c1.7-1.6,1.7-1.6,4-1.6c0.8-1.4,1.4-2.8,2.2-4.3c1.7-2,3.8-3.8,5.5-5.5c4.7-4.6,8.8-9.3,12.7-14.9c-1.1,0-2.2,0-3.3,0
				c-0.8-2.7-0.8-2.7-1.1-5.3c-12.7,8.1-24.5,17.6-35.4,27.9c-0.8,0.7-1.5,1.4-2.3,2.1c-3.9,3.8-7.4,7.6-10.7,11.9
				c-17.7,22-38.1,40.3-65.3,49.5c-1.1-0.3-2.2-0.8-3.3-1.1c1-0.8,1.9-1.4,2.9-2.3c20.4-16,38.5-30.8,53-52.5
				c-1.1-0.3-2.2-0.8-3.3-1.1c2.2-7.5,4.8-12.2,9.7-18.3c0.3-1.1,0.8-2.2,1.1-3.3c0.8,0,1.4,0,2.2,0c-0.3-0.3-0.8-0.8-1.1-1.1
				c-0.8-0.8-1.4-1.4-2.2-2.2c0.3-0.8,0.8-1.4,1.1-2.2c-7.4,2.7-11.8,8.7-15.4,15.6c-1.2,2.8-2.3,5.5-3.5,8.4
				c-5.4,13.2-12,22.7-23.2,31.8c-1.4,1.2-2.8,2.5-4.2,3.7c-0.7,0.7-1.4,1.2-2.2,1.7c-6.1,5.3-12.3,10.7-17.9,16.6
				c-4.4,4.5-8.9,7.9-14.3,11.1c-1.1-0.3-2.2-0.8-3.3-1.1c0-5.3,0-5.3,1.1-7.5c-1,0.5-1.9,1.1-3,1.5c-38.3,20.1-82.2,22-124.6,22.5
				c-1.4,0-1.4,0-2.8,0c-6.5,0-12-1.2-16.7-5.8c0.3-1.4,0.8-2.8,1.1-4.3c12.7-6.4,28.7-4.7,42.4-4.8c41.3-0.4,77.5-7.7,112.4-31.1
				c3.4-2,6.8-3.5,10.3-4.8c8.4-3.5,15.5-7.2,21.1-14.5c1.5-4.2,2.2-6.9,1.5-11.3c-4.5-3.5-5.3-3.9-10.7-3.3
				c-5.8,2.4-7.7,7.2-10.3,12.5c-7.4,13.9-16.6,21.9-30.4,29.4c-1.2,0.7-2.3,1.3-3.5,2c-31.7,16.7-65.6,19.5-100.6,14.8
				c-9.6-1.2-19.1-1.5-28.7-1.7c-1.4,0-2.8,0-4.2-0.1c-2.8,0-5.5-0.1-8.5-0.1c-11.7-0.2-22.8-2.1-32.8-8.7c-1-0.7-1.7-1.2-2.8-1.7
				c-2.8-2.3-4.7-4.5-6.8-7.4c0-0.3,0-0.8,0-1.1c13,0.7,25.7,1.6,38.7,3.1c1.7,0.2,3.7,0.4,5.5,0.5c10.1,1.1,20.2,2.2,30.3,3.5
				c1.4,0.2,1.4,0.2,3.1,0.4c4.3,0.5,8.5,1.1,12.7,1.6c33.9,4.9,74,1.4,102.7-18.9c3.7-2.9,3.7-2.9,6.7-6.5
				c-0.2-3.5-0.2-3.5-1.1-6.5c-17.1,3.7-32.4,10.4-48.1,18.1c-34,16.4-71.3,12.6-106.3,1.2c-41.3-15.7-75-46.1-93.4-86.4
				C57.1,359,47.8,309.5,55.3,260.6c0.3-2.3,0.3-2.3,0.8-4.6c6.4-38.5,20.7-75.6,45.4-106c1.3-1.5,1.3-1.5,2.5-3.1
				c29.1-35.7,29.1-35.7,41.6-39.8c-10.2,0-24.6,18.1-31.8,25.1c-30.7,31.1-51,72.6-59.4,115.6c-0.3,1.5-0.7,3.1-1,4.7
				c-9.1,53.4-0.2,110.3,23.5,158.5c1.3,2.7,2.6,5.2,3.8,7.9c0.9,1.6,1.6,3.6,2.5,5.2c7.6,16,7.6,16,6.6,22.2
				c-1.4,0.3-2.8,0.8-4.3,1.1c-22.9-25.1-33.6-65.2-40.8-97.8c-0.5-2.5-0.5-2.5-1.2-4.9c-10-53.8-1.3-110.5,22.7-159.4
				c0.5-1.1,1-2.2,1.5-3.3c7.8-16.3,17.9-30.3,29.6-44.1c0.8-0.9,1.4-1.6,2.3-2.6c1.6-2.1,3.6-4,5.2-6.1c0.7-0.8,1.3-1.5,2-2.4
				c12.5-14.3,26.7-26.1,42-37.3c1.1-0.8,2-1.5,3.1-2.4C212.3,41,293.6,31.9,365.7,48.1z"/>
			<path class="st2" d="M492.3,83.5c3.1,2.8,6.2,5.5,9.2,8.5c0.7,0.7,1.4,1.3,2,2c4.7,4.5,9.1,9.3,13.2,14.3c1,1.2,2,2.3,3.1,3.5
				c14.4,16.5,26.2,34.2,36.6,53.5c1.2,2.2,1.2,2.2,2.4,4.3c12.8,24.6,23,52.1,27.7,79.4c0.3,1.4,0.7,3.1,0.9,4.6
				c2.6,15.1,2.6,30.2,2.6,45.4c0,1.5,0,1.5,0,3.3c-0.1,48.1-10.6,93.3-33.4,136c-0.8,1.4-1.4,2.8-2.3,4.3
				c-12.5,22.8-28.1,42.8-46,61.3c-1.1,1.2-2.3,2.4-3.5,3.6c-6.8,6.9-13.6,13-21.3,19c-1.3,1-2.5,2-3.8,3
				C429.2,568.4,367.3,590,303.4,590c-2.9,0-5.9,0-8.8,0c-16.2,0-32.2-1.3-48.1-4.3c-1-0.2-1.9-0.3-3-0.5
				c-46.2-8.9-89.1-29.3-125.9-58.8c-1.3-1-1.3-1-2.6-2.1c-8-6.5-15.4-13.4-22.6-20.7c-1.2-1.2-2.4-2.4-3.6-3.6
				c-7.7-8-15.1-16-21.5-25.2c-0.7-0.9-1.3-1.6-1.9-2.7c-1.9-2.7-3.8-5.3-5.5-8c-0.8-1.2-1.5-2.4-2.4-3.7
				c-19.6-30.4-36-65.7-41.7-101.7c-0.3-1.4-0.5-3.1-0.9-4.6c-0.9-4.8-1.6-9.8-2.4-14.8c-0.2-1.3-0.3-2.5-0.5-3.8
				c-1.4-10.6-1.9-21.2-1.9-31.9c0-1.6,0-3.4,0-5c0.2-23.9,2.7-47,8.9-70c0.3-1.3,0.3-1.3,0.8-2.7c5.5-20.8,13.8-40.6,24-59.6
				c0.4-0.8,0.9-1.4,1.2-2.4c18.2-34.4,44-66.3,75-90.1c1.1-0.9,2-1.5,3.1-2.5c13.2-10.6,27.9-19.9,43-27.6c1.3-0.7,2.6-1.3,3.9-2.1
				c22.5-11.5,45.5-19.4,70.2-24.7c1.4-0.3,3.1-0.8,4.6-1.1C332.7-3,425.5,25,492.3,83.5z M148.9,89c-1.2,0.9-2.4,1.7-3.7,2.7
				c-6.8,5.1-13.1,10.5-19.4,16.3c-2.4,2.2-4.8,4.3-7.2,6.5c-16.9,14.8-30.7,33-42.7,51.9c-0.7,1-1.3,2-1.9,2.9
				c-15.7,25.2-25,55-30.3,84.1c-0.2,1-0.3,2-0.5,2.9c-11.3,63,3.6,134.4,39.5,187.5c1.7,2.4,1.7,2.4,6,3c0.3-0.3,0.8-0.8,1.1-1.1
				c-0.3-7.3-2.3-12.7-5.3-19.3c-0.4-1-1-2.1-1.4-3.1c-1.1-2.3-2-4.5-3.1-6.7c-18.3-39.3-29.2-78.3-29-122c0-1.1,0-2.1,0-3.1
				c0.2-63.7,24.5-120.6,68.8-166.1c19.3-19.1,19.3-19.1,23.8-19.1c-3.8,3.9-7.5,7.5-11.5,11c-12.9,11.2-24.6,23.5-34.6,37.3
				c-0.5,0.8-1.2,1.5-1.6,2.5c-12.2,16.6-21.5,34.9-28.4,54.4c-0.7,1.5-1.2,3.3-1.7,4.9C43.9,278.2,51.7,346,78,405.1
				c16.8,34.9,42.2,59.5,76.3,77.3c1.4,0.8,2.7,1.4,4.1,2.2c10.4,5.2,21.1,8,32.4,10.7c1.5,0.4,3.1,0.8,4.7,1.2
				c35.5,7.3,64.4,0.4,96.3-15c10.6-5,21.6-8.7,33.2-11c1.2,2.7,1.2,2.7,1.1,6.5c-11.6,16-37.9,22-56.5,25.2
				c-25.8,4-51.4,1-77.2-2.8c-0.9-0.1-1.6-0.2-2.7-0.4c-0.9-0.1-1.7-0.2-2.7-0.4c-11.1-1.4-22-2.6-33.2-3.7c-1-0.1-1.9-0.2-3-0.3
				c-2.8-0.3-5.6-0.5-8.5-0.9c-1.5-0.1-3.4-0.3-5-0.4c-3.7-0.3-7.2-0.4-10.9-0.3c4.8,9.1,13.6,13.1,23.2,16.4
				c4.7,1.4,8.8,2.1,13.6,2.2c1.4,0,2.7,0.1,4.1,0.1c1.4,0,2.9,0.1,4.4,0.1c11.1,0.3,22,0.8,33.2,1.6c1.1,0.1,2.2,0.2,3.4,0.3
				c3.9,0.3,7.7,0.7,11.5,1.4c37.1,5.6,76.1-3.7,106.7-25.2c9.1-7,14.3-14.4,19.4-24.5c2.4-4.7,4.2-7.8,9.1-10
				c5.3-0.7,6.2-0.2,10.7,3.3c0.7,4.3,0.1,7.2-1.4,11.3c-6.4,8.5-15.6,12.4-25,16.5c-5.4,2.7-10.6,5.5-15.9,8.7
				c-34.4,20-67,24.6-105.8,25.2c-21.4-1-21.4-1-40.6,6c0.8,4.7,0.8,4.7,5.3,7.5c42,10.5,104.4-2.3,141.6-22.6
				c-0.2,1.2-0.5,2.5-0.8,3.7c-0.1,1.3-0.2,2.6-0.3,3.9c1.1,0.3,2.2,0.8,3.3,1.1c9.1-4.8,16.2-12.8,23.4-20.1c4.6-4.7,9.4-9,14.8-13
				c13.1-10.3,19.8-21.4,25.7-36.9c3-7.5,6.9-13.7,13.8-18.1c1.4-0.5,1.4-0.5,2.8-1c-0.3,1.1-0.8,2.2-1.1,3.3
				c0.8,0.3,1.4,0.8,2.2,1.1c-0.3,0.3-0.8,0.8-1.1,1.1c-0.8,1.4-1.4,2.8-2.2,4.3c-1.1,1.4-2.2,3.1-3.3,4.6
				c-2.8,4.1-4.3,7.7-5.3,12.6c1.1,0.3,2.2,0.8,3.3,1.1c-13.5,19.9-29.4,34.9-48.6,49.3c-2.6,2.1-4.9,4.2-7.2,6.7
				c23.8-3.7,46.6-22.6,61.3-40.8c16-19.9,34.3-36.6,55.7-50.6c0.1,0.9,0.2,1.6,0.3,2.7c0.2,0.9,0.5,1.6,0.8,2.7c1.1,0,2.2,0,3.3,0
				c-5.6,7.3-11.7,14.1-18.3,20.4c-2.3,2-2.3,2-2,4.3c-1.4,0.8-2.8,1.4-4.3,2.2c-1.7,1.6-3.6,3.6-5.2,5.2
				c-6.7,6.9-13.9,12.6-21.6,18.4c-1.2,1-2.5,2-3.8,2.9c-38.6,29.4-82.8,43.2-129.5,54.2c-19.6,3.9-19.6,3.9-36.3,13.9
				c0.3,1.4,0.8,2.8,1.1,4.3c8.4,4.2,19.8-0.2,28-2.8c9.9-3,19.8-5.6,29.8-8c18.8-4.3,36.9-9.6,54.8-17c1.5-0.7,3.1-1.3,4.7-2
				c29.7-12.8,56.9-30.4,80.5-52.5c2.3-2.2,4.6-4.1,6.9-6.2c4.8-4.2,9.2-8.7,13.6-13.1c2.5-2.5,2.5-2.5,4.6-3.6
				c0.8,1.1,1.4,2.2,2.2,3.3c1.4,0.8,2.8,1.4,4.3,2.2c-2.5,2.7-5,5.3-7.5,8.1c-0.7,0.8-1.4,1.4-2.2,2.3c-4.7,5.1-9.8,9.8-15.1,14.3
				c-1.2,1.1-2.5,2.2-3.7,3.4c-38.7,34.4-86.2,58.3-136.5,69.7c-2.7,0.7-5.2,1.4-7.8,2.3c-0.8,1.4-1.4,2.8-2.2,4.3
				c1.3,1.4,1.3,1.4,4.8,1.3c46.8-1.6,96.6-31,132.5-59.3c1.5-1.3,1.5-1.3,3.3-2.5c19.3-15.5,38-33.2,52.6-53.4
				c0.5-0.8,1.1-1.4,1.5-2.2c17.8-24.2,41.3-61,41.3-92.4c0.8,0,1.4,0,2.2,0c0-0.8,0-1.4,0-2.2c0.8,0,1.4,0,2.2,0
				c-10,44.7-28.5,83.7-59.6,117.5c-2.3,2.5-4.4,4.8-6.6,7.4c-6,7-12.7,13-19.6,19.1c-1,0.9-1.9,1.6-2.9,2.6
				c-9.9,8.7-20.5,16-31.4,23.2c-1.4,1-2.9,2-4.3,2.9c-18.3,11.8-37.6,20.8-57.7,29.1c-1.4,0.5-2.8,1.1-4.2,1.6
				c-1.3,0.5-2.5,1-3.8,1.4c-3,1.2-3,1.2-5,3.5c31.9,2.9,68.2-23.9,92.3-41.9c1.3-1,2.5-1.7,3.8-2.8c18.1-13.6,35.5-29.1,49.9-46.7
				c1.1-1.2,2-2.5,3.1-3.7c30.8-36.9,55-86.7,55-135.2c0.8-1.4,1.4-2.8,2.2-4.3c0.5-6.1,0.3-12,0.3-18.1c0-1.6,0-3.5,0-5.2
				c-0.1-14.8-1-29.5-4.2-43.9c-0.8-4-0.9-8-1.1-12c-0.1-1.5-0.2-3.4-0.3-4.9c-0.1-1.3-0.1-2.5-0.2-3.8
				c17.4,66.5,9.3,136.9-25.3,196.7c-9.4,15.3-20.5,29.3-32.6,42.5c-2,2.3-4.1,4.6-6.1,7c-3.1,3.7-6.6,6.7-10.1,9.8
				c-1.9,1.6-3.7,3.5-5.4,5.2c-9.6,9.7-21.3,17.4-32.3,25.2c-4.3,2.8-4.3,2.8-7.3,6.7c27.6-7.7,56.1-35,74-56.9c0-0.8,0-1.4,0-2.2
				c0.8,0,1.4,0,2.2,0c44.7-53.7,64.6-121.8,58.7-191.3c-1.5-13.9-4.3-27.5-8.2-40.8c-0.4-1.4-0.9-2.8-1.3-4.3
				c-3-10-6.6-19.4-10.4-29c-0.8-1.6-1.4-3.5-2.2-5.2c-10.2-24.9-23.7-47.1-42-66.7c-1.9-2.2-1.9-2.2-5.1-6.5c-0.8,0-1.4,0-2.2,0
				c-0.8-1.4-1.4-2.8-2.2-4.3c-1.9-1.6-3.9-3.6-5.8-5.1c-2-1.6-4.1-3.6-6.1-5.2c-20.7-18.9-20.7-18.9-45.6-28c-1,0.1-1.9,0.2-3,0.4
				c1.4,5.5,3.9,6.6,8.6,9.7c-1.4,0.8-2.8,1.4-4.3,2.2c-2.2-1.2-2.2-1.2-4.5-3.1c-10.6-8-24.4-14-37.8-14.4
				c-7.4-0.4-14.1-2.1-21.3-4c-4.9-1.2-9.7-1.6-14.8-2.1c3.7,3.7,8.8,4.5,13.5,6.1c12.9,4.3,25.2,9.2,36.2,17.4
				c3.7,2.8,6.4,3.8,10.9,4.3c12.6,1.5,22,13.2,30,22.6c5,6,11.1,11,16.9,16c31.2,27.1,53.8,65.2,63.2,105.5c0,5.3,0,5.3-1.1,6.5
				c-0.1-0.8-0.2-1.5-0.4-2.4c-0.7-3.4-0.7-3.4-2.8-7.3c-0.7-2.5-1.3-4.8-1.9-7.3c-10.7-40.8-35.2-70.4-71-91.5
				c0.8-0.8,1.4-1.4,2.2-2.2c3.4,2,6.5,4,9.7,6.3c1.6,1.2,3.6,2.5,5.2,3.7c2.2,1.4,2.2,1.4,4.4,3c0.8,0.3,1.4,0.8,2.2,1.1
				c-2.4-4.8-5.4-7.9-9.2-11.6c-0.7-0.7-1.4-1.4-2-2.1c-4.7-4.6-9.4-8.9-14.4-13.1c-1.7-1.7-3.6-3.6-5.3-5.3
				c-1.6-1.6-3.6-3.5-5.2-5.1c-0.9-0.9-1.6-1.6-2.7-2.6c-3.1-2.3-5.3-2.8-9.2-3.1c0,1.4,0,2.8,0,4.3c-4.8-1.2-7.7-2.6-11.8-5.3
				c-1.4-2.4-2.7-4.7-4-7.2c-10.3-18-40.5-23.5-59.1-28.7c-1-0.3-1.9-0.5-2.9-0.9c-1-0.2-1.7-0.5-2.8-0.8c-1.2-0.3-1.2-0.3-2.5-0.7
				c-10.3-2.3-20.9-2-31.6-2c-1.4,0-1.4,0-2.9,0c-13.7,0-26.9,0.4-40.4,3.6c-2.5,0.5-2.5,0.5-5,1.1c-16.8,4-32.6,10.7-47.5,19.3
				c15.5-15.5,41.6-21.7,62.3-24.6c1.4-0.2,2.9-0.4,4.3-0.7c12.6-1.5,25.1-1.6,37.7-1.6c1.6,0,3.5,0,5.1,0c14.8,0,29,1.5,43.3,4.6
				c1.3,0.2,1.3,0.2,2.7,0.5c4.1,0.9,8.1,1.6,12.2,2.8c4.2,1.2,4.2,1.2,9.3,1c-18.1-21.2-57.4-20.3-82.6-22.6
				c0.3-1.1,0.8-2.2,1.1-3.3c8.9-1.3,18.2,0.3,27,1.7c1.2,0.2,2.4,0.4,3.7,0.5c9.8,1.5,19.5,3.6,29.3,5.4c9.3,1.7,18.6,2.7,28.1,2.9
				c-2.7-2.7-4.8-3.3-8.4-4.3c-6.4-2.1-6.4-2.1-9-3.3c-4.4-1.6-9-2.7-13.6-3.8c-1.1-0.2-2-0.4-3.1-0.8C288.2,31,208.6,43.8,148.9,89
				z"/>
			<path class="st3" d="M301.5,141.4c1.4,0,1.4,0,3.1,0c2.2,0,4.3,0,6.5,0c3.3,0,6.5,0,9.7-0.1c12.2-0.1,23.5,0.8,35.4,3.6
				c1.5,0.3,1.5,0.3,3,0.7c28.3,6.4,55.4,20.2,71.7,44.8c7,11.6,10.1,22.9,12.2,36.1c3.5-7.4,1.2-14-1.4-21.3
				c-4.2-10.3-9.7-18.7-16.8-27.1c0.8-0.3,1.4-0.8,2.2-1.1c0-1.1,0-2.2,0-3.3c9.3,3.1,17.8,11.9,22.5,20.4
				c8.5,18.6,9.2,38.5,9.1,58.5c0,1.1,0,2.2,0,3.4c-0.1,17.9-1.4,34.8-5.9,52.2c-0.4,1.7-0.4,1.7-0.9,3.6
				c-3.5,13.5-7.4,26.7-13,39.4c1.3-1.4,2.7-2.7,4-4.1c0.8-0.8,1.4-1.4,2.3-2.3c6.4-8.6,8.9-18.4,11.2-28.7c0.3-1.3,0.5-2.5,0.9-3.8
				c0.5-2.5,1.1-4.8,1.5-7.3c0.5-2.6,1.1-5.1,1.6-7.7c2.4-11.2,3.3-22.5,4.2-33.9c0.7-7.9,1.7-15.4,3.8-23.1c1-4,1.3-7.9,1.4-12
				c0.1-2.1,0.1-2.1,0.2-4.2c0-1,0.1-2.1,0.1-3c8.5,11.3,9,25,7.5,38.7c-1.3,6-3.3,11.5-5.3,17.1c-1.3,3.6-2.6,7.2-3.8,10.6
				c-0.3,1-0.7,1.7-1,2.8c-2.6,7.7-4.1,15.5-5.4,23.4c-7.3,40.9-41.7,60.7-73.5,82.9c-3.6,2.5-7.2,4.9-10.7,7.3
				c-12.7,8.5-24.4,17.4-35.1,28.3c-9.2,9.4-17.6,16.8-31.2,17.6c-4.5-0.2-4.5-0.2-9-1.3c-5.5-1.2-10.7-1.4-16.4-1.4c-1,0-2,0-3,0
				c-11.8,0.2-20.6,3.5-31.2,8.6c-8.9,4.3-18.1,2.7-27.6,0.3c-1-0.2-1.9-0.4-2.9-0.8c-35.3-9.1-71.9-28.1-91.7-59.7
				c-7.4-12.6-11.9-24.6-15.7-38.8c-2.6-8.9-6-17.4-9.3-26c-4-10.2-6.9-19.5-6-30.5c1.6-4,1.6-4,4.3-6.5c3.4-0.1,3.4-0.1,6.5,1.1
				c3.5,4.5,4,6.7,4.8,12.2c0.3,1.4,0.5,3.1,0.9,4.6c0.2,1.4,0.5,3.1,0.8,4.7c2.7,15.7,7,28.7,16.1,41.9c-0.5-1.4-1.2-2.8-1.6-4.3
				c-12.3-30.8-15.3-61.6-14.3-94.5c0-1.7,0-1.7,0.1-3.6c0.1-3.5,0.2-6.9,0.3-10.4c0-1,0.1-2.1,0.1-3.1c0.2-6.2,1.1-11.9,2.3-17.9
				c0.7-3.1,0.7-3.1,0.4-8c-1.1-1.4-2.2-2.8-3.3-4.3c-0.5-4.5-0.5-6.8,2-10.6c2.7-2.7,3.7-3.4,7.5-3.7c3.4,0.3,3.4,0.3,5.9,2
				c2.5,3.9,2.2,6.8,1.6,11.3c-0.8,1.4-1.4,2.8-2.2,4.3c-1.1,0.2-2,0.3-3.1,0.5c-3.5,1.3-3.5,1.3-4.3,4.1c-1.9,8-2.8,15.6-2.7,23.9
				c0,1.7,0,1.7,0,3.7c0.1,9.2,1.5,17.5,3.8,26.6c1.5,7.9,2,16.5,0.4,24.5c-4.9,25.1,8.9,52.5,22.3,73.1
				c5.2,7.6,11.1,14.6,17.5,21.4c2.6,2.8,2.6,2.8,4.6,5.3c17.9,21.4,50.7,41.7,78.6,44.7c6.5,0.2,12.9,0.2,19.3,0
				c-1.3-0.2-2.5-0.4-3.8-0.7c-16.1-3.1-30.9-7.8-45.6-15.5c0.3-0.8,0.8-1.4,1.1-2.2c1.1,0,2.2,0,3.3,0c0.3-1.1,0.8-2.2,1.1-3.3
				c3.9-0.2,3.9-0.2,7.5,0c0,0.8,0,1.4,0,2.2c11.1,3.5,22.6,3.6,34.1,3.6c1.3,0,2.6,0,4,0c18.7-0.1,38.6-3.7,55.4-12.2
				c-1.1-0.3-2.2-0.8-3.3-1.1c0.3-1.4,0.8-2.8,1.1-4.3c-0.8,0.3-1.5,0.7-2.3,1c-10.1,3.9-20.4,6.4-30.9,8.7
				c-1.2,0.2-2.4,0.5-3.6,0.8c-1.1,0.2-2,0.4-3.3,0.7c-2.9,0.8-5.5,1.6-8.2,2.9c-20.5,4.7-44.6-1.4-63.3-9.7c-1.9-0.8-1.9-0.8-4-1.5
				c-1.2-0.8-1.2-0.8-2.5-1.5c0.3-1.4,0.8-2.8,1.1-4.3c-1.1,0.3-2.2,0.8-3.3,1.1c-2.8-0.7-2.8-0.7-5.3-2.2c-1.3-3.6-1.2-5,0-8.6
				c-1-0.3-1.9-0.5-3-0.9c-3.8-1.2-3.8-1.2-8-4.3c0-0.8,0-1.4,0-2.2c1.1-0.3,2.2-0.8,3.3-1.1c-0.9-0.5-1.6-1-2.7-1.4
				c-4.8-3.6-8.5-7.8-12.4-12.5c3.3,0,3.3,0,7.5,1.1c0-0.8,0-1.4,0-2.2c-0.8-0.2-1.4-0.5-2.3-0.9c-6-2.6-10.1-7-13.8-12
				c0.3-0.8,0.8-1.4,1.1-2.2c2.2,1.7,4.3,3.6,6.5,5.3c4.7,3.1,9.9,5.2,15.1,7.5c1.1,0.4,2,1,3.1,1.4c18.7,8.5,18.7,8.5,38.7,11.5
				c0-0.8,0-1.4,0-2.2c0.9,0,1.6,0,2.6,0c31.6-0.1,55.9-6.6,83-23.1c2.9-1.6,5.8-3.5,8.7-5.1c9.9-5.5,17.7-12.2,25.8-20.2
				c1.1-1,2.2-2,3.3-3c24.3-23,42.1-53.9,44.4-87.7c0.5-25.2-7.9-46.6-24.9-65.1c-2.5-2.6-2.5-2.6-6.6-5.4c0-0.8,0-1.4,0-2.2
				c3.3-1.2,3.3-1.2,6.5-2.2c-6.6-4.3-13-7.5-20.4-10.5c-3.7-1.4-7.2-3-10.7-4.5c0-0.3,0-0.8,0-1.1c27.1,1.3,49.4,16.4,67.6,35.5
				c7.2,8.7,12.6,18.1,17.4,28.2c0.7,1,1.3,2,1.9,2.9c1.4-0.3,2.8-0.8,4.3-1.1c-10.3-27.4-26.5-47.8-53.6-60.4
				c-21.8-9.1-45.3-11.7-68.7-11.7c-1.5,0-3.3,0-4.8,0c-15.7,0-30.7,1.4-45.9,5.5c-1.1,0.3-2.2,0.5-3.3,0.9
				c-5.6,1.4-5.6,1.4-11.2,3.7c-2.5,1.1-2.5,1.1-5.6,0c9.3-4.7,18.7-7.6,28.8-10.1c1.2-0.3,2.3-0.5,3.5-0.9
				C281.3,142.5,291.1,141.4,301.5,141.4z M368.8,170.7c1.1,2.2,1.1,2.2,1.1,2.2L368.8,170.7z"/>
			<path class="st4" d="M368.9,174.1c16.1,14.3,26.3,34.2,28.9,55.6c1.9,36.5-13.2,66.7-36.9,93.6c-1.5,1.6-3.4,3.6-4.9,5.2
				c-1.2,1.2-2.3,2.4-3.5,3.7c-14.5,15.3-31.9,24.9-50.2,35c-1.3,0.7-2.5,1.4-3.8,2.2c-9,4.8-18.7,7.8-28.4,10.7
				c-1.9,0.7-1.9,0.7-3.9,1.3c-7.2,1.4-14.2,1.3-21.6,1.3c-2.3,0-2.3,0-4.5,0c-15.2,0-28-3.6-42-9c-0.9-0.3-1.5-0.7-2.5-1
				c-14.9-5.6-27.6-11.9-36.2-25.9c-1.4-4.3-1.4-4.3-2.2-7.5c0.7,0.8,1.4,1.4,2,2.2c13.5,13.1,25.1,20,44.5,19.9
				c6.9-0.7,12.7-3,19-5.4c7.7-2.7,13.9-2.7,21.5,0.7c5,2.8,8.7,6.7,12.7,10.7c3.9,3.9,7.2,5.3,12.7,5.4c13.5-0.7,22.7-6.1,32.6-15
				c6.4-5.8,12.7-8.8,20.9-11.2c16-6.1,30.2-23.9,40.3-37.2c1.1-1.4,2-2.8,3.1-4.2c15.1-20.5,25.2-42.2,25.1-67.9c0-1.6,0-1.6,0-3.6
				c-0.1-9.2-1.4-17.6-4.7-26.4c-0.3-0.9-0.7-1.7-1-2.8c-5.1-12.5-13.6-26.4-25.8-32.7c-9-3.6-17-1.5-25.7,2.2
				c-1.3,0.7-2.6,1.4-4,2.1c-3.9,1.7-7.3,3-11.4,4.1c-12.5,3.8-21.3,11.6-27.6,22.8c-4.5,9-4.7,16.2-4.3,26.3
				c0.7,18.1-2.3,32.1-14.1,46.1c-6.7,7-13.7,11.1-22.4,15.2c-6.2,3.1-10.2,5.1-13.7,11.4c-1.6,9,0.4,16.1,5.3,23.7
				c2.7,3.8,5.5,7.2,8.6,10.7c0.9,1.2,1.6,2.3,2.6,3.5c4.9,5.2,11.2,10.1,18.5,10.7c15.9,0.3,34.6-5.4,47.1-15.7
				c3.7-3.6,6.4-7.6,9-12c5.9-7.4,14.1-11.1,22.5-15c1.5-0.8,1.5-0.8,3.1-1.4c2.6-1.2,5-2.4,7.6-3.6c0,9.3-14.2,20.5-20.4,26.9
				c-7.2,7-13.5,12.8-23.2,15.9c-9.7,3.3-16.1,8.6-23.5,15.5c-8,6.4-18.1,9.4-28.4,8.4c-4.4-2.2-7.3-5.1-10.6-8.6
				c-6.1-6.3-12.8-9.2-21.5-10.1c-7.3,0-13.8,3.3-20.5,5.8c-10.2,4-21.6,3.5-31.7-0.9c-11.1-5.5-21.4-14-25.4-26.1
				c-9.9-38.1-2.6-75.7,17-109.4c3.9-6.3,8.5-11.8,13.2-17.4c0.9-1,1.5-2,2.5-3c5.6-6.7,12-12.2,19-17.4c0.9-0.7,1.6-1.3,2.6-2
				C253.2,149.2,325.4,137.7,368.9,174.1z"/>
			<path class="st5" d="M365.7,48.1c1.3,0.3,2.5,0.5,3.8,0.9c7,1.5,13.2,3.9,19.9,6.7c1,0.3,1.9,0.8,3,1.2c1.2,0.5,1.2,0.5,2.4,1
				c0,0.3,0,0.8,0,1.1c-11.8,0-22.9-1.7-34.5-4.2c-26.5-6.5-26.5-6.5-53.5-6.6c-0.3,1.1-0.8,2.2-1.1,3.3c1,0.1,1.7,0.2,2.8,0.2
				c57.9,4.9,57.9,4.9,77.6,18.9c0.8,1.1,1.4,2.2,2.2,3.3c-8-0.5-15.7-2.5-23.4-4.3c-30.8-7.3-65.6-6.5-96.8-1.1
				c-1.6,0.3-3.5,0.7-5.2,0.9C245.8,73,226,79,212.5,91.1c4.6-1.6,8.9-4,13.2-6.3c24.4-12.2,50.2-16.5,77.2-16.5
				c2.8,0,5.4,0,8.2-0.1c15.7-0.1,30.3,2.3,45.2,7c1.1,0.3,2,0.7,3.1,1C397,88,397,88,406.6,101.9c0.4,1.1,1,2.2,1.4,3.4
				c2.6,4.5,5.9,6.2,10.3,8.5c1.1,0,2.2,0,3.3,0c0-1.4,0-2.8,0-4.3c5.8,0.4,8.2,2.3,12.5,6.3c1,1,1.9,1.7,3,2.8
				c1.7,1.7,3.7,3.6,5.3,5.3c4.3,4.3,9,8.6,13.5,12.8c2.2,2.1,4.3,4.1,6.6,6.2c1.1,1.1,1.1,1.1,2.3,2.2c1.7,1.6,3.6,3.6,5.2,5.3
				c-0.3,0.8-0.8,1.4-1.1,2.2c-0.7-0.5-1.3-1-1.9-1.4c-7.6-5.6-15.6-10.6-23.9-15.4c-3.4-2-6.6-3.9-9.8-5.8
				c-4.5-2.7-9.1-4.9-13.8-7.2c-7.7-3.8-13.2-8.1-19.3-14.2c-13.7-13.4-29.6-21.5-48.2-25.3c-1.5-0.3-1.5-0.3-3.4-0.7
				c-57-11.6-112.1,0.8-160.4,32.3c-12.9,8.8-24.6,18.4-35.9,29.1c-1.1,1-2.2,2.1-3.3,3c-18,17.3-31.7,38.7-43.2,60.8
				c-4.3,8.4-4.3,8.4-8.2,11.4c-0.8,0-1.4,0-2.2,0c1.7-20.6,16-40.6,27.9-56.9c1-1.3,1-1.3,1.7-2.6c5.3-7.2,11.4-13.5,17.5-20
				c0.8-0.9,1.5-1.6,2.4-2.6c5.6-6.1,12-11,18.6-16c3.4-2.6,6.6-5.2,9.7-7.9c5.3-4.3,11.1-7.9,17-11.5c2.8-1.4,2.8-1.4,3.9-3.9
				c-0.8,0.3-1.5,0.8-2.4,1.1c-9.2,4-18.3,6.7-28.3,8.4c-12.8,3.5-21.3,11.5-30.4,20.6c-0.9,0.9-1.6,1.5-2.6,2.5
				c-7.9,7.6-14.5,16.4-21.1,25.2c-2.8,3.8-4.7,6.4-8.9,8.4c-1.4,0.8-1.4,0.8-2.8,1.4c-1,3.7-1,3.7-1.1,7.5c-0.8,5-2.9,8.4-5.5,12.7
				c-18,31.6-24.9,68.2-24.7,104.2c0,2.8,0,5.6,0,8.5c0,11.7,0.8,23.1,2.5,34.6c0.2,1.2,0.3,2.4,0.5,3.6c5,32.6,16.4,64.2,36,91
				c0.7,1,1.4,1.7,2,2.8c25.4,33.5,63,51.7,104.1,57.8c25.3,3,45.9-2,68.6-13.2c12-6.1,23.3-11.1,36.5-14.1c5.1-1.2,10-2.9,15-4.7
				c2.4-0.7,2.4-0.7,5.5,0.4c-5.3,8.1-8.8,13.4-18.7,15.6c-14.5,3.4-27.9,10-41.2,16.3c-34,16.4-71.3,12.6-106.3,1.2
				c-41.3-15.7-75-46.1-93.4-86.4c-20.1-44.7-29.4-94.1-21.8-143c0.3-2.3,0.3-2.3,0.8-4.6c6.4-38.5,20.7-75.6,45.4-106
				c1.3-1.5,1.3-1.5,2.5-3.1c29.1-35.7,29.1-35.7,41.6-39.8c-10.2,0-24.6,18.1-31.8,25.1c-30.7,31.1-51,72.6-59.4,115.6
				c-0.3,1.5-0.7,3.1-1,4.7C44.6,305,53.5,362,77.2,410.2c1.3,2.7,2.6,5.2,3.8,7.9c0.9,1.6,1.6,3.6,2.5,5.2c7.6,16,7.6,16,6.6,22.2
				c-1.4,0.3-2.8,0.8-4.3,1.1c-22.9-25.1-33.6-65.2-40.8-97.8c-0.5-2.5-0.5-2.5-1.2-4.9c-10-53.8-1.3-110.5,22.7-159.4
				c0.5-1.1,1-2.2,1.4-3.3c7.8-16.3,17.9-30.3,29.6-44.1c0.8-0.9,1.5-1.6,2.3-2.6c1.6-2.1,3.6-4,5.2-6.1c0.7-0.8,1.3-1.5,2-2.4
				c12.5-14.3,26.7-26.1,42-37.3c1.1-0.8,2-1.5,3.1-2.4C212.3,41,293.6,31.9,365.7,48.1z"/>
			<path class="st6" d="M352.9,70.6c6.7,0.4,12.7,1.4,19.1,3.3c5.5,1.4,10.6,2.4,16.4,2.6c16.3,0.9,30.5,8.8,43.8,17.9
				c1.1-0.8,2.2-1.4,3.3-2.2c-1.4-1-2.8-2.1-4.3-3c-2.4-1.6-2.4-1.6-4.3-3.5c0-1.1,0-2.2,0-3.3c13.5-1.7,27.5,10.6,37.6,18.3
				c5.1,4.2,10.1,8.5,15.1,12.9c1,0.9,2,1.6,3.1,2.7c2.3,2,4.3,4,6.6,6c0,0.8,0,1.4,0,2.2c1.1,0.3,2.2,0.8,3.3,1.1
				c2.6,2.8,5,5.5,7.5,8.6c1,1.2,2,2.4,3,3.7c7.2,8.8,13.6,17.9,19.5,27.5c0.8,1.2,1.5,2.5,2.3,3.7c11.6,19.4,20.3,41.1,26.7,62.9
				c0.7,2.1,0.7,2.1,1.2,4.1c2.8,10.1,4.7,20.1,6.4,30.3c0.2,1.1,0.3,2.2,0.5,3.3c1.6,10.5,1.9,20.8,1.9,31.5c0,1.3,0,1.3,0,2.7
				c-0.2,58.1-18.6,112.1-54.4,157.7c-2.8,3.5-2.8,3.5-4.9,6.8c-0.8,0-1.4,0-2.2,0c-0.8,1.4-1.4,2.8-2.2,4.3c-2.3,2.7-4.6,5.1-7,7.7
				c-0.7,0.8-1.4,1.4-2,2.2c-14.9,15.7-40.8,41.7-62.8,44.8c3.9-4.1,7.8-7.3,12.5-10.5c9.8-6.9,18.8-14.5,27.8-22.6
				c1.7-1.5,3.7-3.3,5.4-4.8c4.8-4.3,9.3-8.6,13.5-13.5c2.3-2.7,4.6-5.1,7-7.6c32.1-35.3,53.3-81.7,59.4-128.9
				c0.2-1.4,0.4-2.9,0.7-4.3c4.7-35.9,0.9-70.4-8.1-105.3c0.3,1.4,0.8,2.8,1.1,4.3c0.2,2.7,0.3,5.3,0.4,8c0.4,9,1.6,17.8,3.1,26.7
				c1.6,11.5,2,22.7,2.2,34.3c0,2.7,0,2.7,0.1,5.3c0,2.6,0,2.6,0,5.1c0,1.4,0,3,0,4.6c-0.4,4.1-1.3,6.1-3.7,9.3
				c0.3,0.3,0.8,0.8,1.1,1.1c0.9,51.1-28.8,103.7-62.2,140.3c-1.9,2.2-3.9,4.3-5.8,6.7c-9,10.3-19,19.6-29.8,28.1
				c-1.5,1.2-2.9,2.4-4.4,3.5c-26.5,21.4-65.9,51.8-101.7,49.4c3.9-2.9,6.8-4.3,11.2-6.2c2-0.9,2-0.9,4.1-1.6
				c1.5-0.5,2.9-1.2,4.4-1.7c69.5-28.7,131.9-81.1,161.6-151.5c5.8-15.3,10.8-31.1,13.7-47.3c-0.8,0-1.4,0-2.2,0c0,0.8,0,1.4,0,2.2
				c-0.8,0-1.4,0-2.2,0c-0.5,2.7-1,5.3-1.4,8c-10.4,54.4-49.2,104.8-91.9,138c-1.2,1-2.4,2.1-3.7,3c-34.8,28.8-91.1,62.1-137.9,60.3
				c0-1.4,0-2.8,0-4.3c5.6-2.7,11.8-4.1,17.8-5.5c43.2-11,84.2-31.1,118.4-59.9c1.6-1.4,1.6-1.4,3.5-2.9
				c12-10.2,24.1-20.5,34.1-32.6c-1.3-0.3-1.3-0.3-2.6-0.8c-2.8-1.4-2.8-1.4-4.3-3.9c-0.2-1-0.4-2-0.7-2.9c1.5-2.5,1.5-2.5,4.4-5
				c15.4-15.9,30.9-37.9,36.4-59.4c-0.2-2.4-0.2-2.4-0.3-4.7c-0.1-8.5,2.8-16.4,5.2-24.6c2.2-7.2,2.8-13.2,2.8-20.7
				c0-2.1,0.1-4.1,0.1-6.3c0-3.3,0.1-6.5,0.1-9.7c0.3-35.9,0.3-35.9,9.2-44.8c3.1-0.4,3.1-0.4,6.5,0c5.1,6.7,3.7,14.2,2.8,22.1
				c-1.3,8.5-3.8,16-7,24c-4.8,11.9-7,24-9.1,36.6c-0.9,4.5-2,8.9-3.3,13.2c-0.9,3.9-0.9,7.5-0.7,11.5c3.3-6.7,5.3-13,7.2-20.3
				c0.3-1.4,0.3-1.4,0.7-3c1.4-6.3,2.5-12.4,3.5-18.8c1.3-8.1,3.7-15.3,6.6-22.9c4.5-11.7,5.1-22.7,5.4-35c0.3-4.3,0.3-4.3,2.5-6.5
				c0.4-7.2-0.2-13.5-2.2-20.4c-1.4-0.3-2.8-0.8-4.3-1.1c0,1.4,0,1.4,0.1,3.1c0,3.4,0,3.4-1.1,5.4c-2.6,0.2-2.6,0.2-5.3-1.1
				c-0.9-3.3-1.5-6.4-2.2-9.7c-9.3-47.3-35.9-90.1-73.5-120.2c-5.1-4.2-9.6-8.9-13.7-14c-7-8-15.4-15.4-26.2-16.9
				c-4.7-0.9-7.4-2.5-11.2-5.3c-11.6-8.9-25.9-13.1-39.5-18c-2.5-0.9-5-1.7-7.5-2.8C352.9,71.4,352.9,71,352.9,70.6z"/>
			<path class="st3" d="M359.6,175.1c5.3,3.6,8,6,11.4,11.6c-4.3,0-8.5,0-12.9,0c0.9,0.9,1.6,1.5,2.6,2.5c2.8,2.9,2.8,2.9,3.9,6.2
				c1.6,0,3.6,0,5.3,0c0,1.1,0,2.2,0,3.3c-1.2-0.1-2.5-0.2-3.7-0.3c-1.3,0.1-2.6,0.2-3.9,0.3c-1.2,2.3-1.2,2.3-1.1,5.3
				c-0.2,1.2-0.5,2.5-0.9,3.7c-0.7,3.9-0.7,3.9,1.5,7.3c0.4,1,1,2.1,1.4,3c-1.6,2.6-1.6,2.6-4.3,4.3c-1.4,0-2.8,0-4.3,0
				c-1.2-2.6-1.2-2.6-2.2-5.3c-0.8-0.3-1.4-0.8-2.2-1.1c-0.2,1.5-0.2,1.5-0.4,3.3c-0.2,1.1-0.4,2.2-0.7,3.3c-0.8,0-1.4,0-2.2,0
				c0.8,2.7,0.8,2.7,2.2,5.3c1.4,0.8,2.8,1.4,4.3,2.2c0.2,1.5,0.3,3.3,0.5,4.9c0.2,1.5,0.3,3.1,0.5,4.7c2.2,0.5,2.2,0.5,4.3,1.1
				c-0.2,3.9-1,7.2-2.2,10.7c-0.4,8.2-0.1,13.1,5.2,19.6c5.1,2.8,10.3,2.7,16.2,2.9c-0.2,7.7-5.3,12.8-10.4,18.2
				c-7.4,7.2-16.8,11.7-25.9,16.1c-9.7,4.7-14.9,9.2-20.4,18.4c-4.4,5.8-8.9,10.7-16.1,12.9c-7.4,0.4-14.2,0.2-20.4-4.3
				c-0.3-0.8-0.8-1.4-1.1-2.2c-1.3-0.5-2.6-1.1-3.9-1.5c-1.7-0.8-1.7-0.8-3.7-1.5c0-0.8,0-1.4,0-2.2c-1.2,0.1-2.3,0.2-3.5,0.3
				c-8.6,0.8-15.6,1.3-23.4-2.5c0-0.8,0-1.4,0-2.2c-1.1-0.3-2.2-0.8-3.3-1.1c-4.8-4.3-6.2-6.7-6.9-13.1c0.5-6.1,1.4-7.3,5.8-11.5
				c4.5-2.8,9.2-4.9,14-7.2c15.3-7.5,24.6-20.9,30-36.8c1.1-4.2,1.2-7.9,1.1-12.3c0-2.1,0-2.1-0.1-4.1c-0.1-2.8-0.1-5.5-0.2-8.4
				c-0.2-14.4,3.8-24.6,13.1-35.5c6.4-5.8,13.4-9.3,21.7-11.7c4.7-1.4,9-3,13.2-5.2C345.5,172.8,352.2,172.4,359.6,175.1z"/>
			<path class="st7" d="M313.2,94.1c2.2,0,2.2,0,4.4,0c8.8,0,16.9,0.7,25.5,2.4c1.4,0.2,2.9,0.4,4.3,0.7c25.5,4.3,49.3,15.2,71.5,28
				c2.5,1.4,5,2.8,7.6,4.2c43.4,23.3,74.8,51.1,89.9,99.4c2.5,8.6,3.9,16.7,3.7,25.7c-2.8-2.8-3.6-5.8-4.8-9.3
				c-16.3-45.8-50.8-80.6-91.7-105.6c-1.2-0.8-2.5-1.4-3.7-2.3c-24.5-14.5-50.6-25.9-79-30.1c-1-0.1-1.9-0.3-2.9-0.4
				c-17.5-2.2-32.8-0.3-48.9,6.3c-9.9,4-19,6.1-29.5,6.6c-11.1,0.7-17.7,4.2-25.9,11.3c-0.8,0.7-1.5,1.4-2.4,2.1
				c-24,21.1-41.2,44.8-57,72.5c-0.8,1.3-1.4,2.6-2.3,3.9c-3.9,6.8-7.3,13.4-10.2,20.5c-0.3,0.7-0.7,1.4-1,2.1c-0.3,0-0.8,0-1.1,0
				c-1.3-23,16.7-43.9,29-62.3c-6.8,6.9-11.6,14.2-16.3,22.6c-3.8,6.4-3.8,6.4-7.3,7.5c0.2-9.7,4.3-17.3,8.6-25.8
				c0.5-1.2,1-2.4,1.4-3.6c1.9-3.4,3-3.9,6.8-4.9c5.9-2.1,9.9-5.3,14.2-9.8c1.1-1.1,2-2.1,3.1-3.1c2.9-2.9,5.8-5.8,8.7-8.7
				c-6.4,4.5-11.9,9.4-17.6,14.9c-3.7,3-6.8,4.2-11.4,5c-4.6-0.8-5.8-3.4-8.6-7c-1.4-0.8-2.8-1.4-4.3-2.2
				c3.6-14.2,29.4-27.9,41.2-35.4c19.5-11.5,39.7-17.9,61.9-22.7c1.5-0.3,1.5-0.3,3.1-0.7c3.3-0.5,6.5-0.4,9.8-0.4
				c-11.5,8.6-26.6,11.9-40.4,15c-14.8,3.5-26,8-35.3,20.3c-5.4,6.9-11.7,10.4-19.5,14.4c-3.6,1.5-3.6,1.5-5.6,4
				c-0.3,1.4-0.8,2.8-1.1,4.3c4.9-1.5,8.2-4.3,12.2-7.7c1.2-1.1,2.5-2.2,3.8-3.3c1.2-1,2.3-2.1,3.5-3c0.9-0.8,1.6-1.4,2.6-2.2
				c3.7-3,6.4-6,9.1-9.8c5.8-8.1,15.3-11.8,24.7-13.9c2.9-0.4,5.6-0.9,8.6-1.3c15.1-2.6,28.7-9.1,42.3-15.5
				C295.5,93.4,304.2,94.1,313.2,94.1z"/>
			<path class="st8" d="M169.3,111.5c0,0.8,0,1.4,0,2.2c-2,1.5-4.1,3.3-6.2,4.7c-7.3,5.4-14,11.5-20.6,17.9
				c-0.9,0.9-1.7,1.5-2.7,2.5c-37.2,35.5-56.8,87.7-58.6,138.5c-1.2,56,10.1,111.2,49.6,153.3c11.5,10.9,25.3,19.3,39.6,25.8
				c1,0.4,2,1,3,1.4c18.1,7.6,38.3,10.5,57.8,10.6c1.1,0,2.2,0,3.3,0c2.3,0,4.5,0,6.8,0c3.5,0,6.8,0,10.2,0.1
				c10.7,0,20.6-0.1,30.9-3c2.7-0.5,2.7-0.5,5.9,0.5c-24.2,17.8-53.2,22.2-82.3,18.2c-30.5-5.4-57.8-18.7-80.9-39.6
				c-0.9-0.8-1.5-1.4-2.5-2.3C87,408.6,71.2,355.9,69.1,308.1c-0.1-5.4-0.1-10.9-0.1-16.3c0-1,0-2,0-2.9
				c0.1-37.8,6.2-82.3,30.4-113.1c3.5-2.1,3.5-2.1,6.5-3.3c0.3-0.3,0.8-0.8,1.1-1.1c-0.1-1.4-0.3-2.8-0.4-4.2
				c-0.1-7.2,4.3-11.2,9-16.2c0.8-0.9,1.5-1.6,2.3-2.6C150.3,111.5,150.3,111.5,169.3,111.5z"/>
			<path class="st9" d="M533,266.3c7,9.3,5.1,21.9,3.9,33c-1.5,8.4-4.6,16.2-7.5,24.2c-2.8,7.7-4.1,15.5-5.1,23.7
				c-0.9,5.4-2,10.7-3.5,16c-0.4,1.5-0.9,3.3-1.3,4.8c-1.5,4.7-3.4,8.8-5.8,13.1c-0.3,0-0.8,0-1.1,0c-0.2-7.9,0.7-14.9,2.4-22.6
				c0.5-2.2,1-4.3,1.5-6.6c0.2-1.1,0.5-2.2,0.8-3.3c0.7-2.8,1.2-5.5,1.6-8.2c1.6-8.4,3.9-16,7.2-24c5-12.5,8.6-26.1,6.9-39.6
				c-0.8-1.4-1.4-2.8-2.2-4.3c-3.1-0.9-3.1-0.9-6.5,0c-10.3,13-7.9,33.2-7.9,49.1c0,15.6-1.4,29.4-6.8,44.2c-1.2,4-1.4,6.2-1.3,10.2
				c0.5,25.5-24.7,52.6-40.9,70.5c-1.3,1.4-2.6,3-3.9,4.5c-46.1,52.5-108.3,80-174.9,95.7c-7.7,1.7-15.4,3.8-22.8,6.3
				c-6.8,2.1-12.4,2.8-19.4,2.2c-1.1-0.8-2.2-1.4-3.3-2.2c1.1-4.3,1.1-4.3,4.8-7.2c13.1-7.6,29.8-10.1,44.6-13.2
				c13.4-3.1,26.6-6.4,39.6-10.7c1-0.3,1.9-0.7,3-1c30.3-10.4,58.3-25.8,82.8-46.3c1.2-1,2.5-2.1,3.7-3c6.4-5.2,12.5-10.7,18.1-16.7
				c1.7-1.6,1.7-1.6,4-1.6c0.8-1.4,1.4-2.8,2.2-4.3c1.6-1.7,3.6-3.7,5.4-5.4c30.9-30.6,55.8-73.2,57.2-117.2
				c1.5-47.7,1.5-47.7,14.5-59.9C527,264.4,529.3,265.2,533,266.3z"/>
			<path class="st10" d="M302.8,76.8c1.4,0,2.8,0,4.2,0c34,0.4,67.1,6.2,92.4,30.4c6.6,6.3,13,11.1,21.1,15.1
				c1.4,0.8,2.8,1.4,4.3,2.2c3,1.4,5.9,2.9,8.9,4.3c4.9,2.5,9.2,5.2,13.6,8.5c0,0.8,0,1.4,0,2.2c-6.7-0.4-11.6-3.7-17.3-6.9
				c-1.1-0.5-2-1.2-3.1-1.6c-5-2.8-10.1-5.5-15.1-8.5c-18.2-10.5-37.2-18.2-57.8-22.7c-2.5-0.7-4.9-1.2-7.4-1.7
				c-10.9-2.6-21.7-2.7-32.9-2.7c-1.4,0-2.9,0-4.4,0c-12,0-21.5,1.7-32.2,7c-12.4,5.6-24.3,10.2-37.8,12
				c-13.5,2.3-23.5,7.5-31.6,18.7c-3,3.9-6.7,6.8-10.3,10c-1,0.9-1.9,1.6-3,2.6c-1.1,0.9-2,1.6-3.1,2.7c-1.4,1.2-1.4,1.2-2.9,2.5
				c-2.9,2.1-4.7,2.7-8.1,3c0.3-3.6,0.7-5,3.5-7.5c3.1-2.3,6.2-3.8,9.8-5.4c6.6-3.5,10.2-7.4,14.9-13.2
				c9.3-12.3,23.3-15.4,37.6-18.9c11.9-3,23.4-6.4,34.3-11.8c-35.1,2.8-66.1,17-93.3,38.7c-1.1,0.9-2,1.5-3.1,2.5
				c-2.6,2.1-5,4.1-7.6,6.2c-0.9,0.7-1.6,1.4-2.6,2.1c-2,1.6-4.1,3.6-6,5.4c0,1.1,0,2.2,0,3.3c1.7,1.1,3.6,2.2,5.3,3.3
				c1.1,1.4,2.2,2.8,3.3,4.3c6.9,0.5,10.1-1.1,15.6-5.4c2-1.6,4-3.6,5.9-5.2c1.7-1.5,3.7-3.4,5.4-4.9c0.8-0.8,1.4-1.4,2.4-2.2
				c0.7-0.4,1.3-1,1.9-1.4c0.8,0.3,1.4,0.8,2.2,1.1c-3,3.1-6.1,6.3-9.1,9.4c-1.3,1.3-1.3,1.3-2.6,2.7c-6.4,6.5-11.6,10.4-20.5,12.7
				c-2,3.7-2,3.7-3.9,8.1c-0.7,1.4-1.3,3-1.9,4.5c-0.7,1.4-1.2,2.9-1.7,4.3c-0.7,1.4-1.2,2.7-1.7,4.1c-1.4,3.4-2,6.4-2.5,10
				c4.1-3.7,6.6-7.8,9.3-12.5c4.4-7.3,9.3-13.6,15.4-19.8c0,4.3-1.5,5.3-4.3,8.6c-3,4.6-5.8,9.2-8.6,14c-1.1,1.7-2.3,3.6-3.4,5.3
				c-1.2,2-2.4,3.8-3.5,5.6c-0.5,0.9-1.1,1.7-1.6,2.7c-4.5,7.4-7.7,14.8-8.4,23.4c-0.1,1.5-0.2,3.1-0.3,4.7
				c-1.5-1.1-1.5-1.1-3.3-2.2c-1.2,3.7-1.3,6.7-1.4,10.5c-0.5,8.7-2.5,16.6-5,24.9c-0.8-0.3-1.4-0.8-2.2-1.1
				c-5.9-21.2-3.9-54,5.3-74.1c1.9-3.5,4.1-6.6,6.5-9.7c3.5-4.9,5.3-7.7,5.3-14c-1.2-1.4-1.2-1.4-4-1.4c-4.8,0.5-6.7,2.4-10,5.8
				c-5,6.8-4.7,12.3-4.4,20.3c0.2,7.8,0.2,15.2-1.4,22.8c-1.7,8.8-2,17.5-2,26.5c0,1.4,0,2.8-0.1,4.2c0,6.8,0.4,12.4,2.7,18.8
				c3.5,10.1,2.6,20.4,2.4,30.8c0,3.1-0.1,6.3-0.1,9.3c0,2,0,3.9-0.1,5.6c-0.1,6,0.3,11.6,1.1,17.4c-0.8-0.3-1.4-0.8-2.2-1.1
				c-1-3.8-1.9-7.5-2.7-11.4c-0.2-1.2-0.4-2.3-0.8-3.5c-4.5-21.7-5.2-43.3-5.4-65.4c0-1.5,0-3.1-0.1-4.7c0-9.3,0.9-18.1,2.9-27.2
				c1-5.6,0.4-11.1-0.4-16.7c-0.8,0-1.4,0-2.2,0c-0.3,1.1-0.8,2.2-1.1,3.3c-6.5-7.6-6.5-7.6-6.4-11.7c4.9-17.4,18.5-29.8,32.9-39.5
				c4.6-3.1,8.7-6.4,12.8-10.1c38.6-36.5,88.7-49.5,140.4-48.3c24.6,0.8,53.4,6.2,75.6,17.3C384.8,95,365.8,90.2,352,87.1
				c-3.3-0.7-6.4-1.3-9.6-2c-1.1-0.2-2-0.4-3.1-0.5c-10.4-1.6-20.9-2-31.4-2c-3,0-5.9,0-8.9-0.1c-42.1-0.2-81.2,16.3-115.5,39.2
				c-0.8-1.1-1.4-2.2-2.2-3.3c12.3-7.9,24.4-15.4,37.6-21.5c2.2-1,2.2-1,4.3-2.1C248,83,275.3,76.7,302.8,76.8z"/>
			<path class="st11" d="M392.5,329.7c-16.7,33.6-66.3,51.7-99.3,62.8c-26.2,8.2-54.4,10.1-81,2.7c0,0.8,0,1.4,0,2.2
				c40.4,15.3,83.5,0.7,120.7-15.4c4.5-2,9-3.8,13.6-5.5c1-0.3,1.7-0.8,2.8-1.1c2.4-0.7,2.4-0.7,5.5,0.4
				c-21.2,17.1-47.9,26.7-74,33.2c7.3,0.2,13.4,0.2,20.4-2.2c2.4-0.4,2.4-0.4,4.7-0.9c21.3-4.2,41.2-16.3,59.6-27.2
				c4.5-2.7,8.8-4.9,13.9-6.4c-14.5,19.2-39.2,30.3-61.2,38.7c-1.4,0.5-1.4,0.5-2.7,1.1c-7.7,2.9-15.5,4.8-23.4,6.6
				c-2.5,0.5-4.9,1.1-7.3,1.5c-1.1,0.2-2.2,0.4-3.3,0.8c-2.9,0.8-5.5,1.6-8.4,2.9c-20.5,4.7-44.6-1.4-63.3-9.7
				c-1.3-0.5-2.6-1.1-4-1.5c-0.9-0.5-1.5-1.1-2.5-1.5c0.3-1.4,0.8-2.8,1.1-4.3c-1.5,0.5-1.5,0.5-3.3,1.1c-2.8-0.7-2.8-0.7-5.3-2.2
				c-1.3-3.6-1.2-5,0-8.6c-1-0.3-1.9-0.5-3-0.9c-3.6-1.2-3.6-1.2-7.8-4.3c0-0.8,0-1.4,0-2.2c1.5-0.5,1.5-0.5,3.3-1.1
				c-0.9-0.5-1.6-1-2.7-1.4c-4.8-3.6-8.5-7.8-12.4-12.5c4,0,6.5,1.3,10.1,2.9c2,0.9,2,0.9,4.1,1.7c1.3,0.5,2.7,1.2,4.1,1.7
				c3.4,1.4,6.6,2.8,9.9,4.1c1.9,0.9,3.9,1.5,5.9,2.5c1.4,0.5,1.4,0.5,2.7,1.2c0.8,0.3,1.4,0.7,2.4,1c10.2,3.7,20,3.7,30.8,3.7
				c1.5,0,3.3,0,4.9,0c49.7,0,103-32.3,140.9-62.7C390.3,329.7,390.3,329.7,392.5,329.7z"/>
			<path class="st11" d="M538.5,315.7c2,39.2-13.1,82-35.4,113.9c-0.9,1.2-1.5,2.4-2.5,3.7c-5.5,8-11.5,15.8-17.9,23.2
				c-0.7,0.8-1.4,1.5-2,2.5c-11.8,13.4-24.6,26.4-38.7,37.2c-1.7,1.4-1.7,1.4-3.7,3c-34.8,28.8-91.1,62.1-137.9,60.3
				c0-1.4,0-2.8,0-4.3c5.6-2.7,11.8-4.1,17.8-5.5c43.2-11,84.2-31.1,118.4-59.9c1.2-1,2.3-2,3.5-2.9c12.4-10.5,24.7-21.2,35.2-33.6
				c0.8-0.8,1.5-1.4,2.3-2.4c26.8-28.4,44.9-68.7,50.8-107.2C532.5,315.7,532.5,315.7,538.5,315.7z"/>
			<path class="st12" d="M501.9,323.1c0.8,0,1.4,0,2.2,0c1.3,32.2-10.7,63.4-32,87.8c-6,6.5-12.7,11.7-19.6,17
				c-14.2,11-14.2,11-27.8,23c-0.8,0.7-1.4,1.4-2.3,2.1c-3.9,3.8-7.4,7.6-10.7,11.9c-17.7,22-38.1,40.3-65.3,49.5
				c-1.1-0.3-2.2-0.8-3.3-1.1c1-0.8,1.9-1.4,2.9-2.3c19.8-15.5,37.4-30.3,52-50.7c4.6-6.4,9.4-12.3,15-18c0.8-0.8,1.4-1.5,2.2-2.4
				c8.4-8.8,18.3-15.5,28.3-22.4c32-22.2,47.6-52.1,57.2-89.5C501,326.5,501.4,324.9,501.9,323.1z"/>
			<path class="st13" d="M430,152.3c18.3,1.5,38.9,25.5,50.1,38.8c20.6,26,33.6,55.8,29.8,89.4c-4.3,26.3-13.9,52.6-31.7,72.7
				c-0.7,0.8-1.3,1.4-1.9,2.2c-7,7.5-13.9,10.1-23.9,10.7c2.7-2.7,5.3-5.3,8-7.9c16.7-16.1,27.1-35.8,34.8-57.6
				c0.7-1.7,0.7-1.7,1.4-3.8c2.9-9.6,3.4-18.8,3.5-28.7c0-1.3,0-2.5,0-3.9c-0.2-21.6-8.9-36.9-23.4-52.4c-4.1-4.5-7.5-9.2-10.9-14.3
				c-7.3-11-15.5-19.6-25.6-27.8c-2.7-2.2-5.2-4.3-7.8-6.9c-0.7-0.7-1.4-1.3-2-2c-1.5-2.2-1.5-2.2-1.5-7.5
				C429.3,153.1,429.7,152.7,430,152.3z"/>
			<path class="st14" d="M352.9,70.6c6.7,0.4,12.7,1.4,19.1,3.3c5.5,1.4,10.6,2.4,16.4,2.6c19.6,1.1,37.7,11.4,50.8,25.4
				c2.8,3.1,5.4,6.3,8.1,9.3c6.4,6.9,13.4,13,20.6,19c16.5,14.5,30,34,40.6,53.1c0.9,1.4,1.5,3,2.5,4.5c10.3,19.1,26,49.5,21.2,71.7
				c-2.6,0.1-2.6,0.1-5.3-1.1c-0.9-3.3-1.5-6.4-2.2-9.7c-9.3-47.3-35.9-90.1-73.5-120.2c-5.1-4.2-9.6-8.9-13.7-14
				c-7-8-15.4-15.4-26.2-16.9c-4.7-0.9-7.4-2.5-11.2-5.3c-11.7-8.8-26-13-39.6-17.9c-2.5-0.9-5-1.7-7.5-2.8
				C352.9,71.4,352.9,71,352.9,70.6z"/>
			<path class="st11" d="M548,328.6c-0.8,51.9-27.9,102.8-62.2,140.3c-1.9,2.2-3.9,4.3-5.8,6.7c-9,10.3-19,19.6-29.8,28.1
				c-1.5,1.2-2.9,2.4-4.4,3.5c-26.5,21.3-65.9,51.7-101.7,49.3c3.9-2.9,6.8-4.3,11.2-6.2c1.4-0.5,2.7-1.1,4.1-1.6
				c2.2-0.9,2.2-0.9,4.4-1.7c69.5-28.7,131.9-81.1,161.6-151.5c7.4-18.8,12.5-38.2,15.8-58.2C542.8,328.6,542.8,328.6,548,328.6z"/>
			<path class="st15" d="M165.1,157.7c2.9,2,4.8,3.4,6.5,6.5c0.5,6.7-0.7,10.9-3.5,16.8c-8.6,18.8-11.5,37.3-12.8,57.8
				c-0.7,9.2-2.3,17.6-5.1,26.4c-0.8-0.3-1.4-0.8-2.2-1.1c-5.9-21.2-3.9-54,5.3-74.1c1.9-3.5,4.1-6.6,6.5-9.7
				c3.5-4.9,5.3-7.7,5.3-14c-1.2-1.4-1.2-1.4-4-1.4c-4.8,0.5-6.7,2.4-10,5.8c-5,6.8-4.7,12.3-4.3,20.3c0.2,7.8,0.2,15.2-1.4,22.8
				c-1.7,8.8-2,17.5-2,26.5c0,1.4,0,2.8-0.1,4.2c0,6.8,0.4,12.4,2.7,18.8c3.5,10.1,2.6,20.4,2.4,30.8c0,3.1-0.1,6.3-0.1,9.3
				c0,2,0,3.9-0.1,5.6c-0.1,6,0.3,11.6,1.1,17.4c-0.8-0.3-1.4-0.8-2.2-1.1c-1-3.8-1.9-7.5-2.7-11.4c-0.2-1.2-0.4-2.3-0.8-3.5
				c-4.5-21.7-5.2-43.3-5.4-65.4c0-1.5,0-3.1-0.1-4.7c0-9.4,0.9-18.2,2.9-27.3c1.4-7.6,0.4-13.1-3.7-19.8
				c-1.1-9.3,2.4-16.9,7.7-24.5C149.8,162.8,156.8,155.8,165.1,157.7z"/>
			<path class="st16" d="M447.2,105c13,7,23.7,17.9,34.3,27.9c1,0.9,1.7,1.6,2.8,2.6c7.4,7.2,13.6,15,19.8,23.2
				c1,1.2,1.7,2.5,2.8,3.7c6.7,9.1,12.4,18.7,17.6,28.5c0.7,1.2,1.3,2.4,1.9,3.6c17.8,33.3,24.1,72.1,24.2,109.5c0,1.6,0,3.5,0,5.1
				c-0.1,12.3-0.1,12.3-2.5,17c-3.3-2.2-3.3-2.2-4.3-5.3c-1-8.1-1.2-16.4-1.3-24.6c-0.3-15.2-1.9-29.3-5.1-44.2
				c-0.3-1.5-0.3-1.5-0.7-3.3c-11.4-55.3-43-104.6-87-139.6c-0.9-0.8-1.5-1.4-2.5-2.3C447.2,106.4,447.2,105.8,447.2,105z"/>
			<path class="st17" d="M301.5,141.4c1.4,0,1.4,0,3.1,0c2.2,0,4.3,0,6.5,0c3.3,0,6.5,0,9.7-0.1c12.2-0.1,23.5,0.8,35.4,3.6
				c1,0.2,1.9,0.4,3,0.7c28.3,6.4,55.4,20.2,71.7,44.8c8.2,13.4,11.5,26.4,11.4,42c0,1.3,0,2.6,0,3.9c0,1.2,0,2.5,0,3.7
				c0,1.1,0,2.3,0,3.4c-0.4,2.7-0.4,2.7-2.6,4.8c-3.4-6.9-5.5-13-6.4-20.6c-2.6-23.3-16.2-42.6-33.9-57.4
				c-25.7-19.5-58-24.3-89.4-24.3c-1.5,0-3.3,0-4.8,0c-15.7,0-30.7,1.4-45.9,5.5c-1.1,0.3-2.2,0.5-3.3,0.9
				c-5.6,1.4-5.6,1.4-11.2,3.7c-2.6,0.9-2.6,0.9-5.8-0.2c9.3-4.7,18.7-7.6,28.8-10.1c1.2-0.3,2.3-0.5,3.5-0.9
				C281.3,142.5,291.1,141.4,301.5,141.4z"/>
			<path class="st18" d="M392.5,283.4c2.5,7.4-4,17.5-7.2,24.3c-20.9,38.8-62.2,64.8-103.1,78c-3.7,1.1-7.2,2.1-10.9,3
				c-1.4,0.4-2.9,0.8-4.3,1.2c-26.7,5.8-51.9-1.4-76.3-11.7c-3-1.3-6-2.4-9-3.6c-7.4-3.1-11.8-7.4-16.6-13.9
				c0.5-1.1,0.5-1.1,1.1-2.2c2.2,1.7,4.3,3.6,6.5,5.3c4.7,3.1,9.9,5.2,15.1,7.5c1.4,0.7,1.4,0.7,3,1.4c26.3,11.9,53.4,17,81.7,9.3
				c1.4-0.3,2.8-0.8,4.2-1.1c10.7-3.1,20.3-7.6,30.2-12.9c0.9-0.4,1.6-0.9,2.6-1.4c17.4-9.1,32.7-19.3,46.8-33
				c1.3-1.2,2.6-2.4,3.9-3.6C373.1,316.8,383.9,300.1,392.5,283.4z"/>
			<path class="st19" d="M426.8,82.5c13.5-1.7,27.5,10.6,37.6,18.3c5.1,4.2,10.1,8.5,15.1,12.9c1,0.9,2,1.6,3.1,2.7
				c2.3,2,4.4,4,6.6,6c0,0.8,0,1.4,0,2.2c1.1,0.3,2.2,0.8,3.3,1.1c2.6,2.8,5,5.5,7.5,8.6c1,1.2,2,2.4,3,3.7
				c11.4,14,20.6,28.8,29.2,44.7c0.7,1.1,1.2,2.2,1.7,3.4c3.6,7.2,4.1,12.5,3.6,20.3c-3-4-4.9-7.6-7.2-12.2
				c-16.6-33.6-41.1-63.3-71.2-85.6c-1.1-0.9-2.2-1.5-3.3-2.5c-7.5-5.8-15.3-10.7-23.4-15.7c-3.5-2.3-3.5-2.3-5.5-4.3
				C426.8,84.7,426.8,83.5,426.8,82.5z"/>
			<path class="st20" d="M266.8,220.5c4.4,3.4,5.9,6.2,7.7,11.3c0.9,7.4-0.3,12-4.3,18.3c-6.7,6.4-10.7,7.9-19.6,7.8
				c-4.1-0.4-6.4-1.7-9.3-4.6c-4.7-6.4-5.3-11.6-4.3-19.3c2.8-6.4,6.8-10.7,12.9-14C256.1,218.5,260.8,218.2,266.8,220.5z"/>
			<path class="st21" d="M122.1,355.4c8.4,4.2,12,13.1,16.3,21.3c10.1,18.2,24.2,33.9,40.6,46.4c2.5,2,4.9,3.9,7.4,5.8
				c1.6,1.3,3.5,2.7,5.1,4c4.3,3.4,8.4,6.7,12.2,10.7c-28-4-53.3-27.7-69.8-49.5c-7.4-10.7-13.9-23.2-13.9-36.5
				C120.7,356.8,121.5,356.2,122.1,355.4z"/>
			<path class="st22" d="M538.5,315.7c2,39.2-13.1,81.9-35.4,113.9c-0.9,1.3-1.7,2.6-2.7,4c-7.4,10.6-7.4,10.6-12.4,14.3
				c-0.3-1.4-0.8-2.8-1.1-4.3c-0.8-0.3-1.4-0.8-2.2-1.1c0.7-1,1.3-2,2-3c20-29.7,35.9-60.1,41.5-95.8
				C532.5,315.7,532.5,315.7,538.5,315.7z"/>
			<path class="st1" d="M376.4,192.1c5,8.4,10,16.9,9.7,26.9c-1,3.4-1,3.4-2.2,5.3c1.1,0,2.2,0,3.3,0c0,1.6,0,3.6,0,5.3
				c-1.1,0-2.2,0-3.3,0c-1.1-1.4-2.2-2.8-3.3-4.3c-0.3,0.3-0.8,0.8-1.1,1.1c0.8,1.4,1.4,2.8,2.2,4.3c-4.3-2.2-4.3-2.2-6.5-4.3
				c-1.4-0.3-2.8-0.8-4.3-1.1c0,0.8,0,1.4,0,2.2c1.4,0.3,2.8,0.8,4.3,1.1c0,0.8,0,1.4,0,2.2c-0.8-0.3-1.5-0.8-2.4-1.1
				c-3.1-1.3-3.1-1.3-7.3-1.1c-1.7,3.1-1.7,3.1-3.3,6.5c-2.2,2.2-2.2,2.2-5.4,2.8c-1.5-0.3-1.5-0.3-3.1-0.7c-0.4-2.5-0.8-5-1.1-7.5
				c-2.7-3-2.7-3-5.3-5.3c0-0.8,0-1.4,0-2.2c0.8,0,1.4,0,2.2,0c0.8-3.3,0.8-3.3,1.1-6.5c1.4,0.8,2.8,1.4,4.3,2.2c0,1.4,0,2.8,0,4.3
				c4-1.3,5.1-1.7,7.5-5.3c-0.5-0.8-1-1.5-1.5-2.4c-2.3-4-1.5-6.2-0.7-10.5c0.2-1.1,0.4-2.1,0.7-3.1c0.5-0.8,1-1.4,1.5-2.3
				c2.5,0,5,0,7.5,0c2.2-2.5,2.2-2.5,3.3-5.3C374.3,192.1,374.3,192.1,376.4,192.1z"/>
			<path class="st23" d="M424.7,177.1c9.2,3.1,16.5,10.7,20.9,19.2c2.7,6.1,4.5,11.9,5.9,18.4c0.3,1.5,0.8,3.3,1.2,4.8
				c1.5,8.7,1.4,17.6,1.4,26.5c0,3,0,6.1,0,9c0,14.9-0.3,30.5-5.8,44.5c-0.3,0-0.8,0-1.1,0c-0.1-1.5-0.1-3.3-0.2-4.8
				c-0.1-2.2-0.2-4.3-0.3-6.5c0-1.1-0.1-2.2-0.1-3.3c-0.2-6.1-0.8-11.8-1.5-17.8c-0.3-6.2,0-12.3,0.5-18.4
				c1.7-23.4-1-44.8-15.7-63.8C428,182.6,426.2,179.9,424.7,177.1z"/>
			<path class="st3" d="M106.1,228.6c3.1,2.3,4.2,3.6,4.8,7.3c0,1.2,0,2.3,0,3.5c0,1.3,0,2.6,0,3.9c0,1.3,0,2.7-0.1,4.1
				c0,1.3,0,2.6,0,4c-0.2,24.2-0.2,24.2-5.8,31c-1.4-0.3-2.8-0.8-4.3-1.1c-5.4-10.3-6.9-20.3-6.9-31.9c0-1.1,0-2.2-0.1-3.3
				c0-6.5,0.4-10.3,4.7-15.4C100.7,228.6,100.7,228.6,106.1,228.6z"/>
			<path class="st24" d="M209,247.9c5.8,4.1,5.8,4.1,7.5,7.5c0.5,7.7,0.2,12.7-4.3,19.3c-4.2,3.4-7.3,5-12.5,6.3
				c-3.7-0.9-3.7-0.9-7.3-3.8c-3.7-6.1-3.9-10.6-2.8-17.4c1.9-3.8,1.9-3.8,4.3-6.5c0.8-0.9,1.4-1.5,2.3-2.5
				C200.1,247.4,204.1,247.4,209,247.9z"/>
			<path class="st25" d="M306.7,47.1c8.7-1.5,18.3,0.3,27,1.7c1.2,0.2,2.4,0.4,3.6,0.5c10,1.5,19.9,3.6,29.8,5.4
				c6.4,1.3,12.6,2.3,19,2.9c-1.1,0.3-2.2,0.8-3.3,1.1c0.5,1.1,0.5,1.1,1.1,2.2c1.5,0.1,3.3,0.3,4.8,0.4c1.5,0.2,3.3,0.4,4.8,0.7
				c0.5,1.5,0.5,1.5,1.1,3.3c1.1,0.1,2,0.2,3.1,0.3c8.7,1.4,15.9,7,21.6,13.6c0,1.1,0,2.2,0,3.3c-4.6-1.4-8-3-12-5.8
				c-5.3-3.6-11.5-7.5-18-8.1c-0.8,1.4-1.4,2.8-2.2,4.3c-1.2-1-2.5-1.7-3.7-2.8c-14.7-9.7-33.8-13-51-15c-1.7-0.2-1.7-0.2-3.6-0.4
				c-4.5-0.5-8.9-1-13.4-1.4c-7.3-0.7-7.3-0.7-9.7-1.7C305.9,50,306.4,48.6,306.7,47.1z"/>
			<path class="st26" d="M146.9,189.9c0.3,7.9,0.1,15.3-1.5,23c-1.6,9-2,18-2,27.2c0,1.4,0,2.8-0.1,4.2c0,6.8,0.4,12.4,2.7,18.8
				c3.5,10.1,2.6,20.4,2.4,30.8c0,3.1-0.1,6.3-0.1,9.3c0,2,0,3.9-0.1,5.6c-0.1,6,0.3,11.6,1.1,17.4c-0.8-0.3-1.4-0.8-2.2-1.1
				c-1-3.8-1.9-7.5-2.7-11.4c-0.3-1.6-0.3-1.6-0.8-3.5c-4.5-21.7-5.2-43.3-5.4-65.4c0-1.5,0-3.1-0.1-4.7c0-9.4,0.9-18.2,2.9-27.3
				c1.1-6.2,0.5-11.6-1.4-17.6c0-0.8,0-1.4-0.1-2.3C144.5,189.9,144.5,189.9,146.9,189.9z"/>
			<path class="st27" d="M341,152.3c27.1,1.3,49.3,16.4,67.6,35.5c7.4,9,14,19.1,18.2,30.2c-0.3,1.1-0.8,2.2-1.1,3.3
				c-0.5-0.9-1.2-1.6-1.7-2.7c-4.7-7-9.6-13.5-15.4-19.6c-2.2-2.4-2.2-2.4-4.4-5.1c-3.1-3.9-6.9-7-10.7-10.1c-1.2-1-1.2-1-2.4-2.1
				c-13-10.9-27.1-18.4-42.5-25C344.3,154.4,344.3,154.4,341,152.3z"/>
			<path class="st1" d="M254.1,326.4c1.6,0.2,1.6,0.2,3.5,0.5c6.5,0.7,12.7,0.7,19.1,0.5c0,0.8,0,1.4,0,2.2c1.4,0.3,2.8,0.8,4.3,1.1
				c4.3,2.2,4.3,2.2,6.5,5.3c3.1,0.9,3.1,0.9,6.6,1.3c1.2,0.2,2.4,0.3,3.6,0.5c0.9,0.1,1.7,0.2,2.8,0.3c-0.3,1.1-0.8,2.2-1.1,3.3
				c-3,1.2-3,1.2-6.7,2.3c-1.2,0.3-2.5,0.8-3.8,1.1c-7.5,2-14.4,3.1-22.1,1c-4.1-3.3-4.6-7-6-11.9c-2.2-2.6-2.2-2.6-4.3-4.3
				c0-0.8,0-1.4,0-2.2C255.4,327.2,254.9,326.7,254.1,326.4z"/>
			<path class="st28" d="M329.2,413.4c0.5,1.1,0.5,1.1,1.1,2.2c-19.2,11.3-35.5,17.4-58,17.4c-2.4,0-2.4,0-4.7,0.1
				c-12.8,0-24-2-35.9-6.5c-1.3-0.4-2.6-1-3.9-1.4c-1-0.3-1.7-0.8-2.8-1.1c4.5-1.4,7.2-0.2,11.7,1c9.3,2.2,18.3,2.7,27.9,2.6
				c1.9,0,1.9,0,3.9,0C289.8,427.5,310.1,422.4,329.2,413.4z"/>
			<path class="st29" d="M294.9,57.8c-1.2,0-1.2,0-2.4,0.1c-20.4,0.5-20.4,0.5-40.6,3.1c-1.3,0.2-2.7,0.4-4.1,0.7
				c-16.8,2.8-31.7,7.8-46,16.9c-3.7,1.7-3.7,1.7-6.8,1.4c-0.8-0.2-1.4-0.5-2.3-0.9c1.1-4.3,1.1-4.3,4.6-7
				C220,59.2,270.4,45.6,294.9,57.8z"/>
			<path class="st30" d="M114.6,268.3c0.3,0,0.8,0,1.1,0c0,0.9,0.1,1.5,0.1,2.5c1.7,29.7,4.2,56.1,15.9,83.6
				c0.3,1.1,0.8,2.1,1.1,3.1c-0.3,0.8-0.8,1.4-1.1,2.2c-11.5-15-15.8-30.9-18-49.4c-0.8-5.2-1.5-9.6-4.5-14.1
				c-1.4-1.1-2.8-2.2-4.3-3.3c0.9-0.7,1.5-1.2,2.5-1.7c4.8-6,5.3-13.1,6.7-20.6C114.4,269.6,114.4,269.6,114.6,268.3z"/>
			<path class="st31" d="M141.4,394c3.5,2.5,6.2,5.1,9,8.4c12.8,14.9,29.5,28.7,47.8,36.3c3.5,1.4,3.5,1.4,5.5,4.7
				c-22.9-3.4-47.3-21.4-61.2-39.7C142.1,400.5,141.7,397.3,141.4,394z"/>
			<path class="st32" d="M240.2,184.6c1.1,0.8,2.2,1.4,3.3,2.2c0,4.6-0.8,7.2-3.4,11c-4.8,4.6-9.2,7.2-15.9,7.7
				c-3.4-0.4-3.4-0.4-5.4-2.6c0.1-6,2.4-8.8,6.5-12.9C233.9,183.5,233.9,183.5,240.2,184.6z"/>
			<path class="st33" d="M99.6,459.7c12.9,0.1,27.7,9.3,37.6,17.1c0.5,1.5,0.5,1.5,1.1,3.3c-14.2,0.4-26.8-4.6-37.8-13.5
				c-1-1.3-1-1.3-1.9-2.6C98.8,462.6,99.2,461.1,99.6,459.7z"/>
			<path class="st34" d="M354.9,375.9c-11.9,9.7-25.5,16.2-39.5,22.1c-1.2,0.5-2.3,1-3.5,1.4c-1.5,0.7-1.5,0.7-3.3,1.3
				c-1,0.4-1.9,0.8-2.9,1.2c-2.4,0.8-2.4,0.8-4.5-0.3c2.7-7.3,2.7-7.3,7.5-9.7c5-2.2,10.1-4.2,15.2-6.4c1.4-0.5,2.7-1.2,4.2-1.6
				c6.2-2.6,12.4-5,18.6-7.5c1-0.3,1.7-0.8,2.8-1.1C351.7,374.7,351.7,374.7,354.9,375.9z"/>
			<path class="st35" d="M360.3,489.7c-1.2,1.1-2.3,2.2-3.6,3.3c-1.5,1.4-3.1,2.9-4.6,4.3c-1.2,1.1-1.2,1.1-2.3,2.2
				c-3.7,3.5-7.3,6.9-10.7,10.4c-4.2,4.1-8.1,7-13.1,10c-1.1-0.3-2.2-0.8-3.3-1.1c0-5.3,0-5.3,2.2-9.7c2.5-1.1,2.5-1.1,5.2-2
				c1-0.2,1.9-0.5,2.9-0.8c2.6-0.5,2.6-0.5,5.8-0.5c0.1-1.2,0.2-2.3,0.4-3.5c0.7-4.1,0.7-4.1,3-6.3c3.1-2.2,6.2-3.7,9.7-5.1
				c1.1-0.4,2.3-1,3.5-1.4C358.2,488.6,358.2,488.6,360.3,489.7z"/>
			<path class="st36" d="M223.1,326.8c4.4,0.9,5.9,2.5,8.6,6.1c0.7,3.3,0.7,3.3,0,6.5c-2.3,3.1-2.3,3.1-5.3,5.3
				c-4.6,0.2-6.7-0.3-10.1-3.5c-1.6-3-1.6-3-1.6-8.4C217.1,329.3,218.7,327.6,223.1,326.8z"/>
			<path class="st37" d="M496.6,265.2c0.3,0,0.8,0,1.1,0c0.8,22-4.6,41.3-16.1,60.1c-1.1,1.1-2.2,2.2-3.3,3.3
				c-0.3-0.3-0.8-0.8-1.1-1.1c0.3-7,3.1-12.2,6.2-18.2c6.6-13.4,11.1-26.5,12.8-41.6C496.3,266.9,496.5,266.2,496.6,265.2z"/>
			<path class="st38" d="M338.9,428.5c-4.2,8.4-11.6,14.2-20.4,17.1c-4.7,0.2-4.7,0.2-8.6,0c0.2-2.5,0.2-2.5,1.1-5.3
				c2.6-2.1,2.6-2.1,5.9-3.9c1.2-0.7,2.4-1.3,3.6-2C332.2,428.5,332.2,428.5,338.9,428.5z"/>
			<path class="st39" d="M381.7,63.1c12.9-1,23.5,3.5,33.3,11.8c2.7,2.4,2.7,2.4,4.3,4.3c0,1.1,0,2.2,0,3.3
				c-4.4-1.3-7.8-2.9-11.6-5.5c-6.7-4.3-13.8-7.2-21.3-10.1C382.8,65.3,382.8,65.3,381.7,63.1z"/>
			<path class="st40" d="M197.2,401.6c6.7,1.2,13,2.8,19.5,4.7c13,3.9,25.9,6.3,39.4,7.5c1.1,0.2,2.2,0.3,3.3,0.5c0,0.8,0,1.4,0,2.2
				c-20.6,1.1-40.3-3.4-59-11.8C199.4,403.8,198.3,402.6,197.2,401.6z"/>
			<path class="st41" d="M179,82.5c0,5.3,0,5.3-2.8,8.1c-5.4,3.9-8.6,5.8-15.5,5.8c-0.8-0.8-1.4-1.4-2.2-2.2
				c1.4-5.6,4.1-7.2,8.6-10.7C171.2,82.1,174.8,82.3,179,82.5z"/>
			<path class="st42" d="M183.2,216.8c2.9,0.3,2.9,0.3,5.3,1.1c-0.2,7.3-2.4,13-7.5,18.3c-2.8,0.9-2.8,0.9-5.3,1.1
				c-1.1-1.1-1.1-1.1-1.4-3.8C175,226.7,178.6,221.5,183.2,216.8z"/>
			<path class="st43" d="M377.4,433.8c2.2,3.3,2.2,3.3,2,6.4c-1.3,4.2-2.7,5.3-6.4,7.6c-5.3,0-5.3,0-8.6-3.3
				c0.1-3.8,0.1-3.8,1.1-7.5C370.4,433.5,371.8,433.2,377.4,433.8z"/>
			<path class="st44" d="M87.8,259.8c2.2,4.3,3.6,8.6,4.9,13.2c0.4,1.5,1,3.1,1.4,4.8c1.5,6.5,1.9,10.4-1.4,16.1
				c-1.4,2.2-1.4,2.2-2.8,4.3c-0.3,0-0.8,0-1.1,0C87.9,285.6,87.6,272.6,87.8,259.8z"/>
			<path class="st45" d="M202.7,433.8c5.1,2,10.1,4.3,15.1,6.8c7.3,3.6,14.5,6.7,22.1,9.3c2.5,1.1,2.5,1.1,3.6,3.3
				c-12.9,1.3-25.6-6-35.6-13.6c-1.7-1.4-3.6-3-5.1-4.6C202.7,434.6,202.7,434.2,202.7,433.8z"/>
			<path class="st46" d="M237,366.1c3.3,3.3,3.3,3.3,3.3,8.6c-2.2,2.2-2.2,2.2-6.9,2.4c-4.9-0.2-4.9-0.2-8.1-2.4
				c-0.4-3.3-0.4-3.3,0-6.5C229.3,365.5,232,365.7,237,366.1z"/>
			<path class="st47" d="M228.4,122.3c1.2,2.4,1.2,2.4,1.1,5.3c-3,3.8-6.4,6.6-10.7,8.6c-1.4-0.3-2.8-0.8-4.3-1.1
				c-0.1-3.6-0.1-3.6,1.1-7.5C219.9,123.4,222.1,122.3,228.4,122.3z"/>
			<path class="st48" d="M268,235c1.1,0,2.2,0,3.3,0c0.5,6.4-0.5,10-4.3,15.1c-4.3,3.6-7.5,4.6-12.9,5.3c1.1-2.2,2-4.3,3.1-6.4
				c0.9-1.7,0.9-1.7,1.6-3.6c1.5-2.9,1.5-2.9,3.8-4c-0.3,2.5-0.8,4.9-1.1,7.5c3.9-3.9,4.3-6.6,5.5-11.7
				C267.4,236.5,267.7,235.8,268,235z"/>
			<path class="st49" d="M282.1,187.6c4.2,0.2,4.2,0.2,5.2,1.3c0.4,3.1,0.4,3.1,0,6.5c-2.4,2.1-2.4,2.1-5.3,3.3
				c-3.7-0.2-4.9-0.7-7.5-3.3C275,189.6,276,187.9,282.1,187.6z"/>
			<path class="st50" d="M322.7,269.3c3.3,0.2,3.3,0.2,5.3,2.4c0.4,3.1,0.4,3.1,0,6.5c-4.3,3.3-4.3,3.3-7.2,3.1
				c-2.6-1-2.6-1-4.7-4.2C316.7,272.1,317.5,269.6,322.7,269.3z"/>
			<path class="st51" d="M217.5,292c1.1,1.1,2.2,2.2,3.3,3.3c-0.2,3.6-0.7,4.9-3.3,7.5c-3.3,0.3-3.3,0.3-6.5,0
				c-2.2-3.3-2.2-3.3-1.9-6.1C210.9,291.6,212.1,292,217.5,292z"/>
			<path class="st52" d="M165.1,255.4c1.4,0.3,2.8,0.8,4.3,1.1c0,6.3-1.4,10.3-5.3,15.1c-1.1,0-2.2,0-3.3,0
				c-0.3-5.2-0.4-8.8,1.9-13.5C163.5,257.3,164.2,256.3,165.1,255.4z"/>
			<path class="st53" d="M483.8,360.8c1.4,5.4,0.1,7-2.4,11.9c-0.7,1.3-1.3,2.7-2,4.1c-2.2,3.4-2.2,3.4-6.5,5.4
				c-0.5-6.5,0.8-9.3,4.7-14.4c0.9-1.1,1.6-2.3,2.7-3.4C482.6,361.9,482.6,361.9,483.8,360.8z"/>
			<path class="st54" d="M213.3,261.9c-0.4,6.4-1.9,9.4-6.5,14c-2.2,1.1-2.2,1.1-4.3,2.2C203.1,270.4,204.5,261.9,213.3,261.9z"/>
			<path class="st1" d="M341,206.1c0.3,1.1,0.8,2.2,1.1,3.3c-8.2,5.3-8.2,5.3-15.1,5.3c-1.1-4.3-1.1-4.3,0.3-6.7
				C332,205,335.6,205.5,341,206.1z"/>
			<path class="st55" d="M181.2,313.5c2.2,2.2,2.2,2.2,2.4,5.3c-0.2,3.3-0.2,3.3-2.4,5.3c-5.3,0-5.3,0-7.5-2.2
				c-0.2-3.3-0.2-3.3,0-6.5C175.7,313.5,175.7,313.5,181.2,313.5z"/>
			<path class="st1" d="M362.4,198.6c3.8-0.7,3.8-0.7,7.5,0c2.2,4.3,2.2,4.3,2.2,8.6c-1.1,0-2.2,0-3.3,0c-1.7-2.7-1.7-2.7-3.3-5.3
				c-0.1,1.5-0.1,3.3-0.2,4.8c-0.4,2.4-0.4,2.4-0.9,4.8c-1.6,0-3.6,0-5.3,0C360.4,201.6,360.4,201.6,362.4,198.6z"/>
			<path class="st56" d="M350.7,215.7c1.4,0.8,2.8,1.4,4.3,2.2c0,1.4,0,2.8,0,4.3c1.4,0,2.8,0,4.3,0c-1.1,3.3-1.1,3.3-3.3,4.3
				c0.8,0.3,1.4,0.8,2.2,1.1c0,0.8,0,1.4,0,2.2c-5.3,0-5.3,0-8.4-2.6c-2.4-2.8-2.4-2.8-2.4-4.9c0.8,0,1.4,0,2.2,0
				C350.4,219,350.4,219,350.7,215.7z"/>
			<path class="st1" d="M357.1,185.7c11.6-0.3,11.6-0.3,16.1,2.2c0.4,2.8,0.4,2.8-1.1,5.3c-4.1,0.7-4.1,0.7-8.6,0
				C360.6,190.9,358.7,188.9,357.1,185.7z"/>
			<path class="st57" d="M176.6,273.7c0.9,0.4,1.5,0.8,2.5,1.2c0.5,3.7,0.5,3.7,0,7.5c-1.1,1.1-2.2,2.2-3.3,3.3
				c-4.3-1.1-4.3-1.1-5.3-2.2c-0.2-3.1-0.2-3.1,0-6.5C173.7,273.8,173.7,273.8,176.6,273.7z"/>
			<path class="st58" d="M420.4,261.9c1.1,1.1,1.1,1.1,1.3,4.2c-0.2,3.4-0.2,3.4-2.4,5.4c-3.6-0.3-4.9-0.7-7.5-3.3
				c0.2-3.4,0.2-3.4,1.1-6.5C415.8,260.5,417.4,261.2,420.4,261.9z"/>
			<path class="st59" d="M305.6,158.8c3.1,1.1,3.1,1.1,5.3,2.2c-1.1,3.3-1.1,3.3-3.3,4.3c-9.1,0.4-9.1,0.4-12.9-2.2
				C296.7,157.4,300.2,158.4,305.6,158.8z"/>
			<path class="st60" d="M414,433.8c0.8,0.3,1.4,0.8,2.2,1.1c-1.2,1.2-1.2,1.2-2.4,2.3c-5.9,5.8-11.2,11.4-15.9,18.2
				c-1.1-3.3-1.1-3.3-0.1-5.6C402,442.5,406.3,437.5,414,433.8z"/>
			<path class="st61" d="M342.1,209.2c-0.3,3.7-0.9,5.1-3.4,7.8c-3.9,2.3-6.2,2.3-10.6,1.7c-0.8-0.8-1.4-1.4-2.2-2.2
				c0.3-1.1,0.8-2.2,1.1-3.3c2.5-0.4,5-0.8,7.5-1.1C340.4,209.2,340.4,209.2,342.1,209.2z"/>
			<path class="st62" d="M230.4,264c2.8,0.1,2.8,0.1,5.3,1.1c0.3,1.4,0.8,2.8,1.1,4.3c-1.1,1.1-2.2,2.2-3.3,3.3
				c-1.4-0.3-2.8-0.8-4.3-1.1c-1-2.6-1-2.6-1.1-5.3C229.1,265.5,229.7,264.8,230.4,264z"/>
			<path class="st63" d="M167.2,293.1c1.6,0,3.6,0,5.3,0c1,2.5,1,2.5,1.1,5.3c-1.1,1.5-1.1,1.5-2.2,3.3c-1.4-0.3-2.8-0.8-4.3-1.1
				C166.1,297.5,165.7,295.9,167.2,293.1z"/>
			<path class="st64" d="M185.5,389.8c2.8,1,5.6,2.1,8.5,3c1.5,0.5,3.1,1.1,4.7,1.6c4,1.6,4,1.6,6.1,4.9c-7.8-1.2-13-2.8-19.3-7.5
				C185.5,391.2,185.5,390.5,185.5,389.8z"/>
			<path class="st65" d="M227.7,474.6c3.9,0.1,3.9,0.1,6,1.2c-0.8,1.4-1.4,2.8-2.2,4.3c-3.9,0.5-3.9,0.5-7.5,0
				c-0.3-1.4-0.8-2.8-1.1-4.3C224,474.7,224,474.7,227.7,474.6z"/>
			<path class="st66" d="M180,336.1c2.8,0.7,2.8,0.7,5.3,2.2c0.1,2.8,0.1,2.8-1.1,5.3c-1.4,0.3-2.8,0.8-4.3,1.1
				c-0.8-0.8-1.4-1.4-2.2-2.2C178.6,337.6,178.6,337.6,180,336.1z"/>
			<path class="st67" d="M194.1,309.2c2.2,0,4.3,0,6.5,0c0.3,3.1,0.3,3.1,0,6.5c-2.6,1-2.6,1-5.3,1.1c-1.1-1.1-1.1-1.1-1.2-4.3
				C194.1,311.3,194.1,310.2,194.1,309.2z"/>
			<path class="st1" d="M269.2,332.9c1.6,0,3.6,0,5.3,0c0,0.8,0,1.4,0,2.2c0.8,0,1.4,0,2.2,0c0.7,3.3,0.7,3.3,1.1,6.5
				c-1.4,0-2.8,0-4.3,0c-0.3-1.4-0.8-2.8-1.1-4.3c-1.1,0-2.2,0-3.3,0C269.2,335.7,269.2,334.3,269.2,332.9z"/>
			<path class="st68" d="M199.4,344.7c2.8,0.1,2.8,0.1,5.3,1.1c0,1.6,0,3.6,0,5.3c-2.6,1-2.6,1-5.3,1.1c-1.1-1.1-1.1-1.1-1.1-6.5
				C198.6,345.4,199.1,345,199.4,344.7z"/>
		</g>
		<g>
			<path class="st3" d="M417,268.3l-0.1,0.3c0,0.1-0.1,0.1-0.1,0.1l-0.7-0.2c-0.1,0-0.1,0-0.1,0.1l-0.2,0.7c0,0.1-0.1,0.1-0.1,0.1
				l-1.6-0.3c-0.1,0-0.1-0.1-0.1-0.1l0.3-1.3c0.2-0.8,1-1.2,1.7-1C416.8,266.7,417.3,267.5,417,268.3z M415.9,268.4
				C416,268.4,416,268.4,415.9,268.4l0.2-0.4c0.1-0.3-0.1-0.5-0.3-0.6c-0.3-0.1-0.5,0.1-0.6,0.3l-0.1,0.3c0,0.1,0,0.1,0.1,0.1
				C415.1,268.2,415.9,268.4,415.9,268.4z"/>
			<path class="st3" d="M416.9,268.8l-0.2,0.7c0,0.1,0,0.1,0.1,0.1l0.7,0.2c0.1,0,0.1,0,0.1-0.1l0.2-0.7c0-0.1,0-0.1-0.1-0.1
				L416.9,268.8L416.9,268.8z"/>
			<path class="st3" d="M417.2,268.2C417.1,268.2,417,268.1,417.2,268.2l0.1-0.8c0,0,0-0.1,0.1-0.1l0.8-0.2c0.1,0,0.2,0.1,0.1,0.1
				l-0.2,0.7c0,0,0,0.1-0.1,0.1L417.2,268.2z"/>
			<path class="st3" d="M415.1,264c-0.3,1,0.3,2.1,1.4,2.4c0.3,0.1,0.5,0.1,0.8,0c0,0,0.1,0,0.1-0.1l0.2-0.7c0-0.1,0-0.1-0.1-0.1
				l-1.4-0.4c-0.1,0-0.1-0.1-0.1-0.1l0.4-1.4c0-0.1,0.1-0.1,0.1-0.1l1.4,0.4c0.1,0,0.1,0.1,0.1,0.1l-0.4,1.4c0,0.1,0,0.1,0.1,0.1
				l0.7,0.2h0.1c0.2-0.2,0.3-0.4,0.4-0.7c0.3-1-0.3-2.1-1.4-2.4C416.5,262.4,415.4,263.1,415.1,264z"/>
		</g>
		<g>
			<polygon id="polygon5" class="st0" points="274.7,311 279.8,311 279.8,313.6 282.4,313.6 282.4,309 277.3,309 282.4,303.8 
				279.8,303.8 274.7,309 			"/>
			<polygon id="polygon7" class="st0" points="283.5,306.4 286.1,303.8 283.5,303.8 			"/>
			<polygon id="polygon9" class="st0" points="286.1,306.4 283.5,309 283.5,311.5 286.1,311.5 286.1,309 288.7,306.4 288.7,303.8 
				286.1,303.8 			"/>
			<polygon id="polygon11" class="st0" points="288.7,309 286.1,311.5 288.7,311.5 			"/>
		</g>
	</g>
</g>
</svg>
