<?xml version="1.0" encoding="utf-8"?>
<!-- Generator: Adobe Illustrator 24.0.1, SVG Export Plug-In . SVG Version: 6.00 Build 0)  -->
<svg version="1.1" id="svg" xmlns="http://www.w3.org/2000/svg" xmlns:xlink="http://www.w3.org/1999/xlink" x="0px" y="0px"
	 viewBox="0 0 600 600" style="enable-background:new 0 0 600 600;" xml:space="preserve">
<style type="text/css">
	.st0{fill:#FFCD5A;}
	.st1{fill:#060A2B;}
	.st2{fill:#52BDFF;}
	.st3{fill:#F1F3F2;}
	.st4{fill:#F0F2F2;}
	.st5{fill:#582839;}
	.st6{fill:#E6EBEA;}
	.st7{fill:#EAEDEA;}
	.st8{fill:#DAE3E2;}
	.st9{fill:#12182F;}
	.st10{fill:#BE2AD1;}
	.st11{fill:#E8ECE7;}
	.st12{fill:#E6E9E7;}
	.st13{fill:#D8E0E0;}
	.st14{fill:#E6EAEA;}
	.st15{fill:#A5C5D2;}
	.st16{fill:#BED2DC;}
	.st17{fill:#C4D7DB;}
	.st18{fill:#D0DBDE;}
	.st19{fill:#030B2C;}
	.st20{fill:#E7ECEC;}
	.st21{fill:#A7C7D1;}
	.st22{fill:#B2C9D2;}
	.st23{fill:#040C2D;}
	.st24{fill:#0B1031;}
	.st25{fill:#83ACC1;}
	.st26{fill:#BCD0DA;}
	.st27{fill:#B8CED9;}
	.st28{fill:#161A36;}
	.st29{fill:#82ABC0;}
	.st30{fill:#8AB7C8;}
	.st31{fill:#09102F;}
	.st32{fill:#DFE2E0;}
	.st33{fill:#F15C46;}
	.st34{fill:#5EA2B6;}
	.st35{fill:#080E2E;}
	.st36{fill:#4596B6;}
	.st37{fill:#E4E7E2;}
	.st38{fill:#E5EAED;}
	.st39{fill:#E7484F;}
	.st40{fill:#060D2C;}
	.st41{fill:#0C1433;}
	.st42{fill:#0B122F;}
	.st43{fill:#7BA9BC;}
	.st44{fill:#A4C1D1;}
	.st45{fill:#050C27;}
	.st46{fill:#0A1130;}
	.st47{fill:#4E8BA6;}
	.st48{fill:#0D142F;}
	.st49{fill:#E4FBFB;}
	.st50{fill:#0C122B;}
	.st51{fill:#0D1431;}
	.st52{fill:#4197B4;}
	.st53{fill:#0F87A9;}
	.st54{fill:#060B28;}
	.st55{fill:#435379;}
	.st56{fill:#0C112D;}
	.st57{fill:#E6E9EC;}
	.st58{fill:#131C3A;}
	.st59{fill:#4898AF;}
	.st60{fill:#113062;}
	.st61{fill:#0C1026;}
	.st62{fill:#11162A;}
	.st63{fill:#D84855;}
	.st64{fill:#0F192E;}
	.st65{fill:#11172F;}
	.st66{fill:#0E132C;}
	.st67{fill:#1B1F32;}
</style>
<g>
	<path class="st0" d="M365.4,43.5c1.3,0.3,2.5,0.5,3.8,0.9c7,1.6,13.4,3.9,20.1,6.7c1,0.3,2,0.8,3,1.2c1.2,0.5,1.2,0.5,2.4,1
		c0,0.3,0,0.8,0,1.1c-11.9,0-23.2-1.8-34.9-4.2c-26.8-6.5-26.8-6.5-54-6.6c-0.3,1.1-0.8,2.2-1.1,3.3c1,0.1,1.8,0.2,2.8,0.2
		C366,52.1,366,52.1,386,66.2c0.8,1.1,1.4,2.2,2.2,3.3c-8.1-0.5-15.8-2.5-23.6-4.3c-31.2-7.4-66.3-6.5-97.8-1.1
		c-1.7,0.3-3.5,0.7-5.3,0.9c-17.5,3.6-37.5,9.8-51.1,21.9c4.7-1.7,9-4,13.4-6.3c24.6-12.3,50.7-16.7,78.1-16.7c2.8,0,5.5,0,8.3-0.1
		c15.8-0.1,30.6,2.3,45.7,7c1.1,0.3,2.1,0.7,3.1,1c37.8,12,37.8,12,47.6,25.9c0.4,1.1,1,2.2,1.4,3.4c2.6,4.6,6,6.2,10.5,8.6
		c1.1,0,2.2,0,3.3,0c0-1.4,0-2.8,0-4.3c5.9,0.4,8.3,2.3,12.6,6.3c1,1,2,1.8,3,2.8c1.8,1.8,3.7,3.6,5.4,5.4
		c4.4,4.4,9.1,8.7,13.7,12.9c2.2,2.1,4.3,4.1,6.6,6.2c1.1,1.1,1.1,1.1,2.3,2.2c1.8,1.7,3.6,3.6,5.3,5.4c-0.3,0.8-0.8,1.4-1.1,2.2
		c-0.8-0.5-1.5-1.1-2.3-1.7c-8.9-6.6-8.9-6.6-18.3-12.4c-0.8,0.8-1.4,1.4-2.2,2.2c1.3,0.8,2.6,1.6,4,2.4c35.1,21.6,58,52,68.6,92
		c1.6,7,2.4,13.4,2.2,20.6c-2.8-2.8-3.6-5.9-4.9-9.4c-16.5-46.2-51.4-81.4-92.7-106.6c-1.8-1.1-1.8-1.1-3.7-2.3
		c-24.7-14.6-51.1-26.1-79.8-30.3c-1-0.1-2-0.3-2.9-0.4c-17.7-2.2-33.1-0.3-49.4,6.3c-10,4-19.2,6.1-29.8,6.6
		c-11.2,0.7-17.9,4.2-26.2,11.4c-1.2,1-1.2,1-2.4,2.1c-24.2,21.3-41.6,45.3-57.6,73.2c-0.8,1.3-1.5,2.6-2.3,3.9
		c-3.9,6.8-7.4,13.6-10.3,20.7c-0.3,0.7-0.8,1.4-1.1,2.1c-2.2,0-2.2,0-4.3-2.2c-1.2,3.7-1.3,6.7-1.4,10.6
		c-0.5,8.8-2.5,16.8-5.1,25.2c-0.8-0.3-1.4-0.8-2.2-1.1c-6-21.4-3.9-54.5,5.4-74.8c2-3.5,4.1-6.6,6.5-9.8c3.5-5,5.4-7.8,5.4-14.1
		c-1.2-1.4-1.2-1.4-4-1.5c-4.9,0.5-6.7,2.4-10.1,5.9c-5.1,6.8-4.8,12.4-4.4,20.5c0.2,7.9,0.2,15.3-1.5,23
		c-1.8,8.9-2.1,17.7-2.1,26.7c0,2.2,0,2.2-0.1,4.2c0,6.8,0.4,12.5,2.7,18.9c3.5,10.1,2.6,20.6,2.4,31.1c0,3.1-0.1,6.3-0.1,9.4
		c0,2,0,3.9-0.1,5.7c-0.1,6,0.3,11.7,1.1,17.6c-0.8-0.3-1.4-0.8-2.2-1.1c-1-3.8-2-7.6-2.7-11.5c-0.2-1.2-0.4-2.3-0.8-3.5
		c-4.6-21.9-5.3-43.7-5.5-66c0-1.6,0-3.1-0.1-4.8c0-9.4,0.9-18.2,2.9-27.4c1-5.7,0.4-11.2-0.4-16.9c-0.8,0-1.4,0-2.2,0
		c0.2,0.7,0.3,1.4,0.5,2.1c1.1,6.7,1.1,12-1.6,18.2c-3.8,11.1-2.8,22.9-2.7,34.4c0,1.2,0,2.5,0,3.7c0.1,21.4,1.6,41.9,6.6,62.7
		c1.2,5,1.8,9.7,2,14.7c1.3,23.2,15.4,43.3,30.8,59.9c1.6,1.7,3.1,3.6,4.7,5.3c23.6,27.8,57.3,41.1,92.1,47.2
		c-3.4,3.4-6.5,2.5-11.2,2.5c-32-0.4-60.2-18.3-83-39.5c-1.8-1.7-3.8-3.4-5.7-4.9c-21.6-18.7-44.5-53.8-47.5-82.8
		c-0.1-2.9-0.1-5.9-0.1-8.8c0-1.5,0-2.9,0-4.6c0.1-3.4,0.5-6.2,1.2-9.5c0.7-9.3,0.1-17.9-2.2-27c-2-8.7-2.6-16.8-2.6-25.7
		c0-1.2,0-2.4,0-3.6c0.1-8.8,0.5-17.6,7-24.1c1.4-0.3,2.8-0.8,4.3-1.1c1.2-4.6,1.4-8.3,1.1-13c-2.8-3.5-2.8-3.5-6.4-3.8
		c-3.6,0.3-3.6,0.3-6.5,2.8c-2.9,4-3,6-2.3,10.7c1.6,2.2,1.6,2.2,3.3,4.3c-0.2,4.7-0.8,9.1-1.6,13.8c-1.4,9.8-1.3,19.8-1.6,29.6
		c-0.1,1.7-0.1,1.7-0.1,3.5c-0.8,26,0,54.4,9.9,78.9c0.7,1.5,1.2,3,1.8,4.6c1.2,2.8,2.4,5.7,3.6,8.6c0.3,1.1,0.8,2.1,1.1,3.1
		c-0.3,0.8-0.8,1.4-1.1,2.2c-11.6-15.1-15.9-31.2-18.2-49.8c-0.8-5.3-1.6-9.7-4.6-14.2c-3.1-1.5-3.1-1.5-6.5-1.1
		c-3.4,3.3-3.3,5.7-3.7,10.4c0.4,12.4,5.3,23.3,9.8,34.6c3.6,9,6.5,18.1,9.1,27.4c4.2,14.6,10.5,27.8,20.5,39.3
		c0.8,0.9,1.5,1.8,2.3,2.8c23.5,27.7,63,44.6,98.5,49.7c8.9,0.5,16.6-3.7,24.2-7.7c7.8-3.6,15.8-3.9,24.2-3.9c1,0,2,0,2.9,0
		c6.4,0,12,1,18.2,2.5c11.2,0.9,19.5-3.3,28.2-9.8c3-2.7,5.7-5.7,8.6-8.7c9.3-9.7,19.5-17.3,30.5-24.9c0.9-0.5,1.7-1.2,2.6-1.8
		c3.5-2.4,6.9-4.8,10.3-7c8.3-5.7,16.6-11.6,24.8-17.6c1.5-1.1,3.1-2.3,4.7-3.4c24.7-18,41.2-33.8,46.3-64.7
		c2.5-13.7,6.3-26.5,11.1-39.5c3-8.1,4.7-15.2,4.7-23.9c0-1.4,0-1.4,0-2.9c-0.1-8.6-2-15.8-5.9-23.5c0,0.9-0.1,1.7-0.1,2.6
		c-0.1,1.7-0.1,1.7-0.2,3.6c-0.1,1.2-0.1,2.3-0.2,3.5c-0.4,3.8-1.2,7.3-2.2,11.1c-1.8,7.6-2.5,15.1-3,22.9c-1.1,13-3,25.7-5.6,38.6
		c-0.3,1.5-0.7,3.1-1,4.8c-3.5,16.7-7.3,32.5-21.4,43.3c1.8-5.6,3.8-11.2,5.9-16.7c3.3-9.1,6-18.3,8.2-27.8c0.2-1,0.5-2,0.8-3
		c4.3-17.6,5.2-34.9,5.2-52.9c0-1.1,0-2.2,0-3.3c0-21.1-0.3-46.8-14.7-63.8c-35.6-35.3-83.8-48.5-132.6-48.7
		c-33,0.2-67.8,6.3-94.2,27.4c-1.3,1.1-2.7,2.1-4.1,3.1c-0.8-0.3-1.4-0.8-2.2-1.1c27.1-29.7,71.2-35.7,109.5-38
		c5.4-0.2,10.8-0.2,16.2-0.2c1.4,0,2.8,0,4.2,0c20,0,37.3,5.4,55.6,13.1c2.9,1.4,2.9,1.4,5.3,1.2c-13.2-6.5-26.7-11.1-41-14.6
		c-6.9-1.7-13.1-3.8-19.4-7c-13.6-6-30.3-1.7-43.7,2.2c-2.6,0.7-5.1,1.4-7.7,2.1c-2,0.5-2,0.5-4,1.1c-3.5,0.9-6.8,1.8-10.3,2.7
		c-32,8.3-55.4,20.6-75.6,47.3c-1.5,2-3,3.9-4.6,5.9c-1.5,2-1.5,2-3,3.9c-0.3-0.8-0.8-1.4-1.1-2.2c1.5-3.4,1.5-3.4,3.7-7.6
		c0.8-1.4,1.4-2.7,2.2-4.1c11.9-19.5,32.1-41.4,54.4-48.3c4.4-1,8.8-1.4,13.2-1.8c9.3-0.9,17.5-3.3,26.2-6.6
		c2.2-0.9,4.3-1.6,6.6-2.4c0.9-0.3,1.7-0.7,2.7-1.1c30.3-9.8,69.9,4.1,97,16.9c12.9,6.6,21.1,14.9,28.7,27.1
		c5.6,8.7,13.2,14.7,21.1,21.3c7.2,5.9,12,12,17.3,19.5c1,1.3,2,2.7,2.9,4.1c14.5,20.5,27.1,45.8,24.2,71.8
		c-1.2,3.8-2.6,7.2-4.3,10.8c0.3-0.3,0.8-0.8,1.1-1.1c5-2.2,5-2.2,7.6-2.2c0.8-3.5,0.8-3.5,1.2-7.6c0.3-2.5,0.7-5.1,1-7.6
		c0.3,0,0.8,0,1.1,0c0.3,4.7,0.8,9.3,1.1,14.1c0.8,0,1.4,0,2.2,0c-0.7-28.1-4.6-46.8-24.2-67.9c-4.1-4.6-7.6-9.3-11-14.4
		c-7.4-11.1-15.6-19.8-25.9-28.1c-2.7-2.2-5.3-4.4-7.9-6.9c-1.1-1-1.1-1-2.1-2c-1.6-1.5-1.6-1.5-1.6-6.9c4.3-1.1,4.3-1.1,7.3,0.2
		c11.7,7,21.8,15.5,31.8,24.7c0.9,0.8,1.6,1.5,2.5,2.3c21.8,20.9,39.6,51.5,41.1,82.2c0.1,12.5-1.5,24.2-4.3,36.3
		c-0.1,0.9-0.1,1.8-0.2,2.8c1.1,0.3,2.2,0.8,3.3,1.1c3-6.1,3.9-12.3,5.2-18.9c1.6-6.3,3.8-11.6,8.1-16.4c2.9-1.5,2.9-1.5,6.7-1.7
		c3.7,1.3,3.7,1.3,6.1,4.6c7.6,16.8-0.2,38.5-6.1,54.5c-2.8,7.8-4.1,15.6-5.2,23.9c-0.9,5.5-2.1,10.8-3.5,16.2
		c-0.4,1.6-0.9,3.3-1.3,4.9c-1.5,4.8-3.4,8.9-5.9,13.3c-0.3,0-0.8,0-1.1,0c-0.2-8,0.7-15,2.4-22.8c0.5-2.2,1-4.4,1.5-6.6
		c0.2-1.1,0.5-2.2,0.8-3.3c0.7-2.8,1.2-5.6,1.7-8.3c1.7-8.5,3.9-16.2,7.2-24.2c5.1-12.6,8.7-26.3,6.9-40c-0.8-1.4-1.4-2.8-2.2-4.3
		c-3.1-0.9-3.1-0.9-6.5,0c-10.5,13.2-8,33.6-8,49.6c0,15.7-1.4,29.7-6.8,44.6c-1.2,4-1.4,6.2-1.3,10.3c0.5,25.8-25,53.1-41.3,71.1
		c-1.3,1.5-2.6,3-3.9,4.6c-46.6,53-109.4,80.8-176.7,96.6c-7.8,1.8-15.5,3.8-23.1,6.3c-6.8,2.1-12.5,2.8-19.6,2.2
		c-1.1-0.8-2.2-1.4-3.3-2.2c1.1-4.3,1.1-4.3,4.9-7.2c13.2-7.7,30.1-10.1,45-13.4c13.6-3.1,26.9-6.4,40.1-10.8c1-0.3,2-0.7,3-1
		c30.6-10.5,58.9-26,83.7-46.7c1.2-1,2.5-2.1,3.7-3c6.4-5.3,12.6-10.8,18.3-16.9c1.8-1.7,1.8-1.7,4-1.7c0.8-1.4,1.4-2.8,2.2-4.3
		c1.8-2,3.8-3.8,5.6-5.6c4.8-4.7,8.9-9.4,12.8-15c-1.1,0-2.2,0-3.3,0c-0.8-2.7-0.8-2.7-1.1-5.4c-12.8,8.2-24.7,17.8-35.8,28.2
		c-0.8,0.7-1.5,1.4-2.3,2.1c-3.9,3.8-7.5,7.7-10.8,12c-17.9,22.2-38.5,40.7-66,49.9c-1.1-0.3-2.2-0.8-3.3-1.1c1-0.8,2-1.5,2.9-2.3
		c20.6-16.2,38.9-31.1,53.5-53c-1.1-0.3-2.2-0.8-3.3-1.1c2.2-7.6,4.9-12.3,9.8-18.4c0.3-1.1,0.8-2.2,1.1-3.3c0.8,0,1.4,0,2.2,0
		c-0.3-0.3-0.8-0.8-1.1-1.1c-0.8-0.8-1.4-1.4-2.2-2.2c0.3-0.8,0.8-1.4,1.1-2.2c-7.5,2.7-11.9,8.8-15.5,15.7
		c-1.2,2.8-2.3,5.6-3.5,8.5c-5.5,13.4-12.1,22.9-23.4,32.1c-1.4,1.2-2.8,2.5-4.2,3.7c-0.7,0.7-1.4,1.2-2.2,1.8
		c-6.2,5.4-12.4,10.8-18.1,16.8c-4.4,4.6-9,8-14.5,11.2c-1.1-0.3-2.2-0.8-3.3-1.1c0-5.4,0-5.4,1.1-7.6c-1,0.5-2,1.1-3,1.6
		c-38.7,20.3-83,22.2-125.9,22.7c-1.4,0-1.4,0-2.8,0c-6.5,0-12.1-1.2-16.9-5.9c0.3-1.4,0.8-2.8,1.1-4.3c12.8-6.4,29-4.8,42.9-4.9
		c41.7-0.4,78.4-7.8,113.6-31.4c3.4-2,6.8-3.5,10.5-4.9c8.5-3.5,15.6-7.3,21.3-14.6c1.6-4.2,2.2-6.9,1.5-11.4
		c-4.6-3.5-5.4-3.9-10.8-3.3c-5.9,2.4-7.8,7.2-10.5,12.6c-7.5,14-16.8,22.1-30.7,29.7c-1.2,0.7-2.3,1.3-3.5,2
		c-32,16.9-66.3,19.7-101.7,14.9c-9.7-1.2-19.3-1.6-29-1.8c-1.4,0-2.8,0-4.2-0.1c-2.8,0-5.6-0.1-8.6-0.1
		c-11.8-0.2-23.1-2.1-33.1-8.8c-1-0.7-1.8-1.2-2.8-1.8c-2.8-2.3-4.8-4.6-6.8-7.5c0-0.3,0-0.8,0-1.1c13.1,0.7,26,1.7,39.1,3.1
		c1.8,0.2,3.7,0.4,5.6,0.5c10.2,1.1,20.4,2.2,30.6,3.5c1.5,0.2,1.5,0.2,3.1,0.4c4.3,0.5,8.6,1.1,12.8,1.7
		c34.3,5,74.8,1.5,103.8-19.1c3.7-2.9,3.7-2.9,6.7-6.5c-0.2-3.5-0.2-3.5-1.1-6.5c-17.3,3.7-32.7,10.5-48.7,18.2
		c-34.4,16.6-72.1,12.7-107.5,1.2c-41.7-15.8-75.8-46.5-94.4-87.2C53.8,356.4,44.4,306.4,52,257.1c0.3-2.3,0.3-2.3,0.8-4.7
		c6.4-38.8,20.9-76.3,45.9-107c1.3-1.6,1.3-1.6,2.5-3.1c29.4-36,29.4-36,42-40.2c-10.4,0-24.8,18.2-32.1,25.4
		c-31.1,31.4-51.6,73.3-60.1,116.7c-0.3,1.6-0.7,3.1-1,4.8c-9.2,53.8-0.2,111.3,23.7,160c1.3,2.7,2.6,5.3,3.8,8
		c0.9,1.7,1.7,3.6,2.5,5.3c7.7,16.2,7.7,16.2,6.6,22.4c-1.4,0.3-2.8,0.8-4.3,1.1c-23.2-25.4-34-65.8-41.2-98.7
		c-0.5-2.5-0.5-2.5-1.2-5c-10.1-54.3-1.3-111.5,23-160.9c0.5-1.1,1-2.2,1.5-3.3c7.9-16.5,18.1-30.6,29.9-44.5
		c0.8-0.9,1.5-1.7,2.3-2.6c1.7-2.1,3.6-4,5.3-6.1c0.7-0.8,1.3-1.6,2.1-2.4c12.6-14.4,27-26.3,42.4-37.7c1.1-0.8,2.1-1.6,3.1-2.4
		C210.4,36.2,292.6,27.1,365.4,43.5z"/>
	<path class="st1" d="M493.3,79.2c3.1,2.8,6.3,5.6,9.3,8.6c0.7,0.7,1.4,1.3,2.1,2c4.8,4.6,9.2,9.4,13.4,14.4c1,1.2,2.1,2.3,3.1,3.5
		c14.6,16.7,26.5,34.5,37,54c1.2,2.2,1.2,2.2,2.4,4.3c12.9,24.8,23.3,52.6,28,80.2c0.3,1.5,0.7,3.1,0.9,4.7
		c2.6,15.2,2.6,30.4,2.6,45.8c0,1.6,0,1.6,0,3.3c-0.1,48.6-10.7,94.1-33.8,137.2c-0.8,1.4-1.5,2.8-2.3,4.3
		c-12.6,23-28.4,43.2-46.5,61.8c-1.1,1.2-2.3,2.4-3.5,3.6c-6.8,6.9-13.8,13.2-21.5,19.2c-1.3,1-2.5,2-3.8,3
		c-51.1,39.4-113.7,61.2-178.3,61.2c-2.9,0-6,0-8.9,0c-16.4,0-32.5-1.3-48.7-4.3c-1-0.2-2-0.3-3-0.5c-46.7-9-90.1-29.6-127.2-59.3
		c-1.3-1-1.3-1-2.6-2.1c-8.1-6.5-15.5-13.6-22.9-20.9c-1.2-1.2-2.4-2.4-3.6-3.6c-7.8-8.1-15.2-16.2-21.7-25.5
		c-0.7-0.9-1.3-1.7-2-2.7c-2-2.7-3.8-5.4-5.6-8.1c-0.8-1.2-1.6-2.4-2.4-3.7c-19.8-30.7-36.3-66.3-42.1-102.6
		c-0.3-1.5-0.5-3.1-0.9-4.7c-0.9-4.9-1.7-9.9-2.4-14.9c-0.2-1.3-0.3-2.5-0.5-3.8c-1.5-10.7-2-21.4-2-32.2c0-1.7,0-3.4,0-5.1
		c0.2-24.1,2.7-47.4,9-70.6c0.3-1.3,0.3-1.3,0.8-2.7c5.6-21,14-41,24.2-60.2c0.4-0.8,0.9-1.5,1.2-2.4c18.4-34.7,44.5-66.9,75.8-90.9
		c1.1-0.9,2.1-1.6,3.1-2.5c13.4-10.7,28.2-20.1,43.5-27.9c1.3-0.7,2.6-1.3,3.9-2.1c22.8-11.6,46-19.6,70.9-25
		c1.5-0.3,3.1-0.8,4.7-1.1C332-8.1,425.8,20.1,493.3,79.2z M146.3,84.7c-1.2,0.9-2.4,1.8-3.7,2.7c-6.8,5.2-13.3,10.6-19.6,16.5
		c-2.4,2.2-4.9,4.3-7.3,6.5c-17.1,14.9-31.1,33.3-43.2,52.4c-0.7,1-1.3,2-2,2.9c-15.8,25.5-25.3,55.5-30.6,84.9
		c-0.2,1-0.3,2-0.5,2.9c-11.4,63.7,3.6,135.8,40,189.3c1.8,2.4,1.8,2.4,6.1,3c0.3-0.3,0.8-0.8,1.1-1.1c-0.3-7.4-2.3-12.8-5.4-19.5
		c-0.4-1-1-2.1-1.4-3.1c-1.1-2.3-2.1-4.6-3.1-6.7c-18.5-39.7-29.5-79-29.3-123.1c0-1.1,0-2.1,0-3.1c0.2-64.3,24.7-121.7,69.6-167.7
		c19.5-19.3,19.5-19.3,24-19.3c-3.8,3.9-7.6,7.6-11.6,11.1c-13,11.3-24.8,23.7-35,37.7c-0.5,0.8-1.2,1.6-1.7,2.5
		c-12.3,16.8-21.7,35.2-28.7,54.9c-0.7,1.6-1.2,3.3-1.8,5C40.2,275.6,48,344.1,74.6,403.7c17,35.2,42.7,60.1,77.1,78
		c1.4,0.8,2.7,1.4,4.1,2.2c10.6,5.3,21.3,8.1,32.7,10.8c1.6,0.4,3.1,0.8,4.8,1.2c35.9,7.4,65.1,0.4,97.3-15.1
		c10.7-5.1,21.8-8.8,33.5-11.1c1.2,2.7,1.2,2.7,1.1,6.5c-11.7,16.2-38.3,22.2-57.1,25.5c-26.1,4-52,1-78.1-2.8
		c-0.9-0.1-1.7-0.2-2.7-0.4c-0.9-0.1-1.8-0.2-2.7-0.4c-11.2-1.5-22.3-2.6-33.5-3.7c-1-0.1-2-0.2-3-0.3c-2.8-0.3-5.7-0.5-8.6-0.9
		c-1.6-0.1-3.4-0.3-5.1-0.4c-3.7-0.3-7.3-0.4-11-0.3c4.9,9.2,13.8,13.3,23.4,16.6c4.8,1.4,8.9,2.1,13.8,2.2c1.4,0,2.7,0.1,4.1,0.1
		c1.4,0,2.9,0.1,4.4,0.1c11.2,0.3,22.3,0.8,33.5,1.7c1.1,0.1,2.2,0.2,3.4,0.3c3.9,0.3,7.8,0.7,11.6,1.4
		c37.5,5.7,76.9-3.7,107.9-25.5c9.2-7,14.5-14.5,19.6-24.7c2.4-4.8,4.2-7.9,9.2-10c5.4-0.7,6.3-0.2,10.8,3.3
		c0.7,4.4,0.1,7.2-1.5,11.4c-6.4,8.6-15.7,12.5-25.3,16.7c-5.5,2.7-10.7,5.6-16,8.8c-34.8,20.2-67.7,24.9-107,25.5
		c-21.6-1-21.6-1-41,6c0.8,4.8,0.8,4.8,5.4,7.6c42.4,10.6,105.5-2.3,143.1-22.8c-0.2,1.2-0.5,2.5-0.8,3.7c-0.1,1.3-0.2,2.6-0.3,3.9
		c1.1,0.3,2.2,0.8,3.3,1.1c9.2-4.9,16.4-12.9,23.6-20.3c4.7-4.8,9.5-9.1,14.9-13.2c13.3-10.4,20-21.6,26-37.3
		c3-7.6,6.9-13.9,14-18.2c1.4-0.5,1.4-0.5,2.8-1c-0.3,1.1-0.8,2.2-1.1,3.3c0.8,0.3,1.4,0.8,2.2,1.1c-0.3,0.3-0.8,0.8-1.1,1.1
		c-0.8,1.4-1.4,2.8-2.2,4.3c-1.1,1.5-2.2,3.1-3.3,4.7c-2.8,4.1-4.3,7.8-5.4,12.7c1.1,0.3,2.2,0.8,3.3,1.1
		c-13.7,20.1-29.7,35.2-49.1,49.7c-2.6,2.1-5,4.2-7.3,6.7c24-3.7,47.1-22.8,61.9-41.2c16.2-20.1,34.7-37,56.3-51
		c0.1,0.9,0.2,1.7,0.3,2.7c0.2,0.9,0.5,1.7,0.8,2.7c1.1,0,2.2,0,3.3,0c-5.7,7.4-11.8,14.2-18.5,20.6c-2.3,2-2.3,2-2.1,4.3
		c-1.4,0.8-2.8,1.4-4.3,2.2c-1.8,1.7-3.6,3.6-5.3,5.3c-6.7,6.9-14.1,12.7-21.8,18.5c-1.2,1-2.5,2-3.8,2.9
		c-39,29.7-83.7,43.6-130.9,54.7c-19.8,3.9-19.8,3.9-36.7,14c0.3,1.4,0.8,2.8,1.1,4.3c8.5,4.2,20-0.2,28.3-2.8c10-3,20-5.7,30.1-8.1
		c19-4.4,37.3-9.7,55.4-17.2c1.6-0.7,3.1-1.3,4.8-2c30-12.9,57.5-30.7,81.4-53c2.3-2.2,4.7-4.1,6.9-6.2c4.9-4.2,9.3-8.8,13.8-13.3
		c2.5-2.5,2.5-2.5,4.7-3.6c0.8,1.1,1.4,2.2,2.2,3.3c1.4,0.8,2.8,1.4,4.3,2.2c-2.5,2.7-5.1,5.4-7.6,8.2c-0.7,0.8-1.4,1.5-2.2,2.3
		c-4.8,5.2-9.9,9.9-15.2,14.4c-1.2,1.1-2.5,2.2-3.7,3.4c-39.1,34.7-87.1,58.8-138,70.3c-2.7,0.7-5.3,1.4-7.9,2.3
		c-0.8,1.4-1.4,2.8-2.2,4.3c1.3,1.5,1.3,1.5,4.9,1.3c47.3-1.7,97.6-31.3,133.9-59.9c1.6-1.3,1.6-1.3,3.3-2.5
		c19.5-15.6,38.4-33.6,53.1-53.9c0.5-0.8,1.1-1.4,1.6-2.2c18-24.4,41.7-61.6,41.7-93.3c0.8,0,1.4,0,2.2,0c0-0.8,0-1.4,0-2.2
		c0.8,0,1.4,0,2.2,0c-10.1,45.1-28.8,84.5-60.3,118.6c-2.3,2.5-4.4,4.9-6.6,7.5c-6.1,7-12.8,13.2-19.8,19.3c-1,0.9-2,1.7-2.9,2.6
		c-10,8.8-20.7,16.2-31.8,23.4c-1.4,1-2.9,2-4.3,2.9c-18.5,11.9-38,21-58.3,29.4c-1.4,0.5-2.8,1.1-4.2,1.7c-1.3,0.5-2.5,1-3.8,1.5
		c-3,1.2-3,1.2-5.1,3.5c32.2,2.9,69-24.1,93.3-42.3c1.3-1,2.5-1.8,3.8-2.8c18.3-13.8,35.9-29.4,50.4-47.1c1.1-1.2,2.1-2.5,3.1-3.7
		c31.2-37.3,55.6-87.5,55.6-136.5c0.8-1.4,1.4-2.8,2.2-4.3c0.5-6.1,0.3-12.1,0.3-18.2c0-1.7,0-3.5,0-5.3c-0.1-14.9-1-29.8-4.2-44.3
		c-0.8-4-0.9-8.1-1.1-12.1c-0.1-1.6-0.2-3.4-0.3-5c-0.1-1.3-0.1-2.5-0.2-3.8c17.6,67.1,9.4,138.1-25.6,198.5
		c-9.5,15.4-20.7,29.6-32.9,42.9c-2.1,2.3-4.1,4.7-6.2,7c-3.1,3.7-6.6,6.7-10.3,9.9c-2,1.7-3.7,3.5-5.5,5.3
		c-9.7,9.8-21.5,17.6-32.6,25.5c-4.3,2.8-4.3,2.8-7.4,6.7c27.9-7.8,56.7-35.3,74.8-57.5c0-0.8,0-1.4,0-2.2c0.8,0,1.4,0,2.2,0
		c45.1-54.2,65.3-122.9,59.3-193c-1.6-14-4.4-27.8-8.3-41.2c-0.4-1.4-0.9-2.8-1.3-4.3c-3-10-6.6-19.6-10.6-29.3
		c-0.8-1.7-1.4-3.5-2.2-5.3c-10.3-25.2-23.9-47.5-42.5-67.3c-2-2.2-2-2.2-5.2-6.5c-0.8,0-1.4,0-2.2,0c-0.8-1.4-1.4-2.8-2.2-4.3
		c-2-1.7-3.9-3.6-5.9-5.2c-2.1-1.7-4.1-3.6-6.2-5.3C455.2,87,455.2,87,430,77.8c-1,0.1-2,0.2-3,0.4c1.4,5.6,3.9,6.6,8.7,9.8
		c-1.4,0.8-2.8,1.4-4.3,2.2c-2.2-1.2-2.2-1.2-4.6-3.1c-10.7-8.1-24.6-14.1-38.2-14.5c-7.5-0.4-14.3-2.1-21.5-4
		c-5-1.2-9.8-1.7-14.9-2.1c3.7,3.7,8.9,4.6,13.7,6.1c13,4.4,25.5,9.3,36.5,17.6c3.7,2.8,6.4,3.8,11,4.4
		c12.7,1.6,22.3,13.4,30.3,22.8c5.1,6,11.2,11.1,17.1,16.2c31.6,27.3,54.4,65.8,63.9,106.5c0,5.4,0,5.4-1.1,6.5
		c-0.1-0.8-0.2-1.6-0.4-2.4c-0.7-3.4-0.7-3.4-2.8-7.4c-0.7-2.5-1.3-4.9-2-7.4c-10.8-41.2-35.6-71-71.8-92.4c0.8-0.8,1.4-1.4,2.2-2.2
		c3.4,2,6.5,4,9.8,6.3c1.7,1.2,3.6,2.5,5.3,3.7c2.2,1.5,2.2,1.5,4.4,3c0.8,0.3,1.4,0.8,2.2,1.1c-2.4-4.9-5.5-8-9.3-11.7
		c-0.7-0.7-1.4-1.4-2.1-2.1c-4.8-4.7-9.5-9-14.6-13.3c-1.8-1.8-3.6-3.6-5.4-5.4c-1.7-1.7-3.6-3.5-5.3-5.2c-0.9-0.9-1.7-1.7-2.7-2.6
		c-3.1-2.3-5.4-2.8-9.3-3.1c0,1.4,0,2.8,0,4.3c-4.9-1.2-7.8-2.6-11.9-5.4c-1.4-2.4-2.7-4.8-4-7.3c-10.5-18.1-40.9-23.7-59.7-29
		c-1-0.3-2-0.5-2.9-0.9c-1-0.2-1.8-0.5-2.8-0.8c-1.2-0.3-1.2-0.3-2.5-0.7c-10.5-2.3-21.1-2-31.9-2c-1.4,0-1.4,0-2.9,0
		c-13.9,0-27.2,0.4-40.8,3.6c-2.5,0.5-2.5,0.5-5.1,1.1c-17,4-32.9,10.8-48,19.5c15.6-15.6,42-21.9,62.9-24.9
		c1.5-0.2,2.9-0.4,4.4-0.7c12.7-1.6,25.4-1.7,38.1-1.7c1.7,0,3.5,0,5.2,0c14.9,0,29.3,1.6,43.8,4.7c1.3,0.2,1.3,0.2,2.7,0.5
		c4.1,0.9,8.2,1.7,12.3,2.8c4.2,1.2,4.2,1.2,9.4,1c-18.3-21.4-58-20.5-83.5-22.8c0.3-1.1,0.8-2.2,1.1-3.3c9-1.3,18.4,0.3,27.3,1.8
		c1.2,0.2,2.4,0.4,3.7,0.5c9.9,1.6,19.7,3.6,29.6,5.5c9.4,1.8,18.8,2.7,28.4,2.9c-2.7-2.7-4.9-3.3-8.5-4.3c-6.4-2.1-6.4-2.1-9.1-3.3
		c-4.4-1.7-9.1-2.7-13.8-3.8c-1.1-0.2-2.1-0.4-3.1-0.8C287.1,26.2,206.6,39.1,146.3,84.7z"/>
	<path class="st2" d="M300.5,137.6c1.5,0,1.5,0,3.1,0c2.2,0,4.3,0,6.5,0c3.3,0,6.5,0,9.8-0.1c12.3-0.1,23.7,0.8,35.8,3.6
		c1.5,0.3,1.5,0.3,3,0.7c28.6,6.4,56,20.4,72.5,45.2c7,11.7,10.2,23.1,12.3,36.5c3.5-7.5,1.2-14.1-1.4-21.5
		c-4.2-10.4-9.8-18.8-17-27.3c0.8-0.3,1.4-0.8,2.2-1.1c0-1.1,0-2.2,0-3.3c9.4,3.1,18,12,22.8,20.6c8.6,18.7,9.3,38.8,9.2,59
		c0,1.1,0,2.2,0,3.4c-0.1,18-1.5,35.1-6,52.7c-0.4,1.8-0.4,1.8-0.9,3.6c-3.5,13.7-7.5,26.9-13.2,39.8c1.3-1.4,2.7-2.7,4-4.1
		c0.8-0.8,1.5-1.5,2.3-2.3c6.4-8.7,9-18.5,11.3-29c0.3-1.3,0.5-2.5,0.9-3.8c0.5-2.5,1.1-4.9,1.6-7.4c0.5-2.6,1.1-5.2,1.7-7.8
		c2.4-11.3,3.3-22.7,4.2-34.2c0.7-8,1.8-15.5,3.8-23.3c1-4,1.3-8,1.4-12.1c0.1-2.1,0.1-2.1,0.2-4.2c0-1,0.1-2.1,0.1-3
		c8.6,11.4,9.1,25.3,7.6,39c-1.3,6-3.3,11.6-5.4,17.3c-1.3,3.6-2.6,7.2-3.8,10.7c-0.3,1-0.7,1.8-1,2.8c-2.6,7.8-4.1,15.6-5.5,23.6
		c-7.4,41.3-42.1,61.3-74.3,83.7c-3.6,2.5-7.3,5-10.8,7.4c-12.8,8.6-24.6,17.6-35.5,28.6c-9.3,9.5-17.8,17-31.6,17.8
		c-4.6-0.2-4.6-0.2-9.1-1.3c-5.6-1.2-10.8-1.5-16.6-1.4c-1,0-2.1,0-3,0c-11.9,0.2-20.8,3.5-31.6,8.7c-9,4.3-18.3,2.7-27.8,0.3
		c-1-0.2-2-0.4-2.9-0.8c-35.7-9.2-72.7-28.4-92.7-60.3c-7.5-12.7-12-24.9-15.8-39.1c-2.6-9-6.1-17.6-9.4-26.2
		c-4-10.3-6.9-19.7-6.1-30.8c1.7-4,1.7-4,4.3-6.5c3.4-0.1,3.4-0.1,6.5,1.1c3.5,4.6,4,6.7,4.9,12.3c0.3,1.5,0.5,3.1,0.9,4.7
		c0.2,1.5,0.5,3.1,0.8,4.8c2.7,15.8,7,29,16.3,42.3c-0.5-1.4-1.2-2.8-1.7-4.3c-12.4-31.1-15.4-62.1-14.5-95.4c0-1.8,0-1.8,0.1-3.6
		c0.1-3.5,0.2-6.9,0.3-10.5c0-1,0.1-2.1,0.1-3.1c0.2-6.2,1.1-12,2.3-18c0.7-3.1,0.7-3.1,0.4-8.1c-1.1-1.4-2.2-2.8-3.3-4.3
		c-0.5-4.6-0.5-6.8,2.1-10.7c2.7-2.7,3.7-3.4,7.6-3.7c3.4,0.3,3.4,0.3,6,2c2.5,3.9,2.2,6.8,1.7,11.4c-0.8,1.4-1.4,2.8-2.2,4.3
		c-1.1,0.2-2.1,0.3-3.1,0.5c-3.5,1.3-3.5,1.3-4.3,4.1c-2,8.1-2.8,15.7-2.7,24.1c0,1.8,0,1.8,0,3.7c0.1,9.3,1.6,17.7,3.8,26.8
		c1.6,8,2.1,16.7,0.4,24.7c-5,25.4,9,53,22.6,73.7c5.3,7.7,11.2,14.7,17.7,21.6c2.6,2.8,2.6,2.8,4.7,5.4
		c18.1,21.6,51.2,42,79.4,45.1c6.5,0.2,13,0.2,19.5,0c-1.3-0.2-2.5-0.4-3.8-0.7c-16.3-3.1-31.3-7.9-46.1-15.6
		c0.3-0.8,0.8-1.4,1.1-2.2c1.1,0,2.2,0,3.3,0c0.3-1.1,0.8-2.2,1.1-3.3c3.9-0.2,3.9-0.2,7.6,0c0,0.8,0,1.4,0,2.2
		c11.2,3.5,22.9,3.6,34.5,3.6c1.3,0,2.6,0,4,0c18.9-0.1,39-3.7,56-12.3c-1.1-0.3-2.2-0.8-3.3-1.1c0.3-1.4,0.8-2.8,1.1-4.3
		c-0.8,0.3-1.5,0.7-2.3,1c-10.2,3.9-20.6,6.4-31.3,8.8c-1.2,0.2-2.4,0.5-3.6,0.8c-1.1,0.2-2.1,0.4-3.3,0.7c-2.9,0.8-5.6,1.7-8.3,2.9
		c-20.7,4.8-45-1.5-64-9.8c-2-0.8-2-0.8-4-1.6c-1.2-0.8-1.2-0.8-2.5-1.6c0.3-1.4,0.8-2.8,1.1-4.3c-1.1,0.3-2.2,0.8-3.3,1.1
		c-2.8-0.7-2.8-0.7-5.4-2.2c-1.3-3.6-1.2-5.1,0-8.7c-1-0.3-2-0.5-3-0.9c-3.8-1.2-3.8-1.2-8.1-4.4c0-0.8,0-1.4,0-2.2
		c1.1-0.3,2.2-0.8,3.3-1.1c-0.9-0.5-1.7-1-2.7-1.5c-4.9-3.6-8.6-7.9-12.5-12.6c3.3,0,3.3,0,7.6,1.1c0-0.8,0-1.4,0-2.2
		c-0.8-0.2-1.5-0.5-2.3-0.9c-6.1-2.6-10.2-7-14-12.1c0.3-0.8,0.8-1.4,1.1-2.2c2.2,1.8,4.3,3.6,6.5,5.4c4.8,3.1,10,5.3,15.2,7.6
		c1.1,0.4,2.1,1,3.1,1.4c18.9,8.6,18.9,8.6,39.1,11.6c0-0.8,0-1.4,0-2.2c0.9,0,1.7,0,2.6,0c31.9-0.1,56.5-6.6,83.9-23.3
		c2.9-1.7,5.9-3.5,8.8-5.2c10-5.6,17.9-12.3,26.1-20.4c1.1-1,2.2-2,3.3-3c24.5-23.2,42.6-54.4,44.8-88.5c0.5-25.5-8-47-25.2-65.7
		c-2.5-2.6-2.5-2.6-6.6-5.5c0-0.8,0-1.4,0-2.2c3.3-1.2,3.3-1.2,6.5-2.2c-6.6-4.3-13.2-7.6-20.6-10.6c-3.7-1.5-7.3-3-10.8-4.6
		c0-0.3,0-0.8,0-1.1c27.4,1.3,49.9,16.6,68.3,35.8c7.3,8.8,12.7,18.2,17.6,28.5c0.7,1,1.3,2,2,2.9c1.4-0.3,2.8-0.8,4.3-1.1
		c-10.5-27.7-26.8-48.3-54.1-61c-22.1-9.2-45.8-11.8-69.5-11.8c-1.6,0-3.3,0-4.9,0c-15.8,0-31.1,1.4-46.4,5.6
		c-1.1,0.3-2.2,0.5-3.3,0.9c-5.7,1.5-5.7,1.5-11.3,3.7c-2.5,1.1-2.5,1.1-5.7,0c9.4-4.8,18.9-7.7,29.1-10.1c1.2-0.3,2.3-0.5,3.5-0.9
		C280.1,138.7,290,137.6,300.5,137.6z M368.6,167.1c1.1,2.2,1.1,2.2,1.1,2.2L368.6,167.1z"/>
	<path class="st3" d="M368.7,170.6c16.3,14.4,26.6,34.5,29.2,56.1c2,36.9-13.4,67.3-37.3,94.4c-1.6,1.7-3.4,3.6-5,5.3
		c-1.2,1.2-2.3,2.4-3.5,3.7c-14.7,15.4-32.2,25.2-50.7,35.3c-1.3,0.7-2.5,1.4-3.8,2.2c-9.1,4.9-18.9,7.9-28.7,10.8
		c-2,0.7-2,0.7-3.9,1.3c-7.3,1.4-14.4,1.3-21.8,1.3c-2.3,0-2.3,0-4.6,0c-15.3,0-28.3-3.6-42.4-9.1c-0.9-0.3-1.6-0.7-2.5-1
		c-15-5.7-27.9-12-36.5-26.1c-1.5-4.4-1.5-4.4-2.2-7.6c0.7,0.8,1.4,1.4,2.1,2.2c13.7,13.3,25.4,20.2,44.9,20.1
		c6.9-0.7,12.8-3,19.2-5.5c7.8-2.7,14.1-2.7,21.7,0.7c5.1,2.8,8.8,6.7,12.8,10.8c3.9,3.9,7.3,5.4,12.8,5.5
		c13.7-0.7,23-6.1,32.9-15.1c6.4-5.9,12.8-8.9,21.1-11.3c16.2-6.1,30.5-24.1,40.7-37.6c1.1-1.4,2.1-2.8,3.1-4.2
		c15.2-20.7,25.5-42.6,25.4-68.6c0-1.7,0-1.7,0-3.6c-0.1-9.3-1.4-17.8-4.8-26.6c-0.3-0.9-0.7-1.8-1-2.8c-5.2-12.6-13.8-26.6-26.1-33
		c-9.1-3.6-17.2-1.6-26,2.2c-1.3,0.7-2.6,1.4-4,2.1c-3.9,1.8-7.4,3-11.5,4.1c-12.6,3.8-21.5,11.7-27.9,23
		c-4.6,9.1-4.8,16.4-4.4,26.5c0.7,18.2-2.3,32.4-14.3,46.5c-6.7,7-13.9,11.2-22.7,15.3c-6.3,3.1-10.4,5.2-13.9,11.5
		c-1.7,9.1,0.4,16.3,5.4,23.9c2.7,3.8,5.6,7.3,8.7,10.8c0.9,1.2,1.7,2.3,2.6,3.5c5,5.3,11.3,10.2,18.7,10.8c16,0.3,35-5.5,47.6-15.8
		c3.7-3.6,6.4-7.7,9.1-12.1c6-7.5,14.3-11.2,22.8-15.1c1.5-0.8,1.5-0.8,3.1-1.5c2.6-1.2,5.1-2.4,7.7-3.6c0,9.4-14.4,20.7-20.6,27.1
		c-7.2,7-13.7,12.9-23.4,16c-9.8,3.3-16.3,8.7-23.7,15.6c-8.1,6.4-18.3,9.5-28.7,8.5c-4.4-2.2-7.4-5.2-10.7-8.7
		c-6.2-6.3-12.9-9.3-21.7-10.2c-7.4,0-14,3.3-20.7,5.9c-10.3,4-21.8,3.5-32-0.9c-11.2-5.6-21.6-14.1-25.7-26.3
		c-10-38.4-2.6-76.4,17.2-110.4c3.9-6.3,8.6-11.9,13.4-17.6c0.9-1,1.6-2,2.5-3c5.7-6.7,12.1-12.3,19.2-17.6c0.9-0.7,1.7-1.3,2.6-2
		C251.7,145.5,324.7,133.9,368.7,170.6z"/>
	<path class="st4" d="M365.4,43.5c1.3,0.3,2.5,0.5,3.8,0.9c7,1.6,13.4,3.9,20.1,6.7c1,0.3,2,0.8,3,1.2c1.2,0.5,1.2,0.5,2.4,1
		c0,0.3,0,0.8,0,1.1c-11.9,0-23.2-1.8-34.9-4.2c-26.8-6.5-26.8-6.5-54-6.6c-0.3,1.1-0.8,2.2-1.1,3.3c1,0.1,1.8,0.2,2.8,0.2
		C366,52.1,366,52.1,386,66.2c0.8,1.1,1.4,2.2,2.2,3.3c-8.1-0.5-15.8-2.5-23.6-4.3c-31.2-7.4-66.3-6.5-97.8-1.1
		c-1.7,0.3-3.5,0.7-5.3,0.9c-17.5,3.6-37.5,9.8-51.1,21.9c4.7-1.7,9-4,13.4-6.3c24.6-12.3,50.7-16.7,78.1-16.7c2.8,0,5.5,0,8.3-0.1
		c15.8-0.1,30.6,2.3,45.7,7c1.1,0.3,2.1,0.7,3.1,1c37.8,12,37.8,12,47.6,25.9c0.4,1.1,1,2.2,1.4,3.4c2.6,4.6,6,6.2,10.5,8.6
		c1.1,0,2.2,0,3.3,0c0-1.4,0-2.8,0-4.3c5.9,0.4,8.3,2.3,12.6,6.3c1,1,2,1.8,3,2.8c1.8,1.8,3.7,3.6,5.4,5.4
		c4.4,4.4,9.1,8.7,13.7,12.9c2.2,2.1,4.3,4.1,6.6,6.2c1.1,1.1,1.1,1.1,2.3,2.2c1.8,1.7,3.6,3.6,5.3,5.4c-0.3,0.8-0.8,1.4-1.1,2.2
		c-0.7-0.5-1.3-1-2-1.5c-7.7-5.7-15.7-10.7-24.1-15.5c-3.4-2-6.6-3.9-9.9-5.9c-4.6-2.7-9.2-5-14-7.3c-7.8-3.8-13.4-8.2-19.5-14.3
		c-13.9-13.6-29.9-21.7-48.8-25.6c-1.6-0.3-1.6-0.3-3.4-0.7c-57.6-11.7-113.3,0.8-162.1,32.6c-13,8.9-24.8,18.5-36.2,29.4
		c-1.1,1-2.2,2.1-3.3,3c-18.2,17.5-32,39-43.7,61.4c-4.4,8.5-4.4,8.5-8.3,11.5c-0.8,0-1.4,0-2.2,0c1.8-20.8,16.2-41,28.2-57.5
		c1-1.3,1-1.3,1.8-2.6c5.4-7.2,11.5-13.7,17.7-20.2c0.8-0.9,1.6-1.7,2.4-2.6c5.7-6.1,12.1-11.1,18.8-16.2c3.4-2.6,6.6-5.3,9.8-8
		c5.4-4.4,11.2-8,17.2-11.6c2.8-1.5,2.8-1.5,3.9-3.9c-0.8,0.3-1.6,0.8-2.4,1.1c-9.3,4-18.5,6.7-28.6,8.5
		c-12.9,3.5-21.5,11.6-30.8,20.8c-0.9,0.9-1.7,1.6-2.6,2.5c-8,7.7-14.7,16.6-21.3,25.5c-2.8,3.8-4.8,6.4-9,8.5
		c-1.4,0.8-1.4,0.8-2.8,1.5c-1,3.7-1,3.7-1.1,7.6c-0.8,5.1-2.9,8.5-5.6,12.8c-18.2,31.9-25.2,68.9-25,105.2c0,2.8,0,5.7,0,8.6
		c0,11.8,0.8,23.3,2.5,34.9c0.2,1.2,0.3,2.4,0.5,3.6c5.1,32.9,16.6,64.8,36.3,91.8c0.7,1,1.4,1.8,2.1,2.8
		c25.7,33.8,63.7,52.2,105.2,58.3c25.6,3,46.4-2,69.4-13.4c12.1-6.1,23.5-11.2,36.9-14.2c5.2-1.2,10.1-2.9,15.1-4.8
		c2.4-0.7,2.4-0.7,5.6,0.4c-5.4,8.2-8.9,13.6-18.9,15.7c-14.7,3.4-28.2,10-41.6,16.5c-34.4,16.6-72.1,12.7-107.5,1.2
		c-41.7-15.8-75.8-46.5-94.4-87.2C53.8,356.4,44.4,306.4,52,257.1c0.3-2.3,0.3-2.3,0.8-4.7c6.4-38.8,20.9-76.3,45.9-107
		c1.3-1.6,1.3-1.6,2.5-3.1c29.4-36,29.4-36,42-40.2c-10.4,0-24.8,18.2-32.1,25.4c-31.1,31.4-51.6,73.3-60.1,116.7
		c-0.3,1.6-0.7,3.1-1,4.8c-9.2,53.8-0.2,111.3,23.7,160c1.3,2.7,2.6,5.3,3.8,8c0.9,1.7,1.7,3.6,2.5,5.3c7.7,16.2,7.7,16.2,6.6,22.4
		c-1.4,0.3-2.8,0.8-4.3,1.1c-23.2-25.4-34-65.8-41.2-98.7c-0.5-2.5-0.5-2.5-1.2-5c-10.1-54.3-1.3-111.5,23-160.9
		c0.5-1.1,1-2.2,1.5-3.3c7.9-16.5,18.1-30.6,29.9-44.5c0.8-0.9,1.5-1.7,2.3-2.6c1.7-2.1,3.6-4,5.3-6.1c0.7-0.8,1.3-1.6,2.1-2.4
		c12.6-14.4,27-26.3,42.4-37.7c1.1-0.8,2.1-1.6,3.1-2.4C210.4,36.2,292.6,27.1,365.4,43.5z"/>
	<path class="st5" d="M352.4,66.2c6.7,0.4,12.8,1.5,19.3,3.3c5.6,1.5,10.7,2.4,16.6,2.6c16.5,0.9,30.9,8.9,44.3,18
		c1.1-0.8,2.2-1.4,3.3-2.2c-1.4-1-2.8-2.1-4.3-3c-2.4-1.7-2.4-1.7-4.3-3.5c0-1.1,0-2.2,0-3.3c13.7-1.8,27.8,10.7,38,18.4
		c5.2,4.2,10.2,8.6,15.2,13c1,0.9,2.1,1.7,3.1,2.7c2.3,2,4.4,4,6.6,6c0,0.8,0,1.4,0,2.2c1.1,0.3,2.2,0.8,3.3,1.1
		c2.6,2.8,5.1,5.6,7.6,8.7c1,1.2,2.1,2.4,3,3.7c7.3,8.9,13.8,18,19.7,27.8c0.8,1.2,1.5,2.5,2.3,3.7c11.7,19.6,20.5,41.5,27,63.5
		c0.7,2.1,0.7,2.1,1.2,4.1c2.8,10.1,4.8,20.3,6.4,30.6c0.2,1.1,0.3,2.2,0.5,3.3c1.7,10.6,2,21,2,31.8c0,1.3,0,1.3,0,2.7
		c-0.2,58.6-18.8,113.2-55,159.2c-2.8,3.5-2.8,3.5-5,6.8c-0.8,0-1.4,0-2.2,0c-0.8,1.4-1.4,2.8-2.2,4.3c-2.3,2.7-4.7,5.2-7,7.8
		c-0.7,0.8-1.4,1.4-2.1,2.2c-15,15.8-41.2,42-63.5,45.3c3.9-4.1,7.9-7.4,12.6-10.6c9.9-6.9,19.1-14.6,28.1-22.8
		c1.8-1.6,3.7-3.3,5.5-4.9c4.9-4.3,9.4-8.7,13.7-13.7c2.3-2.7,4.7-5.2,7-7.7c32.4-35.6,53.8-82.4,60-130.1c0.2-1.5,0.4-2.9,0.7-4.4
		c4.8-36.2,0.9-71-8.2-106.2c0.3,1.4,0.8,2.8,1.1,4.3c0.2,2.7,0.3,5.4,0.4,8.1c0.4,9.1,1.7,17.9,3.1,26.9
		c1.7,11.6,2.1,22.9,2.2,34.6c0,2.7,0,2.7,0.1,5.4c0,2.6,0,2.6,0,5.2c0,1.5,0,3,0,4.7c-0.4,4.1-1.3,6.1-3.7,9.4
		c0.3,0.3,0.8,0.8,1.1,1.1c0.9,51.6-29.1,104.7-62.8,141.6c-2,2.2-3.9,4.4-5.9,6.7c-9.1,10.4-19.2,19.8-30.1,28.4
		c-1.5,1.2-2.9,2.4-4.4,3.5c-26.8,21.6-66.6,52.3-102.8,49.8c3.9-2.9,6.8-4.4,11.3-6.2c2.1-0.9,2.1-0.9,4.1-1.7
		c1.5-0.5,2.9-1.2,4.4-1.8c70.2-29,133.4-81.8,163.4-152.9C533,378.3,538,362.3,541,346c-0.8,0-1.4,0-2.2,0c0,0.8,0,1.4,0,2.2
		c-0.8,0-1.4,0-2.2,0c-0.5,2.7-1,5.4-1.4,8.1c-10.6,54.9-49.7,105.7-92.9,139.3c-1.2,1-2.4,2.1-3.7,3c-35.2,29.1-92,62.7-139.4,60.9
		c0-1.4,0-2.8,0-4.3c5.7-2.7,11.9-4.1,18-5.6c43.7-11.1,85.1-31.4,119.7-60.5c1.7-1.4,1.7-1.4,3.5-2.9
		c12.1-10.3,24.3-20.7,34.5-32.9c-1.3-0.3-1.3-0.3-2.6-0.8c-2.8-1.4-2.8-1.4-4.3-3.9c-0.2-1-0.4-2-0.7-2.9c1.6-2.5,1.6-2.5,4.4-5.1
		c15.5-16,31.3-38.2,36.8-60c-0.2-2.4-0.2-2.4-0.3-4.8c-0.1-8.6,2.8-16.6,5.3-24.8c2.2-7.2,2.8-13.4,2.8-20.9c0-2.1,0.1-4.1,0.1-6.3
		c0-3.3,0.1-6.5,0.1-9.8c0.3-36.2,0.3-36.2,9.3-45.2c3.1-0.4,3.1-0.4,6.5,0c5.2,6.7,3.7,14.3,2.8,22.3c-1.3,8.6-3.8,16.2-7,24.2
		c-4.9,12-7,24.2-9.2,37c-0.9,4.6-2.1,9-3.3,13.4c-0.9,3.9-0.9,7.6-0.7,11.6c3.3-6.7,5.4-13.2,7.2-20.5c0.3-1.5,0.3-1.5,0.7-3
		c1.4-6.3,2.5-12.5,3.5-18.9c1.3-8.2,3.7-15.4,6.6-23.1c4.6-11.8,5.2-22.9,5.5-35.3c0.3-4.3,0.3-4.3,2.5-6.5
		c0.4-7.2-0.2-13.7-2.2-20.6c-1.4-0.3-2.8-0.8-4.3-1.1c0,1.5,0,1.5,0.1,3.1c0,3.4,0,3.4-1.1,5.5c-2.6,0.2-2.6,0.2-5.4-1.1
		c-0.9-3.3-1.5-6.4-2.2-9.8c-9.4-47.7-36.2-90.9-74.3-121.3c-5.2-4.2-9.7-9-13.9-14.1c-7-8.1-15.5-15.5-26.5-17.1
		c-4.8-0.9-7.5-2.5-11.3-5.4c-11.7-9-26.2-13.3-40-18.1c-2.5-0.9-5.1-1.8-7.6-2.8C352.4,67,352.4,66.6,352.4,66.2z"/>
	<path class="st2" d="M359.3,171.6c5.4,3.6,8.1,6,11.5,11.7c-4.3,0-8.6,0-13,0c0.9,0.9,1.7,1.6,2.6,2.5c2.8,2.9,2.8,2.9,3.9,6.2
		c1.7,0,3.6,0,5.4,0c0,1.1,0,2.2,0,3.3c-1.2-0.1-2.5-0.2-3.7-0.3c-1.3,0.1-2.6,0.2-3.9,0.3c-1.2,2.3-1.2,2.3-1.1,5.4
		c-0.2,1.2-0.5,2.5-0.9,3.7c-0.7,3.9-0.7,3.9,1.5,7.4c0.4,1,1,2.1,1.4,3c-1.7,2.6-1.7,2.6-4.3,4.3c-1.4,0-2.8,0-4.3,0
		c-1.2-2.6-1.2-2.6-2.2-5.4c-0.8-0.3-1.4-0.8-2.2-1.1c-0.2,1.6-0.2,1.6-0.4,3.3c-0.2,1.1-0.4,2.2-0.7,3.3c-0.8,0-1.4,0-2.2,0
		c0.8,2.7,0.8,2.7,2.2,5.4c1.4,0.8,2.8,1.4,4.3,2.2c0.2,1.6,0.3,3.3,0.5,5c0.2,1.6,0.3,3.1,0.5,4.8c2.2,0.5,2.2,0.5,4.3,1.1
		c-0.2,3.9-1,7.2-2.2,10.8c-0.4,8.3-0.1,13.3,5.3,19.8c5.2,2.8,10.5,2.7,16.4,2.9c-0.2,7.8-5.4,12.9-10.6,18.3
		c-7.5,7.2-17,11.8-26.2,16.3c-9.8,4.8-15,9.3-20.6,18.5c-4.4,5.9-9,10.8-16.3,13c-7.5,0.4-14.4,0.2-20.6-4.3
		c-0.3-0.8-0.8-1.4-1.1-2.2c-1.3-0.5-2.6-1.1-3.9-1.6c-1.8-0.8-1.8-0.8-3.7-1.6c0-0.8,0-1.4,0-2.2c-1.2,0.1-2.3,0.2-3.5,0.3
		c-8.7,0.8-15.7,1.3-23.6-2.5c0-0.8,0-1.4,0-2.2c-1.1-0.3-2.2-0.8-3.3-1.1c-4.9-4.4-6.3-6.7-6.9-13.3c0.5-6.1,1.5-7.4,5.9-11.6
		c4.6-2.8,9.3-5,14.2-7.3c15.4-7.6,24.8-21.1,30.3-37.2c1.1-4.2,1.2-8,1.1-12.4c0-2.1,0-2.1-0.1-4.1c-0.1-2.8-0.1-5.6-0.2-8.5
		c-0.2-14.5,3.8-24.8,13.3-35.8c6.4-5.9,13.6-9.4,21.9-11.8c4.8-1.4,9.1-3,13.4-5.3C345,169.3,351.8,168.9,359.3,171.6z"/>
	<path class="st6" d="M312.4,89.9c2.2,0,2.2,0,4.4,0c8.9,0,17.1,0.7,25.8,2.4c1.4,0.2,2.9,0.4,4.3,0.7c25.8,4.3,49.8,15.3,72.3,28.3
		c2.5,1.4,5.1,2.8,7.7,4.2c43.9,23.5,75.6,51.6,90.9,100.3c2.5,8.7,3.9,16.9,3.7,25.9c-2.8-2.8-3.6-5.9-4.9-9.4
		c-16.5-46.2-51.4-81.4-92.7-106.6c-1.2-0.8-2.5-1.5-3.7-2.3c-24.7-14.6-51.1-26.1-79.8-30.3c-1-0.1-2-0.3-2.9-0.4
		c-17.7-2.2-33.1-0.3-49.4,6.3c-10,4-19.2,6.1-29.8,6.6c-11.2,0.7-17.9,4.2-26.2,11.4c-0.8,0.7-1.6,1.4-2.4,2.1
		c-24.2,21.3-41.6,45.3-57.6,73.2c-0.8,1.3-1.5,2.6-2.3,3.9c-3.9,6.8-7.4,13.6-10.4,20.7c-0.3,0.7-0.7,1.4-1,2.1c-0.3,0-0.8,0-1.1,0
		c-1.3-23.2,16.9-44.3,29.3-62.9c-6.8,6.9-11.7,14.3-16.5,22.8c-3.8,6.4-3.8,6.4-7.4,7.6c0.2-9.8,4.3-17.5,8.7-26
		c0.5-1.2,1-2.4,1.5-3.6c2-3.4,3-3.9,6.8-5c6-2.1,10-5.4,14.4-9.9c1.1-1.1,2.1-2.1,3.1-3.1c2.9-2.9,5.9-5.9,8.8-8.8
		c-6.4,4.6-12,9.5-17.8,15c-3.7,3-6.8,4.2-11.5,5.1c-4.7-0.8-5.9-3.4-8.7-7c-1.4-0.8-2.8-1.4-4.3-2.2c3.6-14.3,29.7-28.2,41.6-35.7
		c19.7-11.6,40.2-18,62.5-22.9c1.5-0.3,1.5-0.3,3.1-0.7c3.3-0.5,6.5-0.4,9.9-0.4c-11.6,8.7-26.9,12-40.8,15.1
		c-14.9,3.5-26.3,8.1-35.7,20.5c-5.5,6.9-11.8,10.5-19.7,14.5c-3.6,1.6-3.6,1.6-5.7,4c-0.3,1.4-0.8,2.8-1.1,4.3
		c5-1.6,8.3-4.3,12.3-7.8c1.2-1.1,2.5-2.2,3.8-3.3c1.2-1,2.3-2.1,3.5-3c0.9-0.8,1.7-1.4,2.6-2.2c3.7-3,6.4-6,9.2-9.9
		c5.9-8.2,15.4-11.9,25-14c2.9-0.4,5.7-0.9,8.7-1.3c15.2-2.6,29-9.2,42.8-15.6C294.4,89.2,303.2,89.9,312.4,89.9z"/>
	<path class="st7" d="M166.9,107.4c0,0.8,0,1.4,0,2.2c-2.1,1.6-4.1,3.3-6.3,4.8c-7.4,5.5-14.2,11.6-20.8,18
		c-0.9,0.9-1.8,1.6-2.7,2.5c-37.6,35.8-57.4,88.5-59.2,139.8C76.7,331.2,88.1,387,128,429.4c11.6,11,25.6,19.5,40.1,26
		c1,0.4,2.1,1,3,1.4c18.3,7.7,38.7,10.6,58.4,10.7c1.1,0,2.2,0,3.3,0c2.3,0,4.6,0,6.8,0c3.5,0,6.8,0,10.3,0.1
		c10.8,0,20.8-0.1,31.3-3c2.7-0.5,2.7-0.5,6,0.5c-24.4,17.9-53.7,22.4-83.1,18.3c-30.9-5.5-58.4-18.8-81.8-40
		c-0.9-0.8-1.6-1.5-2.5-2.3c-36-33.9-52-87.2-54.1-135.4c-0.1-5.5-0.1-11-0.1-16.5c0-1,0-2,0-2.9c0.1-38.1,6.3-83.1,30.7-114.1
		c3.5-2.1,3.5-2.1,6.5-3.3c0.3-0.3,0.8-0.8,1.1-1.1c-0.1-1.4-0.3-2.8-0.4-4.2c-0.1-7.3,4.4-11.3,9.1-16.4c0.8-0.9,1.5-1.7,2.3-2.6
		C147.7,107.4,147.7,107.4,166.9,107.4z"/>
	<path class="st8" d="M534.5,263.6c7,9.4,5.2,22.1,3.9,33.3c-1.6,8.5-4.7,16.4-7.6,24.4c-2.8,7.8-4.1,15.6-5.2,23.9
		c-0.9,5.5-2.1,10.8-3.5,16.2c-0.4,1.6-0.9,3.3-1.3,4.9c-1.5,4.8-3.4,8.9-5.9,13.3c-0.3,0-0.8,0-1.1,0c-0.2-8,0.7-15,2.4-22.8
		c0.5-2.2,1-4.4,1.5-6.6c0.2-1.1,0.5-2.2,0.8-3.3c0.7-2.8,1.2-5.6,1.7-8.3c1.7-8.5,3.9-16.2,7.2-24.2c5.1-12.6,8.7-26.3,6.9-40
		c-0.8-1.4-1.4-2.8-2.2-4.3c-3.1-0.9-3.1-0.9-6.5,0c-10.5,13.2-8,33.6-8,49.6c0,15.7-1.4,29.7-6.8,44.6c-1.2,4-1.4,6.2-1.3,10.3
		c0.5,25.8-25,53.1-41.3,71.1c-1.3,1.5-2.6,3-3.9,4.6c-46.6,53-109.4,80.8-176.7,96.6c-7.8,1.8-15.5,3.8-23.1,6.3
		c-6.8,2.1-12.5,2.8-19.6,2.2c-1.1-0.8-2.2-1.4-3.3-2.2c1.1-4.3,1.1-4.3,4.9-7.2c13.2-7.7,30.1-10.1,45-13.4
		c13.6-3.1,26.9-6.4,40.1-10.8c1-0.3,2-0.7,3-1c30.6-10.5,58.9-26,83.7-46.7c1.2-1,2.5-2.1,3.7-3c6.4-5.3,12.6-10.8,18.3-16.9
		c1.8-1.7,1.8-1.7,4-1.7c0.8-1.4,1.4-2.8,2.2-4.3c1.7-1.8,3.6-3.7,5.5-5.5c31.3-30.9,56.4-73.8,57.8-118.3
		c1.6-48.1,1.6-48.1,14.7-60.5C528.4,261.8,530.7,262.5,534.5,263.6z"/>
	<path class="st9" d="M301.8,72.4c1.4,0,2.8,0,4.2,0c34.4,0.4,67.8,6.2,93.4,30.7c6.6,6.3,13.1,11.2,21.3,15.2
		c1.4,0.8,2.8,1.4,4.3,2.2c3,1.5,6,2.9,9,4.4c5,2.5,9.3,5.3,13.8,8.6c0,0.8,0,1.4,0,2.2c-6.7-0.4-11.7-3.7-17.5-6.9
		c-1.1-0.5-2.1-1.2-3.1-1.7c-5.1-2.8-10.2-5.6-15.2-8.6c-18.4-10.6-37.6-18.3-58.4-22.9c-2.5-0.7-5-1.2-7.5-1.8
		c-11-2.6-21.9-2.7-33.2-2.7c-1.5,0-2.9,0-4.4,0c-12.1,0-21.7,1.8-32.5,7c-12.5,5.7-24.5,10.3-38.2,12.1
		c-13.7,2.3-23.7,7.6-31.9,18.8c-3,3.9-6.7,6.8-10.5,10c-1,0.9-2,1.7-3,2.6c-1.1,0.9-2.1,1.7-3.1,2.7c-1.4,1.2-1.4,1.2-2.9,2.5
		c-2.9,2.1-4.8,2.7-8.2,3c0.3-3.6,0.7-5.1,3.5-7.6c3.1-2.3,6.3-3.8,9.9-5.5c6.6-3.5,10.4-7.5,15-13.4c9.4-12.4,23.5-15.5,38-19.1
		c12-3,23.6-6.4,34.7-11.9c-35.5,2.8-66.8,17.2-94.3,39c-1.1,0.9-2.1,1.6-3.1,2.5c-2.6,2.1-5.1,4.1-7.7,6.2
		c-0.9,0.7-1.7,1.4-2.6,2.1c-2.1,1.7-4.1,3.6-6.1,5.5c0,1.1,0,2.2,0,3.3c1.8,1.1,3.6,2.2,5.4,3.3c1.1,1.4,2.2,2.8,3.3,4.3
		c6.9,0.5,10.3-1.1,15.7-5.5c2.1-1.7,4-3.6,6-5.3c1.8-1.6,3.7-3.4,5.5-5c0.8-0.8,1.5-1.4,2.4-2.2c0.7-0.4,1.3-1,2-1.4
		c0.8,0.3,1.4,0.8,2.2,1.1c-3,3.1-6.2,6.3-9.2,9.5c-1.3,1.3-1.3,1.3-2.6,2.7c-6.4,6.5-11.7,10.5-20.7,12.8c-2.1,3.7-2.1,3.7-3.9,8.2
		c-0.7,1.5-1.3,3-2,4.6c-0.7,1.5-1.2,2.9-1.8,4.4c-0.7,1.4-1.2,2.7-1.8,4.1c-1.4,3.4-2.1,6.4-2.5,10c4.1-3.7,6.6-7.9,9.4-12.6
		c4.4-7.4,9.4-13.8,15.5-20c0,4.3-1.6,5.4-4.3,8.7c-3,4.7-5.9,9.3-8.7,14.1c-1.1,1.8-2.3,3.6-3.4,5.4c-1.2,2-2.4,3.8-3.5,5.7
		c-0.5,0.9-1.1,1.8-1.7,2.7c-4.6,7.5-7.8,14.9-8.5,23.6c-0.1,1.6-0.2,3.1-0.3,4.8c-1.6-1.1-1.6-1.1-3.3-2.2
		c-1.2,3.7-1.3,6.7-1.4,10.6c-0.5,8.8-2.5,16.8-5.1,25.2c-0.8-0.3-1.4-0.8-2.2-1.1c-6-21.4-3.9-54.5,5.4-74.8c2-3.5,4.1-6.6,6.5-9.8
		c3.5-5,5.4-7.8,5.4-14.1c-1.2-1.4-1.2-1.4-4-1.5c-4.9,0.5-6.7,2.4-10.1,5.9c-5.1,6.8-4.8,12.4-4.4,20.5c0.2,7.9,0.2,15.3-1.5,23
		c-1.8,8.9-2.1,17.7-2.1,26.7c0,1.4,0,2.8-0.1,4.2c0,6.8,0.4,12.5,2.7,18.9c3.5,10.1,2.6,20.6,2.4,31.1c0,3.1-0.1,6.3-0.1,9.4
		c0,2,0,3.9-0.1,5.7c-0.1,6,0.3,11.7,1.1,17.6c-0.8-0.3-1.4-0.8-2.2-1.1c-1-3.8-2-7.6-2.7-11.5c-0.2-1.2-0.4-2.3-0.8-3.5
		c-4.6-21.9-5.3-43.7-5.5-66c0-1.6,0-3.1-0.1-4.8c0-9.4,0.9-18.2,2.9-27.4c1-5.7,0.4-11.2-0.4-16.9c-0.8,0-1.4,0-2.2,0
		c-0.3,1.1-0.8,2.2-1.1,3.3c-6.5-7.7-6.5-7.7-6.4-11.8c5-17.6,18.7-30,33.2-39.9c4.7-3.1,8.8-6.4,12.9-10.2
		c39-36.9,89.7-49.9,141.9-48.8c24.9,0.8,53.9,6.2,76.4,17.5c-8.2-12.8-27.4-17.7-41.3-20.8c-3.3-0.7-6.4-1.3-9.7-2
		c-1.1-0.2-2.1-0.4-3.1-0.5c-10.6-1.7-21.1-2-31.8-2c-3,0-6,0-9-0.1c-42.5-0.2-82.1,16.5-116.8,39.6c-0.8-1.1-1.4-2.2-2.2-3.3
		c12.4-8,24.6-15.5,38-21.7c2.2-1,2.2-1,4.3-2.1C246.4,78.7,274,72.3,301.8,72.4z"/>
	<path class="st10" d="M392.5,327.6c-16.9,33.9-67,52.2-100.3,63.4c-26.5,8.3-55,10.2-81.9,2.7c0,0.8,0,1.4,0,2.2
		c40.8,15.4,84.4,0.7,122-15.5c4.6-2,9.1-3.8,13.8-5.6c1-0.3,1.8-0.8,2.8-1.1c2.4-0.7,2.4-0.7,5.6,0.4
		c-21.4,17.3-48.5,26.9-74.8,33.6c7.4,0.2,13.6,0.2,20.6-2.2c2.4-0.4,2.4-0.4,4.8-0.9c21.5-4.2,41.6-16.5,60.3-27.4
		c4.6-2.7,8.9-5,14.1-6.4c-14.7,19.4-39.7,30.5-61.8,39c-1.4,0.5-1.4,0.5-2.7,1.1c-7.8,2.9-15.6,4.9-23.6,6.6
		c-2.5,0.5-5,1.1-7.4,1.6c-1.1,0.2-2.2,0.4-3.3,0.8c-2.9,0.8-5.6,1.7-8.5,2.9c-20.7,4.8-45-1.5-64-9.8c-1.3-0.5-2.6-1.1-4-1.6
		c-0.9-0.5-1.6-1.1-2.5-1.6c0.3-1.4,0.8-2.8,1.1-4.3c-1.6,0.5-1.6,0.5-3.3,1.1c-2.8-0.7-2.8-0.7-5.4-2.2c-1.3-3.6-1.2-5.1,0-8.7
		c-1-0.3-2-0.5-3-0.9c-3.6-1.2-3.6-1.2-7.9-4.4c0-0.8,0-1.4,0-2.2c1.6-0.5,1.6-0.5,3.3-1.1c-0.9-0.5-1.7-1-2.7-1.5
		c-4.9-3.6-8.6-7.9-12.5-12.6c4,0,6.5,1.3,10.2,2.9c2.1,0.9,2.1,0.9,4.1,1.8c1.3,0.5,2.7,1.2,4.1,1.8c3.4,1.4,6.6,2.8,10,4.1
		c2,0.9,3.9,1.6,6,2.5c1.4,0.5,1.4,0.5,2.7,1.2c0.8,0.3,1.5,0.7,2.4,1C221.2,392,231,392,242,392c1.6,0,3.3,0,5,0
		c50.2,0,104.1-32.6,142.4-63.3C390.3,327.6,390.3,327.6,392.5,327.6z"/>
	<path class="st10" d="M540,313.5c2.1,39.6-13.3,82.7-35.8,114.9c-0.9,1.2-1.6,2.4-2.5,3.7c-5.6,8.1-11.6,15.9-18.1,23.4
		c-0.7,0.8-1.4,1.6-2.1,2.5c-11.9,13.6-24.8,26.6-39.1,37.6c-1.8,1.5-1.8,1.5-3.7,3c-35.2,29.1-92,62.7-139.4,60.9
		c0-1.4,0-2.8,0-4.3c5.7-2.7,11.9-4.1,18-5.6c43.7-11.1,85.1-31.4,119.7-60.5c1.2-1,2.3-2,3.5-2.9c12.5-10.6,25-21.4,35.6-33.9
		c0.8-0.8,1.5-1.5,2.3-2.4c27.1-28.7,45.3-69.4,51.4-108.2C534,313.5,534,313.5,540,313.5z"/>
	<path class="st11" d="M503.1,321c0.8,0,1.4,0,2.2,0c1.3,32.5-10.8,64-32.3,88.6c-6.1,6.5-12.8,11.8-19.8,17.2
		c-14.4,11.1-14.4,11.1-28.1,23.2c-0.8,0.7-1.5,1.4-2.3,2.1c-3.9,3.8-7.5,7.7-10.8,12c-17.9,22.2-38.5,40.7-66,49.9
		c-1.1-0.3-2.2-0.8-3.3-1.1c1-0.8,2-1.5,2.9-2.3c20-15.6,37.8-30.5,52.6-51.2c4.7-6.4,9.5-12.4,15.1-18.1c0.8-0.8,1.4-1.6,2.2-2.4
		c8.5-8.9,18.5-15.6,28.6-22.6c32.3-22.4,48.1-52.6,57.8-90.3C502.1,324.4,502.5,322.8,503.1,321z"/>
	<path class="st12" d="M430.4,148.6c18.5,1.6,39.3,25.8,50.6,39.1c20.8,26.2,34,56.3,30.1,90.2c-4.3,26.5-14.1,53.1-32,73.4
		c-0.7,0.8-1.3,1.4-2,2.2c-7,7.6-14.1,10.2-24.1,10.8c2.7-2.7,5.4-5.4,8.1-8c16.9-16.3,27.4-36.1,35.2-58.1c0.7-1.8,0.7-1.8,1.4-3.8
		c2.9-9.7,3.4-19,3.5-29c0-1.3,0-2.5,0-3.9c-0.2-21.8-9-37.3-23.6-52.9c-4.1-4.6-7.6-9.3-11-14.4c-7.4-11.1-15.6-19.8-25.9-28.1
		c-2.7-2.2-5.3-4.4-7.9-6.9c-0.7-0.7-1.4-1.3-2.1-2c-1.6-2.2-1.6-2.2-1.6-7.6C429.7,149.4,430.1,149,430.4,148.6z"/>
	<path class="st13" d="M352.4,66.2c6.7,0.4,12.8,1.5,19.3,3.3c5.6,1.5,10.7,2.4,16.6,2.6c19.8,1.1,38.1,11.5,51.4,25.7
		c2.8,3.1,5.5,6.3,8.2,9.4c6.4,6.9,13.6,13.1,20.8,19.2c16.7,14.6,30.3,34.3,41,53.6c0.9,1.5,1.6,3,2.5,4.6
		c10.5,19.3,26.3,49.9,21.4,72.4c-2.6,0.1-2.6,0.1-5.4-1.1c-0.9-3.3-1.5-6.4-2.2-9.8c-9.4-47.7-36.2-90.9-74.3-121.3
		c-5.2-4.2-9.7-9-13.9-14.1c-7-8.1-15.5-15.5-26.5-17.1c-4.8-0.9-7.5-2.5-11.3-5.4c-11.8-8.9-26.3-13.2-40.1-18
		c-2.5-0.9-5.1-1.8-7.6-2.8C352.4,67,352.4,66.6,352.4,66.2z"/>
	<path class="st10" d="M549.7,326.5c-0.8,52.4-28.2,103.8-62.8,141.6c-2,2.2-3.9,4.4-5.9,6.7c-9.1,10.4-19.2,19.8-30.1,28.4
		c-1.5,1.2-2.9,2.4-4.4,3.5c-26.8,21.5-66.6,52.2-102.8,49.7c3.9-2.9,6.8-4.4,11.3-6.2c1.4-0.5,2.7-1.1,4.1-1.7
		c2.2-0.9,2.2-0.9,4.4-1.8c70.2-29,133.4-81.8,163.4-152.9c7.5-19,12.6-38.5,15.9-58.7C544.4,326.5,544.4,326.5,549.7,326.5z"/>
	<path class="st14" d="M162.6,154.1c2.9,2,4.9,3.4,6.5,6.5c0.5,6.7-0.7,11-3.5,17c-8.7,18.9-11.6,37.7-12.9,58.3
		c-0.7,9.3-2.3,17.8-5.2,26.6c-0.8-0.3-1.4-0.8-2.2-1.1c-6-21.4-3.9-54.5,5.4-74.8c2-3.5,4.1-6.6,6.5-9.8c3.5-5,5.4-7.8,5.4-14.1
		c-1.2-1.4-1.2-1.4-4-1.5c-4.9,0.5-6.7,2.4-10.1,5.9c-5.1,6.8-4.8,12.4-4.4,20.5c0.2,7.9,0.2,15.3-1.5,23
		c-1.8,8.9-2.1,17.7-2.1,26.7c0,1.4,0,2.8-0.1,4.2c0,6.8,0.4,12.5,2.7,18.9c3.5,10.1,2.6,20.6,2.4,31.1c0,3.1-0.1,6.3-0.1,9.4
		c0,2,0,3.9-0.1,5.7c-0.1,6,0.3,11.7,1.1,17.6c-0.8-0.3-1.4-0.8-2.2-1.1c-1-3.8-2-7.6-2.7-11.5c-0.2-1.2-0.4-2.3-0.8-3.5
		c-4.6-21.9-5.3-43.7-5.5-66c0-1.6,0-3.1-0.1-4.8c0-9.5,0.9-18.3,2.9-27.5c1.4-7.7,0.4-13.3-3.7-20c-1.1-9.4,2.4-17.1,7.8-24.7
		C147.2,159.2,154.3,152.1,162.6,154.1z"/>
	<path class="st15" d="M447.8,100.9c13.1,7,23.9,18,34.7,28.2c1,0.9,1.8,1.7,2.8,2.6c7.5,7.2,13.8,15.1,20,23.4
		c1,1.2,1.8,2.5,2.8,3.7c6.7,9.2,12.5,18.8,17.8,28.8c0.7,1.2,1.3,2.4,2,3.6c18,33.7,24.3,72.8,24.4,110.5c0,1.7,0,3.5,0,5.2
		c-0.1,12.4-0.1,12.4-2.5,17.2c-3.3-2.2-3.3-2.2-4.3-5.4c-1-8.2-1.2-16.6-1.3-24.8c-0.3-15.3-2-29.6-5.2-44.6
		c-0.3-1.6-0.3-1.6-0.7-3.3c-11.5-55.8-43.5-105.5-87.9-140.9c-0.9-0.8-1.6-1.5-2.5-2.3C447.8,102.3,447.8,101.7,447.8,100.9z"/>
	<path class="st16" d="M300.5,137.6c1.5,0,1.5,0,3.1,0c2.2,0,4.3,0,6.5,0c3.3,0,6.5,0,9.8-0.1c12.3-0.1,23.7,0.8,35.8,3.6
		c1,0.2,2,0.4,3,0.7c28.6,6.4,56,20.4,72.5,45.2c8.3,13.6,11.6,26.6,11.5,42.4c0,1.3,0,2.6,0,3.9c0,1.2,0,2.5,0,3.7
		c0,1.1,0,2.3,0,3.4c-0.4,2.7-0.4,2.7-2.6,4.9c-3.4-6.9-5.6-13.2-6.4-20.8c-2.6-23.5-16.4-43-34.3-57.9
		c-26-19.7-58.6-24.5-90.4-24.5c-1.6,0-3.3,0-4.9,0c-15.8,0-31.1,1.4-46.4,5.6c-1.1,0.3-2.2,0.5-3.3,0.9c-5.7,1.5-5.7,1.5-11.3,3.7
		c-2.6,0.9-2.6,0.9-5.9-0.2c9.4-4.8,18.9-7.7,29.1-10.1c1.2-0.3,2.3-0.5,3.5-0.9C280.1,138.7,290,137.6,300.5,137.6z"/>
	<path class="st17" d="M392.5,280.9c2.5,7.5-4,17.7-7.3,24.5c-21.1,39.1-62.8,65.4-104.2,78.7c-3.7,1.1-7.3,2.1-11,3
		c-1.4,0.4-2.9,0.8-4.3,1.2c-27,5.9-52.5-1.4-77.1-11.8c-3-1.3-6.1-2.4-9.1-3.6c-7.5-3.1-11.9-7.5-16.8-14c0.5-1.1,0.5-1.1,1.1-2.2
		c2.2,1.8,4.3,3.6,6.5,5.4c4.8,3.1,10,5.3,15.2,7.6c1.5,0.7,1.5,0.7,3,1.4c26.6,12,53.9,17.2,82.6,9.4c1.4-0.3,2.8-0.8,4.2-1.1
		c10.8-3.1,20.5-7.7,30.5-13c0.9-0.4,1.7-0.9,2.6-1.4c17.6-9.2,33-19.5,47.3-33.3c1.3-1.2,2.6-2.4,3.9-3.6
		C372.9,314.6,383.8,297.8,392.5,280.9z"/>
	<path class="st18" d="M427.2,78.2c13.7-1.8,27.8,10.7,38,18.4c5.2,4.2,10.2,8.6,15.2,13c1,0.9,2.1,1.7,3.1,2.7c2.3,2,4.4,4,6.6,6
		c0,0.8,0,1.4,0,2.2c1.1,0.3,2.2,0.8,3.3,1.1c2.6,2.8,5.1,5.6,7.6,8.7c1,1.2,2.1,2.4,3,3.7c11.5,14.1,20.8,29.1,29.5,45.1
		c0.7,1.1,1.2,2.2,1.8,3.4c3.6,7.2,4.1,12.6,3.6,20.5c-3-4-5-7.7-7.2-12.3c-16.8-33.9-41.5-63.9-72-86.4c-1.1-0.9-2.2-1.6-3.3-2.5
		c-7.6-5.9-15.4-10.8-23.6-15.8c-3.5-2.3-3.5-2.3-5.6-4.4C427.2,80.3,427.2,79.2,427.2,78.2z"/>
	<path class="st19" d="M265.4,217.5c4.4,3.4,6,6.2,7.8,11.4c0.9,7.5-0.3,12.1-4.3,18.4c-6.7,6.4-10.8,8-19.8,7.9
		c-4.1-0.4-6.4-1.8-9.4-4.7c-4.8-6.4-5.4-11.7-4.3-19.5c2.8-6.4,6.8-10.8,13-14.1C254.6,215.4,259.3,215.1,265.4,217.5z"/>
	<path class="st20" d="M119.2,353.6c8.5,4.2,12.1,13.3,16.5,21.5c10.2,18.3,24.4,34.2,41,46.8c2.5,2,5,3.9,7.5,5.9
		c1.7,1.3,3.5,2.7,5.2,4c4.3,3.4,8.5,6.7,12.3,10.8c-28.3-4-53.8-28-70.5-49.9c-7.5-10.8-14.1-23.4-14.1-36.9
		C117.8,355,118.5,354.3,119.2,353.6z"/>
	<path class="st21" d="M540,313.5c2.1,39.6-13.3,82.6-35.8,114.9c-0.9,1.3-1.8,2.6-2.7,4c-7.5,10.7-7.5,10.7-12.5,14.4
		c-0.3-1.4-0.8-2.8-1.1-4.3c-0.8-0.3-1.4-0.8-2.2-1.1c0.7-1,1.3-2,2.1-3c20.2-29.9,36.2-60.7,41.9-96.7
		C534,313.5,534,313.5,540,313.5z"/>
	<path class="st0" d="M376.2,188.8c5.1,8.5,10.1,17.1,9.8,27.1c-1,3.4-1,3.4-2.2,5.4c1.1,0,2.2,0,3.3,0c0,1.7,0,3.6,0,5.4
		c-1.1,0-2.2,0-3.3,0c-1.1-1.4-2.2-2.8-3.3-4.3c-0.3,0.3-0.8,0.8-1.1,1.1c0.8,1.4,1.4,2.8,2.2,4.3c-4.3-2.2-4.3-2.2-6.5-4.3
		c-1.4-0.3-2.8-0.8-4.3-1.1c0,0.8,0,1.4,0,2.2c1.4,0.3,2.8,0.8,4.3,1.1c0,0.8,0,1.4,0,2.2c-0.8-0.3-1.6-0.8-2.4-1.1
		c-3.1-1.3-3.1-1.3-7.4-1.1c-1.8,3.1-1.8,3.1-3.3,6.5c-2.2,2.2-2.2,2.2-5.5,2.8c-1.6-0.3-1.6-0.3-3.1-0.7c-0.4-2.5-0.8-5.1-1.1-7.6
		c-2.7-3-2.7-3-5.4-5.4c0-0.8,0-1.4,0-2.2c0.8,0,1.4,0,2.2,0c0.8-3.3,0.8-3.3,1.1-6.5c1.4,0.8,2.8,1.4,4.3,2.2c0,1.4,0,2.8,0,4.3
		c4-1.3,5.2-1.8,7.6-5.4c-0.5-0.8-1-1.6-1.5-2.4c-2.3-4-1.6-6.2-0.7-10.6c0.2-1.1,0.4-2.1,0.7-3.1c0.5-0.8,1-1.5,1.5-2.3
		c2.5,0,5.1,0,7.6,0c2.2-2.5,2.2-2.5,3.3-5.4C374.1,188.8,374.1,188.8,376.2,188.8z"/>
	<path class="st22" d="M425,173.6c9.3,3.1,16.7,10.8,21.1,19.4c2.7,6.1,4.6,12,6,18.5c0.3,1.6,0.8,3.3,1.2,4.9
		c1.6,8.8,1.4,17.8,1.4,26.7c0,3,0,6.1,0,9.1c0,15-0.3,30.8-5.9,44.9c-0.3,0-0.8,0-1.1,0c-0.1-1.6-0.1-3.3-0.2-4.9
		c-0.1-2.2-0.2-4.3-0.3-6.5c0-1.1-0.1-2.2-0.1-3.3c-0.2-6.1-0.8-11.9-1.5-17.9c-0.3-6.2,0-12.4,0.5-18.5c1.8-23.6-1-45.2-15.8-64.4
		C428.4,179.1,426.6,176.4,425,173.6z"/>
	<path class="st2" d="M103,225.6c3.1,2.3,4.2,3.6,4.9,7.4c0,1.2,0,2.3,0,3.5c0,1.3,0,2.6,0,3.9c0,1.3,0,2.7-0.1,4.1c0,1.3,0,2.6,0,4
		c-0.2,24.4-0.2,24.4-5.9,31.3c-1.4-0.3-2.8-0.8-4.3-1.1c-5.5-10.4-6.9-20.5-6.9-32.2c0-1.1,0-2.2-0.1-3.3c0-6.5,0.4-10.4,4.8-15.5
		C97.5,225.6,97.5,225.6,103,225.6z"/>
	<path class="st23" d="M207.1,245.1c5.9,4.1,5.9,4.1,7.6,7.6c0.5,7.8,0.2,12.8-4.3,19.5c-4.2,3.4-7.4,5.1-12.6,6.3
		c-3.7-0.9-3.7-0.9-7.4-3.8c-3.7-6.1-3.9-10.7-2.8-17.6c2-3.8,2-3.8,4.3-6.5c0.8-0.9,1.5-1.6,2.3-2.5
		C198.1,244.6,202.1,244.6,207.1,245.1z"/>
	<path class="st24" d="M305.7,42.4c8.8-1.6,18.5,0.3,27.3,1.8c1.2,0.2,2.4,0.4,3.6,0.5c10.1,1.6,20.1,3.6,30.1,5.5
		c6.4,1.3,12.7,2.3,19.2,2.9c-1.1,0.3-2.2,0.8-3.3,1.1c0.5,1.1,0.5,1.1,1.1,2.2c1.6,0.1,3.3,0.3,4.9,0.4c1.6,0.2,3.3,0.4,4.9,0.7
		c0.5,1.6,0.5,1.6,1.1,3.3c1.1,0.1,2.1,0.2,3.1,0.3c8.8,1.5,16,7,21.8,13.8c0,1.1,0,2.2,0,3.3c-4.7-1.4-8.1-3-12.1-5.9
		c-5.4-3.6-11.6-7.6-18.2-8.2c-0.8,1.4-1.4,2.8-2.2,4.3c-1.2-1-2.5-1.8-3.7-2.8c-14.9-9.9-34.3-13.3-51.7-15.2
		c-1.8-0.2-1.8-0.2-3.6-0.4c-4.6-0.5-9-1-13.6-1.4c-7.4-0.7-7.4-0.7-9.8-1.8C305,45.3,305.4,43.9,305.7,42.4z"/>
	<path class="st25" d="M144.2,186.6c0.3,8,0.1,15.4-1.6,23.2c-1.7,9.1-2.1,18.1-2.1,27.4c0,1.4,0,2.8-0.1,4.2
		c0,6.8,0.4,12.5,2.7,18.9c3.5,10.1,2.6,20.6,2.4,31.1c0,3.1-0.1,6.3-0.1,9.4c0,2,0,3.9-0.1,5.7c-0.1,6,0.3,11.7,1.1,17.6
		c-0.8-0.3-1.4-0.8-2.2-1.1c-1-3.8-2-7.6-2.7-11.5c-0.3-1.7-0.3-1.7-0.8-3.5c-4.6-21.9-5.3-43.7-5.5-66c0-1.6,0-3.1-0.1-4.8
		c0-9.5,0.9-18.3,2.9-27.5c1.1-6.2,0.5-11.7-1.4-17.8c0-0.8,0-1.5-0.1-2.3C141.8,186.6,141.8,186.6,144.2,186.6z"/>
	<path class="st26" d="M340.4,148.6c27.4,1.3,49.8,16.6,68.3,35.8c7.5,9.1,14.2,19.3,18.4,30.4c-0.3,1.1-0.8,2.2-1.1,3.3
		c-0.5-0.9-1.2-1.7-1.8-2.7c-4.8-7-9.7-13.7-15.5-19.8c-2.2-2.4-2.2-2.4-4.4-5.2c-3.1-3.9-6.9-7-10.8-10.2c-1.2-1-1.2-1-2.4-2.1
		c-13.1-11-27.4-18.5-43-25.3C343.7,150.8,343.7,150.8,340.4,148.6z"/>
	<path class="st0" d="M252.6,324.3c1.7,0.2,1.7,0.2,3.5,0.5c6.5,0.7,12.8,0.7,19.3,0.5c0,0.8,0,1.4,0,2.2c1.4,0.3,2.8,0.8,4.3,1.1
		c4.3,2.2,4.3,2.2,6.5,5.4c3.1,0.9,3.1,0.9,6.6,1.3c1.2,0.2,2.4,0.3,3.6,0.5c0.9,0.1,1.8,0.2,2.8,0.3c-0.3,1.1-0.8,2.2-1.1,3.3
		c-3,1.2-3,1.2-6.7,2.3c-1.2,0.3-2.5,0.8-3.8,1.1c-7.6,2-14.6,3.1-22.4,1c-4.1-3.3-4.7-7-6.1-12c-2.2-2.6-2.2-2.6-4.3-4.3
		c0-0.8,0-1.4,0-2.2C254,325.1,253.4,324.6,252.6,324.3z"/>
	<path class="st27" d="M328.5,412.1c0.5,1.1,0.5,1.1,1.1,2.2c-19.4,11.4-35.9,17.6-58.6,17.6c-2.4,0-2.4,0-4.8,0.1
		c-12.9,0-24.2-2-36.2-6.5c-1.3-0.4-2.6-1-3.9-1.4c-1-0.3-1.8-0.8-2.8-1.1c4.6-1.5,7.2-0.2,11.8,1c9.4,2.2,18.5,2.7,28.2,2.6
		c2,0,2,0,3.9,0C288.6,426.3,309.2,421.2,328.5,412.1z"/>
	<path class="st28" d="M293.8,53.2c-1.2,0-1.2,0-2.4,0.1c-20.6,0.5-20.6,0.5-41,3.1c-1.3,0.2-2.7,0.4-4.1,0.7
		c-17,2.8-32,7.9-46.5,17.1c-3.7,1.8-3.7,1.8-6.8,1.5c-0.8-0.2-1.5-0.5-2.3-0.9c1.1-4.3,1.1-4.3,4.7-7
		C218.1,54.7,269.1,40.9,293.8,53.2z"/>
	<path class="st29" d="M111.6,265.7c0.3,0,0.8,0,1.1,0c0,0.9,0.1,1.6,0.1,2.5c1.8,29.9,4.2,56.6,16,84.4c0.3,1.1,0.8,2.1,1.1,3.1
		c-0.3,0.8-0.8,1.4-1.1,2.2c-11.6-15.1-15.9-31.2-18.2-49.8c-0.8-5.3-1.6-9.7-4.6-14.2c-1.4-1.1-2.8-2.2-4.3-3.3
		c0.9-0.7,1.6-1.2,2.5-1.8c4.9-6,5.4-13.3,6.7-20.8C111.4,266.9,111.4,266.9,111.6,265.7z"/>
	<path class="st30" d="M138.7,392.6c3.5,2.5,6.3,5.2,9.1,8.5c12.9,15,29.8,29,48.3,36.7c3.5,1.5,3.5,1.5,5.6,4.8
		c-23.2-3.4-47.8-21.6-61.8-40.1C139.4,399.1,139,395.9,138.7,392.6z"/>
	<path class="st31" d="M238.5,181.2c1.1,0.8,2.2,1.4,3.3,2.2c0,4.7-0.8,7.2-3.4,11.1c-4.9,4.7-9.3,7.2-16,7.8
		c-3.4-0.4-3.4-0.4-5.5-2.6c0.1-6,2.4-8.9,6.5-13C232.2,180.1,232.2,180.1,238.5,181.2z"/>
	<path class="st32" d="M96.5,458.8c13,0.1,28,9.4,38,17.3c0.5,1.6,0.5,1.6,1.1,3.3c-14.4,0.4-27.1-4.7-38.2-13.7c-1-1.3-1-1.3-2-2.6
		C95.7,461.7,96.1,460.3,96.5,458.8z"/>
	<path class="st33" d="M354.5,374.2c-12,9.8-25.8,16.4-40,22.3c-1.2,0.5-2.3,1-3.5,1.5c-1.6,0.7-1.6,0.7-3.3,1.3
		c-1,0.4-2,0.8-2.9,1.2c-2.4,0.8-2.4,0.8-4.6-0.3c2.7-7.4,2.7-7.4,7.6-9.8c5.1-2.2,10.2-4.2,15.3-6.4c1.4-0.5,2.7-1.2,4.2-1.7
		c6.3-2.6,12.5-5.1,18.8-7.6c1-0.3,1.8-0.8,2.8-1.1C351.3,373.1,351.3,373.1,354.5,374.2z"/>
	<path class="st34" d="M360,489.1c-1.2,1.1-2.3,2.2-3.6,3.3c-1.5,1.4-3.1,2.9-4.7,4.3c-1.2,1.1-1.2,1.1-2.3,2.2
		c-3.7,3.5-7.4,6.9-10.8,10.5c-4.2,4.1-8.2,7-13.3,10c-1.1-0.3-2.2-0.8-3.3-1.1c0-5.4,0-5.4,2.2-9.8c2.5-1.1,2.5-1.1,5.3-2
		c1-0.2,2-0.5,2.9-0.8c2.6-0.5,2.6-0.5,5.9-0.5c0.1-1.2,0.2-2.3,0.4-3.5c0.7-4.1,0.7-4.1,3-6.3c3.1-2.2,6.3-3.7,9.8-5.2
		c1.1-0.4,2.3-1,3.5-1.4C357.8,488,357.8,488,360,489.1z"/>
	<path class="st35" d="M221.2,324.7c4.4,0.9,6,2.5,8.7,6.1c0.7,3.3,0.7,3.3,0,6.5c-2.3,3.1-2.3,3.1-5.4,5.4
		c-4.7,0.2-6.7-0.3-10.2-3.5c-1.7-3-1.7-3-1.7-8.5C215.2,327.2,216.8,325.6,221.2,324.7z"/>
	<path class="st36" d="M497.7,262.5c0.3,0,0.8,0,1.1,0c0.8,22.2-4.7,41.7-16.3,60.7c-1.1,1.1-2.2,2.2-3.3,3.3
		c-0.3-0.3-0.8-0.8-1.1-1.1c0.3-7,3.1-12.3,6.3-18.3c6.6-13.6,11.2-26.7,12.9-41.9C497.4,264.3,497.6,263.5,497.7,262.5z"/>
	<path class="st37" d="M338.3,427.3c-4.2,8.5-11.7,14.3-20.6,17.3c-4.8,0.2-4.8,0.2-8.7,0c0.2-2.5,0.2-2.5,1.1-5.4
		c2.6-2.1,2.6-2.1,6-3.9c1.2-0.7,2.4-1.3,3.6-2C331.5,427.3,331.5,427.3,338.3,427.3z"/>
	<path class="st38" d="M381.6,58.6c13-1,23.7,3.5,33.6,11.9c2.7,2.4,2.7,2.4,4.3,4.3c0,1.1,0,2.2,0,3.3c-4.4-1.3-7.9-2.9-11.7-5.6
		c-6.7-4.4-14-7.3-21.5-10.1C382.7,60.8,382.7,60.8,381.6,58.6z"/>
	<path class="st39" d="M195.1,400.2c6.7,1.2,13.1,2.8,19.7,4.8c13.2,3.9,26.2,6.3,39.9,7.6c1.1,0.2,2.2,0.3,3.3,0.5
		c0,0.8,0,1.4,0,2.2c-20.8,1.1-40.7-3.4-59.6-11.9C197.3,402.4,196.2,401.3,195.1,400.2z"/>
	<path class="st40" d="M176.7,78.2c0,5.4,0,5.4-2.8,8.2c-5.5,3.9-8.7,5.9-15.6,5.9c-0.8-0.8-1.4-1.4-2.2-2.2
		c1.4-5.7,4.1-7.3,8.7-10.8C168.9,77.8,172.5,78,176.7,78.2z"/>
	<path class="st41" d="M181,213.7c2.9,0.3,2.9,0.3,5.4,1.1c-0.2,7.4-2.4,13.1-7.6,18.4c-2.8,0.9-2.8,0.9-5.4,1.1
		c-1.1-1.1-1.1-1.1-1.5-3.8C172.7,223.7,176.3,218.5,181,213.7z"/>
	<path class="st42" d="M377.3,432.7c2.2,3.3,2.2,3.3,2.1,6.4c-1.3,4.2-2.7,5.4-6.4,7.7c-5.4,0-5.4,0-8.7-3.3
		c0.1-3.8,0.1-3.8,1.1-7.6C370.1,432.4,371.6,432.1,377.3,432.7z"/>
	<path class="st43" d="M84.5,257.1c2.2,4.4,3.6,8.7,5,13.4c0.4,1.6,1,3.1,1.5,4.9c1.6,6.5,2,10.5-1.5,16.3c-1.4,2.2-1.4,2.2-2.8,4.4
		c-0.3,0-0.8,0-1.1,0C84.6,283.1,84.4,270.1,84.5,257.1z"/>
	<path class="st44" d="M200.6,432.7c5.2,2,10.2,4.4,15.2,6.8c7.4,3.6,14.7,6.7,22.4,9.4c2.5,1.1,2.5,1.1,3.6,3.3
		c-13,1.3-25.9-6-36-13.8c-1.8-1.5-3.6-3-5.2-4.7C200.6,433.5,200.6,433.1,200.6,432.7z"/>
	<path class="st45" d="M235.3,364.4c3.3,3.3,3.3,3.3,3.3,8.7c-2.2,2.2-2.2,2.2-6.9,2.4c-5-0.2-5-0.2-8.2-2.4c-0.4-3.3-0.4-3.3,0-6.5
		C227.6,363.8,230.3,364,235.3,364.4z"/>
	<path class="st46" d="M226.6,118.3c1.2,2.4,1.2,2.4,1.1,5.4c-3,3.8-6.4,6.6-10.8,8.7c-1.4-0.3-2.8-0.8-4.3-1.1
		c-0.1-3.6-0.1-3.6,1.1-7.6C218,119.4,220.3,118.3,226.6,118.3z"/>
	<path class="st47" d="M266.7,232.1c1.1,0,2.2,0,3.3,0c0.5,6.4-0.5,10-4.3,15.2c-4.3,3.6-7.6,4.7-13,5.4c1.1-2.2,2.1-4.3,3.1-6.4
		c0.9-1.8,0.9-1.8,1.7-3.6c1.6-2.9,1.6-2.9,3.8-4c-0.3,2.5-0.8,5-1.1,7.6c3.9-3.9,4.3-6.6,5.6-11.8
		C266.1,233.6,266.4,232.9,266.7,232.1z"/>
	<path class="st48" d="M280.9,184.2c4.2,0.2,4.2,0.2,5.3,1.3c0.4,3.1,0.4,3.1,0,6.5c-2.4,2.1-2.4,2.1-5.4,3.3
		c-3.7-0.2-5-0.7-7.6-3.3C273.7,186.3,274.8,184.5,280.9,184.2z"/>
	<path class="st49" d="M322,266.6c3.3,0.2,3.3,0.2,5.4,2.4c0.4,3.1,0.4,3.1,0,6.5c-4.3,3.3-4.3,3.3-7.2,3.1c-2.6-1-2.6-1-4.8-4.2
		C315.9,269.5,316.7,267,322,266.6z"/>
	<path class="st50" d="M215.7,289.6c1.1,1.1,2.2,2.2,3.3,3.3c-0.2,3.6-0.7,5-3.3,7.6c-3.3,0.3-3.3,0.3-6.5,0c-2.2-3.3-2.2-3.3-2-6.1
		C208.9,289.2,210.2,289.6,215.7,289.6z"/>
	<path class="st51" d="M162.6,252.7c1.4,0.3,2.8,0.8,4.3,1.1c0,6.3-1.4,10.4-5.4,15.2c-1.1,0-2.2,0-3.3,0c-0.3-5.3-0.4-8.9,2-13.7
		C161,254.5,161.7,253.6,162.6,252.7z"/>
	<path class="st52" d="M484.7,359c1.4,5.5,0.1,7-2.4,12c-0.7,1.3-1.3,2.7-2.1,4.1c-2.2,3.4-2.2,3.4-6.5,5.5
		c-0.5-6.5,0.8-9.4,4.8-14.5c0.9-1.1,1.7-2.3,2.7-3.4C483.6,360.1,483.6,360.1,484.7,359z"/>
	<path class="st53" d="M211.4,259.2c-0.4,6.4-2,9.5-6.5,14.1c-2.2,1.1-2.2,1.1-4.3,2.2C201.1,267.8,202.5,259.2,211.4,259.2z"/>
	<path class="st0" d="M340.4,202.9c0.3,1.1,0.8,2.2,1.1,3.3c-8.3,5.4-8.3,5.4-15.2,5.4c-1.1-4.3-1.1-4.3,0.3-6.7
		C331.3,201.8,335,202.3,340.4,202.9z"/>
	<path class="st54" d="M178.9,311.3c2.2,2.2,2.2,2.2,2.4,5.4c-0.2,3.3-0.2,3.3-2.4,5.4c-5.4,0-5.4,0-7.6-2.2c-0.2-3.3-0.2-3.3,0-6.5
		C173.4,311.3,173.4,311.3,178.9,311.3z"/>
	<path class="st0" d="M362.1,195.3c3.8-0.7,3.8-0.7,7.6,0c2.2,4.3,2.2,4.3,2.2,8.7c-1.1,0-2.2,0-3.3,0c-1.8-2.7-1.8-2.7-3.3-5.4
		c-0.1,1.6-0.1,3.3-0.2,4.9c-0.4,2.4-0.4,2.4-0.9,4.9c-1.7,0-3.6,0-5.4,0C360.1,198.4,360.1,198.4,362.1,195.3z"/>
	<path class="st55" d="M350.2,212.6c1.4,0.8,2.8,1.4,4.3,2.2c0,1.4,0,2.8,0,4.3c1.4,0,2.8,0,4.3,0c-1.1,3.3-1.1,3.3-3.3,4.3
		c0.8,0.3,1.4,0.8,2.2,1.1c0,0.8,0,1.4,0,2.2c-5.4,0-5.4,0-8.5-2.6c-2.4-2.8-2.4-2.8-2.4-5c0.8,0,1.4,0,2.2,0
		C349.9,215.9,349.9,215.9,350.2,212.6z"/>
	<path class="st0" d="M356.7,182.3c11.7-0.3,11.7-0.3,16.3,2.2c0.4,2.8,0.4,2.8-1.1,5.4c-4.1,0.7-4.1,0.7-8.7,0
		C360.3,187.5,358.3,185.6,356.7,182.3z"/>
	<path class="st56" d="M174.2,271.1c0.9,0.4,1.6,0.8,2.5,1.2c0.5,3.7,0.5,3.7,0,7.6c-1.1,1.1-2.2,2.2-3.3,3.3
		c-4.3-1.1-4.3-1.1-5.4-2.2c-0.2-3.1-0.2-3.1,0-6.5C171.3,271.2,171.3,271.2,174.2,271.1z"/>
	<path class="st57" d="M420.7,259.2c1.1,1.1,1.1,1.1,1.3,4.2c-0.2,3.4-0.2,3.4-2.4,5.5c-3.6-0.3-5-0.7-7.6-3.3
		c0.2-3.4,0.2-3.4,1.1-6.5C416,257.8,417.6,258.5,420.7,259.2z"/>
	<path class="st58" d="M304.7,155.1c3.1,1.1,3.1,1.1,5.4,2.2c-1.1,3.3-1.1,3.3-3.3,4.3c-9.2,0.4-9.2,0.4-13-2.2
		C295.7,153.8,299.2,154.8,304.7,155.1z"/>
	<path class="st59" d="M414.2,432.7c0.8,0.3,1.4,0.8,2.2,1.1c-1.2,1.2-1.2,1.2-2.4,2.3c-6,5.9-11.3,11.5-16,18.3
		c-1.1-3.3-1.1-3.3-0.1-5.7C402.1,441.4,406.5,436.5,414.2,432.7z"/>
	<path class="st60" d="M341.5,206.1c-0.3,3.7-0.9,5.2-3.4,7.9c-3.9,2.3-6.3,2.3-10.7,1.8c-0.8-0.8-1.4-1.4-2.2-2.2
		c0.3-1.1,0.8-2.2,1.1-3.3c2.5-0.4,5.1-0.8,7.6-1.1C339.8,206.1,339.8,206.1,341.5,206.1z"/>
	<path class="st61" d="M228.7,261.4c2.8,0.1,2.8,0.1,5.4,1.1c0.3,1.4,0.8,2.8,1.1,4.3c-1.1,1.1-2.2,2.2-3.3,3.3
		c-1.4-0.3-2.8-0.8-4.3-1.1c-1-2.6-1-2.6-1.1-5.4C227.3,262.8,228,262.2,228.7,261.4z"/>
	<path class="st62" d="M164.8,290.7c1.7,0,3.6,0,5.4,0c1,2.5,1,2.5,1.1,5.4c-1.1,1.6-1.1,1.6-2.2,3.3c-1.4-0.3-2.8-0.8-4.3-1.1
		C163.7,295.1,163.3,293.6,164.8,290.7z"/>
	<path class="st63" d="M183.2,388.3c2.8,1,5.7,2.1,8.6,3c1.6,0.5,3.1,1.1,4.8,1.7c4,1.7,4,1.7,6.2,5c-7.9-1.2-13.1-2.8-19.5-7.6
		C183.2,389.7,183.2,389,183.2,388.3z"/>
	<path class="st64" d="M225.9,473.8c3.9,0.1,3.9,0.1,6.1,1.2c-0.8,1.4-1.4,2.8-2.2,4.3c-3.9,0.5-3.9,0.5-7.6,0
		c-0.3-1.4-0.8-2.8-1.1-4.3C222.2,473.9,222.2,473.9,225.9,473.8z"/>
	<path class="st65" d="M177.8,334.1c2.8,0.7,2.8,0.7,5.4,2.2c0.1,2.8,0.1,2.8-1.1,5.4c-1.4,0.3-2.8,0.8-4.3,1.1
		c-0.8-0.8-1.4-1.4-2.2-2.2C176.3,335.6,176.3,335.6,177.8,334.1z"/>
	<path class="st66" d="M191.9,306.9c2.2,0,4.3,0,6.5,0c0.3,3.1,0.3,3.1,0,6.5c-2.6,1-2.6,1-5.4,1.1c-1.1-1.1-1.1-1.1-1.2-4.4
		C191.9,309.1,191.9,308,191.9,306.9z"/>
	<path class="st0" d="M267.8,330.8c1.7,0,3.6,0,5.4,0c0,0.8,0,1.4,0,2.2c0.8,0,1.4,0,2.2,0c0.7,3.3,0.7,3.3,1.1,6.5
		c-1.4,0-2.8,0-4.3,0c-0.3-1.4-0.8-2.8-1.1-4.3c-1.1,0-2.2,0-3.3,0C267.8,333.7,267.8,332.3,267.8,330.8z"/>
	<path class="st67" d="M197.3,342.7c2.8,0.1,2.8,0.1,5.4,1.1c0,1.7,0,3.6,0,5.4c-2.6,1-2.6,1-5.4,1.1c-1.1-1.1-1.1-1.1-1.1-6.5
		C196.5,343.5,197,343.1,197.3,342.7z"/>
</g>
<g>
	<path class="st2" d="M417.2,265.7l-0.1,0.3c0,0.1-0.1,0.1-0.1,0.1l-0.7-0.2c-0.1,0-0.1,0-0.1,0.1l-0.2,0.7c0,0.1-0.1,0.1-0.1,0.1
		l-1.6-0.4c-0.1,0-0.1-0.1-0.1-0.1l0.3-1.3c0.2-0.8,1-1.2,1.8-1C417,264.1,417.5,264.9,417.2,265.7z M416.1,265.8
		c0.1,0,0.1,0,0.1-0.1l0.1-0.3c0.1-0.3-0.1-0.5-0.3-0.6c-0.3-0.1-0.5,0.1-0.6,0.3l-0.1,0.3c0,0.1,0,0.1,0.1,0.1
		C415.4,265.6,416.1,265.8,416.1,265.8z"/>
	<path class="st2" d="M417.1,266.2l-0.2,0.7c0,0.1,0,0.1,0.1,0.1l0.7,0.2c0.1,0,0.1,0,0.1-0.1l0.2-0.7c0-0.1,0-0.1-0.1-0.1l-0.7-0.2
		C417.2,266.1,417.1,266.2,417.1,266.2z"/>
	<path class="st2" d="M417.4,265.6c-0.1,0-0.2-0.1-0.1-0.1l0.2-0.7c0,0,0-0.1,0.1-0.1l0.8-0.2c0.1,0,0.2,0.1,0.1,0.1l-0.2,0.7
		c0,0,0,0.1-0.1,0.1L417.4,265.6z"/>
	<path class="st2" d="M415.4,261.4c-0.3,1,0.3,2.1,1.4,2.4c0.3,0.1,0.5,0.1,0.8,0c0,0,0.1,0,0.1-0.1l0.2-0.7c0-0.1,0-0.1-0.1-0.1
		l-1.4-0.4c-0.1,0-0.1-0.1-0.1-0.1l0.4-1.4c0-0.1,0.1-0.1,0.1-0.1l1.4,0.4c0.1,0,0.1,0.1,0.1,0.1l-0.4,1.4c0,0.1,0,0.1,0.1,0.1
		l0.7,0.2c0,0,0.1,0,0.1,0c0.2-0.2,0.3-0.4,0.4-0.7c0.3-1-0.3-2.1-1.4-2.4S415.7,260.4,415.4,261.4z"/>
</g>
</svg>
