<?xml version="1.0" encoding="utf-8"?>
<!-- Generator: Adobe Illustrator 24.0.1, SVG Export Plug-In . SVG Version: 6.00 Build 0)  -->
<svg version="1.1" id="Слой_1" xmlns="http://www.w3.org/2000/svg" xmlns:xlink="http://www.w3.org/1999/xlink" x="0px" y="0px"
	 viewBox="0 0 600 600" style="enable-background:new 0 0 600 600;" xml:space="preserve">
<style type="text/css">
	.st0{fill-rule:evenodd;clip-rule:evenodd;fill:#02131C;}
	.st1{fill-rule:evenodd;clip-rule:evenodd;fill:#697478;}
	.st2{fill-rule:evenodd;clip-rule:evenodd;fill:#D4E5EA;}
	.st3{fill-rule:evenodd;clip-rule:evenodd;fill:#23B8D5;}
	.st4{fill-rule:evenodd;clip-rule:evenodd;fill:#80909A;}
	.st5{fill-rule:evenodd;clip-rule:evenodd;fill:#FECD5C;}
	.st6{fill-rule:evenodd;clip-rule:evenodd;fill:#C3D2DB;}
	.st7{fill-rule:evenodd;clip-rule:evenodd;fill:#52BDFF;}
	.st8{fill-rule:evenodd;clip-rule:evenodd;fill:#E1E4EA;}
	.st9{fill-rule:evenodd;clip-rule:evenodd;fill:#D9E3EC;}
	.st10{fill-rule:evenodd;clip-rule:evenodd;fill:#E2E8EA;}
	.st11{fill-rule:evenodd;clip-rule:evenodd;fill:#E0E7EA;}
	.st12{fill-rule:evenodd;clip-rule:evenodd;fill:#F1F5F6;}
	.st13{fill-rule:evenodd;clip-rule:evenodd;fill:#2D3C3F;}
	.st14{fill-rule:evenodd;clip-rule:evenodd;fill:#324043;}
	.st15{fill-rule:evenodd;clip-rule:evenodd;fill:#2A3A3D;}
	.st16{fill-rule:evenodd;clip-rule:evenodd;fill:#2E3A3B;}
	.st17{fill-rule:evenodd;clip-rule:evenodd;fill:#E1EDF1;}
	.st18{fill-rule:evenodd;clip-rule:evenodd;fill:#EAF0F2;}
	.st19{fill-rule:evenodd;clip-rule:evenodd;}
	.st20{fill-rule:evenodd;clip-rule:evenodd;fill:#031E2E;}
	.st21{fill-rule:evenodd;clip-rule:evenodd;fill:#E2F0F4;}
	.st22{fill-rule:evenodd;clip-rule:evenodd;fill:#6B7875;}
	.st23{fill-rule:evenodd;clip-rule:evenodd;fill:#B4C7CD;}
	.st24{fill-rule:evenodd;clip-rule:evenodd;fill:#C6D4DA;}
	.st25{fill-rule:evenodd;clip-rule:evenodd;fill:#EEF3F5;}
	.st26{fill-rule:evenodd;clip-rule:evenodd;fill:#ECF0F1;}
	.st27{fill-rule:evenodd;clip-rule:evenodd;fill:#4A8897;}
	.st28{fill-rule:evenodd;clip-rule:evenodd;fill:#EEF3F4;}
	.st29{fill-rule:evenodd;clip-rule:evenodd;fill:#04131C;}
	.st30{fill-rule:evenodd;clip-rule:evenodd;fill:#ACBCC7;}
	.st31{fill-rule:evenodd;clip-rule:evenodd;fill:#DAE3E9;}
	.st32{fill-rule:evenodd;clip-rule:evenodd;fill:#D7E0E2;}
	.st33{fill-rule:evenodd;clip-rule:evenodd;fill:#667573;}
	.st34{fill-rule:evenodd;clip-rule:evenodd;fill:#05131C;}
	.st35{fill-rule:evenodd;clip-rule:evenodd;fill:#6A787D;}
	.st36{fill-rule:evenodd;clip-rule:evenodd;fill:#526363;}
	.st37{fill-rule:evenodd;clip-rule:evenodd;fill:#D2E1E7;}
	.st38{fill-rule:evenodd;clip-rule:evenodd;fill:#06161E;}
	.st39{fill-rule:evenodd;clip-rule:evenodd;fill:#617171;}
	.st40{fill-rule:evenodd;clip-rule:evenodd;fill:#F8FAFA;}
	.st41{fill-rule:evenodd;clip-rule:evenodd;fill:#07171E;}
	.st42{fill-rule:evenodd;clip-rule:evenodd;fill:#191D1E;}
	.st43{fill-rule:evenodd;clip-rule:evenodd;fill:#8B786B;}
	.st44{fill-rule:evenodd;clip-rule:evenodd;fill:#E5EAEB;}
	.st45{fill-rule:evenodd;clip-rule:evenodd;fill:#0B1819;}
	.st46{fill-rule:evenodd;clip-rule:evenodd;fill:#8D4795;}
	.st47{fill-rule:evenodd;clip-rule:evenodd;fill:#0A151B;}
	.st48{fill-rule:evenodd;clip-rule:evenodd;fill:#1B2123;}
	.st49{fill-rule:evenodd;clip-rule:evenodd;fill:#161D20;}
	.st50{fill-rule:evenodd;clip-rule:evenodd;fill:#BDCCCD;}
	.st51{fill-rule:evenodd;clip-rule:evenodd;fill:#F1F5F7;}
	.st52{fill-rule:evenodd;clip-rule:evenodd;fill:#F5F8F8;}
	.st53{fill-rule:evenodd;clip-rule:evenodd;fill:#06141D;}
	.st54{fill-rule:evenodd;clip-rule:evenodd;fill:#5A5F64;}
	.st55{fill-rule:evenodd;clip-rule:evenodd;fill:#10171A;}
	.st56{fill-rule:evenodd;clip-rule:evenodd;fill:#14191C;}
	.st57{fill-rule:evenodd;clip-rule:evenodd;fill:#C9DBE0;}
	.st58{fill-rule:evenodd;clip-rule:evenodd;fill:#0D141B;}
	.st59{fill-rule:evenodd;clip-rule:evenodd;fill:#4C5350;}
	.st60{fill-rule:evenodd;clip-rule:evenodd;fill:#EDF2F3;}
	.st61{fill-rule:evenodd;clip-rule:evenodd;fill:#141F25;}
	.st62{fill-rule:evenodd;clip-rule:evenodd;fill:#0D161A;}
	.st63{fill-rule:evenodd;clip-rule:evenodd;fill:#606A6B;}
	.st64{fill-rule:evenodd;clip-rule:evenodd;fill:#0B181C;}
	.st65{fill-rule:evenodd;clip-rule:evenodd;fill:#5D6766;}
	.st66{fill-rule:evenodd;clip-rule:evenodd;fill:#09161A;}
	.st67{fill-rule:evenodd;clip-rule:evenodd;fill:#CDD7DD;}
	.st68{fill-rule:evenodd;clip-rule:evenodd;fill:#DEE7E9;}
	.st69{fill-rule:evenodd;clip-rule:evenodd;fill:#11161A;}
	.st70{fill-rule:evenodd;clip-rule:evenodd;fill:#1A2326;}
	.st71{fill-rule:evenodd;clip-rule:evenodd;fill:#E4ECEE;}
	.st72{fill-rule:evenodd;clip-rule:evenodd;fill:#1A1E20;}
	.st73{fill-rule:evenodd;clip-rule:evenodd;fill:#79919C;}
	.st74{fill-rule:evenodd;clip-rule:evenodd;fill:#0A1D23;}
	.st75{fill-rule:evenodd;clip-rule:evenodd;fill:#06161F;}
	.st76{fill-rule:evenodd;clip-rule:evenodd;fill:#92A8B1;}
	.st77{fill-rule:evenodd;clip-rule:evenodd;fill:#96A2AA;}
	.st78{fill-rule:evenodd;clip-rule:evenodd;fill:#607171;}
	.st79{fill-rule:evenodd;clip-rule:evenodd;fill:#EDF2F4;}
	.st80{fill-rule:evenodd;clip-rule:evenodd;fill:#93AAB5;}
	.st81{fill-rule:evenodd;clip-rule:evenodd;fill:#161F22;}
	.st82{fill-rule:evenodd;clip-rule:evenodd;fill:#D1DFE5;}
	.st83{fill-rule:evenodd;clip-rule:evenodd;fill:#CCDBE0;}
	.st84{fill-rule:evenodd;clip-rule:evenodd;fill:#95AAB0;}
	.st85{fill-rule:evenodd;clip-rule:evenodd;fill:#D0D3DD;}
	.st86{fill-rule:evenodd;clip-rule:evenodd;fill:#E5EFF1;}
	.st87{fill-rule:evenodd;clip-rule:evenodd;fill:#CCD5D3;}
	.st88{fill-rule:evenodd;clip-rule:evenodd;fill:#10627D;}
	.st89{fill-rule:evenodd;clip-rule:evenodd;fill:#081720;}
	.st90{fill-rule:evenodd;clip-rule:evenodd;fill:#97ABB5;}
	.st91{fill-rule:evenodd;clip-rule:evenodd;fill:#AABEC7;}
	.st92{fill-rule:evenodd;clip-rule:evenodd;fill:#D2E4E8;}
	.st93{fill-rule:evenodd;clip-rule:evenodd;fill:#9DAEBC;}
	.st94{fill-rule:evenodd;clip-rule:evenodd;fill:#ECF2F2;}
	.st95{fill-rule:evenodd;clip-rule:evenodd;fill:#EEF2F3;}
	.st96{fill-rule:evenodd;clip-rule:evenodd;fill:#353C3E;}
	.st97{fill-rule:evenodd;clip-rule:evenodd;fill:#141919;}
	.st98{fill-rule:evenodd;clip-rule:evenodd;fill:#ECF0F7;}
	.st99{fill-rule:evenodd;clip-rule:evenodd;fill:#D3DFE1;}
	.st100{fill-rule:evenodd;clip-rule:evenodd;fill:#D1DADD;}
	.st101{fill-rule:evenodd;clip-rule:evenodd;fill:#131B1F;}
	.st102{fill-rule:evenodd;clip-rule:evenodd;fill:#E9F0F2;}
	.st103{fill-rule:evenodd;clip-rule:evenodd;fill:#606868;}
	.st104{fill-rule:evenodd;clip-rule:evenodd;fill:#A1B5BB;}
	.st105{fill-rule:evenodd;clip-rule:evenodd;fill:#191A1B;}
	.st106{fill-rule:evenodd;clip-rule:evenodd;fill:#D0D5D8;}
	.st107{fill-rule:evenodd;clip-rule:evenodd;fill:#D5DFE3;}
	.st108{fill-rule:evenodd;clip-rule:evenodd;fill:#556563;}
	.st109{fill-rule:evenodd;clip-rule:evenodd;fill:#5E7882;}
	.st110{fill-rule:evenodd;clip-rule:evenodd;fill:#EBF3F5;}
	.st111{fill-rule:evenodd;clip-rule:evenodd;fill:#C0C9CF;}
	.st112{fill-rule:evenodd;clip-rule:evenodd;fill:#2D3B3D;}
	.st113{fill-rule:evenodd;clip-rule:evenodd;fill:#E5EAEE;}
	.st114{fill-rule:evenodd;clip-rule:evenodd;fill:#4E6560;}
	.st115{fill-rule:evenodd;clip-rule:evenodd;fill:#EAF1F2;}
	.st116{fill-rule:evenodd;clip-rule:evenodd;fill:#6B828C;}
	.st117{fill-rule:evenodd;clip-rule:evenodd;fill:#151C20;}
	.st118{fill-rule:evenodd;clip-rule:evenodd;fill:#CAD6DD;}
	.st119{fill-rule:evenodd;clip-rule:evenodd;fill:#94A8AE;}
	.st120{fill-rule:evenodd;clip-rule:evenodd;fill:#C3CED7;}
	.st121{fill-rule:evenodd;clip-rule:evenodd;fill:#F0F3F2;}
	.st122{fill-rule:evenodd;clip-rule:evenodd;fill:#E4ECF0;}
	.st123{fill-rule:evenodd;clip-rule:evenodd;fill:#D4EBF1;}
	.st124{fill-rule:evenodd;clip-rule:evenodd;fill:#5E7984;}
	.st125{fill-rule:evenodd;clip-rule:evenodd;fill:#F4F3EB;}
	.st126{fill-rule:evenodd;clip-rule:evenodd;fill:#DFE6E7;}
	.st127{fill-rule:evenodd;clip-rule:evenodd;fill:#607479;}
	.st128{fill-rule:evenodd;clip-rule:evenodd;fill:#DAE7E9;}
	.st129{fill-rule:evenodd;clip-rule:evenodd;fill:#E0E9EC;}
	.st130{fill-rule:evenodd;clip-rule:evenodd;fill:#D9DEE4;}
	.st131{fill-rule:evenodd;clip-rule:evenodd;fill:#A4B0B7;}
	.st132{fill-rule:evenodd;clip-rule:evenodd;fill:#EBF1F2;}
	.st133{fill-rule:evenodd;clip-rule:evenodd;fill:#07151C;}
	.st134{fill-rule:evenodd;clip-rule:evenodd;fill:#05141C;}
	.st135{fill-rule:evenodd;clip-rule:evenodd;fill:#F0F4F5;}
	.st136{fill-rule:evenodd;clip-rule:evenodd;fill:#07161F;}
	.st137{fill-rule:evenodd;clip-rule:evenodd;fill:#FDF3E0;}
	.st138{fill-rule:evenodd;clip-rule:evenodd;fill:#ABB4BC;}
	.st139{fill-rule:evenodd;clip-rule:evenodd;fill:#262C2C;}
	.st140{fill-rule:evenodd;clip-rule:evenodd;fill:#CFDEE1;}
	.st141{fill-rule:evenodd;clip-rule:evenodd;fill:#B7C8D0;}
	.st142{fill-rule:evenodd;clip-rule:evenodd;fill:#3B4A48;}
	.st143{fill-rule:evenodd;clip-rule:evenodd;fill:#D1DBE2;}
	.st144{fill-rule:evenodd;clip-rule:evenodd;fill:#D8E4E6;}
	.st145{fill-rule:evenodd;clip-rule:evenodd;fill:#5D6464;}
	.st146{fill-rule:evenodd;clip-rule:evenodd;fill:#01131F;}
	.st147{fill-rule:evenodd;clip-rule:evenodd;fill:#2D3B3B;}
	.st148{fill-rule:evenodd;clip-rule:evenodd;fill:#304747;}
	.st149{fill-rule:evenodd;clip-rule:evenodd;fill:#526B67;}
	.st150{fill-rule:evenodd;clip-rule:evenodd;fill:#849594;}
	.st151{fill-rule:evenodd;clip-rule:evenodd;fill:#D6E3E8;}
	.st152{fill-rule:evenodd;clip-rule:evenodd;fill:#85979A;}
	.st153{fill-rule:evenodd;clip-rule:evenodd;fill:#E6F2F5;}
	.st154{fill-rule:evenodd;clip-rule:evenodd;fill:#5E7D82;}
	.st155{fill-rule:evenodd;clip-rule:evenodd;fill:#0D1110;}
	.st156{fill-rule:evenodd;clip-rule:evenodd;fill:#565C5A;}
	.st157{fill-rule:evenodd;clip-rule:evenodd;fill:#4C5351;}
	.st158{fill-rule:evenodd;clip-rule:evenodd;fill:#545958;}
	.st159{fill-rule:evenodd;clip-rule:evenodd;fill:#5C5F5E;}
	.st160{fill-rule:evenodd;clip-rule:evenodd;fill:#D7DEE5;}
	.st161{fill-rule:evenodd;clip-rule:evenodd;fill:#D2DEE6;}
	.st162{fill-rule:evenodd;clip-rule:evenodd;fill:#C1CED7;}
	.st163{fill-rule:evenodd;clip-rule:evenodd;fill:#D6DFE5;}
	.st164{fill-rule:evenodd;clip-rule:evenodd;fill:#D2D6DD;}
	.st165{fill-rule:evenodd;clip-rule:evenodd;fill:#B1C1CD;}
	.st166{fill:#52BDFF;}
</style>
<g>
	<g>
		<path class="st0" d="M429.8,229.8c-1.4-0.2-2.6,0.1-3.6,1.2c1.2,1.1,1.2,1.9,0,2.4c-3.8-7.9-9-14.9-15.6-21
			c-5.2-0.6-9.7,0.8-13.8,4.2c-0.7-1.1-0.6-2.2,0.6-3c2.6-1.1,5-2.5,7.2-4.2c-8.8-5-18-5.9-27.6-2.4c-4.4,0-4.7-0.7-0.6-2.4
			c0.6-1.1,0.7-2.3,0.6-3.6c0-2.9-0.6-5.8-1.8-8.4c-31.7-61.6-82-87.1-150.7-76.3c-27.9,7-51.5,20.9-70.9,42c1.7,0.4,3.2,0,4.8-1.2
			c7.1-5.5,14.8-10,22.8-13.2c-4.6,3.4-8.8,7.2-12.6,11.4c-0.8,1-0.6,1.8,0.6,2.4c11.1-7.7,22.6-14.5,34.8-20.4c1.4,0.4,1.4,1,0,1.8
			c-11.4,6.1-21.4,13.9-30,23.4c-2.3,0.6-4.3,1.8-6,3.6c-2.3-0.7-4.4-1.6-6.6-2.4c-0.4,0.8-0.8,1.6-1.2,2.4
			c-1.7-1.3-3.5-1.4-5.4-0.6c-1.2,0.8-1.3,1.9-0.6,3c1.6-1.6,3-1.6,4.2,0c-9.7,4.7-19,10.3-27.6,16.8c10,14.8,20.4,29.2,31.2,43.2
			c0.4,5,1.1,9.6,2.4,13.8c-1.7,1.6-2.9,3.4-3.6,5.4c-7.7-9.4-15.1-19-22.2-28.8c-3,6-4.4,12.4-4.2,19.2c-0.2,4.4,0,8.8,0.6,13.2
			c0.5-1.4,1.3-2.6,2.4-3.6c1.3,3.4,3.7,5.3,7.2,6c1.2,2.3,1.9,4.7,2.4,7.2c0.4-0.4,0.8-0.8,1.2-1.2c1.2,2.6,1.8,5.5,1.8,8.4
			c-1.2-0.8-2.4-1.6-3.6-2.4c0.7,2.6,2.3,4.7,4.8,6c1.6,3.5,4,6.4,7.2,8.4c7.8,10.8,16.2,21.3,25.2,31.2c0.4,2.8-0.5,5.2-2.4,7.2
			c0.2,0.7,0.6,1.3,1.2,1.8c-1.6,1.6-2.8,3.4-3.6,5.4c-1.6-2.2-1.1-4,1.2-5.4c-1.7-1-3.4-0.7-4.8,0.6c1.1,1.6,1.3,3.1,0.6,4.8
			c-1.4-2.2-2.2-4.6-2.4-7.2c-0.5,0.7-1.1,1.1-1.8,1.2c-28.1-32.6-55.3-65.7-81.7-99.7c0.7-1.9,1.3-4,1.8-6
			c-0.1,5.4,1.7,6.6,5.4,3.6c2.3,1.9,4.1,1.6,5.4-1.2c1.7,3.4,3.8,6.2,6.6,8.4c0.6,1.9,1.3,2.3,2.4,1.2c-1.3-2.6-2-5.5-2.4-8.4
			c-1.4-6.7-2.6-13.6-3.6-20.4c1.8-2.2,2.3-4.3,1.2-6.6c1.6-0.6,3.1-0.8,4.8-0.6c0-1.6,0-3.2,0-4.8c1.1-6.7,3-13.1,6-19.2
			c1.2,0.1,2.2-0.2,3-1.2c1.4-3.4,3-6.5,4.8-9.6c0.6,1.9,0.8,4,0.6,6c-1.4,4-2.4,8-3,12c24-47.2,62.2-75.1,114.7-83.5
			c57.7-4.8,103.8,15.9,138.1,61.9c8.4,13.1,15,27,19.8,42c2.5-1.2,4.8-2.8,6.6-4.8c-5.9-16.1-13.9-31-24-44.4
			C355.2,109,323.2,86.6,282,77.2c-3.8-1.8-7.8-2.9-12-3c0.8-0.4,1.6-0.8,2.4-1.2c-1.2-1.2-2.4-2.4-3.6-3.6
			c4.3,0.8,8.8,0.6,13.2-0.6c-8-1.6-14.4-1.6-19.2,0c-1.4,1.8-1.4,3.4,0,4.8c-7.8-0.4-15.7,0-24,1.2c-2-0.2-3.6-1.2-4.8-3
			c2.3-1.4,4.7-2.6,7.2-3.6c18.7-2.6,37.5-3.6,56.5-3c10.4,1.3,20.9,2.6,31.2,4.2c-8-3.4-16-6.4-24-9c0-1.2-0.6-2-1.8-2.4
			c-5-1.2-10.1-2.5-15-4.2c-13.3-0.4-26.5-0.6-39.6-0.6c3.1-1.1,6.1-2.3,9-3.6c6.6,1.2,13.2,1.4,19.8,0.6c-8.2-0.2-16.2-1.4-24-3.6
			c2.6-1.9,5.4-3.4,8.4-4.2c0.8,0,1.2-0.4,1.2-1.2c19.3-0.6,38.6,0.6,57.7,3.6c4.9,1.9,10.1,2.9,15.6,3c-4.8-1.4-9.6-2.8-14.4-4.2
			c-11.5-2.5-23.1-4.1-34.8-4.8c-42.5-4-81.3,6.2-116.5,30.6c-11.4,9.1-22.2,19-32.4,29.4c-2.9,0.8-5.3,2.4-7.2,4.8
			c-1.3-1.9-1.6-3.8-0.6-6c1.9-1.7,3.7-3.5,5.4-5.4c-0.4-0.4-0.8-0.8-1.2-1.2c2.9-2.4,5.6-4.8,8.4-7.2c-1.7-0.5-3.2-1.1-4.8-1.8
			c-0.7,0.1-1.1,0.6-1.2,1.2c-14.8,15-25.1,32.7-31.2,52.9c-1.3,1.9-2.5,4.7-3.6,8.4c-1.1-1.4-1.6-3-1.2-4.8
			c-1.8,0.4-3.4-0.1-4.8-1.2c1.9-5.9,3.6-11.9,4.8-18c-0.1-0.7-0.6-1.1-1.2-1.2c0.4-2.2-0.1-3-1.2-2.4c-4.7,10.8-7.4,22-8.4,33.6
			c-1.6,0.8-3,0.8-4.2,0c-0.4,0.8-0.8,1.6-1.2,2.4c-0.7-2.2-2.2-3.7-4.2-4.8c-1.6,1.8-3.6,2.6-6,2.4c0,2,0,4,0,6c1.2,0,2.4,0,3.6,0
			c-1,3.6-1.9,7.2-3,10.8c-0.4-2-0.8-4-1.2-6c-1.3,3.5-2.3,7.1-3,10.8c-1.9,1.2-4,1.2-6,0c0.1-3.6-0.6-6-2.4-7.2
			c-1.3-1.3-2.5-1.3-3.6,0c1.1,4.3,1.6,8.8,1.2,13.2c4.8,0.4,9.6,0.7,14.4,1.2c-0.4-2.2,0-4.2,1.2-6c1.1,8.2,1.4,16.2,1.2,24
			c2.9,3,4.7,2.3,5.4-2.4c0.8,6.1,4.1,8.9,9.6,8.4c0.1,4.1-0.7,8.2-2.4,12c-0.8,1-1.8,1.3-3,1.2c-5.6-7-11.1-14.2-16.2-21.6
			c-0.8-1.4-1.4-1.4-1.8,0c9.8,18.6,21,36.3,33.6,52.9c-1.1,0.7-2.3,1.1-3.6,1.2c-7.6-8.9-15.4-17.8-23.4-26.4
			c4,8.6,9.1,16.6,15.6,24c0.8,0.8,0.8,1.6,0,2.4c-15.4-16-29.5-32.8-42.6-50.4c-2,2-3,4.4-3,7.2c29.1,39.6,60.1,77.7,93.1,114.1
			c-1.2,0-2.4,0-3.6,0c-0.2,2.4,0.1,4.6,1.2,6.6c-1.9,0-4-0.2-6-0.6c-14.5-18.1-28.7-36.5-42.6-55.3c18.5,38.6,44.3,71.6,77.5,99.1
			c1.1,0.6,2.3,0.7,3.6,0.6c0.4,5.9,3,10.7,7.8,14.4c1.1-0.6,2.2-1.4,3-2.4c-1.6-2.2-3.4-4.2-5.4-6c-1.2-1.8-1.8-3.8-1.8-6
			c1.4-0.8,3-1.3,4.8-1.2c-0.2,2.4,0,4.8,0.6,7.2c0.5-4.7,1.6-9.1,3-13.2c0.6,1.2,1.2,2.4,1.8,3.6c0.8,1.4,1.4,1.4,1.8,0
			c-2.4-3.8-4-7.9-4.8-12c-1-10.9,2.6-19.9,10.8-27c20.9-5.3,34.7,2.5,41.4,23.4c1.7,8.4,0.2,16.2-4.2,23.4c0.2,0.5,0.7,0.7,1.2,0.6
			c0.5,1.4,1.3,2.6,2.4,3.6c16.7,3.6,33,2.3,49.2-4.2c-1.6-0.4-3.2-0.8-4.8-1.2c-3.5-4.8-7.4-9-12-12.6c-1.4-1.8-2.6-3.7-3.6-6
			c-0.1-2.6,0.7-3,2.4-1.2c0.8-0.6,1.4-1.4,1.8-2.4c5.2,0,9.8,1,13.8,3c-1.4,1.4-1.4,2.8,0,4.2c0.4-0.8,0.8-1.6,1.2-2.4
			c1.1,0.7,2.3,1.2,3.6,1.2c3.2,3.1,6.4,6.4,9.6,9.6c3.1,5.5,6.7,10.7,10.8,15.6c1,1.1,2.2,1.4,3.6,1.2c-0.2,1.7,0,3.2,0.6,4.8
			c6.8,8.3,13.5,16.7,19.8,25.2c4.4-5,9-9.8,13.8-14.4c4.1,5.8,8.6,10.9,13.8,15.6c4.8-4,9.2-8.4,13.2-13.2
			c-3.8-6.1-8.3-11.7-13.2-16.8c-2.2,1-2.8,2.6-1.8,4.8c2.9,3.5,5.4,7.1,7.8,10.8c-2.3,1.8-4.3,3.7-6,6c-4.4-4.2-8.4-8.8-12-13.8
			c3.2-4,6.4-8,9.6-12c-2.3-5.3-5.9-9-10.8-11.4c-2.8,3.4-5.8,6.6-9,9.6c-3-3.8-6-7.6-9-11.4c4.2-2.8,7.8-6.1,10.8-10.2
			c-3.1-5.3-6.7-10.3-10.8-15c-1.2-0.8-2.4-0.8-3.6,0c-2.6,3-5.6,5.6-9,7.8c1.7-4.1,4.4-7.7,8.4-10.8c0.8-1,0.6-1.8-0.6-2.4
			c-3.6,3-7,6.1-10.2,9.6c-2.3-2.3-4.1-4.9-5.4-7.8c2.2-3.8,5.2-6.8,9-9c0.8-1.9,0.5-3.5-1.2-4.8c-5.2,4.4-10.4,8.8-15.6,13.2
			c-0.8,1.1-0.6,1.9,0.6,2.4c-0.5,2.3-1.7,4.1-3.6,5.4c2.3-0.1,4.3-1.1,6-3c2.2,2.4,4.2,5,6,7.8c-3.1,3.7-6.7,6.7-10.8,9
			c-5.9-3.5-7.4-8.2-4.8-13.8c-0.4-0.6-0.8-1.2-1.2-1.8c-2.5,2.5-5.3,4.6-8.4,6c-3.4-1.9-4-4.3-1.8-7.2c0.4-5.6,0.8-11.2,1.2-16.8
			c0.4,0.8,0.8,1.6,1.2,2.4c1.4-1.3,2-2.9,1.8-4.8c1,1.8,1.6,3.7,1.8,6c0.4-5.6,0.8-11.2,1.2-16.8c1.6,2.5,2.5,5.4,3,8.4
			c-0.2,2.9,0,5.6,0.6,8.4c2-5.6,2.3-11.3,0.6-16.8c0-1.2,0-2.4,0-3.6c1.6-1.2,1.6-2.4,0-3.6c0.6-1,1.3-1.3,2.4-1.2
			c5.4-3.4,10.6-7,15.6-10.8c1.6,3.5,3,7.1,4.2,10.8c0.7-2.9,0.5-5.6-0.6-8.4c0.7,0.1,1.3,0.5,1.8,1.2c0.4-1.1,1-1.9,1.8-2.4
			c2.2,5.6,3.6,11.7,4.2,18c0.6-4.8,0.8-9.6,0.6-14.4c1.6-1.6,1.6-3.1,0-4.8c1.1,0,1.9-0.6,2.4-1.8c-0.7-1.7-1.2-3.5-1.2-5.4
			c2.5-1,4.9-1,7.2,0c-0.1,1.3,0,2.5,0.6,3.6c3.1-2.5,6.6-4.4,10.2-6c1.6-0.8,3-0.8,4.2,0c1.2-1.2,2.4-2.4,3.6-3.6
			c1.1,1.3,2,2.5,3,3.6c1.3,2.2,2.3,4.6,3,7.2c0.2-1.2,0.4-2.4,0.6-3.6c-1-4.4-2.2-8.9-3.6-13.2c2.6,2.5,4.4,5.8,5.4,9.6
			c0.4,4,0.8,8,1.2,12c0.6-1.6,0.8-3.1,0.6-4.8c2-6.5,3.5-6,4.2,1.2c0.4-1.6,0.8-3.2,1.2-4.8c0.6,3.1,0.8,6.4,0.6,9.6
			c2.4,0.4,4.2-0.5,5.4-2.4c0.4,2.3,1.3,4.3,3,6c-0.2,0.7-0.6,1.3-1.2,1.8c1.1,0.4,1.9,1,2.4,1.8c-4.8,0.8-9.6,1.4-14.4,1.8
			c-7.3,5.4-14.3,11.2-21,17.4c-1.6,2.8-3.6,5.2-6,7.2c-0.8,0.8-0.8,1.6,0,2.4c6.7-4.3,12.7-9.5,18-15.6
			c-3.6,7.1-8.4,13.5-14.4,19.2c-0.8,1-0.6,1.8,0.6,2.4c6-4.8,12-9.6,18-14.4c-4.2,6.7-9,13.2-14.4,19.2
			c8.8-4.1,16.1-10.4,22.2-19.2c0.4,1.7,0,3.2-1.2,4.8c-5.2,7.2-10.8,13.9-16.8,20.4c-0.2,2.3,0.6,4.3,2.4,6
			c17.9-15.6,31-34.7,39-57.1c-2.2-0.1-4.1,0.5-6,1.8c-0.8-0.5-1.4-1.3-1.8-2.4c-1.9,1.1-2.9,0.4-3-2.4c0.5-2.6,2.2-4.2,4.8-4.8
			c0.1,0.6,0.5,1.1,1.2,1.2c6.1-2.6,11.7-5.9,16.8-9.6c2-0.2,3.6-1,4.8-2.4c3.2-1.2,6.4-2.4,9.6-3.6c1.4,0.1,2.5,0.8,3,2.4
			c2-4.2,3.5-8.5,4.2-13.2c-3.6-4.2-4.3-9-2.4-14.4c2.4,1,2.8,2.4,1.2,4.2c1.4,1.3,3,2.3,4.8,3c-0.1,0.8,0,1.7,0.6,2.4
			c2.5-2.3,4.7-4.7,6.6-7.2c-0.8,3.2-1.6,6.4-2.4,9.6c6-0.4,7.2,1.7,3.6,6c-2.4,3.4-5.4,6.2-9,8.4c-7.8,41.7-25.1,78.9-51.6,111.7
			c-0.8,1.2-0.8,2.4,0,3.6c3.7,3.7,5.6,8.2,6,13.2c-12.5,12.9-25.2,25.2-38.4,37.2c-2.6-2.9-5.2-5.6-7.8-8.4
			c-53,45.3-114.2,72.5-183.8,81.7c4.9,4.3,10.3,7.9,16.2,10.8c18.9-3,37.5-7.2,55.9-12.6c19.1-7.3,38-15,56.5-22.8
			c-31.5,19.9-65.5,33.6-102.1,40.8c1.7,2.2,4,3.6,6.6,4.2c19.7-4.9,39-10.3,58.3-16.2c-15,7.7-30.6,13.9-46.8,18.6
			c0.5,3,2.6,5,6.6,6c42.6-11.4,82-29.4,118.3-54.1c4.3,0.1,8.2-1.1,11.4-3.6c1,0.4,2,0.8,3,1.2c-1.6,1.2-1.6,2.4,0,3.6
			c-2.4,0.5-2.8,1.7-1.2,3.6c1.7-0.6,2.5-1.8,2.4-3.6c0.7-0.1,1.3-0.5,1.8-1.2c-0.1,1.6,0,3,0.6,4.2c-0.8,1.3-1.4,2.6-1.8,4.2
			c-3.7-1.3-3.8-0.6-0.6,2.4c1.6-0.7,2.5-1.9,3-3.6c1.8,2.3,3.1,4.7,4.2,7.2c-27.9,21.5-58.7,38.2-92.5,49.8
			c20.9-5.3,41-13.2,60.1-24c52.6-29.8,95.7-70,129.1-120.7c0.4,1.7,0,3.2-1.2,4.8c-8.8,13-17.8,25.8-27,38.4
			c17.8-18.6,33.4-39,46.8-61.3c1.7-2.2,3.1-4.6,4.2-7.2c0.8-1.4,1.4-1.4,1.8,0c-43.6,79.9-106.5,139.3-188.6,178.4
			c10.4,0.8,20.8,0.8,31.2,0c23.5-12.7,45.9-26.9,67.3-42.6c1.6,0,3.2,0,4.8,0c0-1.2,0-2.4,0-3.6c3.5,1.6,6.7,1.2,9.6-1.2
			c2,1.1,3.5,2.6,4.2,4.8c0.6-0.7,0.7-1.6,0.6-2.4c1.1,0.7,2.3,1.1,3.6,1.2c-0.5,4.4-2.9,7.2-7.2,8.4c0.2,0.7,0.6,1.3,1.2,1.8
			c5-1.2,10.3-2.6,15.6-4.2c0-1.2,0-2.4,0-3.6c1.7-0.2,3.2,0,4.8,0.6c-1.4,2.2-1,4.2,1.2,6c-1.4,2.3-3,4.6-4.8,6.6
			c1.3,1,2.2,2.2,2.4,3.6c-7.1,5.6-14.7,10.7-22.8,15c35.7-10.8,66.9-29.4,93.7-55.9c1.8,0,3.2-0.8,4.2-2.4c0.4,1.8,1.2,3.5,2.4,4.8
			c2.9-2.6,5.4-5.4,7.8-8.4c4.8-4.1,9.2-8.4,13.2-13.2c1.2,0.1,2.2-0.2,3-1.2c0.2,1.3,0.8,2.5,1.8,3.6c1.3-3,3.6-4.9,6.6-6
			c1.7,1.3,3.4,1.3,4.8,0c0.6,1.1,0.7,2.3,0.6,3.6c1.2,0,2.4,0,3.6,0c0,2,0,4,0,6c-51.2,59.2-116,92.7-194.6,100.3
			c-124.9,6.2-220-43.6-285.3-149.5c-42.8-82.8-46.8-167.2-12-253.4C76.8,86.6,152.6,28.7,258,9.4C373.6-3.3,466.7,36.1,537.3,127.7
			c3.6,5.9,7.4,11.8,11.4,17.4c-40.7,26.4-81.6,52.7-122.5,78.7C427.7,225.6,428.9,227.6,429.8,229.8z"/>
	</g>
	<g>
		<path class="st1" d="M320.5,28c-5.9-0.4-11.4,0-16.8,1.2c-1.6,0-2.8-0.6-3.6-1.8C307,26.4,313.9,26.5,320.5,28z"/>
	</g>
	<g>
		<path class="st2" d="M286.8,38.8c11.8,0.7,23.3,2.3,34.8,4.8c0,0.8-0.4,1.2-1.2,1.2c-19.1-3-38.3-4.2-57.7-3.6
			c0.5-0.8,1.3-1.4,2.4-1.8C272.4,38.8,279.6,38.5,286.8,38.8z"/>
	</g>
	<g>
		<path class="st3" d="M286.8,38.8c-7.2-0.2-14.4,0-21.6,0.6c-1.1,0.4-1.9,1-2.4,1.8c0,0.8-0.4,1.2-1.2,1.2
			c-50.4,5.2-92.7,26.3-126.7,63.7c0.6-2.4,1.6-4.8,3-7.2c10.2-10.4,21-20.3,32.4-29.4C205.5,45,244.3,34.8,286.8,38.8z"/>
	</g>
	<g>
		<path class="st4" d="M321.7,43.6c4.8,1.4,9.6,2.8,14.4,4.2c-5.5-0.1-10.7-1.1-15.6-3C321.3,44.8,321.7,44.4,321.7,43.6z"/>
	</g>
	<g>
		<path class="st5" d="M382.9,59.2c2.2,3.1,4.9,5.6,8.4,7.8c-4.1,1.7-6.2,4.7-6.6,9c-1.6-5.2-4.9-8.2-10.2-9
			C379.9,67,382.7,64.5,382.9,59.2z"/>
	</g>
	<g>
		<path class="st6" d="M331.3,59.2c0.2-0.7,0.8-1.1,1.8-1.2c26.5,9.8,48.2,25.8,64.9,48C379.1,85.5,356.9,69.9,331.3,59.2z"/>
	</g>
	<g>
		<path class="st7" d="M261.6,42.4c-3,0.8-5.8,2.3-8.4,4.2c7.8,2.2,15.9,3.4,24,3.6c-6.6,0.8-13.2,0.6-19.8-0.6
			c-2.9,1.3-5.9,2.5-9,3.6c13.1,0,26.3,0.2,39.6,0.6c4.9,1.7,10,3,15,4.2c1.2,0.4,1.8,1.2,1.8,2.4C230.5,46.9,171.5,71,127.7,132.5
			c-9.6,15.3-15.4,31.8-17.4,49.8c0,1.3,0.5,2.3,1.2,3c0,1.6,0,3.2,0,4.8c-1.7-0.2-3.2,0-4.8,0.6c1.1,2.3,0.6,4.4-1.2,6.6
			c1,6.8,2.2,13.7,3.6,20.4c-4.7-11.4-7.7-23.4-9-36c-0.4-13.6-0.8-27.3-1.2-40.8c-8.9,29.5-5.5,57.5,10.2,84.1
			c-2.8-2.2-4.9-5-6.6-8.4c-1.3,2.8-3.1,3.1-5.4,1.2c-3.7,3-5.5,1.8-5.4-3.6c-0.5,2-1.1,4.1-1.8,6c-1.6-0.8-2.8-2-3.6-3.6
			c1.2,0.1,2.2-0.2,3-1.2c1.7-3.8,2.5-7.9,2.4-12c-5.5,0.5-8.8-2.3-9.6-8.4c-0.7,4.7-2.5,5.4-5.4,2.4c0.2-7.8-0.1-15.9-1.2-24
			c-1.2,1.8-1.6,3.8-1.2,6c-4.8-0.5-9.6-0.8-14.4-1.2c0.4-4.4-0.1-8.9-1.2-13.2c1.1-1.3,2.3-1.3,3.6,0c-1.6,3.8-1,7.4,1.8,10.8
			c0.6-1.1,0.7-2.3,0.6-3.6c2,1.2,4.1,1.2,6,0c0.7-3.7,1.7-7.3,3-10.8c0.4,2,0.8,4,1.2,6c1.1-3.6,2-7.2,3-10.8c-1.2,0-2.4,0-3.6,0
			c0-2,0-4,0-6c2.4,0.2,4.4-0.6,6-2.4c2,1.1,3.5,2.6,4.2,4.8c0.4-0.8,0.8-1.6,1.2-2.4c1.2,0.8,2.6,0.8,4.2,0c-0.2,2,0,4.1,0.6,6
			c1.4-13,4.4-25.3,9-37.2c0.6,0.1,1.1,0.5,1.2,1.2c-1.2,6.1-2.9,12.1-4.8,18c1.4,1.1,3,1.6,4.8,1.2c-0.4,1.8,0.1,3.4,1.2,4.8
			c1.1-3.7,2.3-6.5,3.6-8.4c-1.9,7.1-2.5,14.3-1.8,21.6c6.8-26.8,17.8-51.6,33-74.5c0.1-0.6,0.5-1.1,1.2-1.2
			c1.6,0.7,3.1,1.3,4.8,1.8c-2.8,2.4-5.5,4.8-8.4,7.2c0.4,0.4,0.8,0.8,1.2,1.2c-1.7,1.9-3.5,3.7-5.4,5.4c-1,2.2-0.7,4.1,0.6,6
			c1.9-2.4,4.3-4,7.2-4.8c-1.4,2.4-2.4,4.8-3,7.2C168.9,68.7,211.2,47.5,261.6,42.4z"/>
	</g>
	<g>
		<path class="st8" d="M318.1,77.2c2.2-0.4,3.8,0.5,4.8,2.4c-1,1.9-2.6,2.8-4.8,2.4C318.1,80.5,318.1,78.8,318.1,77.2z"/>
	</g>
	<g>
		<path class="st9" d="M340.9,80.8c1.2,0,2.4,0,3.6,0c0,1.6,0,3.2,0,4.8c-1.2,0-2.4,0-3.6,0C340.9,84.1,340.9,82.4,340.9,80.8z"/>
	</g>
	<g>
		<path class="st5" d="M304.9,60.4c8,2.6,16,5.6,24,9c-10.3-1.6-20.8-2.9-31.2-4.2c-68.9-6.8-124.1,17.5-165.2,73.3
			c-5.6,8.9-10.7,18-15,27.6c-3,6.1-4.9,12.5-6,19.2c-0.7-0.7-1.2-1.7-1.2-3c2-18,7.8-34.6,17.4-49.8
			C171.5,71,230.5,46.9,304.9,60.4z"/>
	</g>
	<g>
		<path class="st7" d="M282,77.2c41.2,9.4,73.1,31.8,96.1,67.3c-0.6,2.5-1.3,4.9-2.4,7.2c-34.4-46-80.5-66.7-138.1-61.9
			c-52.5,8.4-90.7,36.3-114.7,83.5c0.6-4,1.6-8,3-12c21.7-46.8,58.3-75.1,109.3-84.7C250.8,75.9,266.4,76,282,77.2z"/>
	</g>
	<g>
		<path class="st10" d="M415.4,97.6c6.6,1,8.3,4.2,4.8,9.6c-4.3,2.3-7.2,1.1-8.4-3.6C412.1,101,413.3,99,415.4,97.6z"/>
	</g>
	<g>
		<path class="st11" d="M364.9,97.6c1.7,2.3,3.7,4.6,6,6.6c-2.6,1.4-4.4,3.7-5.4,6.6c-0.7-3.7-3-5.9-6.6-6.6
			C362.4,103.3,364.4,101.1,364.9,97.6z"/>
	</g>
	<g>
		<path class="st12" d="M303.7,29.2c5.4-1.2,10.9-1.6,16.8-1.2c37.1,1.2,70.4,13.1,99.7,35.4c9,8,17.8,16.2,26.4,24.6
			c-11.3-13.6-23.8-26.2-37.2-37.8c3.4,0.5,6.5,1.7,9.6,3.6c38.6,24.9,66.5,58.5,84.1,100.9c-3.7,2.8-7.4,5.4-11.4,7.8
			c-2-5.6-4.6-10.8-7.8-15.6c1.4,5,3.1,10,4.8,15c-1,2.2-2.6,3.7-4.8,4.8c-1.1,0.7-2.2,0.6-3-0.6C452.4,80.9,393.3,35.3,303.7,29.2z
			"/>
	</g>
	<g>
		<path class="st13" d="M457.4,101.2c2.2,1,3.4,2.5,3.6,4.8C458.9,105.1,457.7,103.5,457.4,101.2z"/>
	</g>
	<g>
		<path class="st14" d="M446.6,88c4.9,3.4,8.5,7.8,10.8,13.2C453,97.5,449.4,93.1,446.6,88z"/>
	</g>
	<g>
		<path class="st15" d="M461,106c1.7,0.6,2.5,1.8,2.4,3.6C461.7,109,460.9,107.8,461,106z"/>
	</g>
	<g>
		<path class="st5" d="M136.7,83.2c-15.3,22.8-26.2,47.7-33,74.5c-0.7-7.3-0.1-14.5,1.8-21.6C111.6,115.9,121.9,98.2,136.7,83.2z"/>
	</g>
	<g>
		<path class="st7" d="M376.9,200.9c-13.7,7.1-26.9,15.1-39.6,24c-1-1.1-1.6-2.3-1.8-3.6c-2.9,5.6-7.1,9.5-12.6,11.4
			c2.2-4.4,3.6-9.1,4.2-13.8c-4.3,7.1-9.7,13.1-16.2,18c-0.4-0.2-0.8-0.4-1.2-0.6c5.2-5.8,8.2-12.4,9-19.8
			c-6.1,11.8-15.1,19.9-27,24.6c10.7-7.1,16.8-16.9,18.6-29.4c-2.5,4.6-5.3,9-8.4,13.2c-2.2,2.8-4.7,4.7-7.8,6
			c-1-0.4-1.4-1.2-1.2-2.4c4.2-4.4,6.4-9.6,6.6-15.6c-2.8,5-6.4,9.5-10.8,13.2c7.8-16.1,4.8-29.9-9-41.4c-18.5-9-35.1-6.4-49.8,7.8
			c0.6-3.1,2.4-5.8,5.4-7.8c4.4-3.5,9.2-6.2,14.4-8.4c-12.5,1.6-23.1,7-31.8,16.2c1.9-4.3,4.9-8.2,9-11.4c4.2-3.1,8.6-5.9,13.2-8.4
			c-14.2,2.9-25.9,9.8-35.4,21c6.5-10.1,15.1-18.3,25.8-24.6c-6.2,1.3-12.3,3.7-18,7.2c-5.2,3.6-10.1,7.4-15,11.4
			c-0.8-0.8-0.8-1.6,0-2.4c7.9-8.4,16.9-15.4,27-21c-12.6,3.2-23.7,9.4-33,18.6c1.4-4,4.1-7.3,7.8-10.2c5.2-4.6,10.8-8.6,16.8-12
			c-10.7,2.8-20.3,7.7-28.8,15c4.7-7.7,11.5-13.9,20.4-18.6c-9.7,2.9-18.7,7.4-27,13.8c-0.8-0.8-0.8-1.6,0-2.4
			c7.6-7.6,15.7-14.2,24.6-19.8c-11.1,3.7-21.5,9.1-31.2,16.2c-1.2-0.6-1.2-1.3,0-2.4c8.6-9.5,18.6-17.3,30-23.4
			c1.4-0.8,1.4-1.4,0-1.8c-12.3,5.9-23.8,12.7-34.8,20.4c-1.2-0.6-1.4-1.4-0.6-2.4c3.8-4.2,8-8,12.6-11.4c-8,3.2-15.7,7.7-22.8,13.2
			c-1.6,1.2-3.1,1.6-4.8,1.2c19.3-21.1,43-35.1,70.9-42c68.7-10.8,119,14.7,150.7,76.3C376.3,195.2,376.9,198.1,376.9,200.9z"/>
	</g>
	<g>
		<path class="st16" d="M463.4,109.6c2.9,2.9,5.5,6.1,7.8,9.6c1.6,2.3,2.4,4.7,2.4,7.2C469.9,120.9,466.5,115.4,463.4,109.6z"/>
	</g>
	<g>
		<path class="st17" d="M439.4,114.5c4.3,2.3,4.6,4.7,0.6,7.2C436.3,119.7,436,117.3,439.4,114.5z"/>
	</g>
	<g>
		<path class="st18" d="M468.2,83.2c19.7,17.2,37.1,36.4,52.2,57.7c0.8,1.6,0.6,3-0.6,4.2c-1.7,0.6-3.1,1.6-4.2,3
			C501.4,125.3,485.6,103.6,468.2,83.2z"/>
	</g>
	<g>
		<path class="st19" d="M572.7,121.7c8.5,0.2,11.5,4.3,9,12c-4.2,4.2-8.9,4.7-13.8,1.2c-3.8,3.5-8.3,5.8-13.2,6.6
			c4.1-2.2,7.9-4.8,11.4-7.8C566.1,128.4,568.4,124.3,572.7,121.7z"/>
	</g>
	<g>
		<path class="st20" d="M297.7,65.2c-19-0.6-37.7,0.4-56.5,3c-2.5,1-4.9,2.2-7.2,3.6c1.2,1.8,2.8,2.8,4.8,3c8.3-1.2,16.2-1.6,24-1.2
			c1.2,0,2.4,0,3.6,0c0.5-3-0.7-4.6-3.6-4.8c4.8-1.6,11.2-1.6,19.2,0c-4.4,1.2-8.9,1.4-13.2,0.6c1.2,1.2,2.4,2.4,3.6,3.6
			c-0.8,0.4-1.6,0.8-2.4,1.2c4.2,0.1,8.2,1.2,12,3c-15.6-1.2-31.2-1.3-46.8-0.6c-51,9.6-87.6,37.8-109.3,84.7c0.2-2,0-4.1-0.6-6
			c-1.8,3.1-3.4,6.2-4.8,9.6c-0.8,1-1.8,1.3-3,1.2c4.3-9.6,9.4-18.7,15-27.6C173.6,82.7,228.7,58.4,297.7,65.2z"/>
	</g>
	<g>
		<path class="st21" d="M262.8,68.8c2.9,0.2,4.1,1.8,3.6,4.8c-1.2,0-2.4,0-3.6,0C261.4,72.2,261.4,70.6,262.8,68.8z"/>
	</g>
	<g>
		<path class="st22" d="M483.8,146.9c-2.4-2.3-3.4-5.2-3-8.4C482.5,141,483.5,143.9,483.8,146.9z"/>
	</g>
	<g>
		<path class="st23" d="M392.5,143.3c4.6,1.6,4.6,2.8,0,3.6C392.5,145.7,392.5,144.5,392.5,143.3z"/>
	</g>
	<g>
		<path class="st24" d="M462.2,144.5c4.1,0.8,4.4,2.4,1.2,4.8C462.3,147.8,461.9,146.3,462.2,144.5z"/>
	</g>
	<g>
		<path class="st5" d="M99.5,119.3c-4.6,11.9-7.6,24.3-9,37.2c-0.6-1.9-0.8-4-0.6-6c1-11.7,3.7-22.8,8.4-33.6
			C99.4,116.3,99.8,117.1,99.5,119.3z"/>
	</g>
	<g>
		<path class="st25" d="M378.1,144.5c10.1,13.5,18.1,28.3,24,44.4c-1.8,2-4.1,3.6-6.6,4.8c-4.8-15-11.4-28.9-19.8-42
			C376.8,149.4,377.5,147,378.1,144.5z"/>
	</g>
	<g>
		<path class="st26" d="M409.4,119.3c0.7-1.6,1.4-1.6,2.4,0c17.3,19,29.3,41.1,36,66.1c-0.1,1.1-0.5,2.2-1.2,3c-2.2,0.4-4,1.3-5.4,3
			C435.1,165.1,424.5,141.1,409.4,119.3z"/>
	</g>
	<g>
		<path class="st5" d="M332.5,143.3c1.7,5,3.5,10.3,5.4,15.6c4.2,4.3,9.2,7.3,15,9c-12.5,2-19.1,9.5-19.8,22.2
			c-0.8-13.2-7.8-20.7-21-22.2c5-1.9,10.1-4.1,15-6.6C330.2,155.7,332,149.6,332.5,143.3z"/>
	</g>
	<g>
		<path class="st27" d="M64.6,172.1c0.1,1.3,0,2.5-0.6,3.6c-2.8-3.4-3.4-7-1.8-10.8C64,166.1,64.8,168.5,64.6,172.1z"/>
	</g>
	<g>
		<path class="st28" d="M161.9,186.5c-0.6-2.4-2-4.4-4.2-6c0.5,2.8,1.9,5.2,4.2,7.2c0.7,1.6,1.9,2.8,3.6,3.6c4.3-1.9,8.3-4.3,12-7.2
			c8.9,10.1,16.9,20.9,24,32.4c-4,2.8-8,5.6-12,8.4c0.4,0.4,0.8,0.8,1.2,1.2c4.2-2.9,8.6-5.2,13.2-6.6c4.4,4.8,8.5,10.1,12,15.6
			c-4.6,2.4-8.5,5.4-12,9c0.4,0.4,0.8,0.8,1.2,1.2c4-3.6,8.3-5.8,13.2-6.6c3.7,5.5,7.8,10.9,12,16.2c-3.6,3.2-7.2,6.4-10.8,9.6
			c2,4.9,5.3,8.9,9.6,12c1.9-1.3,3.7-3,5.4-4.8c-1.1-4-2.9-7.8-5.4-11.4c0.1-1.6,1-2.5,2.4-3c4.1,4.9,7.7,10.1,10.8,15.6
			c-4.8,3.6-9.6,7.2-14.4,10.8c-4.8-5.2-9.6-10.4-14.4-15.6c-3.7,2.4-7.3,4.9-10.8,7.8c-1.6,1.2-3.1,1.6-4.8,1.2
			c-4.2-5.6-8.3-11.4-12-17.4c1-1.1,2.2-1.9,3.6-2.4c4,4.8,8,9.6,12,14.4c2.6-2.3,5.4-4.3,8.4-6c1.3-1.1,1.4-2.3,0.6-3.6
			c-4.1-4.7-7.8-9.5-11.4-14.4c-5.2,3.5-10.4,6.5-15.6,9c-7.1-9.6-14.3-19.1-21.6-28.2c-10.8-14.1-21.3-28.5-31.2-43.2
			c8.6-6.5,17.9-12.1,27.6-16.8c2.2-1.7,4.6-2.3,7.2-1.8c3.4,5.2,7,10.2,10.8,15c-3.6,2.4-7.2,4.8-10.8,7.2
			C164.3,188.1,163.1,187.2,161.9,186.5z"/>
	</g>
	<g>
		<path class="st29" d="M292.9,228.6c-5,4.4-10.7,8.3-16.8,11.4c7-1.1,13-4.1,18-9c3.1-1.3,5.6-3.2,7.8-6c3.1-4.2,5.9-8.6,8.4-13.2
			c-1.8,12.5-7.9,22.3-18.6,29.4c11.9-4.7,20.9-12.9,27-24.6c-0.8,7.4-3.8,14.1-9,19.8c0.4,0.2,0.8,0.4,1.2,0.6
			c6.5-4.9,11.9-10.9,16.2-18c-0.6,4.7-2,9.4-4.2,13.8c5.5-1.9,9.7-5.8,12.6-11.4c0.2,1.3,0.8,2.5,1.8,3.6
			c12.7-8.9,25.9-16.9,39.6-24c0.1,1.3,0,2.5-0.6,3.6c-4.1,1.7-3.8,2.4,0.6,2.4c-0.5,0.8-1.3,1.4-2.4,1.8c10.4,1.9,19.5,6.5,27,13.8
			c2.4-2.5,5-3.7,7.8-3.6c-2,1.6-4,3.2-6,4.8c3,4.4,6,8.8,9,13.2c2.9-3,6.4-4.8,10.2-5.4c-3.2,2.4-6.4,4.8-9.6,7.2
			c2.3,4.4,4.1,9,5.4,13.8c3.1-1.9,6-4.3,8.4-7.2c0.6-4.1,0.5-8-0.6-12c1.2-0.5,1.2-1.3,0-2.4c1-1.1,2.2-1.4,3.6-1.2
			c41.1-25.5,81.4-51.9,121.3-79.3c36.6,59.9,49.2,124.8,37.8,194.6c-9.5,53.3-31.7,100.2-66.7,140.5c0-2,0-4,0-6
			c-1.2,0-2.4,0-3.6,0c0.1-1.3,0-2.5-0.6-3.6c-1.4,1.3-3.1,1.3-4.8,0c-3,1.1-5.3,3-6.6,6c-1-1.1-1.6-2.3-1.8-3.6
			c-0.8,1-1.8,1.3-3,1.2c38.8-46.2,61.1-99.5,67.3-159.8c1.4-11.1,1.6-22.2,0.6-33.6c-0.5,7.6-1.1,15.3-1.8,22.8
			c-0.1,4.4-0.5,8.9-1.2,13.2c-3,2.4-4.8,5.6-5.4,9.6c0.8-20.4,1.9-40.8,3-61.3c-3.1-2.3-3.1-4.6,0-6.6c-1.1-0.6-2.3-0.7-3.6-0.6
			c-1-10.2-3-20.2-6-30c0-0.8,0-1.6,0-2.4c-2-11.1-5-21.9-9-32.4c-2.4-7.4-5.8-14.2-10.2-20.4c-2,1.2-3.6,2.8-4.8,4.8
			c6.1,16.6,10.9,33.4,14.4,50.4c1.1,10.4,2,20.8,3,31.2c2,1.1,4.2,1.4,6.6,1.2c-0.6,3.1-2.6,4.3-6,3.6c0,9.2,0,18.4,0,27.6
			c-1.8,10.9-3,22.2-3.6,33.6c-8.8,43.2-25.3,83.4-49.8,120.1c-25.8,34.8-56.5,64.4-91.9,88.9c-0.2-1.4-1.1-2.6-2.4-3.6
			c1.8-2,3.4-4.3,4.8-6.6c-2.2-1.8-2.6-3.8-1.2-6c-1.6-0.6-3.1-0.8-4.8-0.6c0,1.2,0,2.4,0,3.6c-5.3,1.6-10.6,3-15.6,4.2
			c-0.6-0.5-1-1.1-1.2-1.8c4.3-1.2,6.7-4,7.2-8.4c3-2,2.9-4.1-0.6-6c-2.4,0.6-3.5,2.3-3,4.8c0.1,0.8,0,1.7-0.6,2.4
			c-0.7-2.2-2.2-3.7-4.2-4.8c-2.9,2.4-6.1,2.8-9.6,1.2c0,1.2,0,2.4,0,3.6c-1.6,0-3.2,0-4.8,0c29.7-24.6,56.3-52.2,79.9-82.9
			C493,373.7,513,302.4,507.3,225c-0.6-7-1.8-13.7-3.6-20.4c-2.6-0.7-5,0.1-7.2,2.4c-0.4,12-0.8,24-1.2,36
			c-0.8-10.2-1.8-20.4-3-30.6c-0.4-0.6-0.8-1.2-1.2-1.8c-2.8,1.3-5.4,3-7.8,4.8c1.9,68.9-15.9,132.2-53.5,189.8
			c-25.7,38.6-56.9,72.2-93.7,100.9c-1.1-2.5-2.4-4.9-4.2-7.2c-0.5,1.7-1.4,2.9-3,3.6c-3.2-3-3.1-3.7,0.6-2.4c0.4-1.6,1-2.9,1.8-4.2
			c-0.6-1.2-0.7-2.6-0.6-4.2c-0.5,0.7-1.1,1.1-1.8,1.2c-0.4,0-0.8,0-1.2,0c-1.6-1.2-1.6-2.4,0-3.6c-1-0.4-2-0.8-3-1.2
			c-3.2,2.5-7.1,3.7-11.4,3.6c58.3-39.6,100.9-92.1,127.9-157.3c12.6-32.9,18.4-67,17.4-102.1c-2.3,1.4-4.6,3-6.6,4.8
			c-4.8,45.4-19,87.4-42.6,126.1c10.6-20.4,19.2-41.7,25.8-63.7c1.9-8.3,3.4-16.7,4.2-25.2c1.9-5.8,2.5-11.8,1.8-18
			c-1.2,4.8-2.3,9.6-3,14.4c-7.2,31-19.5,59.8-36.6,86.5c12.9-27.1,22.3-55.5,28.2-85.3c0-1.1-0.5-1.9-1.2-2.4
			c3.6-4.3,2.4-6.4-3.6-6c0.8-3.2,1.6-6.4,2.4-9.6c0.2-1.7,0-3.2-0.6-4.8c-3.5,2.4-5.6,5.6-6.6,9.6c-1.8-0.7-3.4-1.7-4.8-3
			c1.6-1.8,1.2-3.2-1.2-4.2c-1.9,5.4-1.2,10.2,2.4,14.4c-0.7,4.7-2.2,9-4.2,13.2c-0.5-1.6-1.4-2.3-3-2.4c6.4-25.3-1.6-44.8-24-58.3
			c-6.4-2.8-12.9-3.4-19.2-1.8c-1.8-0.1-3,0.7-3.6,2.4c-10.3,5.5-20.3,11.8-30,18.6c12.9,2.8,22.7,9.7,29.4,21
			c7.2,12.4,9.6,25.6,7.2,39.6c3.5-6.7,4.9-13.9,4.2-21.6c5.3-2,10.4-4.4,15.6-7.2c0.7,0.1,1.1,0.6,1.2,1.2
			c-5.3,3-10.1,6.6-14.4,10.8c0.4,0.4,0.8,0.8,1.2,1.2c4.4-3.2,9.2-5.4,14.4-6.6c-1.1,0.8-1.8,1.8-2.4,3c-3.7,1.7-7.3,3.7-10.8,6
			c-1.6,0.8-1.6,1.6,0,2.4c3.7-2.9,7.7-4.7,12-5.4c-4,3.7-8.3,6.7-13.2,9c-2.6,0.6-4.3,2.2-4.8,4.8c0.1,2.8,1.1,3.5,3,2.4
			c0.4,1.1,1,1.9,1.8,2.4c-1.8,1.4-3.7,2.6-6,3.6c-0.5-0.8-1.3-1.4-2.4-1.8c0.6-0.5,1-1.1,1.2-1.8c-1.7-1.7-2.6-3.7-3-6
			c-1.2,1.9-3,2.8-5.4,2.4c0.2-3.2,0-6.5-0.6-9.6c-0.4,1.6-0.8,3.2-1.2,4.8c-0.7-7.2-2.2-7.7-4.2-1.2c0.4-5.8-0.2-11.3-1.8-16.8
			c-1.8-3-3.6-3-5.4,0c-1,3-1,6.1,0,9.6c-1-1.1-1.9-2.3-3-3.6c-1.2,1.2-2.4,2.4-3.6,3.6c-1.2-0.8-2.6-0.8-4.2,0c1.9-1.8,4-3.6,6-5.4
			c-0.6-0.2-1.2-0.4-1.8-0.6c-5.2,2.6-10.2,5.5-15,8.4c-2.3-1-4.7-1-7.2,0c0,1.9,0.5,3.7,1.2,5.4c-0.5,1.2-1.3,1.8-2.4,1.8
			c1.6,1.7,1.6,3.2,0,4.8c-4.2-13.9-12.6-24.6-25.2-31.8c-2.3-1.2-4.7-1.6-7.2-1.2c13.2,6.1,22.3,16,27.6,29.4
			c-0.8,0.5-1.4,1.3-1.8,2.4c-0.5-0.7-1.1-1.1-1.8-1.2c-0.5-1.4-1.3-2.6-2.4-3.6c-3.7-10.9-10.9-18.7-21.6-23.4
			c-3.8-1.7-7.9-2-12-1.2c-4.6,2.5-9,5.3-13.2,8.4c14.1,5,24.1,14.5,30,28.2c-1.1-0.1-1.8,0.2-2.4,1.2c1.6,1.2,1.6,2.4,0,3.6
			c-4.1-9.1-10.1-16.9-18-23.4c-4.8-2.5-9.7-4.3-15-5.4c-3.8,0.2-7.3,1.7-10.2,4.2c18.9,6.7,30.9,19.7,36,39
			c0.2,1.9-0.4,3.5-1.8,4.8c-0.4-0.8-0.8-1.6-1.2-2.4c-0.4,5.6-0.8,11.2-1.2,16.8c-2.2,2.9-1.6,5.3,1.8,7.2c1.2,2.4,2.4,4.8,3.6,7.2
			c-1.3,0-2.5-0.5-3.6-1.2c-0.4,0.8-0.8,1.6-1.2,2.4c-1.4-1.4-1.4-2.8,0-4.2c-4-2-8.6-3-13.8-3c-0.4,1-1,1.8-1.8,2.4
			c-1.7-1.8-2.5-1.4-2.4,1.2c1,2.3,2.2,4.2,3.6,6c-10.2,7-21,13-32.4,18c-1.1-1-1.9-2.2-2.4-3.6c6.2-4.2,12.5-8.6,18.6-13.2
			c6.6-25-1.6-43.2-24.6-54.7c-7.3-2.5-14.5-2.2-21.6,1.2c-4.8,5-4,5.6,2.4,1.8c0.4,0.4,0.8,0.8,1.2,1.2
			c-12.4,5.4-21.4,14.2-27,26.4c-0.8,6.5-0.7,12.9,0.6,19.2c0.5,2.2,1.3,4.2,2.4,6c-1.4,4.1-2.5,8.5-3,13.2
			c-0.6-2.4-0.8-4.8-0.6-7.2c-1.8-0.1-3.4,0.4-4.8,1.2c-15.3-13.6-29.2-28.5-42-44.4c2,0.4,4.1,0.6,6,0.6c-1.1-2-1.4-4.2-1.2-6.6
			c1.2,0,2.4,0,3.6,0c1.9,1.3,3.7,3,5.4,4.8c0.8-0.8,0.8-1.6,0-2.4c-9.7-11.4-18.1-23.4-25.2-36c14.4,15.6,29.2,30.7,44.4,45.6
			c0.8-0.8,0.8-1.6,0-2.4c-21.5-26.9-42.9-53.7-64.3-80.5c1.3-0.1,2.5-0.5,3.6-1.2c19.9,27.4,42.3,52.7,67.3,76.3
			c3.4,0.2,4.2-1.2,2.4-4.2c0.7-0.1,1.3-0.5,1.8-1.2c0.2,2.6,1,5,2.4,7.2c0.7-1.7,0.5-3.2-0.6-4.8c1.4-1.3,3.1-1.6,4.8-0.6
			c-2.3,1.4-2.8,3.2-1.2,5.4c0.8-2,2-3.8,3.6-5.4c-0.6-0.5-1-1.1-1.2-1.8c1.9-2,2.8-4.4,2.4-7.2c1.2-0.5,1.4-1.3,0.6-2.4
			c-8.3-10-16.9-19.6-25.8-28.8c-1.6-3.5-4-6.4-7.2-8.4c-0.1-1.3-0.5-2.5-1.2-3.6c0-2.9-0.6-5.8-1.8-8.4c-0.4,0.4-0.8,0.8-1.2,1.2
			c-0.5-2.5-1.2-4.9-2.4-7.2c-3.5-0.7-5.9-2.6-7.2-6c-1.1,1-1.9,2.2-2.4,3.6c-0.6-4.4-0.8-8.8-0.6-13.2c2,2.2,3.8,4.6,5.4,7.2
			c0.6-2.9,1.4-5.6,2.4-8.4c0,5.2,1.2,10,3.6,14.4c8.8,10.4,17.7,20.8,26.4,31.2c0.4-3.6,0.8-7.2,1.2-10.8c1.3,4.8,2.5,9.6,3.6,14.4
			c5.2,6.1,10.6,12.1,16.2,18c1.8-1.7,3.8-3,6-4.2c-13.6-16.9-26.4-34.4-38.4-52.2c0.7-2,1.9-3.8,3.6-5.4c-1.3-4.2-2-8.8-2.4-13.8
			c7.3,9.1,14.5,18.6,21.6,28.2c5.2-2.5,10.4-5.5,15.6-9c3.6,4.9,7.3,9.7,11.4,14.4c0.8,1.3,0.7,2.5-0.6,3.6c-3,1.7-5.8,3.7-8.4,6
			c-4-4.8-8-9.6-12-14.4c-1.4,0.5-2.6,1.3-3.6,2.4c3.7,6,7.8,11.8,12,17.4c1.7,0.4,3.2,0,4.8-1.2c3.5-2.9,7.1-5.4,10.8-7.8
			c4.8,5.2,9.6,10.4,14.4,15.6c4.8-3.6,9.6-7.2,14.4-10.8c-3.1-5.5-6.7-10.7-10.8-15.6c-1.4,0.5-2.3,1.4-2.4,3
			c2.5,3.6,4.3,7.4,5.4,11.4c-1.7,1.8-3.5,3.5-5.4,4.8c-4.3-3.1-7.6-7.1-9.6-12c3.6-3.2,7.2-6.4,10.8-9.6c-4.2-5.3-8.3-10.7-12-16.2
			c-4.9,0.8-9.2,3-13.2,6.6c-0.4-0.4-0.8-0.8-1.2-1.2c3.5-3.6,7.4-6.6,12-9c-3.5-5.5-7.6-10.8-12-15.6c-4.6,1.4-9,3.7-13.2,6.6
			c-0.4-0.4-0.8-0.8-1.2-1.2c4-2.8,8-5.6,12-8.4c-7.1-11.5-15.1-22.3-24-32.4c-3.7,2.9-7.7,5.3-12,7.2c-1.7-0.8-2.9-2-3.6-3.6
			c0-0.4,0-0.8,0-1.2c1.2,0.7,2.4,1.6,3.6,2.4c3.6-2.4,7.2-4.8,10.8-7.2c-3.8-4.8-7.4-9.8-10.8-15c-2.6-0.5-5,0.1-7.2,1.8
			c-1.2-1.6-2.6-1.6-4.2,0c-0.7-1.1-0.6-2.2,0.6-3c1.9-0.8,3.7-0.7,5.4,0.6c0.4-0.8,0.8-1.6,1.2-2.4c2.2,0.8,4.3,1.7,6.6,2.4
			c1.7-1.8,3.7-3,6-3.6c-1.2,1.1-1.2,1.8,0,2.4c9.7-7.1,20.2-12.5,31.2-16.2c-8.9,5.6-17.1,12.3-24.6,19.8c-0.8,0.8-0.8,1.6,0,2.4
			c8.3-6.4,17.3-10.9,27-13.8c-8.9,4.7-15.7,10.9-20.4,18.6c8.5-7.3,18.1-12.3,28.8-15c-6,3.4-11.7,7.4-16.8,12
			c-3.7,2.9-6.4,6.2-7.8,10.2c9.4-9.2,20.4-15.4,33-18.6c-10.1,5.6-19.1,12.6-27,21c-0.8,0.8-0.8,1.6,0,2.4c4.9-4,9.8-7.8,15-11.4
			c5.8-3.5,11.8-5.9,18-7.2c-10.7,6.4-19.3,14.5-25.8,24.6c9.5-11.2,21.3-18.1,35.4-21c-4.6,2.5-9,5.3-13.2,8.4
			c-4.1,3.2-7.1,7.1-9,11.4c8.8-9.2,19.3-14.7,31.8-16.2c-5.2,2.2-10,4.9-14.4,8.4c-3,2-4.8,4.7-5.4,7.8
			c14.8-14.2,31.3-16.8,49.8-7.8c13.8,11.5,16.8,25.3,9,41.4c4.4-3.7,8-8.2,10.8-13.2C299.2,219,297.1,224.1,292.9,228.6z"/>
	</g>
	<g>
		<path class="st30" d="M458.6,170.9c1.3,0.1,2.2,1,2.4,2.4c-1,3-2.2,3-3.6,0C457.9,172.5,458.3,171.6,458.6,170.9z"/>
	</g>
	<g>
		<path class="st31" d="M415.4,169.7c1.6,0,3.2,0,4.8,0c0.6,2.9-0.4,4.9-3,6C414,174.5,413.4,172.5,415.4,169.7z"/>
	</g>
	<g>
		<path class="st32" d="M450.2,150.5c2.4,0,3.6,1.2,3.6,3.6c-1.7,4.7-3.6,4.7-6,0C448.6,152.9,449.5,151.7,450.2,150.5z"/>
	</g>
	<g>
		<path class="st5" d="M80.3,154.1c2.2,15.6,4.8,31.2,7.8,46.8c-4.1-6.2-6.5-13-7.2-20.4C80.3,171.7,80,162.9,80.3,154.1z"/>
	</g>
	<g>
		<path class="st33" d="M161.9,186.5c0,0.4,0,0.8,0,1.2c-2.3-2-3.7-4.4-4.2-7.2C159.9,182.1,161.3,184.1,161.9,186.5z"/>
	</g>
	<g>
		<path class="st34" d="M146.3,179.3c4.9,3.6,9,8.2,12,13.8c-2.5,3.1-5.8,5.3-9.6,6.6c-4.4-4.1-8-8.9-10.8-14.4
			C141,183.6,143.8,181.6,146.3,179.3z"/>
	</g>
	<g>
		<path class="st35" d="M171.5,199.7c-2.8-1.3-4.1-3.2-4.2-6C169.5,195.3,170.9,197.3,171.5,199.7z"/>
	</g>
	<g>
		<path class="st36" d="M171.5,199.7c2.3,1,3.4,2.5,3,4.8C172.7,203.3,171.8,201.8,171.5,199.7z"/>
	</g>
	<g>
		<path class="st37" d="M423.8,199.7c1.2,0,2.4,0,3.6,0c0,1.2,0,2.4,0,3.6c-1.2,0-2.4,0-3.6,0C423.8,202.1,423.8,200.9,423.8,199.7z
			"/>
	</g>
	<g>
		<path class="st5" d="M109.1,217.8c0.4,2.9,1.1,5.8,2.4,8.4c-1.1,1.1-1.8,0.7-2.4-1.2c-15.7-26.5-19.1-54.5-10.2-84.1
			c0.4,13.6,0.8,27.3,1.2,40.8C101.4,194.3,104.4,206.3,109.1,217.8z"/>
	</g>
	<g>
		<path class="st38" d="M159.5,197.3c4.7,3.5,8.8,7.9,12,13.2c-3.2,2.4-6.4,4.8-9.6,7.2c-4-4.1-7.6-8.4-10.8-13.2
			C153.8,201.9,156.5,199.5,159.5,197.3z"/>
	</g>
	<g>
		<path class="st7" d="M367.3,521.6c-21.4,15.7-43.7,29.9-67.3,42.6c-10.4,0.8-20.8,0.8-31.2,0c82-39,145-98.5,188.6-178.4
			c-0.4-1.4-1-1.4-1.8,0c-1.1,2.6-2.5,5-4.2,7.2c-2.2,0-4.2,0.6-6,1.8c0.6,0.5,1,1.1,1.2,1.8c-2,2.5-3.5,5.3-4.2,8.4
			c-1.8,0.5-3.2-0.2-4.2-2.4c-1.6,2.6-3.4,5-5.4,7.2c-0.4-2.2-1.2-2.5-2.4-1.2c-0.6-1.1-0.7-2.3-0.6-3.6
			c37.6-57.5,55.4-120.8,53.5-189.8c2.4-1.8,5-3.5,7.8-4.8c0.4,0.6,0.8,1.2,1.2,1.8c1.2,10.2,2.2,20.4,3,30.6c0.4-12,0.8-24,1.2-36
			c2.2-2.3,4.6-3.1,7.2-2.4c1.8,6.7,3,13.5,3.6,20.4c5.8,77.5-14.3,148.7-60.1,213.8C423.7,469.4,397,497,367.3,521.6z"/>
	</g>
	<g>
		<path class="st7" d="M554.7,231c-0.7-0.1-1.3-0.5-1.8-1.2c-0.4,2.8-0.8,5.6-1.2,8.4c-1.1-0.5-2.2-1-3-1.2c3.2-7.2,3-14.4-0.6-21.6
			c-1.3,1.9-2.8,4-4.2,6c0.8,4,1.2,7.9,1.2,12c-3.5-17.1-8.3-33.9-14.4-50.4c1.2-2,2.8-3.6,4.8-4.8c4.4,6.2,7.8,13,10.2,20.4
			C549.7,209.1,552.7,219.9,554.7,231z"/>
	</g>
	<g>
		<path class="st39" d="M179.9,212.9c0.7-1.6,1.4-1.6,2.4,0c1.6,1.3,2.2,3,1.8,4.8C182.5,216.3,181,214.6,179.9,212.9z"/>
	</g>
	<g>
		<path class="st40" d="M366.1,216.5c2.4,0,4.8,0,7.2,0c0,1.2,0,2.4,0,3.6c0,0.4,0,0.8,0,1.2c-1.6,1.1-1.6,2.3,0,3.6
			c3.1,2.8,6.7,4.3,10.8,4.8c0.4,0,0.8,0,1.2,0c0,0.8,0.4,1.2,1.2,1.2c0.4,0.8,0.8,1.6,1.2,2.4c0.7,2.6,2.3,4.7,4.8,6
			c1.1,1,1.9,2.2,2.4,3.6c0.2,2,1,3.6,2.4,4.8c0.7,1.1,1.1,2.3,1.2,3.6c0.6,1.8,1.4,3.4,2.4,4.8c0,1.2,0,2.4,0,3.6
			c-0.2,1.6,0.1,2.8,1.2,3.6c0,1.6,0,3.2,0,4.8c0.8,0.8,1.6,1.6,2.4,2.4c-2.3,0.6-3.5,2.3-3.6,4.8c-1.1,1.3-1.6,2.9-1.2,4.8
			c-1.2,1.4-2.8,2.2-4.8,2.4c-1.6-0.7-2.5-1.9-3-3.6c-1.2,1.6-2.2,1.6-3,0c0.6-1.2,1.3-2.2,2.4-3c-5.2,1.2-10,3.4-14.4,6.6
			c-0.4-0.4-0.8-0.8-1.2-1.2c4.3-4.2,9.1-7.8,14.4-10.8c0.6-0.1,1.1-0.5,1.2-1.2c-0.8-4.8-1.8-9.6-3-14.4c-0.8-1-1.8-1.3-3-1.2
			c0-0.4,0-0.8,0-1.2c-0.6-2-1.8-3.7-3.6-4.8c-0.4-0.8-0.8-1.6-1.2-2.4c-1.9-0.7-3.5-1.9-4.8-3.6c0-0.4,0-0.8,0-1.2
			c0.5,0.1,1-0.1,1.2-0.6c-1.8-1.7-3.5-3.5-4.8-5.4c-1.3-1.6-2.5-1.6-3.6,0c-0.8,0-1.6,0-2.4,0c-2,0.2-3.2-0.6-3.6-2.4
			c1-0.4,1.8-1,2.4-1.8c-1.6-0.2-3.2,0-4.8,0.6c-1.9,0.4-3.5-0.1-4.8-1.2c1.2-0.8,2.4-1.6,3.6-2.4c2.2-1.1,4.1-2.5,6-4.2
			c-1.2-0.4-2.4-0.8-3.6-1.2c1-0.8,1.3-1.8,1.2-3C363.1,217.3,364.3,216.4,366.1,216.5z"/>
	</g>
	<g>
		<path class="st41" d="M172.7,214.1c4.9,3.6,9,8.3,12,13.8c-3.5,2-7,4.2-10.2,6.6c-4-4-7.4-8.4-10.2-13.2
			C167.2,219,170,216.5,172.7,214.1z"/>
	</g>
	<g>
		<path class="st7" d="M426.2,233.4c1.1,4,1.2,7.9,0.6,12c-2.4,2.9-5.3,5.3-8.4,7.2c-1.3-4.8-3.1-9.4-5.4-13.8
			c3.2-2.4,6.4-4.8,9.6-7.2c-3.8,0.6-7.3,2.4-10.2,5.4c-3-4.4-6-8.8-9-13.2c2-1.6,4-3.2,6-4.8c-2.8-0.1-5.4,1.1-7.8,3.6
			c-7.6-7.3-16.6-11.9-27-13.8c1.1-0.4,1.9-1,2.4-1.8c9.6-3.5,18.9-2.6,27.6,2.4c-2.2,1.7-4.6,3.1-7.2,4.2c-1.2,0.8-1.3,1.9-0.6,3
			c4.1-3.4,8.6-4.8,13.8-4.2C417.2,218.5,422.3,225.4,426.2,233.4z"/>
	</g>
	<g>
		<path class="st42" d="M388.9,208.1c2.3-0.1,2.6,0.5,1.2,1.8C386.1,210.7,385.7,210.1,388.9,208.1z"/>
	</g>
	<g>
		<path class="st43" d="M523.5,212.9c3.5,6.7,4.8,13.9,4.2,21.6C525.9,227.5,524.4,220.3,523.5,212.9z"/>
	</g>
	<g>
		<path class="st44" d="M128.3,205.7c2,1.8,3.6,4.1,4.8,6.6c-2.9,9.8-5.5,19.6-7.8,29.4c-2-1.9-3-4.3-3-7.2
			C123.1,224.7,125.2,215.1,128.3,205.7z"/>
	</g>
	<g>
		<path class="st45" d="M373.3,221.4c0-0.4,0-0.8,0-1.2c2.6-1.7,5-1.2,7.2,1.2C378.1,224.6,375.7,224.6,373.3,221.4z"/>
	</g>
	<g>
		<path class="st46" d="M41.8,215.3c10,12.1,18.3,25.3,24.6,39.6c-2.8-3.2-5.6-6.4-8.4-9.6c3.8,9.4,9.1,18.1,15.6,26.4
			c0.8,0.8,0.8,1.6,0,2.4c-11.8-13.3-22.6-27.4-32.4-42C38.9,226.5,39.2,220.9,41.8,215.3z"/>
	</g>
	<g>
		<path class="st47" d="M387.7,233.4c-0.4-0.8-0.8-1.6-1.2-2.4c2.3-3.7,4.8-4.1,7.8-1.2C394.1,234.2,391.8,235.4,387.7,233.4z"/>
	</g>
	<g>
		<path class="st48" d="M358.9,227.4c-1.2,0.8-2.4,1.6-3.6,2.4c-3.6,2.4-7.2,4.8-10.8,7.2c-2.2-0.6-2.5-1.7-1.2-3
			c4.6-2.9,9.4-5.5,14.4-7.8C358.4,226.3,358.8,226.8,358.9,227.4z"/>
	</g>
	<g>
		<path class="st49" d="M362.5,232.2c-3.4,1.9-6.6,4.1-9.6,6.6c-1.6,0.8-3.2,0.8-4.8,0c3.8-2.9,7.9-5.5,12-7.8
			c1.6-0.6,3.2-0.8,4.8-0.6C364.3,231.2,363.5,231.8,362.5,232.2z"/>
	</g>
	<g>
		<path class="st50" d="M292.9,228.6c-0.2,1.2,0.2,2,1.2,2.4c-5,4.9-11.1,7.9-18,9C282.2,236.8,287.8,233,292.9,228.6z"/>
	</g>
	<g>
		<path class="st7" d="M98.3,249c21.4,26.8,42.8,53.6,64.3,80.5c0.8,0.8,0.8,1.6,0,2.4c-15.3-14.9-30-30-44.4-45.6
			c7.1,12.6,15.5,24.6,25.2,36c0.8,0.8,0.8,1.6,0,2.4c-1.7-1.8-3.5-3.5-5.4-4.8c-33-36.4-64-74.5-93.1-114.1c0-2.8,1-5.2,3-7.2
			C60.9,216.2,75.1,233,90.5,249c0.8-0.8,0.8-1.6,0-2.4c-6.5-7.4-11.7-15.4-15.6-24C82.9,231.2,90.7,240.1,98.3,249z"/>
	</g>
	<g>
		<path class="st51" d="M160.7,247.8c12,17.9,24.9,35.3,38.4,52.2c-2.2,1.2-4.2,2.5-6,4.2c-5.6-5.9-11.1-11.9-16.2-18
			c-1.1-4.8-2.3-9.6-3.6-14.4c-0.4,3.6-0.8,7.2-1.2,10.8c-8.8-10.4-17.7-20.8-26.4-31.2c-2.4-4.4-3.6-9.2-3.6-14.4
			c-1,2.8-1.8,5.5-2.4,8.4c-1.6-2.6-3.4-5-5.4-7.2c-0.2-6.8,1.2-13.2,4.2-19.2C145.6,228.8,153,238.4,160.7,247.8z"/>
	</g>
	<g>
		<path class="st52" d="M313.3,491.6c-36.3,24.6-75.7,42.6-118.3,54.1c-4-1-6.1-3-6.6-6c16.2-4.7,31.8-10.9,46.8-18.6
			c-19.2,5.9-38.6,11.3-58.3,16.2c-2.6-0.6-4.9-2-6.6-4.2c36.6-7.2,70.6-20.9,102.1-40.8c-18.5,7.8-37.4,15.5-56.5,22.8
			c-18.4,5.4-37,9.6-55.9,12.6c-5.9-2.9-11.3-6.5-16.2-10.8c69.5-9.1,130.8-36.4,183.8-81.7c2.6,2.8,5.2,5.5,7.8,8.4
			c13.2-12,25.9-24.4,38.4-37.2c-0.4-5-2.3-9.5-6-13.2c-0.8-1.2-0.8-2.4,0-3.6c26.5-32.8,43.8-70,51.6-111.7c3.6-2.2,6.6-5,9-8.4
			c0.7,0.5,1.2,1.3,1.2,2.4c-5.9,29.8-15.4,58.1-28.2,85.3c17.2-26.7,29.4-55.5,36.6-86.5c1.1,0.8,1.4,2,1.2,3.6
			c-0.8,8.5-2.3,16.9-4.2,25.2c-6.6,22-15.3,43.2-25.8,63.7C433,324.4,447.2,282.4,452,237c2-1.8,4.3-3.4,6.6-4.8
			c1,35.1-4.8,69.2-17.4,102.1C414.2,399.5,371.5,452,313.3,491.6z"/>
	</g>
	<g>
		<path class="st53" d="M186,231c4,4,7.6,8.4,10.8,13.2c-2.9,2.9-6,5.3-9.6,7.2c-4-4.1-7.6-8.4-10.8-13.2
			C179.9,236.1,183.2,233.7,186,231z"/>
	</g>
	<g>
		<path class="st54" d="M198,235.8c2.3,1,3.4,2.5,3,4.8C199.2,239.4,198.2,237.8,198,235.8z"/>
	</g>
	<g>
		<path class="st55" d="M395,243c-0.5-1.4-1.3-2.6-2.4-3.6c2.4-6,5.2-6.2,8.4-0.6C399.4,240.9,397.4,242.4,395,243z"/>
	</g>
	<g>
		<path class="st46" d="M34.6,234.6c8.6,11.7,16.5,23.7,23.4,36c-8-7.7-15.6-15.6-22.8-24C33.2,242.7,32.9,238.7,34.6,234.6z"/>
	</g>
	<g>
		<path class="st56" d="M375.7,240.6c0,0.4,0,0.8,0,1.2c-4.2,2.3-8.2,4.9-12,7.8c-1.9,0.8-3.5,0.5-4.8-1.2c4.6-3.4,9.4-6.2,14.4-9
			C374.2,239.9,375,240.2,375.7,240.6z"/>
	</g>
	<g>
		<path class="st57" d="M519.9,243c1.2,0,2.4,0,3.6,0c0,1.2,0,2.4,0,3.6C519.7,247.1,518.5,245.9,519.9,243z"/>
	</g>
	<g>
		<path class="st7" d="M312.1,244.2c14.8-1.6,26.5,3.7,35.4,15.6c2.2,2,2.9,4.4,2.4,7.2c-8.6,5.5-17.4,10.7-26.4,15.6
			c-2.2-0.6-2.4-1.6-0.6-3c5.8-3.1,11.4-6.6,16.8-10.2c1.2-0.6,1.4-1.4,0.6-2.4c-6.7,3.8-13.3,7.8-19.8,12
			c-6.5-10.2-15.3-17.7-26.4-22.2C299.9,252.2,305.9,248,312.1,244.2z"/>
	</g>
	<g>
		<path class="st58" d="M398.6,251.4c-0.1-1.3-0.5-2.5-1.2-3.6c4.1-8.4,6.2-7.9,6.6,1.2C402.4,250.3,400.6,251,398.6,251.4z"/>
	</g>
	<g>
		<path class="st59" d="M423.8,241.8c1.3,1.6,1,3-1.2,4.2c-1.6,1.2-3.1,1.6-4.8,1.2C420.3,246,422.3,244.2,423.8,241.8z"/>
	</g>
	<g>
		<path class="st60" d="M250.8,217.8c10.1-0.5,14.7,4.3,13.8,14.4c6.1,7.8,11.9,15.9,17.4,24c-1.9,1.3-3.7,3-5.4,4.8
			c-6.1-7.8-11.9-15.9-17.4-24C245.8,234.9,243,228.6,250.8,217.8z"/>
	</g>
	<g>
		<path class="st61" d="M255.6,223.8c6,0.6,7.2,3.2,3.6,7.8c-4.3,2.8-7.4,1.8-9.6-3C252.4,227.8,254.3,226.2,255.6,223.8z"/>
	</g>
	<g>
		<path class="st62" d="M380.5,245.4c0.4,0.8,0.8,1.6,1.2,2.4c-4.2,4.1-9,7.7-14.4,10.8c-1.1-1.6-2.3-2.9-3.6-4.2
			C368.6,250.1,374.3,247.1,380.5,245.4z"/>
	</g>
	<g>
		<path class="st63" d="M211.2,253.8c-1.9-0.6-2.5-1.8-1.8-3.6C210.6,251,211.2,252.2,211.2,253.8z"/>
	</g>
	<g>
		<path class="st64" d="M314.5,247.8c3-0.2,5.8,0.4,8.4,1.8c1.7,4.2,0.1,6.4-4.8,6.6C311.1,255,309.9,252.1,314.5,247.8z"/>
	</g>
	<g>
		<path class="st65" d="M211.2,253.8c1.9,0.6,2.5,1.8,1.8,3.6C211.8,256.5,211.2,255.3,211.2,253.8z"/>
	</g>
	<g>
		<path class="st66" d="M401,259.8c0-1.2,0-2.4,0-3.6c2-5.9,4-6,6-0.6C406.7,259.2,404.7,260.6,401,259.8z"/>
	</g>
	<g>
		<path class="st67" d="M427.4,253.8c-1.9,2.5-4.1,4.9-6.6,7.2c-0.6-0.7-0.7-1.6-0.6-2.4c1-4,3.1-7.2,6.6-9.6
			C427.4,250.5,427.6,252.1,427.4,253.8z"/>
	</g>
	<g>
		<path class="st68" d="M366.1,216.5c6.4-1.6,12.9-1,19.2,1.8c22.5,13.5,30.4,32.9,24,58.3c-3.2,1.2-6.4,2.4-9.6,3.6
			c-0.4-1.9,0.1-3.5,1.2-4.8c-0.1,0.8,0,1.7,0.6,2.4c4.2-1.4,5.9-4.2,4.8-8.4c-0.5,0.7-1.1,1.1-1.8,1.2c-0.8-0.8-1.6-1.6-2.4-2.4
			c5.6,0.4,7.3-2,4.8-7.2c-1.8,0.6-3.5,1.4-4.8,2.4c-1.1-0.8-1.4-2-1.2-3.6c3.7,0.8,5.8-0.6,6-4.2c-2-5.4-4-5.3-6,0.6
			c-1-1.4-1.8-3-2.4-4.8c2-0.4,3.8-1.1,5.4-2.4c-0.4-9.1-2.5-9.6-6.6-1.2c-1.4-1.2-2.2-2.8-2.4-4.8c2.4-0.6,4.4-2,6-4.2
			c-3.2-5.6-6-5.4-8.4,0.6c-2.5-1.3-4.1-3.4-4.8-6c4.1,2,6.4,0.8,6.6-3.6c-3-2.9-5.5-2.5-7.8,1.2c-0.8,0-1.2-0.4-1.2-1.2
			c1-1.6,2.2-3,3.6-4.2c-3.1-4.1-5.9-3.8-8.4,0.6c1,1.4,2.2,2.6,3.6,3.6c-4.1-0.5-7.7-2-10.8-4.8c-1.6-1.3-1.6-2.5,0-3.6
			c2.4,3.2,4.8,3.2,7.2,0c-2.2-2.4-4.6-2.9-7.2-1.2c0-1.2,0-2.4,0-3.6C370.9,216.5,368.5,216.5,366.1,216.5z"/>
	</g>
	<g>
		<path class="st69" d="M385.3,229.8c-0.4,0-0.8,0-1.2,0c-1.4-1-2.6-2.2-3.6-3.6c2.5-4.4,5.3-4.7,8.4-0.6
			C387.5,226.8,386.3,228.2,385.3,229.8z"/>
	</g>
	<g>
		<path class="st70" d="M298.9,256.2c5.9-1.1,11.1,0.7,15.6,5.4C309.1,260.5,303.9,258.7,298.9,256.2z"/>
	</g>
	<g>
		<path class="st71" d="M362.5,219c0.1,1.2-0.2,2.2-1.2,3c1.2,0.4,2.4,0.8,3.6,1.2c-1.9,1.7-3.8,3.1-6,4.2c-0.1-0.6-0.5-1.1-1.2-1.2
			c-5,2.3-9.8,4.9-14.4,7.8c-1.3,1.3-1,2.4,1.2,3c3.6-2.4,7.2-4.8,10.8-7.2c1.3,1.1,2.9,1.6,4.8,1.2c-4.1,2.3-8.2,4.9-12,7.8
			c1.6,0.8,3.2,0.8,4.8,0c3-2.5,6.2-4.7,9.6-6.6c0.4,1.8,1.6,2.6,3.6,2.4c-4,2.8-7.9,5.5-12,8.4c0.6,0.4,1.2,0.8,1.8,1.2
			c4.4-2.2,8.6-4.8,12.6-7.8c1.4-0.8,1.4-1.4,0-1.8c1.1-1.6,2.3-1.6,3.6,0c1.3,1.9,3,3.7,4.8,5.4c-0.2,0.5-0.7,0.7-1.2,0.6
			c-0.7-0.4-1.6-0.7-2.4-1.2c-5,2.6-9.8,5.8-14.4,9c1.3,1.7,2.9,2,4.8,1.2c3.8-2.9,7.8-5.5,12-7.8c1.3,1.7,2.9,2.9,4.8,3.6
			c-6.2,1.7-11.9,4.7-16.8,9c1.3,1.3,2.5,2.6,3.6,4.2c5.4-3.1,10.2-6.7,14.4-10.8c1.8,1.1,3,2.8,3.6,4.8c-5.9,2.5-11.5,5.8-16.8,9.6
			c2.3,3.7,3.8,7.8,4.8,12c5.2-3,10.2-6.1,15-9.6c0.5-4-0.6-7.6-3-10.8c1.2-0.1,2.2,0.2,3,1.2c1.2,4.8,2.2,9.6,3,14.4
			c-0.1,0.7-0.6,1.1-1.2,1.2c-0.1-0.6-0.5-1.1-1.2-1.2c-5.2,2.8-10.3,5.2-15.6,7.2c0.7,7.7-0.7,14.9-4.2,21.6
			c2.4-14.1,0-27.3-7.2-39.6c-6.7-11.3-16.6-18.3-29.4-21C342.2,230.7,352.2,224.5,362.5,219z"/>
	</g>
	<g>
		<path class="st72" d="M366.1,234.6c0.8,0,1.6,0,2.4,0c1.4,0.4,1.4,1,0,1.8c-4,3-8.2,5.6-12.6,7.8c-0.6-0.4-1.2-0.8-1.8-1.2
			C358.2,240.1,362.2,237.3,366.1,234.6z"/>
	</g>
	<g>
		<path class="st5" d="M529.5,251.4c2.2,2.6,3.6,5.8,4.2,9.6c3,3.6,6.8,6,11.4,7.2c-10,2.5-14.5,8.9-13.8,19.2
			c-0.1-11.1-5.5-17.5-16.2-19.2C524.7,266.6,529.5,261,529.5,251.4z"/>
	</g>
	<g>
		<path class="st7" d="M554.7,231c0,0.8,0,1.6,0,2.4c1.6,11.7,3.2,23.2,4.8,34.8c-2,0-3.6-0.8-4.8-2.4c-2.4,0.2-4.6-0.1-6.6-1.2
			c-1-10.4-1.9-20.8-3-31.2c0-4.1-0.4-8-1.2-12c1.4-2,2.9-4.1,4.2-6c3.6,7.2,3.8,14.4,0.6,21.6c0.8,0.2,1.9,0.7,3,1.2
			c0.4-2.8,0.8-5.6,1.2-8.4C553.4,230.5,554,230.8,554.7,231z"/>
	</g>
	<g>
		<path class="st73" d="M146.3,265.8c-2.8-1.3-4.1-3.2-4.2-6C144.3,261.4,145.7,263.4,146.3,265.8z"/>
	</g>
	<g>
		<path class="st74" d="M402.2,268.2c0-1.6,0-3.2,0-4.8c1.3-1,3-1.8,4.8-2.4C409.5,266.2,407.8,268.6,402.2,268.2z"/>
	</g>
	<g>
		<path class="st75" d="M385.3,252.6c0,0.4,0,0.8,0,1.2c2.4,3.2,3.5,6.8,3,10.8c-4.8,3.5-9.8,6.6-15,9.6c-1-4.2-2.5-8.3-4.8-12
			C373.8,258.3,379.5,255.1,385.3,252.6z"/>
	</g>
	<g>
		<path class="st76" d="M146.3,265.8c1.2,0.8,2.4,1.6,3.6,2.4c0.7,1.1,1.1,2.3,1.2,3.6C148.6,270.5,147,268.4,146.3,265.8z"/>
	</g>
	<g>
		<path class="st77" d="M439.4,274.2c0.2-1.6-0.1-2.8-1.2-3.6c0.7-4.8,1.8-9.6,3-14.4C441.9,262.4,441.3,268.4,439.4,274.2z"/>
	</g>
	<g>
		<path class="st78" d="M493.4,258.6c1.3,5.9,1.1,11.9-0.6,18C492.1,270.6,492.4,264.6,493.4,258.6z"/>
	</g>
	<g>
		<path class="st46" d="M59.8,292.2c-1.9-1.3-3.7-2.9-5.4-4.8c0.1,2.3,1.1,4.3,3,6C46.9,286,37.1,277.6,28,268.2
			c-0.2-3.8,0.5-7.4,2.4-10.8c16.1,15.7,30.7,30.7,43.8,45C69.6,298.7,64.8,295.3,59.8,292.2z"/>
	</g>
	<g>
		<path class="st79" d="M86.3,216.5c0.8,1.6,2,2.8,3.6,3.6c26.4,34,53.6,67.1,81.7,99.7c1.8,3,1,4.4-2.4,4.2
			c-25-23.5-47.3-48.9-67.3-76.3c-12.6-16.6-23.8-34.2-33.6-52.9c0.4-1.4,1-1.4,1.8,0C75.2,202.4,80.6,209.6,86.3,216.5z"/>
	</g>
	<g>
		<path class="st80" d="M151.1,271.8c3.2,2,5.6,4.9,7.2,8.4C155.1,278.2,152.7,275.3,151.1,271.8z"/>
	</g>
	<g>
		<path class="st81" d="M401,275.4c0.1-2.5,1.3-4.2,3.6-4.8c0.7-0.1,1.3-0.5,1.8-1.2c1.1,4.2-0.6,7-4.8,8.4
			C401,277.1,400.8,276.2,401,275.4z"/>
	</g>
	<g>
		<path class="st82" d="M318.1,298.2c0.2,4.8,0,9.6-0.6,14.4c-0.6-6.4-2-12.4-4.2-18c-5.3-13.5-14.4-23.3-27.6-29.4
			c2.5-0.4,4.9,0,7.2,1.2C305.5,273.6,313.9,284.3,318.1,298.2z"/>
	</g>
	<g>
		<path class="st83" d="M337.3,283.8c-3.6,1.6-7.1,3.5-10.2,6c-0.6-1.1-0.7-2.3-0.6-3.6c4.8-2.9,9.8-5.8,15-8.4
			c0.6,0.2,1.2,0.4,1.8,0.6C341.3,280.2,339.2,282,337.3,283.8z"/>
	</g>
	<g>
		<path class="st51" d="M288,309c0,1.2,0,2.4,0,3.6c0.4,3.1,0,5.9-1.2,8.4c-0.5-3-1.4-5.9-3-8.4c-0.4,5.6-0.8,11.2-1.2,16.8
			c-0.2-2.3-0.8-4.2-1.8-6c-5.2-19.3-17.2-32.3-36-39c2.9-2.5,6.4-4,10.2-4.2c5.3,1.1,10.2,2.9,15,5.4C278,292.1,284,299.9,288,309z
			"/>
	</g>
	<g>
		<path class="st84" d="M348.1,274.2c1.4,4.3,2.6,8.8,3.6,13.2c-0.2,1.2-0.4,2.4-0.6,3.6c-0.7-2.6-1.7-5-3-7.2
			C347.1,280.3,347.1,277.2,348.1,274.2z"/>
	</g>
	<g>
		<path class="st85" d="M355.3,291c0.2,1.7,0,3.2-0.6,4.8c-0.4-4-0.8-8-1.2-12c-1-3.8-2.8-7.1-5.4-9.6c1.8-3,3.6-3,5.4,0
			C355.1,279.7,355.7,285.3,355.3,291z"/>
	</g>
	<g>
		<path class="st86" d="M204,276.6c3.6,3.7,7,7.8,10.2,12c3-2.9,6.4-4.8,10.2-6c0.1,1.3,0,2.5-0.6,3.6c-3.7,3-7.4,5.8-11.4,8.4
			c-4.4-4.1-8-8.9-10.8-14.4C202.4,279,203.2,277.8,204,276.6z"/>
	</g>
	<g>
		<path class="st87" d="M388.9,279c0.8,1.6,1.8,1.6,3,0c0.5,1.7,1.4,2.9,3,3.6c-5.2,3.7-10.7,7-16.8,9.6c-0.7-0.1-1.1-0.6-1.2-1.2
			c4.9-2.3,9.2-5.3,13.2-9c-4.3,0.7-8.3,2.5-12,5.4c-1.6-0.8-1.6-1.6,0-2.4C381.6,282.7,385.2,280.7,388.9,279z"/>
	</g>
	<g>
		<path class="st88" d="M59.8,292.2c-0.5-0.1-1,0.1-1.2,0.6c1.2,1.2,2.4,2.4,3.6,3.6c-2.3,0.4-3.8-0.7-4.8-3c-1.9-1.7-2.9-3.7-3-6
			C56.1,289.3,57.9,290.9,59.8,292.2z"/>
	</g>
	<g>
		<path class="st7" d="M236.4,288.6c17.5,2,29.7,11.3,36.6,27.6c3.5,8.3,3.8,16.7,1.2,25.2c-2.8,3.4-6.2,6.2-10.2,8.4
			c-0.4-0.4-0.8-0.8-1.2-1.2c8.5-4.6,11.3-11.3,8.4-20.4c-4.6,2.4-8.8,5.2-12.6,8.4c-1.7-2.2-3.1-4.6-4.2-7.2c2-1.8,4.2-3.5,6.6-4.8
			c0.6-4.2-1.2-6-5.4-5.4c-1.4,1.3-3,2.3-4.8,3c-7.2-10.4-16.8-17.7-28.8-21.6C226.4,296.2,231.2,292.1,236.4,288.6z"/>
	</g>
	<g>
		<path class="st46" d="M307.3,292.2c0,0.8-0.4,1.2-1.2,1.2c-5,3.8-10.2,7.4-15.6,10.8c-5.9-13.7-16-23.2-30-28.2
			c4.2-3.1,8.6-5.9,13.2-8.4c4.1-0.8,8.2-0.5,12,1.2C296.3,273.5,303.5,281.3,307.3,292.2z"/>
	</g>
	<g>
		<path class="st89" d="M291.7,280.2c3.1,2.4,6,5.2,8.4,8.4c-2.5,2.2-5,4.2-7.8,6c-2.2-2.8-4.4-5.6-6.6-8.4
			C287.4,283.9,289.5,281.9,291.7,280.2z"/>
	</g>
	<g>
		<path class="st90" d="M307.3,292.2c1.1,1,1.9,2.2,2.4,3.6c1.1,2.8,1.3,5.5,0.6,8.4c-1.2-3.7-2.6-7.3-4.2-10.8
			C306.9,293.4,307.3,293.1,307.3,292.2z"/>
	</g>
	<g>
		<path class="st91" d="M158.3,280.2c8.9,9.2,17.5,18.9,25.8,28.8c0.8,1.1,0.6,1.9-0.6,2.4C174.5,301.5,166.1,291,158.3,280.2z"/>
	</g>
	<g>
		<path class="st92" d="M33.4,299.4c1.2,0,2.4,0,3.6,0c0,1.2,0,2.4,0,3.6c-1.2,0-2.4,0-3.6,0C33.4,301.8,33.4,300.6,33.4,299.4z"/>
	</g>
	<g>
		<path class="st93" d="M530.7,300.6c2.2,0.1,2.6,1,1.2,2.4C530.9,302.4,530.6,301.7,530.7,300.6z"/>
	</g>
	<g>
		<path class="st94" d="M351.7,324.7c-6,4.8-12,9.6-18,14.4c-1.2-0.6-1.4-1.4-0.6-2.4c6-5.8,10.8-12.1,14.4-19.2
			c-5.3,6.1-11.3,11.3-18,15.6c-0.8-0.8-0.8-1.6,0-2.4c2.4-2,4.4-4.4,6-7.2c6.7-6.2,13.7-12,21-17.4c4.8-0.4,9.6-1,14.4-1.8
			c2.3-1,4.2-2.2,6-3.6c1.9-1.3,3.8-1.9,6-1.8c-8,22.3-21.1,41.4-39,57.1c-1.8-1.7-2.6-3.7-2.4-6c6-6.5,11.7-13.2,16.8-20.4
			c1.2-1.6,1.6-3.1,1.2-4.8c-6.1,8.8-13.5,15.1-22.2,19.2C342.7,337.9,347.5,331.4,351.7,324.7z"/>
	</g>
	<g>
		<path class="st95" d="M228,375.1c-0.5,0.1-1-0.1-1.2-0.6c4.4-7.2,5.9-15,4.2-23.4c-6.7-20.9-20.5-28.7-41.4-23.4
			c-8.2,7.1-11.8,16.1-10.8,27c0.2,1.2-0.2,2-1.2,2.4c-1.3-6.4-1.4-12.7-0.6-19.2c5.6-12.3,14.7-21,27-26.4
			c-0.4-0.4-0.8-0.8-1.2-1.2c-6.4,3.8-7.2,3.2-2.4-1.8c7.1-3.4,14.3-3.7,21.6-1.2c23.1,11.4,31.2,29.7,24.6,54.7
			C240.5,366.5,234.2,370.9,228,375.1z"/>
	</g>
	<g>
		<path class="st96" d="M241.2,307.8c0.5-1.2,1.3-1.4,2.4-0.6c2.4,2.4,4.8,4.8,7.2,7.2c-0.8,0.8-1.6,0.8-2.4,0
			C246.1,312,243.7,309.8,241.2,307.8z"/>
	</g>
	<g>
		<path class="st7" d="M554.7,233.4c3,9.8,5,19.8,6,30c2.2,24.6,1,49.1-3.6,73.3c-0.8,0.5-1.4,1.3-1.8,2.4c-0.6-1.9-0.8-4-0.6-6
			c1.3-12,1.3-24,0-36c-1.1,11.4-2.8,22.7-4.8,33.6c0.8-11.7,1.4-23.2,1.8-34.8c1.7-4.2,2.8-8.6,3-13.2c0.1-3.4-0.6-6.4-2.4-9
			c1.3-0.2,2.5-0.8,3.6-1.8c-1.8-1.2-3.8-1.6-6-1.2c0.4,9,0,17.9-1.2,26.4c0-9.2,0-18.4,0-27.6c3.4,0.7,5.4-0.5,6-3.6
			c1.2,1.6,2.8,2.4,4.8,2.4C557.9,256.5,556.3,245,554.7,233.4z"/>
	</g>
	<g>
		<path class="st7" d="M569.1,319.8c0.4-3.8,0-7.4-1.2-10.8c0.7-7.6,1.3-15.3,1.8-22.8C570.7,297.6,570.6,308.8,569.1,319.8z"/>
	</g>
	<g>
		<path class="st97" d="M210,310.2c4.8-0.2,5.6,1.1,2.4,4.2c-1.1,0.6-2.3,0.7-3.6,0.6C208.7,313.2,209.1,311.7,210,310.2z"/>
	</g>
	<g>
		<path class="st7" d="M516.3,351.1c1.2-12.7,2.6-25.1,4.2-37.2c-1.4,3.4-2.3,7-2.4,10.8c-0.2-1.7-0.8-3.4-1.8-4.8
			c-0.6,2.9-1.8,5.3-3.6,7.2c1.1-10.2,3-20.2,6-30c1.7,2.2,3.1,4.6,4.2,7.2C523.5,320.4,521.3,336.1,516.3,351.1z"/>
	</g>
	<g>
		<path class="st98" d="M57.4,315c4.1-0.1,5.6,1.8,4.8,6C57,321.8,55.3,319.7,57.4,315z"/>
	</g>
	<g>
		<path class="st99" d="M536.7,316.2c3.8,0.2,5,2,3.6,5.4C535.7,322.3,534.5,320.4,536.7,316.2z"/>
	</g>
	<g>
		<path class="st100" d="M89.9,318.6c4.3-0.1,5.6,1.9,4.2,6c-2.8,1.3-4.6,0.2-5.4-3C88.9,320.6,89.4,319.6,89.9,318.6z"/>
	</g>
	<g>
		<path class="st101" d="M196.8,319.8c14.7-3.7,25.9,1.1,33.6,14.4c-0.6,1.2-1.4,1.4-2.4,0.6C220.1,324.7,209.7,319.7,196.8,319.8z"
			/>
	</g>
	<g>
		<path class="st102" d="M129.5,325.9c12.9,16,26.8,30.9,42,44.4c0,2.2,0.6,4.2,1.8,6c2,1.8,3.8,3.8,5.4,6c-0.8,1-1.9,1.8-3,2.4
			c-4.8-3.7-7.4-8.5-7.8-14.4c-1.3,0.1-2.5,0-3.6-0.6c-33.2-27.5-59-60.5-77.5-99.1C100.8,289.3,115,307.7,129.5,325.9z"/>
	</g>
	<g>
		<path class="st103" d="M351.7,324.7c0-1.6,0.6-2.8,1.8-3.6C354.2,322.9,353.6,324.1,351.7,324.7z"/>
	</g>
	<g>
		<path class="st104" d="M288,312.6c1.7,5.5,1.4,11.2-0.6,16.8c-0.6-2.8-0.8-5.5-0.6-8.4C288,318.5,288.4,315.8,288,312.6z"/>
	</g>
	<g>
		<path class="st7" d="M548.7,297c0.2,7.6,0,15.3-0.6,22.8c-0.1,4.1-1.1,7.7-3,10.8C545.7,319.2,546.9,308,548.7,297z"/>
	</g>
	<g>
		<path class="st105" d="M267.6,322.3c1.1-0.1,1.8,0.2,2.4,1.2c-2.2,1.6-4.2,3.4-6,5.4c-2,2.2-4.4,2.9-7.2,2.4
			C260.5,328.3,264.1,325.3,267.6,322.3z"/>
	</g>
	<g>
		<path class="st106" d="M438.2,376.3c13.1-27.5,23.7-55.9,31.8-85.3C465.2,321.6,454.6,350.1,438.2,376.3z"/>
	</g>
	<g>
		<path class="st107" d="M45.4,337.9c2.9,1.2,3,2.9,0.6,4.8C44.2,341.3,44,339.8,45.4,337.9z"/>
	</g>
	<g>
		<path class="st108" d="M474.2,348.7c0.4-3.4,1.4-6.6,3-9.6C477.9,342.8,477,346,474.2,348.7z"/>
	</g>
	<g>
		<path class="st109" d="M295.3,340.3c1.2,0.4,2,1.2,2.4,2.4c-1.7,1.9-3.7,2.9-6,3C293.6,344.4,294.8,342.5,295.3,340.3z"/>
	</g>
	<g>
		<path class="st110" d="M204,346.3c4.8-0.6,7,1.4,6.6,6C203.8,355,201.7,353,204,346.3z"/>
	</g>
	<g>
		<path class="st111" d="M74.2,345.1c4.1,2.6,4.4,5.8,1.2,9.6c-1.1-1-1.4-2.2-1.2-3.6c-4.8-0.8-4.8-1.6,0-2.4
			C74.2,347.5,74.2,346.3,74.2,345.1z"/>
	</g>
	<g>
		<path class="st112" d="M234,345.1c2.2,2.4,2.8,5.2,1.8,8.4C234.6,350.8,234,348,234,345.1z"/>
	</g>
	<g>
		<path class="st113" d="M373.3,348.7c4.7,0.2,5.9,2.4,3.6,6.6C372.1,355.4,370.9,353.2,373.3,348.7z"/>
	</g>
	<g>
		<path class="st114" d="M474.2,348.7c0,2.2-0.6,4.2-1.8,6C471.7,352.3,472.3,350.2,474.2,348.7z"/>
	</g>
	<g>
		<path class="st115" d="M107.9,348.7c6.8-1,8.8,1.6,6,7.8C107.6,357.2,105.6,354.6,107.9,348.7z"/>
	</g>
	<g>
		<path class="st116" d="M254.4,343.9c1.4,3.8,1.3,7.9-0.6,12C253.8,351.9,254.1,348,254.4,343.9z"/>
	</g>
	<g>
		<path class="st117" d="M242.4,346.3c1.8,2.4,2.6,5.2,2.4,8.4c0.4,3.4-0.6,6.2-3,8.4C242,357.6,242.3,351.9,242.4,346.3z"/>
	</g>
	<g>
		<path class="st118" d="M525.9,354.7c1.6,0,3.2,0,4.8,0c0,1.2,0,2.4,0,3.6c-1.6,0-3.2,0-4.8,0C525.9,357.1,525.9,355.9,525.9,354.7
			z"/>
	</g>
	<g>
		<path class="st119" d="M178.7,354.7c0.8,4.1,2.4,8.2,4.8,12c-0.4,1.4-1,1.4-1.8,0c-0.6-1.2-1.2-2.4-1.8-3.6
			c-1.1-1.8-1.9-3.8-2.4-6C178.5,356.7,179,355.9,178.7,354.7z"/>
	</g>
	<g>
		<path class="st120" d="M45.4,359.5c1.2,1.6,2.4,3.1,3.6,4.8c-1.2,1.1-2.3,2.3-3,3.6c-0.7-1.3-1.8-2.5-3-3.6
			C44.7,363.1,45.4,361.4,45.4,359.5z"/>
	</g>
	<g>
		<path class="st121" d="M262.8,360.7c4.6,3.6,8.5,7.8,12,12.6c1.6,0.4,3.2,0.8,4.8,1.2c-16.2,6.5-32.6,7.8-49.2,4.2
			C241.8,373.7,252.6,367.7,262.8,360.7z"/>
	</g>
	<g>
		<path class="st102" d="M340.9,369.1c-1.2-0.1-2.2,0.2-3,1.2c-1.9-1.8-3.5-3.8-4.8-6c-0.4-2,0.4-3.6,2.4-4.8
			C338.3,362.2,340.1,365.4,340.9,369.1z"/>
	</g>
	<g>
		<path class="st122" d="M184.8,352.3c5.6,14.3,16.1,20.1,31.2,17.4c-10.9,6.7-20.3,4.9-28.2-5.4
			C185.4,360.7,184.4,356.6,184.8,352.3z"/>
	</g>
	<g>
		<path class="st123" d="M128.3,370.3c2.8,0.8,2.9,2,0.6,3.6C126.9,372.8,126.6,371.6,128.3,370.3z"/>
	</g>
	<g>
		<path class="st124" d="M188.4,373.9c0.1-0.6,0.5-1.1,1.2-1.2c5.3,4,11.3,6.1,18,6.6C200.4,380.3,194,378.5,188.4,373.9z"/>
	</g>
	<g>
		<path class="st125" d="M498.2,372.7c0.6,3.4-0.6,5.8-3.6,7.2c-3.1-1.4-4.2-3.8-3-7.2C493.8,371.1,496.1,371.1,498.2,372.7z"/>
	</g>
	<g>
		<path class="st126" d="M81.5,373.9c7.2,0.2,8.8,3.2,4.8,9C78.9,383.1,77.4,380.1,81.5,373.9z"/>
	</g>
	<g>
		<path class="st127" d="M438.2,376.3c-0.7,3.1-2.2,5.9-4.2,8.4C434.1,381.3,435.5,378.5,438.2,376.3z"/>
	</g>
	<g>
		<path class="st128" d="M161.9,376.3c1.6,3.1,3.8,6,6.6,8.4c1,2.2,0.4,3.8-1.8,4.8C161,386,159.4,381.6,161.9,376.3z"/>
	</g>
	<g>
		<path class="st129" d="M217.2,397.9c-0.8,1.1-2,1.4-3.6,1.2c-11.4-2.3-21.9-7-31.2-13.8c1.3-1.7,2.9-2,4.8-1.2
			C196.9,389.4,207,394,217.2,397.9z"/>
	</g>
	<g>
		<path class="st7" d="M567.9,309c1.2,3.4,1.6,7,1.2,10.8c-6.1,60.3-28.5,113.5-67.3,159.8c-4,4.8-8.4,9.1-13.2,13.2
			c12.9-15.9,25.1-32.3,36.6-49.2c22.1-37.6,35.9-78.1,41.4-121.3C567.4,317.9,567.8,313.5,567.9,309z"/>
	</g>
	<g>
		<path class="st130" d="M101.9,382.3c3.8-0.4,5.6,1.2,5.4,4.8C101.8,389.4,100,387.8,101.9,382.3z"/>
	</g>
	<g>
		<path class="st131" d="M278.4,382.3c2.2-0.4,4.2,0,6,1.2c-12.4,4.4-25.2,6.2-38.4,5.4c8.4-1.3,16.8-2.5,25.2-3.6
			C273.9,384.6,276.3,383.6,278.4,382.3z"/>
	</g>
	<g>
		<path class="st132" d="M340.9,369.1c4.9,2.4,8.5,6.1,10.8,11.4c-3.2,4-6.4,8-9.6,12c3.6,5,7.6,9.6,12,13.8c1.7-2.3,3.7-4.2,6-6
			c-2.4-3.7-4.9-7.3-7.8-10.8c-1-2.2-0.4-3.8,1.8-4.8c4.9,5.2,9.4,10.7,13.2,16.8c-4,4.8-8.4,9.2-13.2,13.2
			c-5.2-4.7-9.7-9.8-13.8-15.6c-4.8,4.6-9.4,9.4-13.8,14.4c-6.4-8.5-13-16.9-19.8-25.2c-0.6-1.6-0.8-3.1-0.6-4.8
			c-1.4,0.2-2.6-0.1-3.6-1.2c-4.1-4.9-7.7-10.1-10.8-15.6c-3.2-3.2-6.4-6.5-9.6-9.6c-1.2-2.4-2.4-4.8-3.6-7.2c3.1-1.4,5.9-3.5,8.4-6
			c0.4,0.6,0.8,1.2,1.2,1.8c-2.6,5.6-1.1,10.3,4.8,13.8c4.1-2.3,7.7-5.3,10.8-9c-1.8-2.8-3.8-5.4-6-7.8c-0.4-1.2-1.2-2-2.4-2.4
			c-1.2-0.5-1.4-1.3-0.6-2.4c5.2-4.4,10.4-8.8,15.6-13.2c1.7,1.3,2,2.9,1.2,4.8c-3.8,2.2-6.8,5.2-9,9c1.3,2.9,3.1,5.5,5.4,7.8
			c3.2-3.5,6.6-6.6,10.2-9.6c1.2,0.6,1.4,1.4,0.6,2.4c-4,3.1-6.7,6.7-8.4,10.8c3.4-2.2,6.4-4.8,9-7.8c1.2-0.8,2.4-0.8,3.6,0
			c4.1,4.7,7.7,9.7,10.8,15c-3,4.1-6.6,7.4-10.8,10.2c3,3.8,6,7.6,9,11.4C335.1,375.7,338.1,372.5,340.9,369.1z"/>
	</g>
	<g>
		<path class="st133" d="M306.1,383.5c3.8-4.6,8-8.9,12.6-13.2c3.2,3.8,6.2,7.8,9,12c-2.8,3.6-6,6.8-9.6,9.6c-3.2-2.6-6-5.6-8.4-9
			C308.3,382.3,307.1,382.5,306.1,383.5z"/>
	</g>
	<g>
		<path class="st134" d="M304.9,353.5c4.4,3.6,8,7.9,10.8,13.2c-2.8,3.6-6,6.8-9.6,9.6c-3.8-4-7.4-8.2-10.8-12.6
			C298.7,360.4,302,357,304.9,353.5z"/>
	</g>
	<g>
		<path class="st135" d="M41.8,384.7c21.7,12.4,44.9,20.5,69.7,24.6c-3.2,2.3-6.6,4.1-10.2,5.4c-19.1-2.9-37.4-8.8-54.7-17.4
			C44.5,393.4,42.8,389.2,41.8,384.7z"/>
	</g>
	<g>
		<path class="st136" d="M328.9,385.9c4,2.8,7.2,6.4,9.6,10.8c-2.8,3.6-6,6.8-9.6,9.6c-3.2-3.2-6-6.8-8.4-10.8
			C323.4,392.3,326.1,389,328.9,385.9z"/>
	</g>
	<g>
		<path class="st137" d="M554.7,333.1c-9.5,56.3-32.9,105.9-70.3,148.9c-0.6-0.7-0.7-1.6-0.6-2.4c33.9-44.1,56-93.7,66.1-148.9
			c2-10.9,3.7-22.2,4.8-33.6C556,309,556,321,554.7,333.1z"/>
	</g>
	<g>
		<path class="st138" d="M217.2,397.9c6.7,2,13.6,3.8,20.4,5.4c-8.4,0-16.3-1.3-24-4.2C215.1,399.4,216.3,399,217.2,397.9z"/>
	</g>
	<g>
		<path class="st139" d="M409.4,363.1c-10,20.1-22.8,38.1-38.4,54.1C384.7,399.8,397.5,381.8,409.4,363.1z"/>
	</g>
	<g>
		<path class="st140" d="M419,400.3c2.9,0.2,4.1,1.8,3.6,4.8c-1.2,0-2.4,0-3.6,0C419,403.6,419,401.9,419,400.3z"/>
	</g>
	<g>
		<path class="st141" d="M169.1,401.5c1.6,0,3.2,0,4.8,0c0,1.2,0,2.4,0,3.6c-1.6,0-3.2,0-4.8,0C169.1,403.9,169.1,402.7,169.1,401.5
			z"/>
	</g>
	<g>
		<path class="st28" d="M51.4,408.7c11.9,5.9,24.3,10.4,37.2,13.8c-4,2.8-8.2,4.9-12.6,6.6c-6.5-1.2-12.5-3.6-18-7.2
			C55.1,417.9,53,413.4,51.4,408.7z"/>
	</g>
	<g>
		<path class="st7" d="M482.6,442.4c7.1-12.3,13.9-24.6,20.4-37.2c1-1.1,1.9-2.3,3-3.6c-2,6.6-4.9,13-8.4,19.2
			C493.4,428.7,488.5,435.9,482.6,442.4z"/>
	</g>
	<g>
		<path class="st7" d="M159.5,431.6c-7.4,1.8-15.1,3-22.8,3.6c-12.9,0.5-25.7-0.1-38.4-1.8c1.8-1,2.2-1.9,1.2-3
			c-7.6,5-15.3,10-22.8,15c-2.2,1-3.8,0.4-4.8-1.8c27.4-19.1,55-38,82.9-56.5c2.8,1.3,4,3.1,3.6,5.4c-16,10.8-32.1,21.6-48,32.4
			c7.7,1.3,15.5,1.9,23.4,1.8c13.6,0.5,27-0.7,40.2-3.6c0.8,0.2,1.6,0.4,2.4,0.6C170.5,426,164.9,428.7,159.5,431.6z"/>
	</g>
	<g>
		<path class="st102" d="M330.1,412.3c0.8-0.1,1.7,0,2.4,0.6c2.4,3.1,5,6.1,7.8,9c2.6-2.6,5.2-5.2,7.8-7.8c1.3-0.5,2.2,0.1,2.4,1.8
			c-3.1,4.9-6.8,9.2-11.4,13.2c-4-4.4-7.8-9.1-11.4-13.8C328.8,414.5,329.5,413.5,330.1,412.3z"/>
	</g>
	<g>
		<path class="st142" d="M445.4,423.1c0-1.6,0.6-2.8,1.8-3.6C447.9,421.3,447.3,422.5,445.4,423.1z"/>
	</g>
	<g>
		<path class="st7" d="M451.4,393.1c-13.5,22.2-29.1,42.6-46.8,61.3c9.2-12.6,18.3-25.5,27-38.4c1.2-1.6,1.6-3.1,1.2-4.8
			c-33.4,50.7-76.5,90.9-129.1,120.7c-19.1,10.8-39.2,18.7-60.1,24c33.8-11.7,64.6-28.3,92.5-49.8c36.8-28.7,68-62.3,93.7-100.9
			c-0.1,1.3,0,2.5,0.6,3.6c1.2-1.3,2-1,2.4,1.2c2-2.2,3.8-4.6,5.4-7.2c1,2.2,2.4,2.9,4.2,2.4c0.7-3.1,2.2-5.9,4.2-8.4
			c-0.2-0.7-0.6-1.3-1.2-1.8C447.2,393.7,449.2,393.1,451.4,393.1z"/>
	</g>
	<g>
		<path class="st143" d="M401,421.9c3.8-0.4,5,1,3.6,4.2c-1.6,0.6-3.1,0.8-4.8,0.6C399.6,424.9,400.1,423.4,401,421.9z"/>
	</g>
	<g>
		<path class="st7" d="M500.7,397.9c0.4,2.6-0.4,4.9-2.4,6.6c1.4,2.5,2.4,2.3,3-0.6c0.5,0.7,1.1,1.1,1.8,1.2
			c-6.5,12.6-13.3,25-20.4,37.2c-2.6,5.3-6,10.1-10.2,14.4c1-2.2,1.3-4.6,1.2-7.2c-1,1.6-2.4,2.4-4.2,2.4
			C481.4,434.8,491.8,416.8,500.7,397.9z"/>
	</g>
	<g>
		<path class="st144" d="M238.8,423.1c4.3-1,6.1,0.7,5.4,4.8C239.2,429.8,237.4,428.2,238.8,423.1z"/>
	</g>
	<g>
		<path class="st145" d="M370.9,417.1c-6.8,8.6-14.5,16.9-22.8,24.6c-0.8,0.8-1.6,0.8-2.4,0C354,433.4,362.4,425.1,370.9,417.1z"/>
	</g>
	<g>
		<path class="st146" d="M175.1,442.4c-1.7-0.2-3.2,0-4.8,0.6c4,1.4,7.9,2.9,12,4.2c0.2,1.6-0.2,3-1.2,4.2c2.2,2.5,2.9,5.5,2.4,9
			c-1.2,0-2.4,0-3.6,0c-0.1,2.2,0.2,4.2,1.2,6c-4.1,1.7-8.5,2.9-13.2,3.6c-8.2-3.2-15.7-2.4-22.8,2.4c-2,0-4.3-0.4-6.6-1.2
			c-2.4,1.3-5,2.2-7.8,2.4c-7.7-0.5-15.5-0.5-23.4,0c-2.2-0.2-4.4-0.4-6.6-0.6c1.2-1.3,0.7-2.5-1.2-3.6c-3.5,0-6.2-1-8.4-3
			c26.7,3.4,52.7,0.8,78.1-7.8c-30.6,2-61.1,0.2-91.3-5.4c-0.8,0.1-1.7,0-2.4-0.6c1-1.8,2.4-3.2,4.2-4.2c3.2,0.4,6.6,0.4,10.2,0
			c0-1.6,0-3.2,0-4.8c4.7,0,6.8-2.4,6.6-7.2c0.7-0.6,1.4-1.1,2.4-1.2c7.4,1.8,15.1,2.6,22.8,2.4c5.5,0,10.4-0.8,15-2.4
			c7.7-0.6,15.4-1.8,22.8-3.6c3,0.1,5.9-0.7,8.4-2.4c4.4,0.2,8.8,0.7,13.2,1.2c0.8,0.8,1.6,1.6,2.4,2.4c-2.8,1.6-5.5,3-8.4,4.2
			C174.2,438.4,174.2,440.2,175.1,442.4z"/>
	</g>
	<g>
		<path class="st147" d="M445.4,423.1c-1.1,3.5-3.1,6.2-6,8.4C440.5,428.1,442.5,425.3,445.4,423.1z"/>
	</g>
	<g>
		<path class="st7" d="M554.7,333.1c-0.2,2,0,4.1,0.6,6c0.4-1.1,1-1.9,1.8-2.4c-10.4,62.1-37.6,115.3-81.7,159.8
			c-0.2-1.4-1.1-2.6-2.4-3.6c4-4.3,7.6-8.6,10.8-13.2c-0.1,0.8,0,1.7,0.6,2.4C521.8,439,545.2,389.4,554.7,333.1z"/>
	</g>
	<g>
		<path class="st148" d="M439.4,431.6c0.1,1.8-0.7,3-2.4,3.6C436.9,433.4,437.7,432.2,439.4,431.6z"/>
	</g>
	<g>
		<path class="st46" d="M182.3,447.2c-4.1-1.3-8-2.8-12-4.2c1.6-0.6,3.1-0.8,4.8-0.6c10.2-2.3,15.6-8.6,16.2-19.2
			c1,11.8,7.1,18.4,18.6,19.8c-10.2,2.2-16.5,8.4-18.6,18.6C190.5,455.3,187.5,450.5,182.3,447.2z"/>
	</g>
	<g>
		<path class="st7" d="M312.1,417.1c2.5,2.4,4.9,5,7.2,7.8c-53.5,49.6-116.8,76.8-189.8,81.7c-3.7-2.8-7.3-5.8-10.8-9
			C192.9,493.4,257.4,466.6,312.1,417.1z"/>
	</g>
	<g>
		<path class="st149" d="M437,435.2c-0.2,2.3-1.4,3.8-3.6,4.8C433.6,437.7,434.8,436.1,437,435.2z"/>
	</g>
	<g>
		<path class="st150" d="M433.4,440c-0.6,2.4-2,4.4-4.2,6C429.3,443.2,430.6,441.3,433.4,440z"/>
	</g>
	<g>
		<path class="st151" d="M296.5,448.4c1.2,0,2.4,0,3.6,0c0.5,2.6-0.4,4.6-2.4,6C295,452.8,294.7,450.9,296.5,448.4z"/>
	</g>
	<g>
		<path class="st152" d="M235.2,454.4c3-3.1,6.6-4.9,10.8-5.4C242.8,451.4,239.2,453.2,235.2,454.4z"/>
	</g>
	<g>
		<path class="st153" d="M117.5,452c1.2,0,2.4,0,3.6,0c0,1.2,0,2.4,0,3.6c-1.2,0-2.4,0-3.6,0C117.5,454.4,117.5,453.2,117.5,452z"/>
	</g>
	<g>
		<path class="st154" d="M404.6,454.4c-1.1,2.9-2.9,5.3-5.4,7.2C399.6,458.5,401.4,456.1,404.6,454.4z"/>
	</g>
	<g>
		<path class="st155" d="M560.7,263.4c1.3-0.1,2.5,0,3.6,0.6c-3.1,2-3.1,4.3,0,6.6c-1.1,20.4-2.2,40.8-3,61.3c0.6-4,2.4-7.2,5.4-9.6
			c-5.5,43.2-19.3,83.7-41.4,121.3c-11.5,16.9-23.8,33.4-36.6,49.2c-2.4,3-4.9,5.8-7.8,8.4c-1.2-1.3-2-3-2.4-4.8
			c-1,1.6-2.4,2.4-4.2,2.4c0.4-0.8,0.8-1.6,1.2-2.4c44.1-44.4,71.2-97.7,81.7-159.8C561.7,312.5,562.9,288,560.7,263.4z"/>
	</g>
	<g>
		<path class="st156" d="M319.3,464c1.3-2.8,3.2-4.1,6-4.2C323.7,461.9,321.7,463.4,319.3,464z"/>
	</g>
	<g>
		<path class="st7" d="M77.8,453.2c30.1,5.6,60.7,7.4,91.3,5.4c-25.3,8.6-51.4,11.2-78.1,7.8C85.5,463.3,81.1,458.8,77.8,453.2z"/>
	</g>
	<g>
		<path class="st157" d="M319.3,464c-1,2.2-2.5,3.4-4.8,3.6C315.4,465.4,317,464.2,319.3,464z"/>
	</g>
	<g>
		<path class="st46" d="M235.2,454.4c-20.9,12.6-43.2,21.6-67.3,27c-20.2,4.3-40.6,5.9-61.3,4.8c-3.7-2.4-7-5.4-9.6-9
			c13.2-1,26.4-1.6,39.6-1.8c10.7-1.2,21.1-3,31.2-5.4c4.7-0.7,9.1-1.9,13.2-3.6c1.9,0,3.7-0.5,5.4-1.2c1.9,1.8,3.5,3.7,4.8,6
			c1.1-2.4,2.2-4.8,3-7.2c38-16.2,72.4-37.8,103.3-64.9c1.2,1.6,2.4,3.2,3.6,4.8c-21.3,19.2-44.4,35.9-69.7,49.8
			C232.7,454.4,233.9,454.5,235.2,454.4z"/>
	</g>
	<g>
		<path class="st158" d="M314.5,467.6c-0.6,1.7-1.8,2.5-3.6,2.4C311.5,468.3,312.7,467.5,314.5,467.6z"/>
	</g>
	<g>
		<path class="st5" d="M516.3,351.1c-2.3,7.9-4.6,16-6.6,24c-3,7.7-6,15.3-9,22.8c-8.9,18.9-19.2,36.9-31.2,54.1
			c-18.4,28.3-41.6,52-69.7,70.9c-1.9,1.3-3.8,1.9-6,1.8c14.2-16.9,28.8-33.6,43.8-49.8c23.9-28.6,43-60.3,57.1-94.9
			c3-1.4,4.2-3.8,3.6-7.2c4.6-15.4,9.4-30.6,14.4-45.6c1.8-1.9,3-4.3,3.6-7.2c1,1.4,1.6,3.1,1.8,4.8c0.1-3.8,1-7.4,2.4-10.8
			C518.9,326,517.5,338.3,516.3,351.1z"/>
	</g>
	<g>
		<path class="st159" d="M310.9,470c-0.6,1.9-1.8,2.5-3.6,1.8C308.1,470.6,309.3,470,310.9,470z"/>
	</g>
	<g>
		<path class="st160" d="M423.8,476c1.2,0,2.4,0,3.6,0c0,1.2,0,2.4,0,3.6c-1.2,0-2.4,0-3.6,0C423.8,478.4,423.8,477.2,423.8,476z"/>
	</g>
	<g>
		<path class="st46" d="M286.8,477.2c9.5-0.7,11.9,3.1,7.2,11.4c-5.9,2.2-9.5,0.4-10.8-5.4C284,480.9,285.2,478.9,286.8,477.2z"/>
	</g>
	<g>
		<path class="st161" d="M327.7,492.8c0.4,0,0.8,0,1.2,0c0.1,1.8-0.7,3-2.4,3.6C324.9,494.5,325.3,493.3,327.7,492.8z"/>
	</g>
	<g>
		<path class="st162" d="M447.8,492.8c1.8,0.4,2.6,1.6,2.4,3.6C447,496.5,446.1,495.3,447.8,492.8z"/>
	</g>
	<g>
		<path class="st7" d="M549.9,330.7c-10.1,55.3-32.2,104.9-66.1,148.9c-3.2,4.6-6.8,8.9-10.8,13.2c1.3,1,2.2,2.2,2.4,3.6
			c-0.4,0.8-0.8,1.6-1.2,2.4c-26.8,26.4-58,45-93.7,55.9c8.2-4.3,15.7-9.4,22.8-15c35.4-24.5,66.1-54.1,91.9-88.9
			c24.5-36.8,41.1-76.9,49.8-120.1c1.9-3.1,2.9-6.7,3-10.8c0.6-7.6,0.8-15.3,0.6-22.8c1.2-8.5,1.6-17.4,1.2-26.4
			c2.2-0.4,4.2,0,6,1.2c-1.1,1-2.3,1.6-3.6,1.8c1.8,2.6,2.5,5.6,2.4,9c-0.2,4.6-1.3,9-3,13.2C551.3,307.5,550.7,319,549.9,330.7z"/>
	</g>
	<g>
		<path class="st163" d="M295.3,510.8c4.2,0.7,5.4,2.9,3.6,6.6C294.1,517.6,292.9,515.4,295.3,510.8z"/>
	</g>
	<g>
		<path class="st164" d="M390.1,520.4c-1.3-0.1-2.5-0.5-3.6-1.2c-0.5-2.5,0.6-4.2,3-4.8C393,516.4,393.1,518.4,390.1,520.4z"/>
	</g>
	<g>
		<path class="st165" d="M330.1,557.7c1.2,0,2.4,0,3.6,0c0,1.2,0,2.4,0,3.6c-1.2,0-2.4,0-3.6,0C330.1,560.1,330.1,558.9,330.1,557.7
			z"/>
	</g>
</g>
<g>
	<path class="st166" d="M349.3,252.5l-0.3-0.4c-0.1-0.1-0.1-0.2,0-0.2l0.6-0.5c0,0,0-0.1,0-0.2l-0.7-0.8c-0.1-0.1-0.1-0.2,0-0.2
		l1.3-1c0,0,0.1,0,0.2,0.1l1.2,1.5c0.7,0.9,0.8,2,0.2,2.5C351.1,253.7,350,253.4,349.3,252.5z M349.7,251.4c0,0,0,0.1,0,0.2l0.3,0.4
		c0.2,0.3,0.6,0.4,0.8,0.2s0.2-0.5-0.1-0.8l-0.3-0.4c-0.1-0.1-0.1-0.1-0.2-0.1L349.7,251.4z"/>
	<path class="st166" d="M348.8,251.9l-0.7-0.8c-0.1-0.1-0.1-0.1-0.2-0.1l-0.6,0.5c0,0,0,0.1,0,0.2l0.7,0.8c0.1,0.1,0.1,0.1,0.2,0.1
		l0.6-0.5C348.8,252,348.8,252,348.8,251.9z"/>
	<path class="st166" d="M349.3,252.7c0-0.1,0.1-0.1,0.2,0l0.6,0.8c0,0,0.1,0.1,0,0.1l-0.2,0.9c0,0.1-0.1,0.1-0.2,0l-0.6-0.8
		c0,0-0.1-0.1,0-0.1L349.3,252.7z"/>
	<path class="st166" d="M354.8,254.8c-1-1.2-2.5-1.6-3.3-1c-0.2,0.2-0.4,0.4-0.4,0.7c0,0,0,0.1,0,0.2l0.7,0.8
		c0.1,0.1,0.1,0.1,0.2,0.1l1.1-0.9c0,0,0.1,0,0.2,0.1l1.3,1.6c0.1,0.1,0.1,0.2,0,0.2l-1.1,0.9c0,0-0.1,0-0.2-0.1l-1.3-1.6
		c-0.1-0.1-0.1-0.1-0.2-0.1l-0.6,0.5c0,0,0,0.1,0,0.1c0.1,0.3,0.3,0.7,0.6,1c1,1.2,2.5,1.6,3.3,1C355.9,257.5,355.8,256,354.8,254.8
		z"/>
</g>
</svg>
