<?xml version="1.0" encoding="utf-8"?>
<!-- Generator: Adobe Illustrator 24.0.1, SVG Export Plug-In . SVG Version: 6.00 Build 0)  -->
<svg version="1.1" id="Слой_1" xmlns="http://www.w3.org/2000/svg" xmlns:xlink="http://www.w3.org/1999/xlink" x="0px" y="0px"
	 viewBox="0 0 1080 1080" style="enable-background:new 0 0 1080 1080;" xml:space="preserve">
<style type="text/css">
	.st0{fill:#EFF3F4;}
</style>
<image style="overflow:visible;" width="2434" height="2434" xlink:href="_Uniterrax.png"  transform="matrix(0.4245 0 0 0.4245 21.2558 19.2558)">
</image>
<g>
	<path class="st0" d="M509.6,900.4l-0.7-0.3c-0.1,0-0.2-0.2-0.1-0.3l0.6-1.4c0-0.1,0-0.3-0.1-0.3l-1.4-0.6c-0.1,0-0.2-0.2-0.1-0.3
		l1.3-3.2c0-0.1,0.2-0.2,0.3-0.1l2.5,1c1.5,0.6,2.2,2.3,1.6,3.8C512.8,900.3,511.1,901,509.6,900.4z M509.5,898c0,0.1,0,0.3,0.1,0.3
		l0.7,0.3c0.5,0.2,1.1,0,1.3-0.6c0.2-0.5,0-1.1-0.5-1.3l-0.7-0.3c-0.1,0-0.3,0-0.3,0.1L509.5,898z"/>
	<path class="st0" d="M508.5,900l-1.4-0.6c-0.1,0-0.3,0-0.3,0.1l-0.6,1.4c0,0.1,0,0.3,0.1,0.3l1.4,0.6c0.1,0,0.3,0,0.3-0.1l0.6-1.4
		C508.6,900.2,508.6,900,508.5,900z"/>
	<path class="st0" d="M509.6,900.8c0-0.2,0.2-0.3,0.3-0.2l1.3,0.5c0.1,0,0.1,0.1,0.1,0.2l0.1,1.7c0,0.2-0.2,0.3-0.3,0.2l-1.3-0.5
		c-0.1,0-0.1-0.1-0.1-0.2L509.6,900.8z"/>
	<path class="st0" d="M518.7,897.6c-2.1-0.8-4.4,0.2-5.2,2.3c-0.2,0.5-0.3,1.1-0.3,1.6c0,0.1,0.1,0.2,0.1,0.2l1.4,0.6
		c0.1,0,0.3,0,0.3-0.1l1.1-2.8c0-0.1,0.2-0.2,0.3-0.1l2.8,1.1c0.1,0,0.2,0.2,0.1,0.3l-1.1,2.8c0,0.1-0.2,0.2-0.3,0.1l-2.8-1.1
		c-0.1,0-0.3,0-0.3,0.1l-0.6,1.4c0,0.1,0,0.2,0,0.2c0.4,0.4,0.8,0.7,1.4,0.9c2.1,0.8,4.4-0.2,5.2-2.3S520.8,898.5,518.7,897.6z"/>
</g>
</svg>
