<?xml version="1.0" encoding="utf-8"?>
<!-- Generator: Adobe Illustrator 24.0.1, SVG Export Plug-In . SVG Version: 6.00 Build 0)  -->
<svg version="1.1" xmlns="http://www.w3.org/2000/svg" xmlns:xlink="http://www.w3.org/1999/xlink" x="0px" y="0px"
	 viewBox="0 0 600 600" style="enable-background:new 0 0 600 600;" xml:space="preserve">
<style type="text/css">
	.st0{fill:#FFFFFF;}
</style>
<g id="Слой_2">
</g>
<g id="Слой_1">
	<g>
		<circle class="st0" cx="300" cy="300" r="300"/>
		<circle class="st0" cx="300" cy="300" r="298"/>
		<g>
			
				<image style="overflow:visible;" width="2434" height="2434" xlink:href="BEE1FE1C572E2A41.png"  transform="matrix(0.2383 0 0 0.2383 10 10)">
			</image>
			<g>
				<path class="st0" d="M285.2,505l-0.4-0.2c-0.1,0-0.1-0.1-0.1-0.2l0.3-0.8c0-0.1,0-0.1-0.1-0.2l-0.8-0.3c-0.1,0-0.1-0.1-0.1-0.2
					l0.7-1.8c0-0.1,0.1-0.1,0.2-0.1l1.4,0.6c0.8,0.3,1.3,1.3,0.9,2.2S286,505.4,285.2,505z M285.1,503.7c0,0.1,0,0.1,0.1,0.2
					l0.4,0.2c0.3,0.1,0.6,0,0.7-0.3c0.1-0.3,0-0.6-0.3-0.7l-0.4-0.2c-0.1,0-0.1,0-0.2,0.1L285.1,503.7z"/>
				<path class="st0" d="M284.6,504.8l-0.8-0.3c-0.1,0-0.1,0-0.2,0.1l-0.3,0.8c0,0.1,0,0.1,0.1,0.2l0.8,0.3c0.1,0,0.1,0,0.2-0.1
					l0.3-0.8C284.7,504.9,284.6,504.8,284.6,504.8z"/>
				<path class="st0" d="M285.2,505.2c0-0.1,0.1-0.2,0.2-0.1l0.8,0.3c0,0,0.1,0.1,0.1,0.1l0.1,0.9c0,0.1-0.1,0.2-0.2,0.1l-0.8-0.3
					c0,0-0.1-0.1-0.1-0.1L285.2,505.2z"/>
				<path class="st0" d="M290.3,503.5c-1.2-0.5-2.5,0.1-2.9,1.3c-0.1,0.3-0.2,0.6-0.2,0.9c0,0,0,0.1,0.1,0.1l0.8,0.3
					c0.1,0,0.1,0,0.2-0.1l0.6-1.6c0-0.1,0.1-0.1,0.2-0.1l1.6,0.6c0.1,0,0.1,0.1,0.1,0.2l-0.6,1.6c0,0.1-0.1,0.1-0.2,0.1l-1.6-0.6
					c-0.1,0-0.1,0-0.2,0.1l-0.3,0.8c0,0,0,0.1,0,0.1c0.2,0.2,0.5,0.4,0.8,0.5c1.2,0.5,2.5-0.1,2.9-1.3S291.5,503.9,290.3,503.5z"/>
			</g>
			<g>
				<polygon id="polygon5" class="st0" points="356.6,529.6 359.2,530 359,531.3 360.3,531.6 360.7,529.2 358.1,528.8 361.1,526.6 
					359.8,526.3 356.8,528.5 				"/>
				<polygon id="polygon7" class="st0" points="361.5,528 363,526.9 361.7,526.7 				"/>
				<polygon id="polygon9" class="st0" points="362.8,528.2 361.3,529.3 361,530.6 362.4,530.8 362.6,529.5 364.1,528.4 
					364.3,527.1 363,526.9 				"/>
				<polygon id="polygon11" class="st0" points="363.9,529.7 362.4,530.8 363.7,531 				"/>
			</g>
		</g>
	</g>
</g>
</svg>
