<?xml version="1.0" encoding="utf-8"?>
<!-- Generator: Adobe Illustrator 24.0.1, SVG Export Plug-In . SVG Version: 6.00 Build 0)  -->
<svg version="1.1" xmlns="http://www.w3.org/2000/svg" xmlns:xlink="http://www.w3.org/1999/xlink" x="0px" y="0px"
	 viewBox="0 0 600 600" style="enable-background:new 0 0 600 600;" xml:space="preserve">
<style type="text/css">
	.st0{fill:#FFFFFF;}
	.st1{fill-rule:evenodd;clip-rule:evenodd;fill:#FFFFFF;}
	.st2{fill-rule:evenodd;clip-rule:evenodd;fill:#02131C;}
	.st3{fill-rule:evenodd;clip-rule:evenodd;fill:#697478;}
	.st4{fill-rule:evenodd;clip-rule:evenodd;fill:#D4E5EA;}
	.st5{fill-rule:evenodd;clip-rule:evenodd;fill:#23B8D5;}
	.st6{fill-rule:evenodd;clip-rule:evenodd;fill:#80909A;}
	.st7{fill-rule:evenodd;clip-rule:evenodd;fill:#FECD5C;}
	.st8{fill-rule:evenodd;clip-rule:evenodd;fill:#C3D2DB;}
	.st9{fill-rule:evenodd;clip-rule:evenodd;fill:#52BDFF;}
	.st10{fill-rule:evenodd;clip-rule:evenodd;fill:#E1E4EA;}
	.st11{fill-rule:evenodd;clip-rule:evenodd;fill:#D9E3EC;}
	.st12{fill-rule:evenodd;clip-rule:evenodd;fill:#E2E8EA;}
	.st13{fill-rule:evenodd;clip-rule:evenodd;fill:#E0E7EA;}
	.st14{fill-rule:evenodd;clip-rule:evenodd;fill:#F1F5F6;}
	.st15{fill-rule:evenodd;clip-rule:evenodd;fill:#2D3C3F;}
	.st16{fill-rule:evenodd;clip-rule:evenodd;fill:#324043;}
	.st17{fill-rule:evenodd;clip-rule:evenodd;fill:#2A3A3D;}
	.st18{fill-rule:evenodd;clip-rule:evenodd;fill:#2E3A3B;}
	.st19{fill-rule:evenodd;clip-rule:evenodd;fill:#E1EDF1;}
	.st20{fill-rule:evenodd;clip-rule:evenodd;fill:#EAF0F2;}
	.st21{fill-rule:evenodd;clip-rule:evenodd;}
	.st22{fill-rule:evenodd;clip-rule:evenodd;fill:#031E2E;}
	.st23{fill-rule:evenodd;clip-rule:evenodd;fill:#E2F0F4;}
	.st24{fill-rule:evenodd;clip-rule:evenodd;fill:#6B7875;}
	.st25{fill-rule:evenodd;clip-rule:evenodd;fill:#B4C7CD;}
	.st26{fill-rule:evenodd;clip-rule:evenodd;fill:#C6D4DA;}
	.st27{fill-rule:evenodd;clip-rule:evenodd;fill:#EEF3F5;}
	.st28{fill-rule:evenodd;clip-rule:evenodd;fill:#ECF0F1;}
	.st29{fill-rule:evenodd;clip-rule:evenodd;fill:#4A8897;}
	.st30{fill-rule:evenodd;clip-rule:evenodd;fill:#EEF3F4;}
	.st31{fill-rule:evenodd;clip-rule:evenodd;fill:#04131C;}
	.st32{fill-rule:evenodd;clip-rule:evenodd;fill:#ACBCC7;}
	.st33{fill-rule:evenodd;clip-rule:evenodd;fill:#DAE3E9;}
	.st34{fill-rule:evenodd;clip-rule:evenodd;fill:#D7E0E2;}
	.st35{fill-rule:evenodd;clip-rule:evenodd;fill:#667573;}
	.st36{fill-rule:evenodd;clip-rule:evenodd;fill:#05131C;}
	.st37{fill-rule:evenodd;clip-rule:evenodd;fill:#6A787D;}
	.st38{fill-rule:evenodd;clip-rule:evenodd;fill:#526363;}
	.st39{fill-rule:evenodd;clip-rule:evenodd;fill:#D2E1E7;}
	.st40{fill-rule:evenodd;clip-rule:evenodd;fill:#06161E;}
	.st41{fill-rule:evenodd;clip-rule:evenodd;fill:#617171;}
	.st42{fill-rule:evenodd;clip-rule:evenodd;fill:#F8FAFA;}
	.st43{fill-rule:evenodd;clip-rule:evenodd;fill:#07171E;}
	.st44{fill-rule:evenodd;clip-rule:evenodd;fill:#191D1E;}
	.st45{fill-rule:evenodd;clip-rule:evenodd;fill:#8B786B;}
	.st46{fill-rule:evenodd;clip-rule:evenodd;fill:#E5EAEB;}
	.st47{fill-rule:evenodd;clip-rule:evenodd;fill:#0B1819;}
	.st48{fill-rule:evenodd;clip-rule:evenodd;fill:#8D4795;}
	.st49{fill-rule:evenodd;clip-rule:evenodd;fill:#0A151B;}
	.st50{fill-rule:evenodd;clip-rule:evenodd;fill:#1B2123;}
	.st51{fill-rule:evenodd;clip-rule:evenodd;fill:#161D20;}
	.st52{fill-rule:evenodd;clip-rule:evenodd;fill:#BDCCCD;}
	.st53{fill-rule:evenodd;clip-rule:evenodd;fill:#F1F5F7;}
	.st54{fill-rule:evenodd;clip-rule:evenodd;fill:#F5F8F8;}
	.st55{fill-rule:evenodd;clip-rule:evenodd;fill:#06141D;}
	.st56{fill-rule:evenodd;clip-rule:evenodd;fill:#5A5F64;}
	.st57{fill-rule:evenodd;clip-rule:evenodd;fill:#10171A;}
	.st58{fill-rule:evenodd;clip-rule:evenodd;fill:#14191C;}
	.st59{fill-rule:evenodd;clip-rule:evenodd;fill:#C9DBE0;}
	.st60{fill-rule:evenodd;clip-rule:evenodd;fill:#0D141B;}
	.st61{fill-rule:evenodd;clip-rule:evenodd;fill:#4C5350;}
	.st62{fill-rule:evenodd;clip-rule:evenodd;fill:#EDF2F3;}
	.st63{fill-rule:evenodd;clip-rule:evenodd;fill:#141F25;}
	.st64{fill-rule:evenodd;clip-rule:evenodd;fill:#0D161A;}
	.st65{fill-rule:evenodd;clip-rule:evenodd;fill:#606A6B;}
	.st66{fill-rule:evenodd;clip-rule:evenodd;fill:#0B181C;}
	.st67{fill-rule:evenodd;clip-rule:evenodd;fill:#5D6766;}
	.st68{fill-rule:evenodd;clip-rule:evenodd;fill:#09161A;}
	.st69{fill-rule:evenodd;clip-rule:evenodd;fill:#CDD7DD;}
	.st70{fill-rule:evenodd;clip-rule:evenodd;fill:#DEE7E9;}
	.st71{fill-rule:evenodd;clip-rule:evenodd;fill:#11161A;}
	.st72{fill-rule:evenodd;clip-rule:evenodd;fill:#1A2326;}
	.st73{fill-rule:evenodd;clip-rule:evenodd;fill:#E4ECEE;}
	.st74{fill-rule:evenodd;clip-rule:evenodd;fill:#1A1E20;}
	.st75{fill-rule:evenodd;clip-rule:evenodd;fill:#79919C;}
	.st76{fill-rule:evenodd;clip-rule:evenodd;fill:#0A1D23;}
	.st77{fill-rule:evenodd;clip-rule:evenodd;fill:#06161F;}
	.st78{fill-rule:evenodd;clip-rule:evenodd;fill:#92A8B1;}
	.st79{fill-rule:evenodd;clip-rule:evenodd;fill:#96A2AA;}
	.st80{fill-rule:evenodd;clip-rule:evenodd;fill:#607171;}
	.st81{fill-rule:evenodd;clip-rule:evenodd;fill:#EDF2F4;}
	.st82{fill-rule:evenodd;clip-rule:evenodd;fill:#93AAB5;}
	.st83{fill-rule:evenodd;clip-rule:evenodd;fill:#161F22;}
	.st84{fill-rule:evenodd;clip-rule:evenodd;fill:#D1DFE5;}
	.st85{fill-rule:evenodd;clip-rule:evenodd;fill:#CCDBE0;}
	.st86{fill-rule:evenodd;clip-rule:evenodd;fill:#95AAB0;}
	.st87{fill-rule:evenodd;clip-rule:evenodd;fill:#D0D3DD;}
	.st88{fill-rule:evenodd;clip-rule:evenodd;fill:#E5EFF1;}
	.st89{fill-rule:evenodd;clip-rule:evenodd;fill:#CCD5D3;}
	.st90{fill-rule:evenodd;clip-rule:evenodd;fill:#10627D;}
	.st91{fill-rule:evenodd;clip-rule:evenodd;fill:#081720;}
	.st92{fill-rule:evenodd;clip-rule:evenodd;fill:#97ABB5;}
	.st93{fill-rule:evenodd;clip-rule:evenodd;fill:#AABEC7;}
	.st94{fill-rule:evenodd;clip-rule:evenodd;fill:#D2E4E8;}
	.st95{fill-rule:evenodd;clip-rule:evenodd;fill:#9DAEBC;}
	.st96{fill-rule:evenodd;clip-rule:evenodd;fill:#ECF2F2;}
	.st97{fill-rule:evenodd;clip-rule:evenodd;fill:#EEF2F3;}
	.st98{fill-rule:evenodd;clip-rule:evenodd;fill:#353C3E;}
	.st99{fill-rule:evenodd;clip-rule:evenodd;fill:#141919;}
	.st100{fill-rule:evenodd;clip-rule:evenodd;fill:#ECF0F7;}
	.st101{fill-rule:evenodd;clip-rule:evenodd;fill:#D3DFE1;}
	.st102{fill-rule:evenodd;clip-rule:evenodd;fill:#D1DADD;}
	.st103{fill-rule:evenodd;clip-rule:evenodd;fill:#131B1F;}
	.st104{fill-rule:evenodd;clip-rule:evenodd;fill:#E9F0F2;}
	.st105{fill-rule:evenodd;clip-rule:evenodd;fill:#606868;}
	.st106{fill-rule:evenodd;clip-rule:evenodd;fill:#A1B5BB;}
	.st107{fill-rule:evenodd;clip-rule:evenodd;fill:#191A1B;}
	.st108{fill-rule:evenodd;clip-rule:evenodd;fill:#D0D5D8;}
	.st109{fill-rule:evenodd;clip-rule:evenodd;fill:#D5DFE3;}
	.st110{fill-rule:evenodd;clip-rule:evenodd;fill:#556563;}
	.st111{fill-rule:evenodd;clip-rule:evenodd;fill:#5E7882;}
	.st112{fill-rule:evenodd;clip-rule:evenodd;fill:#EBF3F5;}
	.st113{fill-rule:evenodd;clip-rule:evenodd;fill:#C0C9CF;}
	.st114{fill-rule:evenodd;clip-rule:evenodd;fill:#2D3B3D;}
	.st115{fill-rule:evenodd;clip-rule:evenodd;fill:#E5EAEE;}
	.st116{fill-rule:evenodd;clip-rule:evenodd;fill:#4E6560;}
	.st117{fill-rule:evenodd;clip-rule:evenodd;fill:#EAF1F2;}
	.st118{fill-rule:evenodd;clip-rule:evenodd;fill:#6B828C;}
	.st119{fill-rule:evenodd;clip-rule:evenodd;fill:#151C20;}
	.st120{fill-rule:evenodd;clip-rule:evenodd;fill:#CAD6DD;}
	.st121{fill-rule:evenodd;clip-rule:evenodd;fill:#94A8AE;}
	.st122{fill-rule:evenodd;clip-rule:evenodd;fill:#C3CED7;}
	.st123{fill-rule:evenodd;clip-rule:evenodd;fill:#F0F3F2;}
	.st124{fill-rule:evenodd;clip-rule:evenodd;fill:#E4ECF0;}
	.st125{fill-rule:evenodd;clip-rule:evenodd;fill:#D4EBF1;}
	.st126{fill-rule:evenodd;clip-rule:evenodd;fill:#5E7984;}
	.st127{fill-rule:evenodd;clip-rule:evenodd;fill:#F4F3EB;}
	.st128{fill-rule:evenodd;clip-rule:evenodd;fill:#DFE6E7;}
	.st129{fill-rule:evenodd;clip-rule:evenodd;fill:#607479;}
	.st130{fill-rule:evenodd;clip-rule:evenodd;fill:#DAE7E9;}
	.st131{fill-rule:evenodd;clip-rule:evenodd;fill:#E0E9EC;}
	.st132{fill-rule:evenodd;clip-rule:evenodd;fill:#D9DEE4;}
	.st133{fill-rule:evenodd;clip-rule:evenodd;fill:#A4B0B7;}
	.st134{fill-rule:evenodd;clip-rule:evenodd;fill:#EBF1F2;}
	.st135{fill-rule:evenodd;clip-rule:evenodd;fill:#07151C;}
	.st136{fill-rule:evenodd;clip-rule:evenodd;fill:#05141C;}
	.st137{fill-rule:evenodd;clip-rule:evenodd;fill:#F0F4F5;}
	.st138{fill-rule:evenodd;clip-rule:evenodd;fill:#07161F;}
	.st139{fill-rule:evenodd;clip-rule:evenodd;fill:#FDF3E0;}
	.st140{fill-rule:evenodd;clip-rule:evenodd;fill:#ABB4BC;}
	.st141{fill-rule:evenodd;clip-rule:evenodd;fill:#262C2C;}
	.st142{fill-rule:evenodd;clip-rule:evenodd;fill:#CFDEE1;}
	.st143{fill-rule:evenodd;clip-rule:evenodd;fill:#B7C8D0;}
	.st144{fill-rule:evenodd;clip-rule:evenodd;fill:#3B4A48;}
	.st145{fill-rule:evenodd;clip-rule:evenodd;fill:#D1DBE2;}
	.st146{fill-rule:evenodd;clip-rule:evenodd;fill:#D8E4E6;}
	.st147{fill-rule:evenodd;clip-rule:evenodd;fill:#5D6464;}
	.st148{fill-rule:evenodd;clip-rule:evenodd;fill:#01131F;}
	.st149{fill-rule:evenodd;clip-rule:evenodd;fill:#2D3B3B;}
	.st150{fill-rule:evenodd;clip-rule:evenodd;fill:#304747;}
	.st151{fill-rule:evenodd;clip-rule:evenodd;fill:#526B67;}
	.st152{fill-rule:evenodd;clip-rule:evenodd;fill:#849594;}
	.st153{fill-rule:evenodd;clip-rule:evenodd;fill:#D6E3E8;}
	.st154{fill-rule:evenodd;clip-rule:evenodd;fill:#85979A;}
	.st155{fill-rule:evenodd;clip-rule:evenodd;fill:#E6F2F5;}
	.st156{fill-rule:evenodd;clip-rule:evenodd;fill:#5E7D82;}
	.st157{fill-rule:evenodd;clip-rule:evenodd;fill:#0D1110;}
	.st158{fill-rule:evenodd;clip-rule:evenodd;fill:#565C5A;}
	.st159{fill-rule:evenodd;clip-rule:evenodd;fill:#4C5351;}
	.st160{fill-rule:evenodd;clip-rule:evenodd;fill:#545958;}
	.st161{fill-rule:evenodd;clip-rule:evenodd;fill:#5C5F5E;}
	.st162{fill-rule:evenodd;clip-rule:evenodd;fill:#D7DEE5;}
	.st163{fill-rule:evenodd;clip-rule:evenodd;fill:#D2DEE6;}
	.st164{fill-rule:evenodd;clip-rule:evenodd;fill:#C1CED7;}
	.st165{fill-rule:evenodd;clip-rule:evenodd;fill:#D6DFE5;}
	.st166{fill-rule:evenodd;clip-rule:evenodd;fill:#D2D6DD;}
	.st167{fill-rule:evenodd;clip-rule:evenodd;fill:#B1C1CD;}
	.st168{fill:#52BDFF;}
</style>
<g id="Слой_2">
</g>
<g id="Слой_1">
	<g>
		<circle class="st0" cx="300" cy="300" r="300"/>
		<g>
			<path class="st1" d="M570.9,123c10.5,0.7,14.1,6,10.5,15.5c-0.5,0.6-3.6,3.9-8.6,4.1c-3.8,0.1-6.5-1.7-7.4-2.4
				c-1.4,1.4-4.3,4-8.7,5.5c-3.9,1.3-7.2,1.3-9.2,1.1c2.9-2.6,6-5.2,9.4-7.8c1.6-1.2,3.2-2.4,4.7-3.5c-0.1-0.3-1.2-6.2,3-9.9
				C567.1,123.3,569.9,123,570.9,123z"/>
		</g>
		<g>
			<g>
				<g>
					<path class="st2" d="M428.5,233c-1.4-0.2-2.6,0.1-3.6,1.2c1.2,1.1,1.2,1.9,0,2.4c-3.8-7.9-8.9-14.9-15.5-21.1
						c-5.1-0.6-9.6,0.8-13.6,4.3c-0.7-1.1-0.6-2.2,0.6-3c2.6-1.1,4.9-2.5,7.2-4.3c-8.7-5-17.8-5.9-27.4-2.4c-4.3,0-4.6-0.7-0.6-2.4
						c0.6-1.1,0.7-2.3,0.6-3.6c0-2.9-0.6-5.8-1.7-8.4c-31.4-61.7-81.2-87.2-149.3-76.4c-27.6,7.1-51,21-70.2,42.1
						c1.6,0.4,3.2,0,4.7-1.2c7.1-5.5,14.7-10.1,22.6-13.2c-4.5,3.4-8.7,7.3-12.5,11.4c-0.8,1-0.6,1.8,0.6,2.4
						c11-7.7,22.4-14.5,34.5-20.4c1.4,0.4,1.4,1,0,1.8c-11.3,6.1-21.2,13.9-29.7,23.4c-2.3,0.6-4.3,1.8-5.9,3.6
						c-2.3-0.7-4.3-1.6-6.6-2.4c-0.4,0.8-0.8,1.6-1.2,2.4c-1.6-1.3-3.5-1.5-5.3-0.6c-1.2,0.8-1.3,1.9-0.6,3c1.5-1.6,3-1.6,4.2,0
						c-9.6,4.7-18.8,10.3-27.4,16.8c9.9,14.8,20.2,29.3,30.9,43.3c0.4,5,1.1,9.6,2.4,13.8c-1.6,1.6-2.9,3.4-3.6,5.4
						c-7.6-9.4-15-19-21.9-28.8c-3,6-4.3,12.4-4.2,19.2c-0.2,4.4,0,8.8,0.6,13.2c0.5-1.5,1.3-2.6,2.4-3.6c1.3,3.4,3.7,5.3,7.2,6
						c1.2,2.3,1.8,4.7,2.4,7.3c0.4-0.4,0.8-0.8,1.2-1.2c1.2,2.6,1.7,5.5,1.7,8.4c-1.2-0.8-2.4-1.6-3.6-2.4c0.7,2.6,2.3,4.7,4.7,6
						c1.5,3.5,4,6.4,7.2,8.4c7.7,10.8,16,21.4,24.9,31.2c0.4,2.8-0.5,5.2-2.4,7.3c0.2,0.7,0.6,1.3,1.2,1.8c-1.5,1.6-2.8,3.4-3.6,5.4
						c-1.5-2.2-1.1-4,1.2-5.4c-1.6-1-3.4-0.7-4.7,0.6c1.1,1.6,1.3,3.1,0.6,4.8c-1.4-2.2-2.2-4.6-2.4-7.3c-0.5,0.7-1.1,1.1-1.7,1.2
						c-27.8-32.7-54.8-65.8-80.9-99.9c0.7-1.9,1.3-4,1.7-6c-0.1,5.4,1.6,6.6,5.3,3.6c2.3,1.9,4.1,1.6,5.3-1.2
						c1.6,3.4,3.8,6.2,6.6,8.4c0.6,1.9,1.3,2.3,2.4,1.2c-1.3-2.6-1.9-5.5-2.4-8.4c-1.4-6.7-2.6-13.6-3.6-20.4
						c1.7-2.2,2.3-4.4,1.2-6.6c1.5-0.6,3.1-0.8,4.7-0.6c0-1.6,0-3.2,0-4.8c1.1-6.7,3-13.1,5.9-19.2c1.2,0.1,2.2-0.2,3-1.2
						c1.4-3.4,3-6.5,4.7-9.6c0.6,1.9,0.8,4,0.6,6c-1.4,4-2.4,8-3,12c23.8-47.3,61.6-75.2,113.6-83.6c57.1-4.8,102.8,16,136.8,62
						c8.3,13.1,14.9,27.1,19.6,42.1c2.5-1.2,4.7-2.8,6.6-4.8c-5.8-16.1-13.7-31-23.8-44.5c-22.7-35.5-54.3-57.9-95.2-67.3
						c-3.8-1.8-7.7-2.9-11.9-3c0.8-0.4,1.5-0.8,2.4-1.2c-1.2-1.2-2.4-2.4-3.6-3.6c4.3,0.8,8.7,0.6,13-0.6c-7.9-1.6-14.3-1.6-19,0
						c-1.4,1.8-1.4,3.4,0,4.8c-7.7-0.4-15.6,0-23.8,1.2c-1.9-0.2-3.6-1.2-4.7-3c2.3-1.5,4.6-2.6,7.2-3.6c18.6-2.6,37.1-3.6,56-3
						c10.3,1.3,20.7,2.6,30.9,4.3c-7.9-3.4-15.9-6.4-23.8-9c0-1.2-0.6-2-1.7-2.4c-4.9-1.2-10-2.5-14.9-4.3
						c-13.1-0.4-26.2-0.6-39.2-0.6c3.1-1.1,6-2.3,8.9-3.6c6.6,1.2,13,1.5,19.6,0.6c-8.1-0.2-16-1.5-23.8-3.6
						c2.6-1.9,5.3-3.4,8.3-4.3c0.8,0,1.2-0.4,1.2-1.2c19.1-0.6,38.2,0.6,57.1,3.6c4.8,1.9,10,2.9,15.5,3c-4.7-1.5-9.5-2.8-14.3-4.3
						c-11.4-2.5-22.9-4.1-34.5-4.8c-42-4-80.5,6.2-115.4,30.6c-11.1,8.9-21.7,18.9-31.9,29.2c-2.9,0.8-5.2,2.4-7.2,4.8
						c-1.3-1.9-1.5-3.8-0.6-6c1.8-1.7,3.7-3.5,5.3-5.4c-0.4-0.4-0.8-0.8-1.2-1.2c2.9-2.4,5.5-4.8,8.3-7.3c-1.6-0.5-3.2-1.1-4.7-1.8
						c-0.7,0.1-1.1,0.6-1.2,1.2c-14.7,15-24.8,32.8-30.9,53c-1.3,1.9-2.5,4.7-3.6,8.4c-1.1-1.5-1.5-3-1.2-4.8
						c-1.7,0.4-3.4-0.1-4.7-1.2c1.8-5.9,3.6-11.9,4.7-18c-0.1-0.7-0.6-1.1-1.2-1.2c0.4-2.2-0.1-3-1.2-2.4c-4.6,10.8-7.3,22-8.3,33.6
						c-1.5,0.8-3,0.8-4.2,0c-0.4,0.8-0.8,1.6-1.2,2.4c-0.7-2.2-2.2-3.7-4.2-4.8c-1.5,1.8-3.6,2.6-5.9,2.4c0,2,0,4,0,6
						c1.2,0,2.4,0,3.6,0c-1,3.6-1.8,7.3-3,10.8c-0.4-2-0.8-4-1.2-6c-1.3,3.5-2.3,7.2-3,10.8c-1.8,1.2-4,1.2-5.9,0
						c0.1-3.6-0.6-6-2.4-7.3c-1.3-1.3-2.5-1.3-3.6,0c1.1,4.4,1.5,8.8,1.2,13.2c4.7,0.4,9.5,0.7,14.3,1.2c-0.4-2.2,0-4.3,1.2-6
						c1.1,8.2,1.4,16.2,1.2,24.1c2.9,3,4.6,2.3,5.3-2.4c0.8,6.1,4.1,8.9,9.5,8.4c0.1,4.1-0.7,8.2-2.4,12c-0.8,1-1.7,1.3-3,1.2
						c-5.5-7.1-11-14.2-16-21.7c-0.8-1.5-1.4-1.5-1.7,0c9.7,18.7,20.8,36.3,33.3,53c-1.1,0.7-2.3,1.1-3.6,1.2
						c-7.5-8.9-15.3-17.8-23.2-26.5c4,8.6,9,16.6,15.5,24.1c0.8,0.8,0.8,1.6,0,2.4c-15.3-16-29.2-32.9-42.1-50.5c-1.9,2-3,4.4-3,7.3
						c28.8,39.6,59.5,77.8,92.2,114.3c-1.2,0-2.4,0-3.6,0c-0.2,2.4,0.1,4.6,1.2,6.6c-1.8,0-4-0.2-5.9-0.6
						c-14.3-18-28.4-36.4-42.1-55.3c18.4,38.7,43.9,71.7,76.8,99.3c1.1,0.6,2.3,0.7,3.6,0.6c0.4,5.9,3,10.7,7.7,14.4
						c1.1-0.6,2.2-1.5,3-2.4c-1.5-2.2-3.4-4.3-5.3-6c-1.2-1.8-1.7-3.8-1.7-6c1.4-0.8,3-1.3,4.7-1.2c-0.2,2.4,0,4.8,0.6,7.3
						c0.5-4.7,1.5-9.1,3-13.2c0.6,1.2,1.2,2.4,1.7,3.6c0.8,1.5,1.4,1.5,1.7,0c-2.4-3.8-4-7.9-4.7-12c-1-10.9,2.6-19.9,10.7-27.1
						c20.7-5.3,34.3,2.5,41,23.4c1.6,8.4,0.2,16.2-4.2,23.4c0.2,0.5,0.7,0.7,1.2,0.6c0.5,1.5,1.3,2.6,2.4,3.6
						c16.5,3.6,32.7,2.3,48.7-4.3c-1.5-0.4-3.2-0.8-4.7-1.2c-3.5-4.8-7.3-9-11.9-12.7c-1.4-1.8-2.6-3.7-3.6-6
						c-0.1-2.6,0.7-3,2.4-1.2c0.8-0.6,1.4-1.5,1.7-2.4c5.1,0,9.7,1,13.6,3c-1.4,1.5-1.4,2.8,0,4.3c0.4-0.8,0.8-1.6,1.2-2.4
						c1.1,0.7,2.3,1.2,3.6,1.2c3.2,3.1,6.4,6.4,9.5,9.6c3.1,5.5,6.7,10.7,10.7,15.7c1,1.1,2.2,1.5,3.6,1.2c-0.2,1.7,0,3.2,0.6,4.8
						c6.8,8.3,13.3,16.7,19.6,25.2c4.3-5,8.9-9.9,13.6-14.4c4.1,5.8,8.5,10.9,13.6,15.7c4.7-4,9.1-8.4,13-13.2
						c-3.8-6.1-8.2-11.7-13-16.8c-2.2,1-2.8,2.6-1.7,4.8c2.9,3.5,5.3,7.2,7.7,10.8c-2.3,1.8-4.3,3.7-5.9,6
						c-4.3-4.3-8.3-8.8-11.9-13.8c3.2-4,6.4-8,9.5-12c-2.3-5.3-5.8-9-10.7-11.4c-2.8,3.4-5.7,6.6-8.9,9.6c-3-3.8-5.9-7.6-8.9-11.4
						c4.2-2.8,7.7-6.1,10.7-10.2c-3.1-5.3-6.7-10.3-10.7-15c-1.2-0.8-2.4-0.8-3.6,0c-2.6,3-5.5,5.6-8.9,7.8
						c1.6-4.1,4.3-7.7,8.3-10.8c0.8-1,0.6-1.8-0.6-2.4c-3.6,3-7,6.1-10.1,9.6c-2.3-2.3-4.1-4.9-5.3-7.8c2.2-3.8,5.1-6.8,8.9-9
						c0.8-1.9,0.5-3.5-1.2-4.8c-5.1,4.4-10.3,8.8-15.5,13.2c-0.8,1.1-0.6,1.9,0.6,2.4c-0.5,2.3-1.6,4.1-3.6,5.4
						c2.3-0.1,4.3-1.1,5.9-3c2.2,2.4,4.2,5,5.9,7.8c-3.1,3.7-6.7,6.7-10.7,9c-5.8-3.5-7.3-8.2-4.7-13.8c-0.4-0.6-0.8-1.2-1.2-1.8
						c-2.5,2.5-5.2,4.6-8.3,6c-3.4-1.9-4-4.4-1.7-7.3c0.4-5.6,0.8-11.2,1.2-16.8c0.4,0.8,0.8,1.6,1.2,2.4c1.4-1.3,1.9-2.9,1.7-4.8
						c1,1.8,1.5,3.7,1.7,6c0.4-5.6,0.8-11.2,1.2-16.8c1.5,2.5,2.5,5.4,3,8.4c-0.2,2.9,0,5.6,0.6,8.4c1.9-5.6,2.3-11.3,0.6-16.8
						c0-1.2,0-2.4,0-3.6c1.5-1.2,1.5-2.4,0-3.6c0.6-1,1.3-1.3,2.4-1.2c5.3-3.4,10.5-7.1,15.5-10.8c1.5,3.5,3,7.2,4.2,10.8
						c0.7-2.9,0.5-5.6-0.6-8.4c0.7,0.1,1.3,0.5,1.7,1.2c0.4-1.1,1-1.9,1.7-2.4c2.2,5.6,3.6,11.7,4.2,18c0.6-4.8,0.8-9.6,0.6-14.4
						c1.5-1.6,1.5-3.1,0-4.8c1.1,0,1.8-0.6,2.4-1.8c-0.7-1.7-1.2-3.5-1.2-5.4c2.5-1,4.8-1,7.2,0c-0.1,1.3,0,2.5,0.6,3.6
						c3.1-2.5,6.6-4.4,10.1-6c1.5-0.8,3-0.8,4.2,0c1.2-1.2,2.4-2.4,3.6-3.6c1.1,1.3,1.9,2.5,3,3.6c1.3,2.2,2.3,4.6,3,7.3
						c0.2-1.2,0.4-2.4,0.6-3.6c-1-4.4-2.2-8.9-3.6-13.2c2.6,2.5,4.3,5.8,5.3,9.6c0.4,4,0.8,8,1.2,12c0.6-1.6,0.8-3.1,0.6-4.8
						c1.9-6.5,3.5-6,4.2,1.2c0.4-1.6,0.8-3.2,1.2-4.8c0.6,3.1,0.8,6.4,0.6,9.6c2.4,0.4,4.2-0.5,5.3-2.4c0.4,2.3,1.3,4.4,3,6
						c-0.2,0.7-0.6,1.3-1.2,1.8c1.1,0.4,1.8,1,2.4,1.8c-4.7,0.8-9.5,1.5-14.3,1.8c-7.2,5.4-14.1,11.2-20.8,17.4
						c-1.5,2.8-3.6,5.2-5.9,7.3c-0.8,0.8-0.8,1.6,0,2.4c6.7-4.4,12.6-9.5,17.8-15.7c-3.6,7.2-8.3,13.5-14.3,19.2
						c-0.8,1-0.6,1.8,0.6,2.4c5.9-4.8,11.9-9.6,17.8-14.4c-4.2,6.7-8.9,13.2-14.3,19.2c8.7-4.1,15.9-10.4,21.9-19.2
						c0.4,1.7,0,3.2-1.2,4.8c-5.1,7.3-10.7,13.9-16.6,20.4c-0.2,2.3,0.6,4.4,2.4,6c17.7-15.7,30.7-34.8,38.7-57.2
						c-2.2-0.1-4.1,0.5-5.9,1.8c-0.8-0.5-1.4-1.3-1.7-2.4c-1.8,1.1-2.9,0.4-3-2.4c0.5-2.6,2.2-4.3,4.7-4.8c0.1,0.6,0.5,1.1,1.2,1.2
						c6-2.6,11.6-5.9,16.6-9.6c1.9-0.2,3.6-1,4.7-2.4c3.2-1.2,6.4-2.4,9.5-3.6c1.4,0.1,2.5,0.8,3,2.4c1.9-4.3,3.5-8.5,4.2-13.2
						c-3.6-4.3-4.3-9-2.4-14.4c2.4,1,2.8,2.4,1.2,4.3c1.4,1.3,3,2.3,4.7,3c-0.1,0.8,0,1.7,0.6,2.4c2.5-2.3,4.6-4.7,6.6-7.3
						c-0.8,3.2-1.5,6.4-2.4,9.6c5.9-0.4,7.2,1.7,3.6,6c-2.4,3.4-5.3,6.2-8.9,8.4c-7.7,41.8-24.8,79-51.1,111.9
						c-0.8,1.2-0.8,2.4,0,3.6c3.7,3.7,5.5,8.2,5.9,13.2c-12.4,13-24.9,25.2-38,37.2c-2.6-2.9-5.1-5.6-7.7-8.4
						c-52.5,45.3-113.1,72.6-182,81.8c4.8,4.4,10.2,7.9,16,10.8c18.8-3,37.1-7.3,55.4-12.7c18.9-7.3,37.6-15,56-22.8
						c-31.2,19.9-64.9,33.6-101.1,40.9c1.6,2.2,4,3.6,6.6,4.3c19.5-4.9,38.7-10.3,57.7-16.2c-14.9,7.7-30.3,13.9-46.3,18.7
						c0.5,3,2.6,5,6.6,6c42.1-11.4,81.2-29.5,117.2-54.1c4.3,0.1,8.1-1.1,11.3-3.6c1,0.4,1.9,0.8,3,1.2c-1.5,1.2-1.5,2.4,0,3.6
						c-2.4,0.5-2.8,1.7-1.2,3.6c1.6-0.6,2.5-1.8,2.4-3.6c0.7-0.1,1.3-0.5,1.7-1.2c-0.1,1.6,0,3,0.6,4.3c-0.8,1.3-1.4,2.6-1.7,4.3
						c-3.7-1.3-3.8-0.6-0.6,2.4c1.5-0.7,2.5-1.9,3-3.6c1.7,2.3,3.1,4.7,4.2,7.3c-27.6,21.6-58.1,38.3-91.6,49.9
						c20.7-5.3,40.6-13.2,59.5-24.1c52.1-29.9,94.7-70.1,127.9-120.8c0.4,1.7,0,3.2-1.2,4.8c-8.7,13.1-17.6,25.8-26.8,38.5
						c17.6-18.7,33.1-39.1,46.3-61.4c1.6-2.2,3.1-4.6,4.2-7.3c0.8-1.5,1.4-1.5,1.7,0c-43,80.2-105.4,139.8-186.7,178.9
						c10.3,0.8,20.6,0.8,30.9,0c23.3-12.8,45.4-27,66.6-42.6c1.5,0,3.2,0,4.7,0c0-1.2,0-2.4,0-3.6c3.5,1.6,6.7,1.2,9.5-1.2
						c1.9,1.1,3.5,2.6,4.2,4.8c0.6-0.7,0.7-1.6,0.6-2.4c1.1,0.7,2.3,1.1,3.6,1.2c-0.5,4.4-2.9,7.3-7.2,8.4c0.2,0.7,0.6,1.3,1.2,1.8
						c4.9-1.2,10.2-2.6,15.5-4.3c0-1.2,0-2.4,0-3.6c1.6-0.2,3.2,0,4.7,0.6c-1.4,2.2-1,4.3,1.2,6c-1.4,2.3-3,4.6-4.7,6.6
						c1.3,1,2.2,2.2,2.4,3.6c-7.1,5.6-14.6,10.7-22.6,15c35.4-10.8,66.2-29.5,92.8-56c1.7,0,3.2-0.8,4.2-2.4
						c0.4,1.8,1.2,3.5,2.4,4.8c2.9-2.6,5.3-5.4,7.7-8.4c4.7-4.1,9.1-8.4,13-13.2c1.2,0.1,2.2-0.2,3-1.2c0.2,1.3,0.8,2.5,1.7,3.6
						c1.3-3,3.6-4.9,6.6-6c1.6,1.3,3.4,1.3,4.7,0c0.6,1.1,0.7,2.3,0.6,3.6c1.2,0,2.4,0,3.6,0c0,2,0,4,0,6
						c-50.7,59.3-114.8,92.8-192.8,100.4c-123.7,6.2-217.9-43.7-282.6-149.8C2.7,356.8-1.3,272.3,33.2,186
						C78.9,89.6,154,31.6,258.3,12.3C372.9-0.5,465.1,39.1,535,130.8c3.6,5.9,7.3,11.8,11.3,17.4C506,174.7,465.5,201,425,227
						C426.4,228.8,427.6,230.9,428.5,233z"/>
				</g>
				<g>
					<path class="st3" d="M320.3,31c-5.8-0.4-11.3,0-16.6,1.2c-1.5,0-2.8-0.6-3.6-1.8C306.9,29.3,313.7,29.4,320.3,31z"/>
				</g>
				<g>
					<path class="st4" d="M286.9,41.8c11.7,0.7,23.1,2.3,34.5,4.8c0,0.8-0.4,1.2-1.2,1.2c-18.9-3-37.9-4.3-57.1-3.6
						c0.5-0.8,1.3-1.5,2.4-1.8C272.6,41.8,279.8,41.5,286.9,41.8z"/>
				</g>
				<g>
					<path class="st5" d="M286.9,41.8c-7.2-0.2-14.3,0-21.4,0.6c-1.1,0.4-1.8,1-2.4,1.8c0,0.8-0.4,1.2-1.2,1.2
						c-49.9,5.2-91.8,26.3-125.5,63.8c0.6-2.4,1.5-4.8,3-7.3c10.1-10.4,20.8-20.3,32.1-29.5C206.4,48,244.8,37.7,286.9,41.8z"/>
				</g>
				<g>
					<path class="st6" d="M321.5,46.5c4.7,1.5,9.5,2.8,14.3,4.3c-5.4-0.1-10.6-1.1-15.5-3C321.1,47.8,321.5,47.4,321.5,46.5z"/>
				</g>
				<g>
					<path class="st7" d="M382.1,62.2c2.2,3.1,4.8,5.6,8.3,7.8c-4.1,1.7-6.2,4.7-6.6,9c-1.5-5.2-4.8-8.2-10.1-9
						C379.1,70,381.9,67.5,382.1,62.2z"/>
				</g>
				<g>
					<path class="st8" d="M330.9,62.2c0.2-0.7,0.8-1.1,1.7-1.2c26.2,9.9,47.8,25.8,64.3,48C378.3,88.5,356.4,72.9,330.9,62.2z"/>
				</g>
				<g>
					<path class="st9" d="M261.9,45.4c-3,0.8-5.7,2.3-8.3,4.3c7.7,2.2,15.8,3.4,23.8,3.6c-6.6,0.8-13,0.6-19.6-0.6
						c-2.9,1.3-5.8,2.5-8.9,3.6c13,0,26,0.2,39.2,0.6c4.8,1.7,9.9,3,14.9,4.3c1.2,0.4,1.7,1.2,1.7,2.4
						c-73.6-13.5-132,10.6-175.4,72.2c-9.5,15.4-15.3,31.8-17.2,49.9c0,1.3,0.5,2.3,1.2,3c0,1.6,0,3.2,0,4.8c-1.6-0.2-3.2,0-4.7,0.6
						c1.1,2.3,0.6,4.4-1.2,6.6c1,6.8,2.2,13.7,3.6,20.4c-4.6-11.4-7.6-23.4-8.9-36.1c-0.4-13.6-0.8-27.4-1.2-40.9
						c-8.8,29.6-5.4,57.6,10.1,84.2c-2.8-2.2-4.8-5-6.6-8.4c-1.3,2.8-3.1,3.1-5.3,1.2c-3.7,3-5.4,1.8-5.3-3.6c-0.5,2-1.1,4.1-1.7,6
						c-1.5-0.8-2.8-2-3.6-3.6c1.2,0.1,2.2-0.2,3-1.2c1.6-3.8,2.5-7.9,2.4-12c-5.4,0.5-8.7-2.3-9.5-8.4c-0.7,4.7-2.5,5.4-5.3,2.4
						c0.2-7.8-0.1-16-1.2-24.1c-1.2,1.8-1.5,3.8-1.2,6c-4.7-0.5-9.5-0.8-14.3-1.2c0.4-4.4-0.1-8.9-1.2-13.2c1.1-1.3,2.3-1.3,3.6,0
						c-1.5,3.8-1,7.4,1.7,10.8c0.6-1.1,0.7-2.3,0.6-3.6c1.9,1.2,4.1,1.2,5.9,0c0.7-3.7,1.6-7.3,3-10.8c0.4,2,0.8,4,1.2,6
						c1.1-3.6,1.9-7.3,3-10.8c-1.2,0-2.4,0-3.6,0c0-2,0-4,0-6c2.4,0.2,4.3-0.6,5.9-2.4c1.9,1.1,3.5,2.6,4.2,4.8
						c0.4-0.8,0.8-1.6,1.2-2.4c1.2,0.8,2.6,0.8,4.2,0c-0.2,2,0,4.1,0.6,6c1.4-13.1,4.3-25.3,8.9-37.2c0.6,0.1,1.1,0.5,1.2,1.2
						c-1.2,6.1-2.9,12.1-4.7,18c1.4,1.1,3,1.6,4.7,1.2c-0.4,1.8,0.1,3.4,1.2,4.8c1.1-3.7,2.3-6.5,3.6-8.4
						c-1.8,7.2-2.5,14.3-1.7,21.7c6.8-26.9,17.6-51.7,32.7-74.6c0.1-0.6,0.5-1.1,1.2-1.2c1.5,0.7,3.1,1.3,4.7,1.8
						c-2.8,2.4-5.4,4.8-8.3,7.3c0.4,0.4,0.8,0.8,1.2,1.2c-1.6,1.9-3.5,3.7-5.3,5.4c-1,2.2-0.7,4.1,0.6,6c1.8-2.4,4.3-4,7.2-4.8
						c-1.4,2.4-2.4,4.8-3,7.3C170.2,71.7,212,50.5,261.9,45.4z"/>
				</g>
				<g>
					<path class="st10" d="M317.9,80.2c2.2-0.4,3.8,0.5,4.7,2.4c-1,1.9-2.6,2.8-4.7,2.4C317.9,83.5,317.9,81.8,317.9,80.2z"/>
				</g>
				<g>
					<path class="st11" d="M340.5,83.8c1.2,0,2.4,0,3.6,0c0,1.6,0,3.2,0,4.8c-1.2,0-2.4,0-3.6,0C340.5,87.1,340.5,85.4,340.5,83.8z"
						/>
				</g>
				<g>
					<path class="st7" d="M304.8,63.3c7.9,2.6,15.9,5.6,23.8,9c-10.2-1.6-20.6-2.9-30.9-4.3c-68.2-6.8-122.9,17.5-163.6,73.4
						c-5.5,8.9-10.6,18-14.9,27.6c-3,6.1-4.8,12.6-5.9,19.2c-0.7-0.7-1.2-1.7-1.2-3c1.9-18,7.7-34.6,17.2-49.9
						C172.7,74,231.2,49.9,304.8,63.3z"/>
				</g>
				<g>
					<path class="st9" d="M282.1,80.2c40.8,9.4,72.4,31.8,95.2,67.4c-0.6,2.5-1.3,4.9-2.4,7.3c-34-46.1-79.7-66.8-136.8-62
						c-52,8.4-89.8,36.3-113.6,83.6c0.6-4,1.5-8,3-12c21.5-46.9,57.7-75.2,108.3-84.9C251.3,78.9,266.7,79,282.1,80.2z"/>
				</g>
				<g>
					<path class="st12" d="M414.3,100.7c6.6,1,8.2,4.3,4.7,9.6c-4.3,2.3-7.2,1.1-8.3-3.6C411,104,412.1,102,414.3,100.7z"/>
				</g>
				<g>
					<path class="st13" d="M364.3,100.7c1.6,2.3,3.7,4.6,5.9,6.6c-2.6,1.5-4.3,3.7-5.3,6.6c-0.7-3.7-3-5.9-6.6-6.6
						C361.8,106.4,363.7,104.1,364.3,100.7z"/>
				</g>
				<g>
					<path class="st14" d="M303.7,32.1c5.3-1.2,10.8-1.6,16.6-1.2C357,32.1,390,44.1,419,66.4c8.9,8,17.6,16.2,26.1,24.7
						c-11.2-13.6-23.6-26.2-36.8-37.9c3.4,0.5,6.5,1.7,9.5,3.6c38.3,24.9,65.9,58.6,83.3,101c-3.7,2.8-7.3,5.4-11.3,7.8
						c-1.9-5.6-4.5-10.8-7.7-15.7c1.4,5,3.1,10.1,4.7,15c-1,2.2-2.6,3.7-4.7,4.8c-1.1,0.7-2.2,0.6-3-0.6
						C450.9,83.9,392.4,38.2,303.7,32.1z"/>
				</g>
				<g>
					<path class="st15" d="M455.8,104.2c2.2,1,3.4,2.5,3.6,4.8C457.4,108.2,456.1,106.6,455.8,104.2z"/>
				</g>
				<g>
					<path class="st16" d="M445.2,91c4.8,3.4,8.4,7.8,10.7,13.2C451.5,100.6,447.9,96.1,445.2,91z"/>
				</g>
				<g>
					<path class="st17" d="M459.4,109.1c1.6,0.6,2.5,1.8,2.4,3.6C460.1,112.1,459.3,110.9,459.4,109.1z"/>
				</g>
				<g>
					<path class="st7" d="M138.3,86.2c-15.2,22.8-25.9,47.8-32.7,74.6c-0.7-7.3-0.1-14.5,1.7-21.7
						C113.4,118.9,123.6,101.2,138.3,86.2z"/>
				</g>
				<g>
					<path class="st9" d="M376.2,204.1c-13.5,7.2-26.7,15.1-39.2,24.1c-1-1.1-1.5-2.3-1.7-3.6c-2.9,5.6-7.1,9.5-12.5,11.4
						c2.2-4.4,3.6-9.1,4.2-13.8c-4.3,7.2-9.6,13.1-16,18c-0.4-0.2-0.8-0.4-1.2-0.6c5.1-5.8,8.1-12.4,8.9-19.8
						c-6,11.8-15,19.9-26.8,24.7c10.6-7.2,16.6-16.9,18.5-29.5c-2.5,4.6-5.2,9-8.3,13.2c-2.2,2.8-4.6,4.7-7.7,6
						c-1-0.4-1.4-1.2-1.2-2.4c4.2-4.4,6.4-9.6,6.6-15.7c-2.8,5-6.4,9.5-10.7,13.2c7.7-16.1,4.7-30-8.9-41.5
						c-18.4-9-34.8-6.4-49.3,7.8c0.6-3.1,2.4-5.8,5.3-7.8c4.3-3.5,9.1-6.2,14.3-8.4c-12.4,1.6-22.9,7.1-31.5,16.2
						c1.8-4.4,4.8-8.2,8.9-11.4c4.2-3.1,8.5-5.9,13-8.4c-14,2.9-25.6,9.9-35.1,21.1c6.5-10.2,15-18.4,25.5-24.7
						c-6.2,1.3-12.2,3.7-17.8,7.3c-5.2,3.5-10.1,7.3-14.9,11.3c-0.8-0.8-0.8-1.6,0-2.4c7.8-8.4,16.7-15.5,26.8-21.1
						c-12.5,3.2-23.5,9.4-32.7,18.7c1.4-4,4.1-7.3,7.7-10.2c5.1-4.6,10.7-8.6,16.6-12c-10.6,2.8-20.1,7.7-28.5,15
						c4.6-7.7,11.4-13.9,20.2-18.7c-9.6,2.9-18.6,7.4-26.8,13.8c-0.8-0.8-0.8-1.6,0-2.4c7.5-7.6,15.6-14.2,24.4-19.8
						c-11,3.7-21.3,9.1-30.9,16.2c-1.2-0.6-1.2-1.3,0-2.4c8.5-9.5,18.5-17.3,29.7-23.4c1.4-0.8,1.4-1.5,0-1.8
						c-12.2,5.9-23.6,12.8-34.5,20.4c-1.2-0.6-1.4-1.5-0.6-2.4c3.8-4.3,7.9-8,12.5-11.4c-7.9,3.2-15.6,7.7-22.6,13.2
						c-1.5,1.2-3.1,1.6-4.7,1.2c19.1-21.2,42.6-35.2,70.2-42.1c68.1-10.8,117.8,14.7,149.3,76.4
						C375.5,198.4,376.2,201.3,376.2,204.1z"/>
				</g>
				<g>
					<path class="st18" d="M461.8,112.6c2.9,2.9,5.4,6.1,7.7,9.6c1.5,2.3,2.4,4.7,2.4,7.3C468.2,124,464.8,118.4,461.8,112.6z"/>
				</g>
				<g>
					<path class="st19" d="M438,117.6c4.3,2.3,4.5,4.7,0.6,7.3C434.9,122.8,434.7,120.4,438,117.6z"/>
				</g>
				<g>
					<path class="st20" d="M466.6,86.2c19.5,17.2,36.7,36.4,51.7,57.8c0.8,1.6,0.6,3-0.6,4.3c-1.6,0.6-3.1,1.6-4.2,3
						C499.4,128.4,483.8,106.6,466.6,86.2z"/>
				</g>
				<g>
					<path class="st21" d="M570,124.8c8.4,0.2,11.4,4.4,8.9,12c-4.2,4.3-8.8,4.7-13.6,1.2c-3.8,3.5-8.2,5.8-13,6.6
						c4.1-2.2,7.8-4.8,11.3-7.8C563.5,131.5,565.7,127.3,570,124.8z"/>
				</g>
				<g>
					<path class="st22" d="M297.7,68.2c-18.8-0.6-37.3,0.4-56,3c-2.5,1-4.8,2.2-7.2,3.6c1.2,1.8,2.8,2.8,4.7,3
						c8.2-1.2,16-1.6,23.8-1.2c1.2,0,2.4,0,3.6,0c0.5-3-0.7-4.6-3.6-4.8c4.7-1.6,11.1-1.6,19,0c-4.3,1.2-8.8,1.5-13,0.6
						c1.2,1.2,2.4,2.4,3.6,3.6c-0.8,0.4-1.5,0.8-2.4,1.2c4.2,0.1,8.1,1.2,11.9,3c-15.5-1.2-30.9-1.3-46.3-0.6
						c-50.5,9.6-86.7,37.9-108.3,84.9c0.2-2,0-4.1-0.6-6c-1.7,3.1-3.4,6.2-4.7,9.6c-0.8,1-1.7,1.3-3,1.2c4.3-9.6,9.3-18.8,14.9-27.6
						C174.8,85.7,229.3,61.4,297.7,68.2z"/>
				</g>
				<g>
					<path class="st23" d="M263.2,71.7c2.9,0.2,4.1,1.8,3.6,4.8c-1.2,0-2.4,0-3.6,0C261.7,75.2,261.7,73.6,263.2,71.7z"/>
				</g>
				<g>
					<path class="st24" d="M482,150.1c-2.4-2.3-3.4-5.2-3-8.4C480.7,144.1,481.7,147.1,482,150.1z"/>
				</g>
				<g>
					<path class="st25" d="M391.5,146.4c4.5,1.6,4.5,2.8,0,3.6C391.5,148.8,391.5,147.6,391.5,146.4z"/>
				</g>
				<g>
					<path class="st26" d="M460.6,147.6c4.1,0.8,4.3,2.4,1.2,4.8C460.7,150.9,460.3,149.4,460.6,147.6z"/>
				</g>
				<g>
					<path class="st7" d="M101.4,122.4c-4.5,11.9-7.5,24.4-8.9,37.2c-0.6-1.9-0.8-4-0.6-6c1-11.7,3.7-22.8,8.3-33.6
						C101.4,119.4,101.7,120.2,101.4,122.4z"/>
				</g>
				<g>
					<path class="st27" d="M377.3,147.6c10,13.5,17.9,28.3,23.8,44.5c-1.7,2-4.1,3.6-6.6,4.8c-4.7-15-11.3-28.9-19.6-42.1
						C376.1,152.5,376.8,150.2,377.3,147.6z"/>
				</g>
				<g>
					<path class="st28" d="M408.3,122.4c0.7-1.6,1.4-1.6,2.4,0c17.1,19,29,41.2,35.7,66.2c-0.1,1.1-0.5,2.2-1.2,3
						c-2.2,0.4-4,1.3-5.3,3C433.8,168.2,423.2,144.2,408.3,122.4z"/>
				</g>
				<g>
					<path class="st7" d="M332.2,146.4c1.6,5,3.5,10.3,5.3,15.7c4.2,4.4,9.1,7.3,14.9,9c-12.4,2-18.9,9.5-19.6,22.2
						C332,180,325,172.6,312,171c4.9-1.9,10-4.1,14.9-6.6C329.9,158.9,331.7,152.8,332.2,146.4z"/>
				</g>
				<g>
					<path class="st29" d="M66.8,175.3c0.1,1.3,0,2.5-0.6,3.6c-2.8-3.4-3.4-7.1-1.7-10.8C66.3,169.3,67,171.6,66.8,175.3z"/>
				</g>
				<g>
					<path class="st30" d="M163.2,189.7c-0.6-2.4-1.9-4.4-4.2-6c0.5,2.8,1.8,5.2,4.2,7.3c0.7,1.6,1.8,2.8,3.6,3.6
						c4.3-1.9,8.2-4.4,11.9-7.3c8.8,10.2,16.7,21,23.8,32.5c-4,2.8-7.9,5.6-11.9,8.4c0.4,0.4,0.8,0.8,1.2,1.2
						c4.2-2.9,8.5-5.2,13-6.6c4.3,4.8,8.4,10.2,11.9,15.7c-4.5,2.4-8.4,5.4-11.9,9c0.4,0.4,0.8,0.8,1.2,1.2c4-3.6,8.2-5.8,13-6.6
						c3.7,5.5,7.7,10.9,11.9,16.2c-3.6,3.2-7.2,6.4-10.7,9.6c1.9,4.9,5.2,8.9,9.5,12c1.8-1.3,3.7-3,5.3-4.8c-1.1-4-2.9-7.8-5.3-11.4
						c0.1-1.6,1-2.5,2.4-3c4.1,4.9,7.6,10.2,10.7,15.7c-4.7,3.6-9.5,7.3-14.3,10.8c-4.7-5.2-9.5-10.4-14.3-15.7
						c-3.7,2.4-7.2,4.9-10.7,7.8c-1.5,1.2-3.1,1.6-4.7,1.2c-4.2-5.6-8.2-11.4-11.9-17.4c1-1.1,2.2-1.9,3.6-2.4
						c4,4.8,7.9,9.6,11.9,14.4c2.6-2.3,5.3-4.4,8.3-6c1.3-1.1,1.4-2.3,0.6-3.6c-4.1-4.7-7.7-9.5-11.3-14.4c-5.1,3.5-10.3,6.5-15.5,9
						c-7.1-9.6-14.1-19.1-21.4-28.2c-10.7-14.1-21.1-28.5-30.9-43.3c8.5-6.5,17.7-12.1,27.4-16.8c2.2-1.7,4.5-2.3,7.2-1.8
						c3.4,5.2,7,10.2,10.7,15c-3.6,2.4-7.2,4.8-10.7,7.3C165.6,191.2,164.4,190.4,163.2,189.7z"/>
				</g>
				<g>
					<path class="st31" d="M292.9,231.8c-4.9,4.4-10.6,8.3-16.6,11.4c7-1.1,12.9-4.1,17.8-9c3.1-1.3,5.5-3.2,7.7-6
						c3.1-4.3,5.8-8.6,8.3-13.2c-1.7,12.6-7.8,22.3-18.5,29.5c11.8-4.7,20.7-13,26.8-24.7c-0.8,7.4-3.8,14.1-8.9,19.8
						c0.4,0.2,0.8,0.4,1.2,0.6c6.5-4.9,11.8-10.9,16-18c-0.6,4.7-1.9,9.4-4.2,13.8c5.4-1.9,9.6-5.8,12.5-11.4
						c0.2,1.3,0.8,2.5,1.7,3.6c12.6-8.9,25.6-16.9,39.2-24.1c0.1,1.3,0,2.5-0.6,3.6c-4.1,1.7-3.8,2.4,0.6,2.4
						c-0.5,0.8-1.3,1.5-2.4,1.8c10.3,1.9,19.3,6.5,26.8,13.8c2.4-2.5,4.9-3.7,7.7-3.6c-1.9,1.6-4,3.2-5.9,4.8
						c3,4.4,5.9,8.8,8.9,13.2c2.9-3,6.4-4.8,10.1-5.4c-3.2,2.4-6.4,4.8-9.5,7.3c2.3,4.4,4.1,9,5.3,13.8c3.1-1.9,5.9-4.4,8.3-7.3
						c0.6-4.1,0.5-8-0.6-12c1.2-0.5,1.2-1.3,0-2.4c1-1.1,2.2-1.5,3.6-1.2c40.7-25.5,80.6-52,120.2-79.5c36.2,60,48.7,125,37.4,194.9
						c-9.4,53.4-31.4,100.3-66,140.8c0-2,0-4,0-6c-1.2,0-2.4,0-3.6,0c0.1-1.3,0-2.5-0.6-3.6c-1.4,1.3-3.1,1.3-4.7,0
						c-3,1.1-5.2,3-6.6,6c-1-1.1-1.5-2.3-1.7-3.6c-0.8,1-1.7,1.3-3,1.2c38.4-46.3,60.5-99.7,66.6-160.1c1.4-11.1,1.5-22.2,0.6-33.6
						c-0.5,7.6-1.1,15.4-1.7,22.8c-0.1,4.4-0.5,8.9-1.2,13.2c-3,2.4-4.7,5.6-5.3,9.6c0.8-20.4,1.8-40.9,3-61.4
						c-3.1-2.3-3.1-4.6,0-6.6c-1.1-0.6-2.3-0.7-3.6-0.6c-1-10.2-3-20.2-5.9-30.1c0-0.8,0-1.6,0-2.4c-1.9-11.1-4.9-21.9-8.9-32.5
						c-2.4-7.4-5.7-14.2-10.1-20.4c-1.9,1.2-3.6,2.8-4.7,4.8c6,16.6,10.8,33.4,14.3,50.5c1.1,10.4,1.9,20.8,3,31.2
						c1.9,1.1,4.2,1.5,6.6,1.2c-0.6,3.1-2.6,4.4-5.9,3.6c0,9.2,0,18.5,0,27.6c-1.7,10.9-3,22.2-3.6,33.6
						c-8.7,43.3-25,83.5-49.3,120.3c-25.5,34.9-56,64.5-91,89c-0.2-1.5-1.1-2.6-2.4-3.6c1.7-2,3.4-4.4,4.7-6.6
						c-2.2-1.8-2.6-3.8-1.2-6c-1.5-0.6-3.1-0.8-4.7-0.6c0,1.2,0,2.4,0,3.6c-5.2,1.6-10.5,3-15.5,4.3c-0.6-0.5-1-1.1-1.2-1.8
						c4.3-1.2,6.7-4,7.2-8.4c3-2,2.9-4.1-0.6-6c-2.4,0.6-3.5,2.3-3,4.8c0.1,0.8,0,1.7-0.6,2.4c-0.7-2.2-2.2-3.7-4.2-4.8
						c-2.9,2.4-6,2.8-9.5,1.2c0,1.2,0,2.4,0,3.6c-1.5,0-3.2,0-4.7,0c29.4-24.7,55.8-52.3,79.2-83c45.3-65,65.2-136.4,59.5-213.9
						c-0.6-7.1-1.7-13.7-3.6-20.4c-2.6-0.7-4.9,0.1-7.2,2.4c-0.4,12-0.8,24.1-1.2,36.1c-0.8-10.2-1.7-20.4-3-30.6
						c-0.4-0.6-0.8-1.2-1.2-1.8c-2.8,1.3-5.3,3-7.7,4.8c1.8,69-15.8,132.4-53,190.1c-25.4,38.7-56.4,72.3-92.8,101
						c-1.1-2.5-2.4-4.9-4.2-7.3c-0.5,1.7-1.4,2.9-3,3.6c-3.2-3-3.1-3.7,0.6-2.4c0.4-1.6,1-2.9,1.7-4.3c-0.6-1.2-0.7-2.6-0.6-4.3
						c-0.5,0.7-1.1,1.1-1.7,1.2c-0.4,0-0.8,0-1.2,0c-1.5-1.2-1.5-2.4,0-3.6c-1-0.4-1.9-0.8-3-1.2c-3.2,2.5-7.1,3.7-11.3,3.6
						c57.7-39.6,100-92.2,126.6-157.6c12.5-33,18.3-67.1,17.2-102.3c-2.3,1.5-4.5,3-6.6,4.8c-4.7,45.4-18.8,87.5-42.1,126.3
						c10.5-20.4,19-41.8,25.5-63.8c1.8-8.3,3.4-16.7,4.2-25.2c1.8-5.8,2.5-11.8,1.7-18c-1.2,4.8-2.3,9.6-3,14.4
						c-7.2,31-19.3,59.9-36.2,86.6c12.8-27.2,22-55.6,27.9-85.5c0-1.1-0.5-1.9-1.2-2.4c3.6-4.4,2.4-6.4-3.6-6
						c0.8-3.2,1.5-6.4,2.4-9.6c0.2-1.7,0-3.2-0.6-4.8c-3.5,2.4-5.5,5.6-6.6,9.6c-1.7-0.7-3.4-1.7-4.7-3c1.5-1.8,1.2-3.2-1.2-4.3
						c-1.8,5.4-1.2,10.2,2.4,14.4c-0.7,4.7-2.2,9-4.2,13.2c-0.5-1.6-1.4-2.3-3-2.4c6.4-25.3-1.5-44.9-23.8-58.4
						c-6.4-2.8-12.8-3.4-19-1.8c-1.7-0.1-3,0.7-3.6,2.4c-10.2,5.5-20.1,11.8-29.7,18.7c12.8,2.8,22.5,9.7,29.1,21.1
						c7.2,12.4,9.5,25.6,7.2,39.6c3.5-6.7,4.8-13.9,4.2-21.7c5.2-2,10.3-4.4,15.5-7.3c0.7,0.1,1.1,0.6,1.2,1.2
						c-5.2,3-10,6.6-14.3,10.8c0.4,0.4,0.8,0.8,1.2,1.2c4.3-3.2,9.1-5.4,14.3-6.6c-1.1,0.8-1.7,1.8-2.4,3c-3.7,1.7-7.2,3.7-10.7,6
						c-1.5,0.8-1.5,1.6,0,2.4c3.7-2.9,7.6-4.7,11.9-5.4c-4,3.7-8.2,6.7-13,9c-2.6,0.6-4.3,2.2-4.7,4.8c0.1,2.8,1.1,3.5,3,2.4
						c0.4,1.1,1,1.9,1.7,2.4c-1.7,1.5-3.7,2.6-5.9,3.6c-0.5-0.8-1.3-1.5-2.4-1.8c0.6-0.5,1-1.1,1.2-1.8c-1.6-1.7-2.6-3.7-3-6
						c-1.2,1.9-3,2.8-5.3,2.4c0.2-3.2,0-6.5-0.6-9.6c-0.4,1.6-0.8,3.2-1.2,4.8c-0.7-7.3-2.2-7.7-4.2-1.2c0.4-5.8-0.2-11.3-1.7-16.8
						c-1.7-3-3.6-3-5.3,0c-1,3-1,6.1,0,9.6c-1-1.1-1.8-2.3-3-3.6c-1.2,1.2-2.4,2.4-3.6,3.6c-1.2-0.8-2.6-0.8-4.2,0
						c1.8-1.8,4-3.6,5.9-5.4c-0.6-0.2-1.2-0.4-1.7-0.6c-5.1,2.6-10.1,5.5-14.9,8.4c-2.3-1-4.6-1-7.2,0c0,1.9,0.5,3.7,1.2,5.4
						c-0.5,1.2-1.3,1.8-2.4,1.8c1.5,1.7,1.5,3.2,0,4.8c-4.2-13.9-12.5-24.7-24.9-31.8c-2.3-1.2-4.6-1.6-7.2-1.2
						c13,6.1,22,16,27.4,29.5c-0.8,0.5-1.4,1.3-1.7,2.4c-0.5-0.7-1.1-1.1-1.7-1.2c-0.5-1.5-1.3-2.6-2.4-3.6
						c-3.7-10.9-10.8-18.8-21.4-23.4c-3.8-1.7-7.8-2-11.9-1.2c-4.5,2.5-8.9,5.3-13,8.4c13.9,5,23.9,14.5,29.7,28.2
						c-1.1-0.1-1.7,0.2-2.4,1.2c1.5,1.2,1.5,2.4,0,3.6c-4.1-9.1-10-16.9-17.8-23.4c-4.7-2.5-9.6-4.4-14.9-5.4
						c-3.8,0.2-7.2,1.7-10.1,4.3c18.8,6.7,30.6,19.7,35.7,39.1c0.2,1.9-0.4,3.5-1.7,4.8c-0.4-0.8-0.8-1.6-1.2-2.4
						c-0.4,5.6-0.8,11.2-1.2,16.8c-2.2,2.9-1.5,5.3,1.7,7.3c1.2,2.4,2.4,4.8,3.6,7.3c-1.3,0-2.5-0.5-3.6-1.2
						c-0.4,0.8-0.8,1.6-1.2,2.4c-1.4-1.5-1.4-2.8,0-4.3c-4-2-8.5-3-13.6-3c-0.4,1-1,1.8-1.7,2.4c-1.6-1.8-2.5-1.5-2.4,1.2
						c1,2.3,2.2,4.3,3.6,6c-10.1,7.1-20.8,13.1-32.1,18c-1.1-1-1.8-2.2-2.4-3.6c6.2-4.3,12.4-8.6,18.5-13.2
						c6.6-25-1.5-43.3-24.4-54.8c-7.2-2.5-14.4-2.2-21.4,1.2c-4.7,5-4,5.6,2.4,1.8c0.4,0.4,0.8,0.8,1.2,1.2
						c-12.3,5.4-21.2,14.2-26.8,26.5c-0.8,6.5-0.7,13,0.6,19.2c0.5,2.2,1.3,4.3,2.4,6c-1.4,4.1-2.5,8.5-3,13.2
						c-0.6-2.4-0.8-4.8-0.6-7.3c-1.7-0.1-3.4,0.4-4.7,1.2C158.4,359.8,144.7,345,132,329c1.9,0.4,4.1,0.6,5.9,0.6
						c-1.1-2-1.4-4.3-1.2-6.6c1.2,0,2.4,0,3.6,0c1.8,1.3,3.7,3,5.3,4.8c0.8-0.8,0.8-1.6,0-2.4c-9.6-11.4-17.9-23.4-24.9-36.1
						c14.3,15.7,28.9,30.7,44,45.6c0.8-0.8,0.8-1.6,0-2.4c-21.3-27-42.4-53.8-63.7-80.6c1.3-0.1,2.5-0.5,3.6-1.2
						c19.7,27.5,41.9,52.8,66.6,76.4c3.4,0.2,4.2-1.2,2.4-4.3c0.7-0.1,1.3-0.5,1.7-1.2c0.2,2.6,1,5,2.4,7.3c0.7-1.7,0.5-3.2-0.6-4.8
						c1.4-1.3,3.1-1.6,4.7-0.6c-2.3,1.5-2.8,3.2-1.2,5.4c0.8-2,1.9-3.8,3.6-5.4c-0.6-0.5-1-1.1-1.2-1.8c1.8-2,2.8-4.4,2.4-7.3
						c1.2-0.5,1.4-1.3,0.6-2.4c-8.2-10.1-16.7-19.6-25.5-28.8c-1.5-3.5-4-6.4-7.2-8.4c-0.1-1.3-0.5-2.5-1.2-3.6
						c0-2.9-0.6-5.8-1.7-8.4c-0.4,0.4-0.8,0.8-1.2,1.2c-0.5-2.5-1.2-4.9-2.4-7.3c-3.5-0.7-5.8-2.6-7.2-6c-1.1,1-1.8,2.2-2.4,3.6
						c-0.6-4.4-0.8-8.8-0.6-13.2c1.9,2.2,3.8,4.6,5.3,7.3c0.6-2.9,1.4-5.6,2.4-8.4c0,5.2,1.2,10.1,3.6,14.4
						c8.7,10.4,17.5,20.8,26.1,31.2c0.4-3.6,0.8-7.3,1.2-10.8c1.3,4.8,2.5,9.6,3.6,14.4c5.1,6.1,10.5,12.1,16,18
						c1.7-1.7,3.8-3,5.9-4.3c-13.4-16.9-26.1-34.4-38-52.3c0.7-2,1.8-3.8,3.6-5.4c-1.3-4.3-1.9-8.8-2.4-13.8
						c7.2,9.1,14.4,18.7,21.4,28.2c5.1-2.5,10.3-5.5,15.5-9c3.6,4.9,7.2,9.7,11.3,14.4c0.8,1.3,0.7,2.5-0.6,3.6
						c-3,1.7-5.7,3.7-8.3,6c-4-4.8-7.9-9.6-11.9-14.4c-1.4,0.5-2.6,1.3-3.6,2.4c3.7,6,7.7,11.8,11.9,17.4c1.6,0.4,3.2,0,4.7-1.2
						c3.5-2.9,7.1-5.4,10.7-7.8c4.7,5.2,9.5,10.4,14.3,15.7c4.7-3.6,9.5-7.3,14.3-10.8c-3.1-5.5-6.7-10.7-10.7-15.7
						c-1.4,0.5-2.3,1.5-2.4,3c2.5,3.6,4.3,7.4,5.3,11.4c-1.6,1.8-3.5,3.5-5.3,4.8c-4.3-3.1-7.5-7.2-9.5-12c3.6-3.2,7.2-6.4,10.7-9.6
						c-4.2-5.3-8.2-10.7-11.9-16.2c-4.8,0.8-9.1,3-13,6.6c-0.4-0.4-0.8-0.8-1.2-1.2c3.5-3.6,7.3-6.6,11.9-9
						c-3.5-5.5-7.5-10.8-11.9-15.7c-4.5,1.5-8.9,3.7-13,6.6c-0.4-0.4-0.8-0.8-1.2-1.2c4-2.8,7.9-5.6,11.9-8.4
						c-7.1-11.5-15-22.3-23.8-32.5c-3.7,2.9-7.6,5.3-11.9,7.3c-1.6-0.8-2.9-2-3.6-3.6c0-0.4,0-0.8,0-1.2c1.2,0.7,2.4,1.6,3.6,2.4
						c3.6-2.4,7.2-4.8,10.7-7.3c-3.8-4.8-7.3-9.9-10.7-15c-2.6-0.5-4.9,0.1-7.2,1.8c-1.2-1.6-2.6-1.6-4.2,0c-0.7-1.1-0.6-2.2,0.6-3
						c1.8-0.8,3.7-0.7,5.3,0.6c0.4-0.8,0.8-1.6,1.2-2.4c2.2,0.8,4.3,1.7,6.6,2.4c1.6-1.8,3.7-3,5.9-3.6c-1.2,1.1-1.2,1.8,0,2.4
						c9.6-7.2,20-12.6,30.9-16.2c-8.8,5.6-16.9,12.3-24.4,19.8c-0.8,0.8-0.8,1.6,0,2.4c8.2-6.4,17.1-10.9,26.8-13.8
						c-8.8,4.7-15.6,10.9-20.2,18.7c8.4-7.3,17.9-12.3,28.5-15c-5.9,3.4-11.6,7.4-16.6,12c-3.7,2.9-6.4,6.2-7.7,10.2
						c9.3-9.2,20.2-15.5,32.7-18.7c-10,5.6-18.9,12.7-26.8,21.1c-0.8,0.8-0.8,1.6,0,2.4c4.8-4,9.7-7.8,14.9-11.4
						c5.7-3.5,11.7-5.9,17.8-7.3c-10.6,6.4-19.1,14.5-25.5,24.7c9.4-11.2,21.1-18.2,35.1-21.1c-4.5,2.5-8.9,5.3-13,8.4
						c-4.1,3.2-7.1,7.2-8.9,11.4c8.7-9.2,19.1-14.7,31.5-16.2c-5.1,2.2-9.9,4.9-14.3,8.4c-3,2-4.7,4.7-5.3,7.8
						c14.7-14.2,31-16.8,49.3-7.8c13.6,11.5,16.6,25.3,8.9,41.5c4.3-3.7,7.9-8.2,10.7-13.2C299.2,222.3,297.1,227.3,292.9,231.8z"/>
				</g>
				<g>
					<path class="st32" d="M457.1,174c1.3,0.1,2.2,1,2.4,2.4c-1,3-2.2,3-3.6,0C456.3,175.7,456.7,174.7,457.1,174z"/>
				</g>
				<g>
					<path class="st33" d="M414.3,172.9c1.5,0,3.2,0,4.7,0c0.6,2.9-0.4,4.9-3,6C412.9,177.7,412.2,175.7,414.3,172.9z"/>
				</g>
				<g>
					<path class="st34" d="M448.7,153.6c2.4,0,3.6,1.2,3.6,3.6c-1.6,4.7-3.6,4.7-5.9,0C447.1,156,448,154.8,448.7,153.6z"/>
				</g>
				<g>
					<path class="st7" d="M82.4,157.2c2.2,15.7,4.7,31.2,7.7,46.9c-4.1-6.2-6.5-13.1-7.2-20.4C82.4,174.9,82.1,166,82.4,157.2z"/>
				</g>
				<g>
					<path class="st35" d="M163.2,189.7c0,0.4,0,0.8,0,1.2c-2.3-2-3.7-4.4-4.2-7.3C161.2,185.2,162.6,187.3,163.2,189.7z"/>
				</g>
				<g>
					<path class="st36" d="M147.8,182.4c4.8,3.6,8.9,8.2,11.9,13.8c-2.5,3.1-5.7,5.3-9.5,6.6c-4.3-4.1-7.9-8.9-10.7-14.4
						C142.5,186.8,145.3,184.8,147.8,182.4z"/>
				</g>
				<g>
					<path class="st37" d="M172.7,202.9c-2.8-1.3-4.1-3.2-4.2-6C170.8,198.5,172.1,200.5,172.7,202.9z"/>
				</g>
				<g>
					<path class="st38" d="M172.7,202.9c2.3,1,3.4,2.5,3,4.8C173.9,206.5,173,205,172.7,202.9z"/>
				</g>
				<g>
					<path class="st39" d="M422.6,202.9c1.2,0,2.4,0,3.6,0c0,1.2,0,2.4,0,3.6c-1.2,0-2.4,0-3.6,0
						C422.6,205.3,422.6,204.1,422.6,202.9z"/>
				</g>
				<g>
					<path class="st7" d="M110.9,221c0.4,2.9,1.1,5.8,2.4,8.4c-1.1,1.1-1.7,0.7-2.4-1.2c-15.6-26.6-18.9-54.6-10.1-84.2
						c0.4,13.6,0.8,27.4,1.2,40.9C103.3,197.5,106.3,209.5,110.9,221z"/>
				</g>
				<g>
					<path class="st40" d="M160.8,200.5c4.6,3.5,8.7,7.9,11.9,13.2c-3.2,2.4-6.4,4.8-9.5,7.3c-4-4.1-7.5-8.4-10.7-13.2
						C155.2,205.1,157.9,202.7,160.8,200.5z"/>
				</g>
				<g>
					<path class="st9" d="M366.6,525.3c-21.2,15.8-43.3,30-66.6,42.6c-10.3,0.8-20.6,0.8-30.9,0c81.2-39.1,143.5-98.6,186.8-178.7
						c-0.4-1.5-1-1.5-1.7,0c-1.1,2.6-2.5,5-4.2,7.3c-2.2,0-4.2,0.6-5.9,1.8c0.6,0.5,1,1.1,1.2,1.8c-1.9,2.5-3.5,5.3-4.2,8.4
						c-1.7,0.5-3.2-0.2-4.2-2.4c-1.5,2.6-3.4,5-5.3,7.3c-0.4-2.2-1.2-2.5-2.4-1.2c-0.6-1.1-0.7-2.3-0.6-3.6
						c37.2-57.6,54.9-121,53-190.1c2.4-1.8,4.9-3.5,7.7-4.8c0.4,0.6,0.8,1.2,1.2,1.8c1.2,10.2,2.2,20.4,3,30.6
						c0.4-12,0.8-24.1,1.2-36.1c2.2-2.3,4.5-3.1,7.2-2.4c1.7,6.7,3,13.5,3.6,20.4c5.7,77.6-14.1,149-59.5,214.1
						C422.5,473,396,500.7,366.6,525.3z"/>
				</g>
				<g>
					<path class="st9" d="M552.2,234.3c-0.7-0.1-1.3-0.5-1.7-1.2c-0.4,2.8-0.8,5.6-1.2,8.4c-1.1-0.5-2.2-1-3-1.2
						c3.2-7.3,3-14.4-0.6-21.7c-1.3,1.9-2.8,4-4.2,6c0.8,4,1.2,7.9,1.2,12c-3.5-17.1-8.2-33.9-14.3-50.5c1.2-2,2.8-3.6,4.7-4.8
						c4.3,6.2,7.7,13.1,10.1,20.4C547.3,212.3,550.3,223.1,552.2,234.3z"/>
				</g>
				<g>
					<path class="st41" d="M181,216.1c0.7-1.6,1.4-1.6,2.4,0c1.5,1.3,2.2,3,1.7,4.8C183.6,219.6,182.2,217.8,181,216.1z"/>
				</g>
				<g>
					<path class="st42" d="M365.4,219.8c2.4,0,4.7,0,7.2,0c0,1.2,0,2.4,0,3.6c0,0.4,0,0.8,0,1.2c-1.5,1.1-1.5,2.3,0,3.6
						c3.1,2.8,6.7,4.4,10.7,4.8c0.4,0,0.8,0,1.2,0c0,0.8,0.4,1.2,1.2,1.2c0.4,0.8,0.8,1.6,1.2,2.4c0.7,2.6,2.3,4.7,4.7,6
						c1.1,1,1.8,2.2,2.4,3.6c0.2,2,1,3.6,2.4,4.8c0.7,1.1,1.1,2.3,1.2,3.6c0.6,1.8,1.4,3.4,2.4,4.8c0,1.2,0,2.4,0,3.6
						c-0.2,1.6,0.1,2.8,1.2,3.6c0,1.6,0,3.2,0,4.8c0.8,0.8,1.5,1.6,2.4,2.4c-2.3,0.6-3.5,2.3-3.6,4.8c-1.1,1.3-1.5,2.9-1.2,4.8
						c-1.2,1.5-2.8,2.2-4.7,2.4c-1.5-0.7-2.5-1.9-3-3.6c-1.2,1.6-2.2,1.6-3,0c0.6-1.2,1.3-2.2,2.4-3c-5.1,1.2-9.9,3.4-14.3,6.6
						c-0.4-0.4-0.8-0.8-1.2-1.2c4.3-4.3,9-7.8,14.3-10.8c0.6-0.1,1.1-0.5,1.2-1.2c-0.8-4.8-1.7-9.6-3-14.4c-0.8-1-1.7-1.3-3-1.2
						c0-0.4,0-0.8,0-1.2c-0.6-2-1.7-3.7-3.6-4.8c-0.4-0.8-0.8-1.6-1.2-2.4c-1.8-0.7-3.5-1.9-4.7-3.6c0-0.4,0-0.8,0-1.2
						c0.5,0.1,1-0.1,1.2-0.6c-1.7-1.7-3.5-3.5-4.7-5.4c-1.3-1.6-2.5-1.6-3.6,0c-0.8,0-1.5,0-2.4,0c-1.9,0.2-3.2-0.6-3.6-2.4
						c1-0.4,1.7-1,2.4-1.8c-1.5-0.2-3.2,0-4.7,0.6c-1.8,0.4-3.5-0.1-4.7-1.2c1.2-0.8,2.4-1.6,3.6-2.4c2.2-1.1,4.1-2.5,5.9-4.3
						c-1.2-0.4-2.4-0.8-3.6-1.2c1-0.8,1.3-1.8,1.2-3C362.4,220.5,363.6,219.7,365.4,219.8z"/>
				</g>
				<g>
					<path class="st43" d="M173.9,217.3c4.8,3.6,8.9,8.3,11.9,13.8c-3.5,2-7,4.3-10.1,6.6c-4-4-7.3-8.4-10.1-13.2
						C168.4,222.3,171.2,219.8,173.9,217.3z"/>
				</g>
				<g>
					<path class="st9" d="M425,236.7c1.1,4,1.2,7.9,0.6,12c-2.4,2.9-5.2,5.3-8.3,7.3c-1.3-4.8-3.1-9.4-5.3-13.8
						c3.2-2.4,6.4-4.8,9.5-7.3c-3.8,0.6-7.2,2.4-10.1,5.4c-3-4.4-5.9-8.8-8.9-13.2c1.9-1.6,4-3.2,5.9-4.8c-2.8-0.1-5.3,1.1-7.7,3.6
						c-7.5-7.3-16.4-11.9-26.8-13.8c1.1-0.4,1.8-1,2.4-1.8c9.5-3.5,18.8-2.6,27.4,2.4c-2.2,1.7-4.5,3.1-7.2,4.3
						c-1.2,0.8-1.3,1.9-0.6,3c4.1-3.4,8.5-4.8,13.6-4.3C416,221.7,421.1,228.7,425,236.7z"/>
				</g>
				<g>
					<path class="st44" d="M388,211.3c2.3-0.1,2.6,0.5,1.2,1.8C385.3,214,384.9,213.3,388,211.3z"/>
				</g>
				<g>
					<path class="st45" d="M521.3,216.1c3.5,6.7,4.7,13.9,4.2,21.7C523.7,230.8,522.2,223.5,521.3,216.1z"/>
				</g>
				<g>
					<path class="st46" d="M130,208.9c1.9,1.8,3.6,4.1,4.7,6.6c-2.9,9.9-5.4,19.6-7.7,29.5c-1.9-1.9-3-4.4-3-7.3
						C124.7,228,126.9,218.3,130,208.9z"/>
				</g>
				<g>
					<path class="st47" d="M372.6,224.6c0-0.4,0-0.8,0-1.2c2.6-1.7,4.9-1.2,7.2,1.2C377.3,227.9,374.9,227.9,372.6,224.6z"/>
				</g>
				<g>
					<path class="st48" d="M44.3,218.5c9.9,12.1,18.1,25.3,24.4,39.6c-2.8-3.2-5.5-6.4-8.3-9.6c3.8,9.4,9,18.2,15.5,26.5
						c0.8,0.8,0.8,1.6,0,2.4c-11.7-13.3-22.4-27.5-32.1-42.1C41.4,229.7,41.7,224.1,44.3,218.5z"/>
				</g>
				<g>
					<path class="st49" d="M386.8,236.7c-0.4-0.8-0.8-1.6-1.2-2.4c2.3-3.7,4.7-4.1,7.7-1.2C393.2,237.4,390.9,238.6,386.8,236.7z"/>
				</g>
				<g>
					<path class="st50" d="M358.3,230.7c-1.2,0.8-2.4,1.6-3.6,2.4c-3.6,2.4-7.2,4.8-10.7,7.3c-2.2-0.6-2.5-1.7-1.2-3
						c4.5-2.9,9.3-5.5,14.3-7.8C357.8,229.5,358.2,230,358.3,230.7z"/>
				</g>
				<g>
					<path class="st51" d="M361.9,235.4c-3.4,1.9-6.6,4.1-9.5,6.6c-1.5,0.8-3.2,0.8-4.7,0c3.8-2.9,7.8-5.5,11.9-7.8
						c1.5-0.6,3.2-0.8,4.7-0.6C363.6,234.5,362.8,235,361.9,235.4z"/>
				</g>
				<g>
					<path class="st52" d="M292.9,231.8c-0.2,1.2,0.2,2,1.2,2.4c-4.9,4.9-11,7.9-17.8,9C282.3,240.1,287.9,236.3,292.9,231.8z"/>
				</g>
				<g>
					<path class="st9" d="M100.2,252.2c21.2,26.9,42.3,53.7,63.7,80.6c0.8,0.8,0.8,1.6,0,2.4c-15.2-14.9-29.7-30.1-44-45.6
						c7.1,12.7,15.4,24.7,24.9,36.1c0.8,0.8,0.8,1.6,0,2.4c-1.6-1.8-3.5-3.5-5.3-4.8c-32.7-36.4-63.4-74.6-92.2-114.3
						c0-2.8,1-5.2,3-7.3c12.9,17.6,27,34.4,42.1,50.5c0.8-0.8,0.8-1.6,0-2.4c-6.5-7.4-11.6-15.5-15.5-24.1
						C85,234.5,92.7,243.3,100.2,252.2z"/>
				</g>
				<g>
					<path class="st53" d="M162.1,251.1c11.9,17.9,24.6,35.4,38,52.3c-2.2,1.2-4.2,2.5-5.9,4.3c-5.5-5.9-11-11.9-16-18
						c-1.1-4.8-2.3-9.6-3.6-14.4c-0.4,3.6-0.8,7.3-1.2,10.8c-8.7-10.4-17.5-20.8-26.1-31.2c-2.4-4.4-3.6-9.2-3.6-14.4
						c-1,2.8-1.7,5.5-2.4,8.4c-1.5-2.6-3.4-5-5.3-7.3c-0.2-6.8,1.2-13.2,4.2-19.2C147.1,232,154.4,241.7,162.1,251.1z"/>
				</g>
				<g>
					<path class="st54" d="M313.1,495.3c-36,24.7-75,42.6-117.2,54.1c-4-1-6-3-6.6-6c16-4.7,31.5-10.9,46.3-18.7
						c-19,5.9-38.2,11.3-57.7,16.2c-2.6-0.6-4.8-2-6.6-4.3c36.2-7.3,69.9-21,101.1-40.9c-18.4,7.8-37,15.6-56,22.8
						c-18.3,5.4-36.6,9.6-55.4,12.7c-5.8-2.9-11.2-6.5-16-10.8c68.8-9.1,129.5-36.4,182-81.8c2.6,2.8,5.1,5.5,7.7,8.4
						c13-12,25.6-24.5,38-37.2c-0.4-5-2.3-9.5-5.9-13.2c-0.8-1.2-0.8-2.4,0-3.6c26.2-32.9,43.4-70.1,51.1-111.9
						c3.6-2.2,6.6-5,8.9-8.4c0.7,0.5,1.2,1.3,1.2,2.4c-5.8,29.9-15.3,58.2-27.9,85.5c17-26.8,29.1-55.6,36.2-86.6
						c1.1,0.8,1.4,2,1.2,3.6c-0.8,8.5-2.3,16.9-4.2,25.2c-6.6,22-15.2,43.3-25.5,63.8c23.6-38.9,37.6-80.9,42.3-126.4
						c1.9-1.8,4.3-3.4,6.6-4.8c1,35.2-4.7,69.3-17.2,102.3C413.1,403.1,370.8,455.6,313.1,495.3z"/>
				</g>
				<g>
					<path class="st55" d="M187.1,234.3c4,4,7.5,8.4,10.7,13.2c-2.9,2.9-5.9,5.3-9.5,7.3c-4-4.1-7.5-8.4-10.7-13.2
						C181,239.4,184.3,237,187.1,234.3z"/>
				</g>
				<g>
					<path class="st56" d="M199,239.1c2.3,1,3.4,2.5,3,4.8C200.1,242.7,199.2,241,199,239.1z"/>
				</g>
				<g>
					<path class="st57" d="M394.1,246.2c-0.5-1.5-1.3-2.6-2.4-3.6c2.4-6,5.1-6.2,8.3-0.6C398.4,244.1,396.5,245.7,394.1,246.2z"/>
				</g>
				<g>
					<path class="st48" d="M37.2,237.8c8.5,11.7,16.3,23.8,23.2,36.1c-7.9-7.7-15.5-15.7-22.6-24.1C35.7,246,35.4,242,37.2,237.8z"
						/>
				</g>
				<g>
					<path class="st58" d="M374.9,243.8c0,0.4,0,0.8,0,1.2c-4.2,2.3-8.1,4.9-11.9,7.8c-1.8,0.8-3.5,0.5-4.7-1.2
						c4.5-3.4,9.3-6.2,14.3-9C373.5,243.2,374.2,243.4,374.9,243.8z"/>
				</g>
				<g>
					<path class="st59" d="M517.8,246.2c1.2,0,2.4,0,3.6,0c0,1.2,0,2.4,0,3.6C517.5,250.4,516.3,249.1,517.8,246.2z"/>
				</g>
				<g>
					<path class="st9" d="M312,247.5c14.7-1.6,26.2,3.7,35.1,15.7c2.2,2,2.9,4.4,2.4,7.3c-8.5,5.5-17.2,10.7-26.1,15.7
						c-2.2-0.6-2.4-1.6-0.6-3c5.7-3.1,11.3-6.6,16.6-10.2c1.2-0.6,1.4-1.5,0.6-2.4c-6.7,3.8-13.1,7.8-19.6,12
						c-6.5-10.2-15.2-17.7-26.1-22.2C299.9,255.5,305.8,251.3,312,247.5z"/>
				</g>
				<g>
					<path class="st60" d="M397.6,254.7c-0.1-1.3-0.5-2.5-1.2-3.6c4.1-8.4,6.2-7.9,6.6,1.2C401.4,253.6,399.6,254.3,397.6,254.7z"/>
				</g>
				<g>
					<path class="st61" d="M422.6,245.1c1.3,1.6,1,3-1.2,4.3c-1.5,1.2-3.1,1.6-4.7,1.2C419.1,249.2,421.1,247.5,422.6,245.1z"/>
				</g>
				<g>
					<path class="st62" d="M251.3,221c10-0.5,14.6,4.4,13.6,14.4c6,7.8,11.8,16,17.2,24.1c-1.8,1.3-3.7,3-5.3,4.8
						c-6-7.8-11.8-16-17.2-24.1C246.3,238.1,243.5,231.8,251.3,221z"/>
				</g>
				<g>
					<path class="st63" d="M256,227c5.9,0.6,7.2,3.2,3.6,7.8c-4.3,2.8-7.3,1.8-9.5-3C252.8,231.1,254.8,229.4,256,227z"/>
				</g>
				<g>
					<path class="st64" d="M379.7,248.7c0.4,0.8,0.8,1.6,1.2,2.4c-4.2,4.1-8.9,7.7-14.3,10.8c-1.1-1.6-2.3-2.9-3.6-4.3
						C368,253.4,373.6,250.4,379.7,248.7z"/>
				</g>
				<g>
					<path class="st65" d="M212,257.1c-1.8-0.6-2.5-1.8-1.7-3.6C211.5,254.3,212,255.5,212,257.1z"/>
				</g>
				<g>
					<path class="st66" d="M314.3,251.1c3-0.2,5.7,0.4,8.3,1.8c1.6,4.3,0.1,6.4-4.7,6.6C310.9,258.3,309.8,255.3,314.3,251.1z"/>
				</g>
				<g>
					<path class="st67" d="M212,257.1c1.8,0.6,2.5,1.8,1.7,3.6C212.6,259.8,212,258.6,212,257.1z"/>
				</g>
				<g>
					<path class="st68" d="M400,263.1c0-1.2,0-2.4,0-3.6c1.9-5.9,4-6,5.9-0.6C405.7,262.5,403.6,263.9,400,263.1z"/>
				</g>
				<g>
					<path class="st69" d="M426.1,257.1c-1.8,2.5-4.1,4.9-6.6,7.3c-0.6-0.7-0.7-1.6-0.6-2.4c1-4,3.1-7.3,6.6-9.6
						C426.1,253.8,426.3,255.3,426.1,257.1z"/>
				</g>
				<g>
					<path class="st70" d="M365.4,219.8c6.4-1.6,12.8-1,19,1.8c22.3,13.5,30.1,33,23.8,58.4c-3.2,1.2-6.4,2.4-9.5,3.6
						c-0.4-1.9,0.1-3.5,1.2-4.8c-0.1,0.8,0,1.7,0.6,2.4c4.2-1.5,5.8-4.3,4.7-8.4c-0.5,0.7-1.1,1.1-1.7,1.2c-0.8-0.8-1.5-1.6-2.4-2.4
						c5.5,0.4,7.2-2,4.7-7.3c-1.7,0.6-3.5,1.5-4.7,2.4c-1.1-0.8-1.4-2-1.2-3.6c3.7,0.8,5.7-0.6,5.9-4.3c-1.9-5.4-4-5.3-5.9,0.6
						c-1-1.5-1.7-3-2.4-4.8c1.9-0.4,3.8-1.1,5.3-2.4c-0.4-9.1-2.5-9.6-6.6-1.2c-1.4-1.2-2.2-2.8-2.4-4.8c2.4-0.6,4.3-2,5.9-4.3
						c-3.2-5.6-5.9-5.4-8.3,0.6c-2.5-1.3-4.1-3.4-4.7-6c4.1,2,6.4,0.8,6.6-3.6c-3-2.9-5.4-2.5-7.7,1.2c-0.8,0-1.2-0.4-1.2-1.2
						c1-1.6,2.2-3,3.6-4.3c-3.1-4.1-5.8-3.8-8.3,0.6c1,1.5,2.2,2.6,3.6,3.6c-4.1-0.5-7.6-2-10.7-4.8c-1.5-1.3-1.5-2.5,0-3.6
						c2.4,3.2,4.7,3.2,7.2,0c-2.2-2.4-4.5-2.9-7.2-1.2c0-1.2,0-2.4,0-3.6C370.2,219.8,367.8,219.8,365.4,219.8z"/>
				</g>
				<g>
					<path class="st71" d="M384.5,233c-0.4,0-0.8,0-1.2,0c-1.4-1-2.6-2.2-3.6-3.6c2.5-4.4,5.2-4.7,8.3-0.6
						C386.6,230,385.5,231.5,384.5,233z"/>
				</g>
				<g>
					<path class="st72" d="M298.8,259.5c5.8-1.1,11,0.7,15.5,5.4C309,263.8,303.9,262,298.8,259.5z"/>
				</g>
				<g>
					<path class="st73" d="M361.9,222.3c0.1,1.2-0.2,2.2-1.2,3c1.2,0.4,2.4,0.8,3.6,1.2c-1.8,1.7-3.8,3.1-5.9,4.3
						c-0.1-0.6-0.5-1.1-1.2-1.2c-4.9,2.3-9.7,4.9-14.3,7.8c-1.3,1.3-1,2.4,1.2,3c3.6-2.4,7.2-4.8,10.7-7.3c1.3,1.1,2.9,1.6,4.7,1.2
						c-4.1,2.3-8.1,4.9-11.9,7.8c1.5,0.8,3.2,0.8,4.7,0c3-2.5,6.2-4.7,9.5-6.6c0.4,1.8,1.5,2.6,3.6,2.4c-4,2.8-7.8,5.5-11.9,8.4
						c0.6,0.4,1.2,0.8,1.7,1.2c4.3-2.2,8.5-4.8,12.5-7.8c1.4-0.8,1.4-1.5,0-1.8c1.1-1.6,2.3-1.6,3.6,0c1.3,1.9,3,3.7,4.7,5.4
						c-0.2,0.5-0.7,0.7-1.2,0.6c-0.7-0.4-1.5-0.7-2.4-1.2c-4.9,2.6-9.7,5.8-14.3,9c1.3,1.7,2.9,2,4.7,1.2c3.8-2.9,7.7-5.5,11.9-7.8
						c1.3,1.7,2.9,2.9,4.7,3.6c-6.2,1.7-11.8,4.7-16.6,9c1.3,1.3,2.5,2.6,3.6,4.3c5.3-3.1,10.1-6.7,14.3-10.8c1.7,1.1,3,2.8,3.6,4.8
						c-5.8,2.5-11.4,5.8-16.6,9.6c2.3,3.7,3.8,7.8,4.7,12c5.1-3,10.1-6.1,14.9-9.6c0.5-4-0.6-7.6-3-10.8c1.2-0.1,2.2,0.2,3,1.2
						c1.2,4.8,2.2,9.6,3,14.4c-0.1,0.7-0.6,1.1-1.2,1.2c-0.1-0.6-0.5-1.1-1.2-1.2c-5.1,2.8-10.2,5.2-15.5,7.3
						c0.7,7.7-0.7,14.9-4.2,21.7c2.4-14.1,0-27.4-7.2-39.6c-6.7-11.3-16.4-18.4-29.1-21.1C341.8,234,351.7,227.8,361.9,222.3z"/>
				</g>
				<g>
					<path class="st74" d="M365.4,237.8c0.8,0,1.5,0,2.4,0c1.4,0.4,1.4,1,0,1.8c-4,3-8.1,5.6-12.5,7.8c-0.6-0.4-1.2-0.8-1.7-1.2
						C357.6,243.3,361.6,240.5,365.4,237.8z"/>
				</g>
				<g>
					<path class="st7" d="M527.3,254.7c2.2,2.6,3.6,5.8,4.2,9.6c3,3.6,6.8,6,11.3,7.3c-9.9,2.5-14.4,8.9-13.6,19.2
						c-0.1-11.1-5.4-17.5-16-19.2C522.5,269.9,527.3,264.3,527.3,254.7z"/>
				</g>
				<g>
					<path class="st9" d="M552.2,234.3c0,0.8,0,1.6,0,2.4c1.5,11.7,3.2,23.2,4.7,34.9c-1.9,0-3.6-0.8-4.7-2.4
						c-2.4,0.2-4.5-0.1-6.6-1.2c-1-10.4-1.8-20.8-3-31.2c0-4.1-0.4-8-1.2-12c1.4-2,2.9-4.1,4.2-6c3.6,7.3,3.8,14.4,0.6,21.7
						c0.8,0.2,1.8,0.7,3,1.2c0.4-2.8,0.8-5.6,1.2-8.4C550.9,233.8,551.5,234.1,552.2,234.3z"/>
				</g>
				<g>
					<path class="st75" d="M147.8,269.1c-2.8-1.3-4.1-3.2-4.2-6C145.8,264.7,147.2,266.7,147.8,269.1z"/>
				</g>
				<g>
					<path class="st76" d="M401.2,271.5c0-1.6,0-3.2,0-4.8c1.3-1,3-1.8,4.7-2.4C408.5,269.5,406.7,271.9,401.2,271.5z"/>
				</g>
				<g>
					<path class="st77" d="M384.5,255.9c0,0.4,0,0.8,0,1.2c2.4,3.2,3.5,6.8,3,10.8c-4.7,3.5-9.7,6.6-14.9,9.6c-1-4.3-2.5-8.3-4.7-12
						C373.1,261.6,378.7,258.4,384.5,255.9z"/>
				</g>
				<g>
					<path class="st78" d="M147.8,269.1c1.2,0.8,2.4,1.6,3.6,2.4c0.7,1.1,1.1,2.3,1.2,3.6C150.1,273.8,148.4,271.7,147.8,269.1z"/>
				</g>
				<g>
					<path class="st79" d="M438,277.5c0.2-1.6-0.1-2.8-1.2-3.6c0.7-4.8,1.7-9.6,3-14.4C440.5,265.7,439.9,271.7,438,277.5z"/>
				</g>
				<g>
					<path class="st80" d="M491.5,261.9c1.3,5.9,1.1,11.9-0.6,18C490.2,273.9,490.5,267.9,491.5,261.9z"/>
				</g>
				<g>
					<path class="st48" d="M62.1,295.6c-1.8-1.3-3.7-2.9-5.3-4.8c0.1,2.3,1.1,4.4,3,6c-10.4-7.4-20.1-15.9-29.1-25.2
						c-0.2-3.8,0.5-7.4,2.4-10.8c15.9,15.8,30.4,30.7,43.4,45.1C71.8,302,67,298.6,62.1,295.6z"/>
				</g>
				<g>
					<path class="st81" d="M88.3,219.8c0.8,1.6,1.9,2.8,3.6,3.6c26.1,34,53.1,67.2,80.9,99.9c1.7,3,1,4.4-2.4,4.3
						c-24.7-23.5-46.9-49-66.6-76.4c-12.5-16.6-23.6-34.2-33.3-53c0.4-1.5,1-1.5,1.7,0C77.4,205.6,82.7,212.8,88.3,219.8z"/>
				</g>
				<g>
					<path class="st82" d="M152.5,275.2c3.2,2,5.5,4.9,7.2,8.4C156.5,281.5,154.1,278.6,152.5,275.2z"/>
				</g>
				<g>
					<path class="st83" d="M400,278.7c0.1-2.5,1.3-4.3,3.6-4.8c0.7-0.1,1.3-0.5,1.7-1.2c1.1,4.3-0.6,7.1-4.7,8.4
						C400,280.4,399.8,279.5,400,278.7z"/>
				</g>
				<g>
					<path class="st84" d="M317.9,301.5c0.2,4.8,0,9.6-0.6,14.4c-0.6-6.4-1.9-12.4-4.2-18c-5.2-13.5-14.3-23.3-27.4-29.5
						c2.5-0.4,4.8,0,7.2,1.2C305.4,276.9,313.7,287.6,317.9,301.5z"/>
				</g>
				<g>
					<path class="st85" d="M336.9,287.1c-3.6,1.6-7.1,3.5-10.1,6c-0.6-1.1-0.7-2.3-0.6-3.6c4.7-2.9,9.7-5.8,14.9-8.4
						c0.6,0.2,1.2,0.4,1.7,0.6C340.9,283.6,338.8,285.3,336.9,287.1z"/>
				</g>
				<g>
					<path class="st53" d="M288.1,312.4c0,1.2,0,2.4,0,3.6c0.4,3.1,0,5.9-1.2,8.4c-0.5-3-1.4-5.9-3-8.4c-0.4,5.6-0.8,11.2-1.2,16.8
						c-0.2-2.3-0.8-4.3-1.7-6c-5.1-19.3-17-32.4-35.7-39.1c2.9-2.5,6.4-4,10.1-4.3c5.2,1.1,10.1,2.9,14.9,5.4
						C278.2,295.5,284.1,303.3,288.1,312.4z"/>
				</g>
				<g>
					<path class="st86" d="M347.7,277.5c1.4,4.4,2.6,8.8,3.6,13.2c-0.2,1.2-0.4,2.4-0.6,3.6c-0.7-2.6-1.6-5-3-7.3
						C346.6,283.7,346.6,280.6,347.7,277.5z"/>
				</g>
				<g>
					<path class="st87" d="M354.7,294.3c0.2,1.7,0,3.2-0.6,4.8c-0.4-4-0.8-8-1.2-12c-1-3.8-2.8-7.2-5.3-9.6c1.7-3,3.6-3,5.3,0
						C354.5,283,355.1,288.6,354.7,294.3z"/>
				</g>
				<g>
					<path class="st88" d="M204.9,279.9c3.6,3.7,7,7.8,10.1,12c3-2.9,6.4-4.8,10.1-6c0.1,1.3,0,2.5-0.6,3.6c-3.7,3-7.3,5.8-11.3,8.4
						c-4.3-4.1-7.9-8.9-10.7-14.4C203.3,282.3,204.1,281.1,204.9,279.9z"/>
				</g>
				<g>
					<path class="st89" d="M388,282.3c0.8,1.6,1.7,1.6,3,0c0.5,1.7,1.4,2.9,3,3.6c-5.1,3.7-10.6,7.1-16.6,9.6
						c-0.7-0.1-1.1-0.6-1.2-1.2c4.8-2.3,9.1-5.3,13-9c-4.3,0.7-8.2,2.5-11.9,5.4c-1.5-0.8-1.5-1.6,0-2.4
						C380.8,286.1,384.4,284,388,282.3z"/>
				</g>
				<g>
					<path class="st90" d="M62.1,295.6c-0.5-0.1-1,0.1-1.2,0.6c1.2,1.2,2.4,2.4,3.6,3.6c-2.3,0.4-3.8-0.7-4.7-3
						c-1.8-1.7-2.9-3.7-3-6C58.4,292.7,60.2,294.2,62.1,295.6z"/>
				</g>
				<g>
					<path class="st9" d="M237,292c17.3,2,29.4,11.3,36.2,27.6c3.5,8.3,3.8,16.7,1.2,25.2c-2.8,3.4-6.2,6.2-10.1,8.4
						c-0.4-0.4-0.8-0.8-1.2-1.2c8.4-4.6,11.2-11.3,8.3-20.4c-4.5,2.4-8.7,5.2-12.5,8.4c-1.6-2.2-3.1-4.6-4.2-7.3
						c1.9-1.8,4.2-3.5,6.6-4.8c0.6-4.3-1.2-6-5.3-5.4c-1.4,1.3-3,2.3-4.7,3c-7.2-10.4-16.6-17.7-28.5-21.7
						C227.1,299.5,231.8,295.5,237,292z"/>
				</g>
				<g>
					<path class="st48" d="M307.2,295.6c0,0.8-0.4,1.2-1.2,1.2c-4.9,3.8-10.1,7.4-15.5,10.8c-5.8-13.7-15.9-23.2-29.7-28.2
						c4.2-3.1,8.5-5.9,13-8.4c4.1-0.8,8.1-0.5,11.9,1.2C296.3,276.8,303.5,284.6,307.2,295.6z"/>
				</g>
				<g>
					<path class="st91" d="M291.8,283.6c3.1,2.4,5.9,5.2,8.3,8.4c-2.5,2.2-4.9,4.3-7.7,6c-2.2-2.8-4.3-5.6-6.6-8.4
						C287.5,287.2,289.6,285.2,291.8,283.6z"/>
				</g>
				<g>
					<path class="st92" d="M307.2,295.6c1.1,1,1.8,2.2,2.4,3.6c1.1,2.8,1.3,5.5,0.6,8.4c-1.2-3.7-2.6-7.3-4.2-10.8
						C306.8,296.7,307.2,296.4,307.2,295.6z"/>
				</g>
				<g>
					<path class="st93" d="M159.6,283.6c8.8,9.2,17.3,18.9,25.5,28.8c0.8,1.1,0.6,1.9-0.6,2.4C175.7,304.8,167.4,294.3,159.6,283.6z
						"/>
				</g>
				<g>
					<path class="st94" d="M36,302.8c1.2,0,2.4,0,3.6,0c0,1.2,0,2.4,0,3.6c-1.2,0-2.4,0-3.6,0C36,305.1,36,304,36,302.8z"/>
				</g>
				<g>
					<path class="st95" d="M528.4,304c2.2,0.1,2.6,1,1.2,2.4C528.6,305.8,528.3,305,528.4,304z"/>
				</g>
				<g>
					<path class="st96" d="M351.1,328.1c-5.9,4.8-11.9,9.6-17.8,14.4c-1.2-0.6-1.4-1.5-0.6-2.4c5.9-5.8,10.7-12.1,14.3-19.2
						c-5.2,6.1-11.2,11.3-17.8,15.7c-0.8-0.8-0.8-1.6,0-2.4c2.4-2,4.3-4.4,5.9-7.3c6.7-6.2,13.5-12,20.8-17.4
						c4.7-0.4,9.5-1,14.3-1.8c2.3-1,4.2-2.2,5.9-3.6c1.8-1.3,3.8-1.9,5.9-1.8c-7.9,22.3-20.9,41.5-38.7,57.2c-1.7-1.7-2.6-3.7-2.4-6
						c5.9-6.5,11.6-13.2,16.6-20.4c1.2-1.6,1.5-3.1,1.2-4.8c-6,8.8-13.3,15.1-21.9,19.2C342.2,341.3,347,334.8,351.1,328.1z"/>
				</g>
				<g>
					<path class="st97" d="M228.7,378.6c-0.5,0.1-1-0.1-1.2-0.6c4.3-7.3,5.8-15,4.2-23.4c-6.7-21-20.3-28.7-41-23.4
						c-8.1,7.2-11.7,16.1-10.7,27.1c0.2,1.2-0.2,2-1.2,2.4c-1.3-6.4-1.4-12.8-0.6-19.2c5.5-12.3,14.6-21.1,26.8-26.5
						c-0.4-0.4-0.8-0.8-1.2-1.2c-6.4,3.8-7.2,3.2-2.4-1.8c7.1-3.4,14.1-3.7,21.4-1.2c22.9,11.4,30.9,29.8,24.4,54.8
						C241,370,234.8,374.3,228.7,378.6z"/>
				</g>
				<g>
					<path class="st98" d="M241.7,311.2c0.5-1.2,1.3-1.5,2.4-0.6c2.4,2.4,4.7,4.8,7.2,7.3c-0.8,0.8-1.5,0.8-2.4,0
						C246.6,315.4,244.2,313.1,241.7,311.2z"/>
				</g>
				<g>
					<path class="st9" d="M552.2,236.7c3,9.9,4.9,19.8,5.9,30.1c2.2,24.7,1,49.2-3.6,73.4c-0.8,0.5-1.4,1.3-1.7,2.4
						c-0.6-1.9-0.8-4-0.6-6c1.3-12,1.3-24.1,0-36.1c-1.1,11.4-2.8,22.7-4.7,33.6c0.8-11.7,1.4-23.2,1.7-34.9c1.6-4.3,2.8-8.6,3-13.2
						c0.1-3.4-0.6-6.4-2.4-9c1.3-0.2,2.5-0.8,3.6-1.8c-1.7-1.2-3.8-1.6-5.9-1.2c0.4,9,0,17.9-1.2,26.5c0-9.2,0-18.5,0-27.6
						c3.4,0.7,5.3-0.5,5.9-3.6c1.2,1.6,2.8,2.4,4.7,2.4C555.4,259.8,553.7,248.3,552.2,236.7z"/>
				</g>
				<g>
					<path class="st9" d="M566.5,323.2c0.4-3.8,0-7.4-1.2-10.8c0.7-7.6,1.3-15.4,1.7-22.8C568.1,301,568,312.2,566.5,323.2z"/>
				</g>
				<g>
					<path class="st99" d="M210.9,313.5c4.7-0.2,5.5,1.1,2.4,4.3c-1.1,0.6-2.3,0.7-3.6,0.6C209.5,316.5,209.9,315.1,210.9,313.5z"/>
				</g>
				<g>
					<path class="st9" d="M514.2,354.5c1.2-12.8,2.6-25.1,4.2-37.2c-1.4,3.4-2.3,7.1-2.4,10.8c-0.2-1.7-0.8-3.4-1.7-4.8
						c-0.6,2.9-1.7,5.3-3.6,7.3c1.1-10.2,3-20.2,5.9-30.1c1.6,2.2,3.1,4.6,4.2,7.3C521.3,323.8,519.1,339.5,514.2,354.5z"/>
				</g>
				<g>
					<path class="st100" d="M59.7,318.4c4.1-0.1,5.5,1.8,4.7,6C59.3,325.2,57.7,323.1,59.7,318.4z"/>
				</g>
				<g>
					<path class="st101" d="M534.4,319.6c3.8,0.2,4.9,2,3.6,5.4C533.3,325.7,532.2,323.8,534.4,319.6z"/>
				</g>
				<g>
					<path class="st102" d="M91.9,321.9c4.3-0.1,5.5,1.9,4.2,6c-2.8,1.3-4.5,0.2-5.3-3C90.9,324,91.4,323,91.9,321.9z"/>
				</g>
				<g>
					<path class="st103" d="M197.7,323.2c14.6-3.7,25.6,1.1,33.3,14.4c-0.6,1.2-1.4,1.5-2.4,0.6
						C220.8,328.1,210.6,323.1,197.7,323.2z"/>
				</g>
				<g>
					<path class="st104" d="M131.1,329.3c12.8,16,26.6,30.9,41.6,44.5c0,2.2,0.6,4.3,1.7,6c1.9,1.8,3.8,3.8,5.3,6
						c-0.8,1-1.8,1.8-3,2.4c-4.7-3.7-7.3-8.5-7.7-14.4c-1.3,0.1-2.5,0-3.6-0.6c-32.9-27.6-58.4-60.6-76.8-99.3
						C102.7,292.7,116.7,311.1,131.1,329.3z"/>
				</g>
				<g>
					<path class="st105" d="M351.1,328.1c0-1.6,0.6-2.8,1.7-3.6C353.6,326.3,353.1,327.5,351.1,328.1z"/>
				</g>
				<g>
					<path class="st106" d="M288.1,316c1.6,5.5,1.4,11.2-0.6,16.8c-0.6-2.8-0.8-5.5-0.6-8.4C288.1,321.8,288.5,319.1,288.1,316z"/>
				</g>
				<g>
					<path class="st9" d="M546.3,300.4c0.2,7.6,0,15.4-0.6,22.8c-0.1,4.1-1.1,7.7-3,10.8C543.3,322.6,544.5,311.4,546.3,300.4z"/>
				</g>
				<g>
					<path class="st107" d="M267.9,325.7c1.1-0.1,1.7,0.2,2.4,1.2c-2.2,1.6-4.2,3.4-5.9,5.4c-1.9,2.2-4.3,2.9-7.2,2.4
						C260.8,331.7,264.4,328.7,267.9,325.7z"/>
				</g>
				<g>
					<path class="st108" d="M436.9,379.8c13-27.6,23.5-56,31.5-85.5C463.6,325,453.1,353.6,436.9,379.8z"/>
				</g>
				<g>
					<path class="st109" d="M47.8,341.3c2.9,1.2,3,2.9,0.6,4.8C46.6,344.8,46.4,343.2,47.8,341.3z"/>
				</g>
				<g>
					<path class="st110" d="M472.4,352.1c0.4-3.4,1.4-6.6,3-9.6C476.1,346.2,475.3,349.4,472.4,352.1z"/>
				</g>
				<g>
					<path class="st111" d="M295.4,343.7c1.2,0.4,1.9,1.2,2.4,2.4c-1.6,1.9-3.7,2.9-5.9,3C293.6,347.9,294.8,345.9,295.4,343.7z"/>
				</g>
				<g>
					<path class="st112" d="M204.9,349.7c4.7-0.6,7,1.5,6.6,6C204.7,358.5,202.7,356.5,204.9,349.7z"/>
				</g>
				<g>
					<path class="st113" d="M76.3,348.5c4.1,2.6,4.3,5.8,1.2,9.6c-1.1-1-1.4-2.2-1.2-3.6c-4.7-0.8-4.7-1.6,0-2.4
						C76.3,350.9,76.3,349.7,76.3,348.5z"/>
				</g>
				<g>
					<path class="st114" d="M234.7,348.5c2.2,2.4,2.8,5.2,1.7,8.4C235.2,354.2,234.7,351.4,234.7,348.5z"/>
				</g>
				<g>
					<path class="st115" d="M372.6,352.1c4.6,0.2,5.8,2.4,3.6,6.6C371.3,358.9,370.2,356.7,372.6,352.1z"/>
				</g>
				<g>
					<path class="st116" d="M472.4,352.1c0,2.2-0.6,4.3-1.7,6C470,355.8,470.6,353.7,472.4,352.1z"/>
				</g>
				<g>
					<path class="st117" d="M109.8,352.1c6.8-1,8.7,1.6,5.9,7.8C109.5,360.6,107.4,358,109.8,352.1z"/>
				</g>
				<g>
					<path class="st118" d="M254.9,347.4c1.4,3.8,1.3,7.9-0.6,12C254.2,355.3,254.6,351.4,254.9,347.4z"/>
				</g>
				<g>
					<path class="st119" d="M243,349.7c1.7,2.4,2.6,5.2,2.4,8.4c0.4,3.4-0.6,6.2-3,8.4C242.6,361,242.9,355.3,243,349.7z"/>
				</g>
				<g>
					<path class="st120" d="M523.7,358.1c1.5,0,3.2,0,4.7,0c0,1.2,0,2.4,0,3.6c-1.5,0-3.2,0-4.7,0
						C523.7,360.5,523.7,359.4,523.7,358.1z"/>
				</g>
				<g>
					<path class="st121" d="M179.8,358.1c0.8,4.1,2.4,8.2,4.7,12c-0.4,1.5-1,1.5-1.7,0c-0.6-1.2-1.2-2.4-1.7-3.6
						c-1.1-1.8-1.8-3.8-2.4-6C179.7,360.1,180.1,359.4,179.8,358.1z"/>
				</g>
				<g>
					<path class="st122" d="M47.8,362.9c1.2,1.6,2.4,3.1,3.6,4.8c-1.2,1.1-2.3,2.3-3,3.6c-0.7-1.3-1.7-2.5-3-3.6
						C47.1,366.5,47.8,364.9,47.8,362.9z"/>
				</g>
				<g>
					<path class="st123" d="M263.2,364.2c4.5,3.6,8.4,7.8,11.9,12.7c1.5,0.4,3.2,0.8,4.7,1.2c-16,6.5-32.3,7.8-48.7,4.3
						C242.3,377.1,253,371.2,263.2,364.2z"/>
				</g>
				<g>
					<path class="st104" d="M340.5,372.6c-1.2-0.1-2.2,0.2-3,1.2c-1.8-1.8-3.5-3.8-4.7-6c-0.4-2,0.4-3.6,2.4-4.8
						C337.9,365.6,339.7,368.8,340.5,372.6z"/>
				</g>
				<g>
					<path class="st124" d="M185.9,355.8c5.5,14.3,15.9,20.1,30.9,17.4c-10.8,6.7-20.1,4.9-27.9-5.4
						C186.5,364.2,185.5,360,185.9,355.8z"/>
				</g>
				<g>
					<path class="st125" d="M130,373.8c2.8,0.8,2.9,2,0.6,3.6C128.5,376.3,128.2,375.1,130,373.8z"/>
				</g>
				<g>
					<path class="st126" d="M189.4,377.3c0.1-0.6,0.5-1.1,1.2-1.2c5.2,4,11.2,6.1,17.8,6.6C201.3,383.8,195,382,189.4,377.3z"/>
				</g>
				<g>
					<path class="st127" d="M496.2,376.2c0.6,3.4-0.6,5.8-3.6,7.3c-3.1-1.5-4.2-3.8-3-7.3C491.9,374.5,494.2,374.5,496.2,376.2z"/>
				</g>
				<g>
					<path class="st128" d="M83.6,377.3c7.2,0.2,8.7,3.2,4.7,9C81.1,386.6,79.5,383.6,83.6,377.3z"/>
				</g>
				<g>
					<path class="st129" d="M436.9,379.8c-0.7,3.1-2.2,5.9-4.2,8.4C432.8,384.8,434.2,382,436.9,379.8z"/>
				</g>
				<g>
					<path class="st130" d="M163.2,379.8c1.5,3.1,3.8,6,6.6,8.4c1,2.2,0.4,3.8-1.7,4.8C162.3,389.5,160.7,385.1,163.2,379.8z"/>
				</g>
				<g>
					<path class="st131" d="M217.9,401.4c-0.8,1.1-1.9,1.5-3.6,1.2c-11.3-2.3-21.7-7.1-30.9-13.8c1.3-1.7,2.9-2,4.7-1.2
						C197.9,392.9,207.9,397.5,217.9,401.4z"/>
				</g>
				<g>
					<path class="st9" d="M565.2,312.4c1.2,3.4,1.5,7.1,1.2,10.8c-6,60.4-28.2,113.7-66.6,160.1c-4,4.8-8.3,9.1-13,13.2
						c12.8-16,24.8-32.4,36.2-49.3c21.8-37.7,35.6-78.2,41-121.5C564.8,321.3,565.2,316.9,565.2,312.4z"/>
				</g>
				<g>
					<path class="st132" d="M103.8,385.7c3.8-0.4,5.5,1.2,5.3,4.8C103.7,392.9,101.9,391.3,103.8,385.7z"/>
				</g>
				<g>
					<path class="st133" d="M278.5,385.7c2.2-0.4,4.2,0,5.9,1.2c-12.3,4.4-24.9,6.2-38,5.4c8.3-1.3,16.6-2.5,24.9-3.6
						C274.1,388.1,276.5,387.1,278.5,385.7z"/>
				</g>
				<g>
					<path class="st134" d="M340.5,372.6c4.8,2.4,8.4,6.1,10.7,11.4c-3.2,4-6.4,8-9.5,12c3.6,5,7.5,9.6,11.9,13.8
						c1.6-2.3,3.7-4.3,5.9-6c-2.4-3.7-4.8-7.3-7.7-10.8c-1-2.2-0.4-3.8,1.7-4.8c4.8,5.2,9.3,10.7,13,16.8c-4,4.8-8.3,9.2-13,13.2
						c-5.1-4.7-9.6-9.9-13.6-15.7c-4.7,4.6-9.3,9.4-13.6,14.4c-6.4-8.5-12.9-16.9-19.6-25.2c-0.6-1.6-0.8-3.1-0.6-4.8
						c-1.4,0.2-2.6-0.1-3.6-1.2c-4.1-4.9-7.6-10.2-10.7-15.7c-3.2-3.2-6.4-6.5-9.5-9.6c-1.2-2.4-2.4-4.8-3.6-7.3
						c3.1-1.5,5.8-3.5,8.3-6c0.4,0.6,0.8,1.2,1.2,1.8c-2.6,5.6-1.1,10.3,4.7,13.8c4.1-2.3,7.6-5.3,10.7-9c-1.7-2.8-3.8-5.4-5.9-7.8
						c-0.4-1.2-1.2-2-2.4-2.4c-1.2-0.5-1.4-1.3-0.6-2.4c5.1-4.4,10.3-8.8,15.5-13.2c1.6,1.3,1.9,2.9,1.2,4.8c-3.8,2.2-6.8,5.2-8.9,9
						c1.3,2.9,3.1,5.5,5.3,7.8c3.2-3.5,6.6-6.6,10.1-9.6c1.2,0.6,1.4,1.5,0.6,2.4c-4,3.1-6.7,6.7-8.3,10.8c3.4-2.2,6.4-4.8,8.9-7.8
						c1.2-0.8,2.4-0.8,3.6,0c4.1,4.7,7.6,9.7,10.7,15c-3,4.1-6.6,7.4-10.7,10.2c3,3.8,5.9,7.6,8.9,11.4
						C334.7,379.2,337.7,376,340.5,372.6z"/>
				</g>
				<g>
					<path class="st135" d="M306,387c3.8-4.6,7.9-8.9,12.5-13.2c3.2,3.8,6.2,7.8,8.9,12c-2.8,3.6-5.9,6.8-9.5,9.6
						c-3.2-2.6-5.9-5.6-8.3-9C308.2,385.7,307,385.9,306,387z"/>
				</g>
				<g>
					<path class="st136" d="M304.8,356.9c4.3,3.6,7.9,7.9,10.7,13.2c-2.8,3.6-5.9,6.8-9.5,9.6c-3.8-4-7.3-8.2-10.7-12.7
						C298.6,363.9,301.9,360.4,304.8,356.9z"/>
				</g>
				<g>
					<path class="st137" d="M44.3,388.2c21.5,12.4,44.5,20.5,69,24.7c-3.2,2.3-6.6,4.1-10.1,5.4c-18.9-2.9-37-8.8-54.1-17.4
						C46.9,396.9,45.3,392.7,44.3,388.2z"/>
				</g>
				<g>
					<path class="st138" d="M328.6,389.4c4,2.8,7.2,6.4,9.5,10.8c-2.8,3.6-5.9,6.8-9.5,9.6c-3.2-3.2-5.9-6.8-8.3-10.8
						C323.1,395.8,325.8,392.5,328.6,389.4z"/>
				</g>
				<g>
					<path class="st139" d="M552.2,336.5c-9.4,56.4-32.6,106.1-69.6,149.2c-0.6-0.7-0.7-1.6-0.6-2.4c33.5-44.2,55.5-93.9,65.4-149.2
						c1.9-10.9,3.7-22.2,4.7-33.6C553.5,312.4,553.5,324.4,552.2,336.5z"/>
				</g>
				<g>
					<path class="st140" d="M217.9,401.4c6.7,2,13.4,3.8,20.2,5.4c-8.3,0-16.1-1.3-23.8-4.3C215.9,403,217.1,402.5,217.9,401.4z"/>
				</g>
				<g>
					<path class="st141" d="M408.3,366.5c-9.9,20.1-22.6,38.2-38,54.1C383.8,403.3,396.6,385.3,408.3,366.5z"/>
				</g>
				<g>
					<path class="st142" d="M417.8,403.8c2.9,0.2,4.1,1.8,3.6,4.8c-1.2,0-2.4,0-3.6,0C417.8,407.1,417.8,405.4,417.8,403.8z"/>
				</g>
				<g>
					<path class="st143" d="M170.4,405c1.5,0,3.2,0,4.7,0c0,1.2,0,2.4,0,3.6c-1.5,0-3.2,0-4.7,0C170.4,407.4,170.4,406.2,170.4,405z
						"/>
				</g>
				<g>
					<path class="st30" d="M53.8,412.2c11.8,5.9,24.1,10.4,36.8,13.8c-4,2.8-8.1,4.9-12.5,6.6c-6.5-1.2-12.4-3.6-17.8-7.3
						C57.5,421.4,55.3,417,53.8,412.2z"/>
				</g>
				<g>
					<path class="st9" d="M480.8,446c7.1-12.3,13.7-24.7,20.2-37.2c1-1.1,1.8-2.3,3-3.6c-1.9,6.6-4.8,13.1-8.3,19.2
						C491.5,432.3,486.7,439.5,480.8,446z"/>
				</g>
				<g>
					<path class="st9" d="M160.8,435.2c-7.3,1.8-15,3-22.6,3.6c-12.8,0.5-25.4-0.1-38-1.8c1.7-1,2.2-1.9,1.2-3
						c-7.5,5-15.2,10.1-22.6,15c-2.2,1-3.8,0.4-4.7-1.8c27.2-19.1,54.4-38.1,82.1-56.6c2.8,1.3,4,3.1,3.6,5.4
						c-15.9,10.8-31.8,21.7-47.6,32.5c7.6,1.3,15.4,1.9,23.2,1.8c13.4,0.5,26.8-0.7,39.8-3.6c0.8,0.2,1.5,0.4,2.4,0.6
						C171.7,429.5,166.2,432.3,160.8,435.2z"/>
				</g>
				<g>
					<path class="st104" d="M329.8,415.8c0.8-0.1,1.6,0,2.4,0.6c2.4,3.1,4.9,6.1,7.7,9c2.6-2.6,5.1-5.2,7.7-7.8
						c1.3-0.5,2.2,0.1,2.4,1.8c-3.1,4.9-6.8,9.2-11.3,13.2c-4-4.4-7.7-9.1-11.3-13.8C328.5,418,329.2,417.1,329.8,415.8z"/>
				</g>
				<g>
					<path class="st144" d="M443.9,426.6c0-1.6,0.6-2.8,1.7-3.6C446.4,424.8,445.9,426.1,443.9,426.6z"/>
				</g>
				<g>
					<path class="st9" d="M449.9,396.6c-13.3,22.2-28.8,42.6-46.3,61.4c9.1-12.7,18.1-25.5,26.8-38.5c1.2-1.6,1.5-3.1,1.2-4.8
						c-33.1,50.8-75.8,91.1-127.9,120.8c-18.9,10.8-38.9,18.8-59.5,24.1c33.4-11.7,64-28.3,91.6-49.9c36.4-28.7,67.4-62.4,92.8-101
						c-0.1,1.3,0,2.5,0.6,3.6c1.2-1.3,1.9-1,2.4,1.2c1.9-2.2,3.8-4.6,5.3-7.3c1,2.2,2.4,2.9,4.2,2.4c0.7-3.1,2.2-5.9,4.2-8.4
						c-0.2-0.7-0.6-1.3-1.2-1.8C445.8,397.2,447.7,396.6,449.9,396.6z"/>
				</g>
				<g>
					<path class="st145" d="M400,425.5c3.8-0.4,4.9,1,3.6,4.3c-1.5,0.6-3.1,0.8-4.7,0.6C398.6,428.5,399.1,426.9,400,425.5z"/>
				</g>
				<g>
					<path class="st9" d="M498.7,401.4c0.4,2.6-0.4,4.9-2.4,6.6c1.4,2.5,2.4,2.3,3-0.6c0.5,0.7,1.1,1.1,1.7,1.2
						c-6.5,12.7-13.1,25-20.2,37.2c-2.6,5.3-5.9,10.2-10.1,14.4c1-2.2,1.3-4.6,1.2-7.3c-1,1.6-2.4,2.4-4.2,2.4
						C479.6,438.3,489.9,420.4,498.7,401.4z"/>
				</g>
				<g>
					<path class="st146" d="M239.4,426.6c4.3-1,6,0.7,5.3,4.8C239.8,433.4,237.9,431.8,239.4,426.6z"/>
				</g>
				<g>
					<path class="st147" d="M370.2,420.6c-6.8,8.6-14.4,16.9-22.6,24.7c-0.8,0.8-1.5,0.8-2.4,0C353.5,437,361.8,428.7,370.2,420.6z"
						/>
				</g>
				<g>
					<path class="st148" d="M176.3,446c-1.6-0.2-3.2,0-4.7,0.6c4,1.5,7.8,2.9,11.9,4.3c0.2,1.6-0.2,3-1.2,4.3c2.2,2.5,2.9,5.5,2.4,9
						c-1.2,0-2.4,0-3.6,0c-0.1,2.2,0.2,4.3,1.2,6c-4.1,1.7-8.4,2.9-13,3.6c-8.1-3.2-15.6-2.4-22.6,2.4c-1.9,0-4.3-0.4-6.6-1.2
						c-2.4,1.3-4.9,2.2-7.7,2.4c-7.6-0.5-15.4-0.5-23.2,0c-2.2-0.2-4.3-0.4-6.6-0.6c1.2-1.3,0.7-2.5-1.2-3.6c-3.5,0-6.2-1-8.3-3
						c26.5,3.4,52.2,0.8,77.3-7.8c-30.3,2-60.5,0.2-90.4-5.4c-0.8,0.1-1.6,0-2.4-0.6c1-1.8,2.4-3.2,4.2-4.3c3.2,0.4,6.6,0.4,10.1,0
						c0-1.6,0-3.2,0-4.8c4.6,0,6.8-2.4,6.6-7.3c0.7-0.6,1.4-1.1,2.4-1.2c7.3,1.8,15,2.6,22.6,2.4c5.4,0,10.3-0.8,14.9-2.4
						c7.6-0.6,15.3-1.8,22.6-3.6c3,0.1,5.8-0.7,8.3-2.4c4.3,0.2,8.7,0.7,13,1.2c0.8,0.8,1.5,1.6,2.4,2.4c-2.8,1.6-5.4,3-8.3,4.3
						C175.4,442,175.4,443.8,176.3,446z"/>
				</g>
				<g>
					<path class="st149" d="M443.9,426.6c-1.1,3.5-3.1,6.2-5.9,8.4C439.1,431.7,441.1,428.9,443.9,426.6z"/>
				</g>
				<g>
					<path class="st9" d="M552.2,336.5c-0.2,2,0,4.1,0.6,6c0.4-1.1,1-1.9,1.7-2.4c-10.3,62.2-37.2,115.5-80.9,160.1
						c-0.2-1.5-1.1-2.6-2.4-3.6c4-4.4,7.5-8.6,10.7-13.2c-0.1,0.8,0,1.7,0.6,2.4C519.6,442.6,542.8,392.9,552.2,336.5z"/>
				</g>
				<g>
					<path class="st150" d="M438,435.2c0.1,1.8-0.7,3-2.4,3.6C435.5,437,436.3,435.7,438,435.2z"/>
				</g>
				<g>
					<path class="st48" d="M183.4,450.8c-4.1-1.3-7.9-2.8-11.9-4.3c1.5-0.6,3.1-0.8,4.7-0.6c10.1-2.3,15.5-8.6,16-19.2
						c1,11.8,7.1,18.5,18.5,19.8c-10.1,2.2-16.3,8.4-18.5,18.7C191.5,458.9,188.5,454.1,183.4,450.8z"/>
				</g>
				<g>
					<path class="st9" d="M312,420.6c2.5,2.4,4.8,5,7.2,7.8c-53,49.7-115.7,77-187.9,81.8c-3.7-2.8-7.2-5.8-10.7-9
						C194,497,257.8,470.2,312,420.6z"/>
				</g>
				<g>
					<path class="st151" d="M435.6,438.7c-0.2,2.3-1.4,3.8-3.6,4.8C432.2,441.2,433.5,439.7,435.6,438.7z"/>
				</g>
				<g>
					<path class="st152" d="M432,443.6c-0.6,2.4-1.9,4.4-4.2,6C428,446.8,429.3,444.9,432,443.6z"/>
				</g>
				<g>
					<path class="st153" d="M296.5,452c1.2,0,2.4,0,3.6,0c0.5,2.6-0.4,4.6-2.4,6C295.1,456.4,294.7,454.5,296.5,452z"/>
				</g>
				<g>
					<path class="st154" d="M235.8,458c3-3.1,6.6-4.9,10.7-5.4C243.4,455,239.8,456.8,235.8,458z"/>
				</g>
				<g>
					<path class="st155" d="M119.2,455.6c1.2,0,2.4,0,3.6,0c0,1.2,0,2.4,0,3.6c-1.2,0-2.4,0-3.6,0
						C119.2,458,119.2,456.8,119.2,455.6z"/>
				</g>
				<g>
					<path class="st156" d="M403.5,458c-1.1,2.9-2.9,5.3-5.3,7.3C398.6,462.1,400.4,459.7,403.5,458z"/>
				</g>
				<g>
					<path class="st157" d="M558.2,266.7c1.3-0.1,2.5,0,3.6,0.6c-3.1,2-3.1,4.4,0,6.6c-1.1,20.4-2.2,40.9-3,61.4
						c0.6-4,2.4-7.3,5.3-9.6c-5.4,43.3-19.1,83.8-41,121.5c-11.4,16.9-23.6,33.4-36.2,49.3c-2.4,3-4.8,5.8-7.7,8.4
						c-1.2-1.3-1.9-3-2.4-4.8c-1,1.6-2.4,2.4-4.2,2.4c0.4-0.8,0.8-1.6,1.2-2.4c43.7-44.5,70.5-97.8,80.9-160.1
						C559.2,315.9,560.3,291.3,558.2,266.7z"/>
				</g>
				<g>
					<path class="st158" d="M319,467.6c1.3-2.8,3.2-4.1,5.9-4.3C323.5,465.5,321.5,467.1,319,467.6z"/>
				</g>
				<g>
					<path class="st9" d="M79.9,456.8c29.8,5.6,60.1,7.4,90.4,5.4c-25,8.6-50.9,11.2-77.3,7.8C87.5,467,83.2,462.4,79.9,456.8z"/>
				</g>
				<g>
					<path class="st159" d="M319,467.6c-1,2.2-2.5,3.4-4.7,3.6C315.3,469,316.8,467.8,319,467.6z"/>
				</g>
				<g>
					<path class="st48" d="M235.8,458c-20.7,12.7-42.8,21.7-66.6,27.1c-20,4.4-40.2,5.9-60.7,4.8c-3.7-2.4-7-5.4-9.5-9
						c13-1,26.1-1.6,39.2-1.8c10.6-1.2,20.9-3,30.9-5.4c4.6-0.7,9-1.9,13-3.6c1.8,0,3.7-0.5,5.3-1.2c1.8,1.8,3.5,3.7,4.7,6
						c1.1-2.4,2.2-4.8,3-7.3c37.6-16.2,71.7-37.9,102.3-65c1.2,1.6,2.4,3.2,3.6,4.8c-21.1,19.2-44,36-69,49.9
						C233.3,458,234.6,458.1,235.8,458z"/>
				</g>
				<g>
					<path class="st160" d="M314.3,471.2c-0.6,1.7-1.7,2.5-3.6,2.4C311.4,471.9,312.6,471.1,314.3,471.2z"/>
				</g>
				<g>
					<path class="st7" d="M514.2,354.5c-2.3,7.9-4.5,16-6.6,24.1c-3,7.7-5.9,15.4-8.9,22.8c-8.8,18.9-19,36.9-30.9,54.1
						c-18.3,28.3-41.2,52.1-69,71.1c-1.8,1.3-3.8,1.9-5.9,1.8c14-16.9,28.5-33.6,43.4-49.9c23.7-28.6,42.6-60.4,56.5-95
						c3-1.5,4.2-3.8,3.6-7.3c4.5-15.5,9.3-30.6,14.3-45.6c1.7-1.9,3-4.4,3.6-7.3c1,1.5,1.5,3.1,1.7,4.8c0.1-3.8,1-7.4,2.4-10.8
						C516.7,329.4,515.4,341.8,514.2,354.5z"/>
				</g>
				<g>
					<path class="st161" d="M310.7,473.6c-0.6,1.9-1.7,2.5-3.6,1.8C308,474.2,309.2,473.6,310.7,473.6z"/>
				</g>
				<g>
					<path class="st162" d="M422.6,479.6c1.2,0,2.4,0,3.6,0c0,1.2,0,2.4,0,3.6c-1.2,0-2.4,0-3.6,0
						C422.6,482,422.6,480.9,422.6,479.6z"/>
				</g>
				<g>
					<path class="st48" d="M286.9,480.9c9.4-0.7,11.8,3.1,7.2,11.4c-5.8,2.2-9.4,0.4-10.7-5.4C284.1,484.6,285.3,482.5,286.9,480.9z
						"/>
				</g>
				<g>
					<path class="st163" d="M327.5,496.4c0.4,0,0.8,0,1.2,0c0.1,1.8-0.7,3-2.4,3.6C324.6,498.2,325,496.9,327.5,496.4z"/>
				</g>
				<g>
					<path class="st164" d="M446.4,496.4c1.7,0.4,2.6,1.6,2.4,3.6C445.6,500.2,444.6,499,446.4,496.4z"/>
				</g>
				<g>
					<path class="st9" d="M547.5,334.1c-10,55.4-31.9,105.1-65.4,149.2c-3.2,4.6-6.8,8.9-10.7,13.2c1.3,1,2.2,2.2,2.4,3.6
						c-0.4,0.8-0.8,1.6-1.2,2.4c-26.6,26.5-57.4,45.1-92.8,56c8.1-4.4,15.6-9.4,22.6-15c35.1-24.6,65.4-54.1,91-89
						c24.3-36.8,40.7-77.1,49.3-120.3c1.8-3.1,2.9-6.7,3-10.8c0.6-7.6,0.8-15.4,0.6-22.8c1.2-8.5,1.5-17.4,1.2-26.5
						c2.2-0.4,4.2,0,5.9,1.2c-1.1,1-2.3,1.6-3.6,1.8c1.7,2.6,2.5,5.6,2.4,9c-0.2,4.6-1.3,9-3,13.2
						C548.8,310.8,548.2,322.4,547.5,334.1z"/>
				</g>
				<g>
					<path class="st165" d="M295.4,514.5c4.2,0.7,5.3,2.9,3.6,6.6C294.1,521.3,292.9,519.1,295.4,514.5z"/>
				</g>
				<g>
					<path class="st166" d="M389.2,524.1c-1.3-0.1-2.5-0.5-3.6-1.2c-0.5-2.5,0.6-4.3,3-4.8C392,520.1,392.2,522.1,389.2,524.1z"/>
				</g>
				<g>
					<path class="st167" d="M329.8,561.5c1.2,0,2.4,0,3.6,0c0,1.2,0,2.4,0,3.6c-1.2,0-2.4,0-3.6,0
						C329.8,563.8,329.8,562.7,329.8,561.5z"/>
				</g>
			</g>
			<g>
				<path class="st168" d="M348.8,255.8l-0.3-0.4c-0.1-0.1-0.1-0.2,0-0.2l0.6-0.5c0,0,0-0.1,0-0.2l-0.7-0.8c-0.1-0.1-0.1-0.2,0-0.2
					l1.3-1c0,0,0.1,0,0.2,0.1l1.2,1.5c0.7,0.9,0.8,2,0.2,2.5C350.6,257,349.5,256.7,348.8,255.8z M349.2,254.7c0,0,0,0.1,0,0.2
					l0.3,0.4c0.2,0.3,0.6,0.4,0.8,0.2s0.2-0.5-0.1-0.8l-0.3-0.4c-0.1-0.1-0.1-0.1-0.2-0.1L349.2,254.7z"/>
				<path class="st168" d="M348.3,255.1l-0.7-0.8c-0.1-0.1-0.1-0.1-0.2-0.1l-0.6,0.5c0,0,0,0.1,0,0.2l0.7,0.8
					c0.1,0.1,0.1,0.1,0.2,0.1l0.6-0.5C348.3,255.2,348.3,255.2,348.3,255.1z"/>
				<path class="st168" d="M348.8,256c0-0.1,0.1-0.1,0.2,0l0.6,0.8c0,0,0.1,0.1,0,0.1l-0.2,0.9c0,0.1-0.1,0.1-0.2,0l-0.6-0.8
					c0,0-0.1-0.1,0-0.1L348.8,256z"/>
				<path class="st168" d="M354.2,258c-1-1.2-2.5-1.6-3.3-1c-0.2,0.2-0.4,0.4-0.4,0.7c0,0,0,0.1,0,0.2l0.7,0.8
					c0.1,0.1,0.1,0.1,0.2,0.1l1.1-0.9c0,0,0.1,0,0.2,0.1l1.3,1.6c0.1,0.1,0.1,0.2,0,0.2l-1.1,0.9c0,0-0.1,0-0.2-0.1l-1.3-1.6
					c-0.1-0.1-0.1-0.1-0.2-0.1l-0.6,0.5v0.1c0.1,0.3,0.3,0.7,0.6,1c1,1.2,2.5,1.6,3.3,1S355.2,259.3,354.2,258z"/>
			</g>
			<g>
				<polygon id="polygon5" class="st0" points="364.5,472.2 367.3,469.6 368.6,471 370,469.7 367.7,467.1 364.9,469.7 365.1,464.3 
					363.7,465.5 363.4,471 				"/>
				<polygon id="polygon7" class="st0" points="367,465.1 367.1,462.3 365.7,463.7 				"/>
				<polygon id="polygon9" class="st0" points="368.4,463.8 368.2,466.6 369.6,467.9 371,466.7 369.7,465.2 369.8,462.5 
					368.5,461.1 367.1,462.3 				"/>
				<polygon id="polygon11" class="st0" points="371.1,464 371,466.7 372.4,465.3 				"/>
			</g>
		</g>
	</g>
</g>
</svg>
